<svg version="1.1" id="Layer_1" xmlns="http://www.w3.org/2000/svg" xmlns:xlink="http://www.w3.org/1999/xlink" x="0px" y="0px"
	 width="100%" viewBox="0 0 192 192" enable-background="new 0 0 192 192" xml:space="preserve">
<path fill="#B6FE6D" opacity="1.000000" stroke="none" 
	d="
M70.000000,193.000000 
	C47.016811,193.000000 24.033627,193.000000 1.025219,193.000000 
	C1.025219,129.063599 1.025219,65.127197 1.025219,1.095394 
	C64.889488,1.095394 128.779175,1.095394 193.000000,1.095394 
	C193.000000,49.353725 193.000000,97.708206 192.555603,146.564590 
	C185.111862,147.941559 178.112503,148.816635 171.235535,149.513977 
	C170.974121,149.055222 170.590317,148.774200 170.110870,148.126236 
	C169.380020,147.511368 168.744781,147.263443 167.972260,146.734528 
	C167.250549,146.267944 166.666107,146.082382 166.041077,145.679184 
	C166.000488,145.461548 165.941986,145.022110 165.760681,144.721085 
	C164.664246,144.324097 163.749130,144.228149 162.604675,144.035767 
	C161.755905,144.319519 160.732239,144.582306 160.582260,145.098816 
	C159.566208,148.597855 157.458069,149.950317 153.449173,148.923996 
	C151.491058,148.870468 149.981247,148.635223 148.505356,148.770432 
	C143.797165,149.201828 137.975769,148.194580 134.619095,150.591949 
	C125.714371,156.951752 116.216629,156.889816 106.340645,155.954926 
	C102.846573,155.624176 101.351402,153.165710 102.287735,149.594727 
	C103.024063,149.004501 103.503181,148.428757 104.286606,147.632172 
	C104.806030,147.282623 105.021149,147.153946 105.275284,147.148132 
	C105.314316,147.270966 105.557602,147.182800 105.557602,147.182800 
	C105.557602,147.182800 105.544655,146.923706 105.695099,146.865204 
	C105.845551,146.806686 105.938072,146.497375 106.125412,146.474152 
	C106.562035,146.359390 106.746628,146.195129 107.266670,145.928635 
	C108.150848,145.689514 108.634888,145.479889 109.277802,145.338074 
	C109.689995,145.359024 109.856171,145.212936 109.953979,144.988281 
	C109.972763,145.008926 109.975945,144.953201 110.333008,144.933167 
	C113.153442,143.725021 115.616821,142.536911 118.435074,141.303329 
	C119.888611,140.908218 120.987259,140.558578 122.415611,140.144104 
	C123.659111,139.445511 124.572899,138.811752 125.797737,138.094238 
	C127.730560,136.649460 129.352341,135.288452 131.217651,133.704529 
	C133.036575,132.327957 134.611954,131.174271 136.251740,129.954803 
	C136.316147,129.889008 136.272949,129.710022 136.521317,129.499603 
	C136.895432,128.877151 137.021164,128.465118 137.099670,128.054688 
	C137.052414,128.056259 137.074265,128.148270 137.388580,128.024750 
	C138.872345,126.630562 140.041794,125.359894 141.569794,124.078522 
	C142.631302,123.944351 143.334290,123.820900 144.390854,123.750946 
	C145.426697,123.631691 146.108963,123.458931 147.146927,123.417191 
	C149.002548,123.335793 150.502441,123.123367 152.258026,122.939819 
	C152.667755,122.893311 152.821823,122.817917 153.373352,122.752106 
	C156.186310,122.432655 158.601837,122.103607 161.216614,121.944611 
	C161.590515,122.115631 161.765137,122.116592 161.954895,122.070145 
	C161.970032,122.022736 161.893646,122.086540 162.040619,122.308182 
	C162.760361,122.341682 163.333130,122.153557 164.230133,121.769447 
	C165.402267,119.335182 166.402206,117.031784 162.270935,116.553940 
	C161.127090,116.452713 160.230759,116.617699 158.945740,116.735199 
	C155.703049,117.162292 152.849030,117.636871 149.743439,118.073715 
	C149.334229,118.098526 149.176605,118.161072 148.642334,118.185814 
	C146.618179,117.372009 143.941483,121.350624 143.351562,116.822823 
	C144.660187,112.246597 146.943710,107.719940 146.447174,103.522133 
	C145.275879,93.619843 143.096390,83.796165 140.701218,74.094620 
	C139.275436,68.319595 136.476273,62.994011 129.947678,60.630291 
	C125.282600,57.262463 120.799377,54.086594 116.118385,51.235420 
	C114.314331,50.136581 112.060753,49.775772 109.694626,48.928047 
	C107.242378,48.454926 105.107491,48.132458 102.582962,47.721828 
	C100.127472,47.432278 98.061607,47.230888 95.785461,46.800308 
	C93.687683,42.785690 91.201218,45.537266 88.548920,45.929913 
	C86.806190,46.339306 85.442497,46.780834 83.804504,47.183491 
	C83.348854,47.109680 83.167496,47.074738 82.900269,46.811043 
	C82.622749,46.305523 82.370308,46.105469 82.011276,45.699013 
	C81.658707,45.230274 81.351944,45.044651 80.789047,44.608604 
	C79.592949,44.518764 78.652962,44.679344 77.520836,44.695480 
	C76.912056,44.707241 76.495415,44.863445 75.725586,45.096855 
	C63.504204,50.108269 53.326332,57.214733 45.765877,68.179085 
	C45.084511,69.231094 44.658730,70.117340 44.012238,71.238144 
	C42.844349,72.610497 41.897171,73.748306 40.710274,74.970650 
	C40.394760,75.360115 40.318974,75.665039 40.044762,76.322159 
	C39.545013,78.925049 39.243687,81.175743 38.802235,83.793526 
	C38.637638,85.711990 38.613171,87.263367 38.418015,89.187607 
	C38.178368,90.372215 38.109409,91.183952 37.910141,92.231438 
	C37.862095,93.306488 37.944355,94.145790 38.029472,95.454041 
	C38.082748,101.282188 38.133163,106.641388 38.017448,112.280022 
	C37.919617,113.257317 37.987919,113.955170 38.056217,114.653023 
	C38.719402,114.418953 39.382587,114.184875 40.291267,114.192230 
	C41.187347,115.349350 41.837929,116.265038 42.566154,117.541290 
	C44.391365,120.676254 46.138927,123.450645 47.958405,126.577759 
	C48.776028,128.137665 49.521740,129.344879 50.156715,130.372818 
	C47.715622,131.681885 45.276295,132.544006 43.468338,134.127151 
	C42.387135,135.073898 41.394447,137.564468 41.896503,138.653961 
	C47.061661,149.862701 52.540688,160.926819 57.972664,172.386383 
	C60.674545,176.826309 63.335976,180.911118 66.075089,185.334076 
	C67.435181,188.114822 68.717590,190.557419 70.000000,193.000000 
M164.002319,110.216492 
	C164.583405,109.384720 165.659210,108.560318 165.671738,107.720062 
	C165.876495,93.991310 166.014206,80.260376 165.977234,66.530449 
	C165.971466,64.392097 165.030533,62.256268 164.495224,60.006630 
	C160.129242,61.950901 156.100174,64.003586 158.907898,67.956215 
	C161.985535,72.288795 160.491699,76.449890 160.539032,80.699432 
	C160.605453,86.663742 159.890854,92.663208 160.327667,98.587379 
	C160.605820,102.359978 162.364243,106.023453 164.002319,110.216492 
z"/>
<path fill="#0F0503" opacity="1.000000" stroke="none" 
	d="
M102.030525,149.609192 
	C101.351402,153.165710 102.846573,155.624176 106.340645,155.954926 
	C116.216629,156.889816 125.714371,156.951752 134.619095,150.591949 
	C137.975769,148.194580 143.797165,149.201828 148.505356,148.770432 
	C149.981247,148.635223 151.491058,148.870468 153.679535,149.123917 
	C154.900467,150.151474 155.427216,150.991241 155.993683,152.176193 
	C156.722183,153.345764 157.410965,154.170166 158.189392,155.195312 
	C158.279022,155.396072 158.406952,155.816757 158.153046,155.945312 
	C156.993713,157.731445 156.088287,159.389053 155.182861,161.046661 
	C155.478226,161.405197 155.773590,161.763733 156.068954,162.122269 
	C157.053619,161.402573 158.038284,160.682892 159.236649,160.023804 
	C159.450333,160.084396 159.884308,160.180359 160.007050,160.398682 
	C160.418457,160.784561 160.707108,160.952118 160.833267,161.446747 
	C160.942001,162.810837 161.213211,163.847855 161.484436,164.884888 
	C163.360168,164.192596 165.235901,163.500320 167.466278,162.827881 
	C168.885834,163.283234 169.950745,163.718735 171.171844,164.344635 
	C171.880096,164.410217 172.432159,164.285416 173.396500,164.097198 
	C176.188797,163.645401 178.568848,163.257034 181.158539,163.143738 
	C182.580368,162.988907 183.792542,162.559021 185.302063,161.974457 
	C186.039276,161.812546 186.479126,161.805328 187.168274,162.108459 
	C189.278381,162.612564 191.139191,162.806290 193.000000,163.000000 
	C193.000000,164.066666 193.000000,165.133347 192.687775,166.426041 
	C191.900391,166.656235 191.425217,166.660400 190.774414,166.501282 
	C190.069412,166.522736 189.540054,166.707474 188.693756,167.002838 
	C187.493958,167.180161 186.611145,167.246872 185.416061,167.276459 
	C184.742691,167.428787 184.381592,167.618240 183.632584,167.932373 
	C180.047028,168.444107 176.849380,168.831161 173.355927,169.202164 
	C172.717957,169.363174 172.375763,169.540222 171.705963,169.829376 
	C170.920029,169.939529 170.461670,169.937576 169.987518,169.562744 
	C168.168961,168.560532 166.366211,167.931183 164.563461,167.301849 
	C164.426422,167.724686 164.289383,168.147537 164.152328,168.570389 
	C164.904190,169.171875 165.656036,169.773361 166.369186,170.377151 
	C166.330490,170.379456 166.264465,170.338806 166.051819,170.273117 
	C165.520828,170.206436 165.260712,170.329010 164.735809,170.711212 
	C164.412735,173.075317 164.412735,175.303375 164.412735,177.656128 
	C158.389694,178.443863 151.984177,179.281631 144.950912,180.201492 
	C150.581543,183.272079 155.619781,185.859406 160.475403,188.753143 
	C162.210876,189.787415 163.504639,191.562851 165.000000,193.000000 
	C161.638718,193.000000 158.277420,193.000000 154.335114,192.677216 
	C147.117325,188.715683 140.489151,185.060959 133.827469,181.468414 
	C133.293747,181.180573 132.527069,181.253632 131.872009,181.272949 
	C126.233231,181.439301 120.595207,181.631866 114.745514,181.604736 
	C114.006027,181.971802 113.477997,182.550735 112.949974,183.129669 
	C115.514565,184.830215 118.079155,186.530762 120.995934,188.345505 
	C121.559532,188.332275 121.770927,188.204865 121.990952,188.045273 
	C121.999580,188.013092 121.936050,188.033203 121.876770,188.357422 
	C122.203186,188.810699 122.588882,188.939743 122.986465,189.038712 
	C122.998344,189.008636 122.935501,189.023895 122.933960,189.332245 
	C123.279953,189.781448 123.627480,189.922302 123.966583,190.033203 
	C123.958153,190.003250 123.903671,190.033127 123.811600,190.356979 
	C124.146347,191.453888 124.573174,192.226944 125.000000,193.000000 
	C122.629440,193.000000 120.258888,193.000000 117.227852,192.741562 
	C111.179955,188.224167 105.792534,183.965195 100.082268,179.451019 
	C100.082268,181.050720 99.860802,182.817383 100.131798,184.504959 
	C100.590744,187.362930 101.360756,190.170975 102.000000,193.000000 
	C100.611107,193.000000 99.222221,193.000000 97.368385,192.536285 
	C96.750183,185.049042 96.596924,178.025497 96.644691,170.765167 
	C97.102692,169.518082 97.359680,168.507828 97.686577,167.222717 
	C91.511276,169.474625 88.958733,172.936447 88.959106,178.624680 
	C88.959427,183.416458 88.985390,188.208221 89.000000,193.000000 
	C87.933327,193.000000 86.866661,193.000000 85.297028,192.558807 
	C84.614021,189.139557 84.555328,186.148315 84.232674,183.185806 
	C82.914558,171.083588 86.329842,165.211792 98.071228,159.930328 
	C98.347466,159.654877 98.442390,159.377991 98.438232,158.757812 
	C98.301147,157.941132 98.263145,157.467743 98.472557,156.834259 
	C99.986275,153.773819 98.642632,152.490250 95.923134,152.062561 
	C95.968056,152.038284 95.922806,152.129837 95.854744,151.876770 
	C95.511261,151.421280 95.235840,151.218872 94.737823,150.935104 
	C94.225777,150.686646 94.035477,150.442322 93.915939,149.758179 
	C92.672783,145.369400 89.996902,147.947906 87.579620,148.172302 
	C86.903725,148.367294 86.514114,148.453415 85.990952,148.168579 
	C84.717323,145.077301 79.146576,146.937515 80.374214,142.122910 
	C82.156952,142.378799 83.577682,142.655441 85.073273,143.301300 
	C86.810410,143.625473 88.472702,143.580429 90.542252,143.607300 
	C92.302994,143.800720 93.656479,143.922211 95.014229,144.399109 
	C96.422264,146.294601 97.826027,147.834671 99.782265,149.980881 
	C100.325394,147.110855 100.682472,145.223953 101.401184,143.205460 
	C104.465210,141.927017 107.167618,140.780167 109.910423,140.075470 
	C109.959198,141.996124 109.967575,143.474670 109.975945,144.953201 
	C109.975945,144.953201 109.972763,145.008926 109.802025,144.986511 
	C109.421684,145.001190 109.250893,145.103256 109.118927,145.270279 
	C108.634888,145.479889 108.150848,145.689514 107.082077,145.958649 
	C106.253929,146.111404 106.067505,146.271133 105.938072,146.497375 
	C105.938072,146.497375 105.845551,146.806686 105.637741,146.856201 
	C105.429939,146.905701 105.236259,147.025284 105.236259,147.025284 
	C105.021149,147.153946 104.806030,147.282623 104.076942,147.712555 
	C103.052147,148.545578 102.541336,149.077377 102.030525,149.609192 
M140.319687,155.103882 
	C137.883774,156.058395 135.447876,157.012894 132.259903,157.870316 
	C128.692139,158.605209 127.869385,161.315887 126.957748,164.743256 
	C129.953491,164.099411 132.344788,163.731018 134.639160,163.040604 
	C136.139053,162.589249 137.498444,161.671021 139.771744,161.004272 
	C141.190765,160.992218 142.609772,160.980179 144.836838,161.043457 
	C151.519547,159.997162 151.783646,159.681747 150.240097,154.566666 
	C147.191055,154.762558 144.137314,154.958755 140.319687,155.103882 
M132.690430,169.967896 
	C130.391068,169.688614 128.087341,169.145111 125.793198,169.182831 
	C120.331337,169.272552 115.219704,168.510391 110.801483,164.928802 
	C109.526665,163.895370 108.018227,162.985062 106.466438,162.514816 
	C105.381752,162.186111 103.653862,162.286041 102.928192,162.962021 
	C102.256332,163.587860 101.966927,165.702377 102.497574,166.344742 
	C104.298157,168.524368 106.269264,171.552277 108.656105,172.079605 
	C117.010315,173.925323 125.545525,175.690231 134.050476,175.896164 
	C141.720551,176.081879 149.441116,174.182358 157.400421,173.169250 
	C155.899338,167.471115 152.533676,167.502777 148.862213,168.019775 
	C143.776901,168.735855 138.681152,169.377884 132.690430,169.967896 
z"/>
<path fill="#B4F76B" opacity="1.000000" stroke="none" 
	d="
M98.225136,156.994354 
	C98.263145,157.467743 98.301147,157.941132 98.250687,158.944473 
	C98.071449,159.625931 97.980690,159.777420 97.889923,159.928909 
	C86.329842,165.211792 82.914558,171.083588 84.232674,183.185806 
	C84.555328,186.148315 84.614021,189.139557 84.897034,192.558807 
	C84.555557,193.000000 84.111107,193.000000 83.421860,192.633774 
	C80.578110,187.737610 77.945244,183.226685 75.391747,178.671249 
	C73.591217,175.459122 71.898438,172.186600 70.146057,168.586731 
	C69.202072,166.436203 68.269577,164.639984 67.316162,162.502213 
	C66.725456,160.727905 66.155663,159.295181 65.555710,157.594696 
	C65.390221,157.208557 65.254890,157.090179 65.110680,156.644974 
	C64.728401,155.547379 64.354996,154.776596 63.971115,153.639893 
	C61.678909,147.871536 59.397179,142.469116 57.464680,137.019211 
	C58.499424,137.093796 59.184933,137.215866 60.011665,137.559906 
	C60.773045,138.067947 61.393200,138.354019 62.290989,138.879456 
	C66.266449,141.073486 69.964272,143.028137 73.771843,145.298981 
	C77.962555,146.589966 82.043533,147.564743 86.124504,148.539520 
	C86.514114,148.453415 86.903725,148.367294 87.859695,148.390839 
	C90.265480,149.040573 92.104912,149.580673 93.944351,150.120773 
	C94.035477,150.442322 94.225777,150.686646 94.808983,151.191162 
	C95.376083,151.729004 95.649445,151.929428 95.922806,152.129837 
	C95.922806,152.129837 95.968056,152.038284 95.979187,152.399872 
	C96.735252,154.172440 97.480194,155.583389 98.225136,156.994354 
z"/>
<path fill="#B4F76B" opacity="1.000000" stroke="none" 
	d="
M185.728317,167.313599 
	C186.611145,167.246872 187.493958,167.180161 189.023590,167.051025 
	C190.096954,166.880585 190.523499,166.772583 190.950058,166.664566 
	C191.425217,166.660400 191.900391,166.656235 192.687775,166.826035 
	C193.000000,175.595825 193.000000,184.191650 193.000000,193.000000 
	C183.980209,193.000000 174.958771,193.000000 165.468658,193.000000 
	C163.504639,191.562851 162.210876,189.787415 160.475403,188.753143 
	C155.619781,185.859406 150.581543,183.272079 144.950912,180.201492 
	C151.984177,179.281631 158.389694,178.443863 164.412735,177.656128 
	C164.412735,175.303375 164.412735,173.075317 164.951477,170.781708 
	C165.832016,170.762100 166.090088,170.636322 166.264465,170.338806 
	C166.264465,170.338806 166.330490,170.379456 166.727020,170.439819 
	C168.083481,170.311996 169.043411,170.123810 170.003326,169.935623 
	C170.461670,169.937576 170.920029,169.939529 172.006439,169.870087 
	C172.973587,169.605194 173.312653,169.411697 173.651718,169.218201 
	C176.849380,168.831161 180.047028,168.444107 183.946808,167.973236 
	C185.008713,167.697464 185.368515,167.505524 185.728317,167.313599 
z"/>
<path fill="#080B06" opacity="1.000000" stroke="none" 
	d="
M65.585876,157.862442 
	C66.155663,159.295181 66.725456,160.727905 67.003571,162.727005 
	C66.852356,165.942444 66.992813,168.591537 67.150055,171.557327 
	C68.561180,170.329742 69.359352,169.635376 70.157532,168.941040 
	C71.898438,172.186600 73.591217,175.459122 75.391747,178.671249 
	C77.945244,183.226685 80.578110,187.737610 83.088531,192.633774 
	C78.975456,193.000000 74.950912,193.000000 70.463188,193.000000 
	C68.717590,190.557419 67.435181,188.114822 66.105507,184.972473 
	C68.323875,179.417847 62.914097,177.625275 61.985016,173.700928 
	C61.997410,172.892105 62.003429,172.429916 62.347134,171.961426 
	C63.089191,171.171021 64.033340,170.029663 63.795616,169.670486 
	C63.112103,168.637695 61.950821,167.921127 60.984509,166.808289 
	C60.995762,166.354889 60.999775,166.173523 61.311958,166.122742 
	C62.597744,165.378830 63.575363,164.504333 65.245987,163.009949 
	C62.427402,162.449341 61.216297,162.208466 60.005821,161.644318 
	C60.006142,160.890076 60.005840,160.459091 60.216709,159.767120 
	C61.623413,159.005508 62.818951,158.504898 64.408371,157.980225 
	C65.063454,157.924942 65.324669,157.893692 65.585876,157.862442 
z"/>
<path fill="#BA0203" opacity="1.000000" stroke="none" 
	d="
M114.956963,181.816605 
	C120.595207,181.631866 126.233231,181.439301 131.872009,181.272949 
	C132.527069,181.253632 133.293747,181.180573 133.827469,181.468414 
	C140.489151,185.060959 147.117325,188.715683 153.877045,192.677216 
	C144.645767,193.000000 135.291550,193.000000 125.468658,193.000000 
	C124.573174,192.226944 124.146347,191.453888 124.145645,190.467361 
	C127.064056,190.572281 129.556351,190.890671 132.628052,191.283081 
	C129.163315,188.826431 126.604431,186.987808 124.013123,185.196091 
	C123.520248,184.855286 122.909004,184.672607 122.335213,184.464188 
	C119.879295,183.572037 117.416962,182.697525 114.956963,181.816605 
z"/>
<path fill="#B0F169" opacity="1.000000" stroke="none" 
	d="
M180.948883,162.868683 
	C178.568848,163.257034 176.188797,163.645401 173.070709,164.023834 
	C171.893677,164.060684 171.454666,164.107468 171.015671,164.154236 
	C169.950745,163.718735 168.885834,163.283234 167.632538,162.582184 
	C168.029175,161.903885 168.614182,161.491150 169.491714,160.917877 
	C169.883102,159.874664 169.981949,158.992004 170.360870,157.894943 
	C170.831802,156.821548 171.022659,155.962555 171.656494,155.089447 
	C179.066299,154.383575 186.033157,153.691788 193.000000,153.000000 
	C193.000000,155.370560 193.000000,157.741104 192.609100,160.481796 
	C190.451797,161.167313 188.685394,161.482712 186.918991,161.798096 
	C186.479126,161.805328 186.039276,161.812546 184.950348,161.911896 
	C183.183823,162.292236 182.066345,162.580460 180.948883,162.868683 
z"/>
<path fill="#11180B" opacity="1.000000" stroke="none" 
	d="
M193.000000,152.571533 
	C186.033157,153.691788 179.066299,154.383575 171.418549,155.058472 
	C170.737640,155.041595 170.257996,155.043777 170.275620,154.694031 
	C170.276581,153.880707 170.259918,153.417130 170.323471,152.768646 
	C170.403687,152.583740 170.459213,152.184464 170.584167,152.019073 
	C170.563828,151.502304 170.418549,151.150940 170.292572,150.605530 
	C170.578964,150.171555 170.846054,149.931625 171.113144,149.691696 
	C178.112503,148.816635 185.111862,147.941559 192.555603,147.033249 
	C193.000000,148.714355 193.000000,150.428711 193.000000,152.571533 
z"/>
<path fill="#B0EE69" opacity="1.000000" stroke="none" 
	d="
M102.466118,193.000000 
	C101.360756,190.170975 100.590744,187.362930 100.131798,184.504959 
	C99.860802,182.817383 100.082268,181.050720 100.082268,179.451019 
	C105.792534,183.965195 111.179955,188.224167 116.783691,192.741562 
	C112.310745,193.000000 107.621490,193.000000 102.466118,193.000000 
z"/>
<path fill="#7D0304" opacity="1.000000" stroke="none" 
	d="
M89.333328,193.000000 
	C88.985390,188.208221 88.959427,183.416458 88.959106,178.624680 
	C88.958733,172.936447 91.511276,169.474625 97.686577,167.222717 
	C97.359680,168.507828 97.102692,169.518082 96.302299,170.913544 
	C94.734802,173.724319 93.262024,176.064957 92.783363,178.593765 
	C91.885284,183.338364 91.562218,188.191818 91.000000,193.000000 
	C90.555557,193.000000 90.111107,193.000000 89.333328,193.000000 
z"/>
<path fill="#B70203" opacity="1.000000" stroke="none" 
	d="
M91.428467,193.000000 
	C91.562218,188.191818 91.885284,183.338364 92.783363,178.593765 
	C93.262024,176.064957 94.734802,173.724319 96.101280,171.150360 
	C96.596924,178.025497 96.750183,185.049042 96.951721,192.536285 
	C95.285645,193.000000 93.571281,193.000000 91.428467,193.000000 
z"/>
<path fill="#140D07" opacity="1.000000" stroke="none" 
	d="
M187.168274,162.108459 
	C188.685394,161.482712 190.451797,161.167313 192.609100,160.925964 
	C193.000000,161.444443 193.000000,161.888901 193.000000,162.666672 
	C191.139191,162.806290 189.278381,162.612564 187.168274,162.108459 
z"/>
<path fill="#0A0F07" opacity="1.000000" stroke="none" 
	d="
M62.009445,171.967712 
	C62.003429,172.429916 61.997410,172.892105 61.696075,173.536728 
	C60.244576,173.156509 59.088398,172.593872 57.932220,172.031250 
	C52.540688,160.926819 47.061661,149.862701 41.896503,138.653961 
	C41.394447,137.564468 42.387135,135.073898 43.468338,134.127151 
	C45.276295,132.544006 47.715622,131.681885 50.156715,130.372818 
	C49.521740,129.344879 48.776028,128.137665 48.074615,126.273453 
	C46.746426,122.467941 47.762875,117.724937 42.488510,117.180733 
	C41.837929,116.265038 41.187347,115.349350 40.261250,113.936554 
	C39.385014,112.959839 38.784298,112.480209 38.183582,112.000580 
	C38.133163,106.641388 38.082748,101.282188 38.301392,95.312759 
	C38.393780,93.800247 38.217113,92.897964 38.040451,91.995689 
	C38.109409,91.183952 38.178368,90.372215 38.556171,88.913094 
	C38.890800,86.652618 38.916580,85.039520 38.942360,83.426430 
	C39.243687,81.175743 39.545013,78.925049 40.223358,76.186119 
	C40.812054,75.468262 40.928593,75.197670 40.949997,74.886108 
	C41.897171,73.748306 42.844349,72.610497 44.315151,71.197159 
	C45.233009,69.952187 45.627235,68.982758 46.021461,68.013321 
	C53.326332,57.214733 63.504204,50.108269 75.932861,45.103790 
	C76.899872,44.968990 77.306427,44.904457 77.712982,44.839928 
	C78.652962,44.679344 79.592949,44.518764 80.885124,44.853477 
	C81.510567,45.559891 81.783821,45.771008 82.057068,45.982124 
	C82.370308,46.105469 82.622749,46.305523 82.960037,47.081409 
	C83.393089,47.804214 83.680496,48.027901 83.978104,48.434731 
	C83.988297,48.617874 84.004730,48.984360 84.002426,49.333340 
	C83.999542,50.147243 83.998970,50.612164 83.771698,51.203064 
	C83.136078,51.595009 82.727150,51.860977 81.742935,52.058197 
	C80.398369,51.883572 79.629112,51.777699 78.829117,51.413296 
	C77.017242,47.792091 75.198166,49.749039 73.081825,51.206825 
	C72.540833,51.842209 72.301315,52.386932 72.069412,52.985027 
	C72.077026,53.038399 71.975380,53.074371 71.617157,53.122471 
	C70.868355,54.464844 70.477768,55.759117 70.046814,57.023941 
	C70.006439,56.994492 70.093964,57.046204 69.806816,57.264408 
	C69.369827,58.662102 69.219986,59.841587 69.045807,61.030632 
	C69.021477,61.040184 69.073952,61.048832 68.792229,61.271111 
	C68.363213,62.669632 68.215919,63.845875 68.040359,65.026794 
	C68.012100,65.031471 68.069458,65.045021 67.776749,65.305405 
	C67.462669,69.012375 67.441315,72.458954 67.671936,75.740631 
	C68.891670,75.362671 69.859428,75.149605 71.255173,74.960022 
	C74.808998,74.981422 77.934837,74.979347 81.378906,75.108253 
	C83.831970,76.663200 85.966789,78.087173 87.734085,79.600723 
	C85.918579,79.788162 84.470604,79.886040 82.744492,79.954224 
	C81.989349,79.645477 81.512321,79.366417 80.762665,78.795670 
	C77.360153,79.049324 74.230270,79.594681 70.858116,80.340347 
	C69.801132,80.714470 68.986427,80.888268 67.733650,81.038322 
	C64.978737,80.803955 61.815163,82.002617 61.942459,77.430161 
	C62.063095,76.390633 62.150902,75.699547 62.544445,74.944366 
	C62.881607,73.914101 62.913029,72.947929 62.948933,71.584290 
	C64.254784,66.143501 65.556152,61.100193 67.028427,55.892944 
	C66.468620,55.826389 65.737907,55.923779 64.840240,56.311241 
	C59.370502,62.388157 54.067715,68.174995 48.480515,73.817139 
	C43.768650,73.462479 45.570137,76.957367 44.956444,79.320343 
	C44.603882,80.066406 44.296806,80.534927 43.627419,81.075256 
	C40.652805,84.686119 40.308914,88.292862 43.089058,92.436951 
	C43.504002,98.206734 43.771542,103.527969 43.879677,109.110176 
	C43.396706,110.262001 43.073135,111.152847 42.749565,112.043694 
	C43.502281,111.695290 44.254993,111.346878 45.220551,111.267891 
	C48.200939,115.146912 50.968483,118.756508 53.560501,122.711548 
	C53.971016,123.685432 54.557053,124.313889 55.381699,125.087067 
	C55.770973,125.760735 55.921635,126.289680 56.041771,127.182571 
	C56.006886,128.033173 56.002533,128.519852 55.750824,128.999817 
	C55.503468,128.993134 55.008556,128.989014 54.953148,128.857880 
	C54.813782,128.681244 54.729824,128.635757 54.645866,128.590256 
	C54.760063,128.729858 54.874252,128.869461 55.079544,129.171204 
	C55.444759,129.222809 55.718872,129.112259 56.343040,128.979858 
	C56.923901,128.920547 57.154705,128.883072 57.570923,128.836395 
	C57.756340,128.827209 57.996151,129.110672 58.063858,129.444916 
	C59.103554,130.186493 60.075546,130.593826 61.266930,131.038635 
	C61.803375,131.190002 61.974747,131.414902 62.122826,132.019073 
	C62.591576,132.444336 62.937935,132.601364 63.186237,132.830566 
	C63.088181,132.902740 63.248623,132.719559 63.229717,133.088593 
	C64.184250,133.938538 65.157684,134.419464 66.083145,134.936340 
	C66.035164,134.972290 66.091698,134.866531 66.094986,135.234085 
	C67.400482,139.505661 70.859192,139.488800 74.021706,139.985687 
	C74.000206,140.000015 74.026726,139.955719 74.010529,140.458145 
	C73.883575,142.301315 73.772835,143.642059 73.662094,144.982788 
	C69.964272,143.028137 66.266449,141.073486 62.285027,138.564056 
	C61.291100,137.785492 60.580772,137.561707 59.870445,137.337921 
	C59.184933,137.215866 58.499424,137.093796 57.201611,136.858398 
	C56.368847,136.184128 56.148388,135.623154 56.059204,134.773407 
	C55.958626,133.786407 55.726776,133.088211 55.494926,132.389999 
	C54.690849,133.271149 53.886776,134.152313 53.017727,135.411224 
	C51.530357,138.983704 52.570320,141.451416 54.381783,144.376160 
	C56.542942,147.865509 57.512188,152.093094 58.740623,156.227905 
	C58.990829,157.645996 59.498184,158.837036 60.005543,160.028091 
	C60.005840,160.459091 60.006142,160.890076 60.042282,161.946289 
	C60.386677,163.711716 60.695236,164.851944 61.003792,165.992157 
	C60.999775,166.173523 60.995762,166.354889 60.737904,167.001678 
	C60.992523,168.967300 61.500984,170.467514 62.009445,171.967712 
z"/>
<path fill="#0A0B0A" opacity="1.000000" stroke="none" 
	d="
M149.995010,118.111450 
	C152.849030,117.636871 155.703049,117.162292 159.476273,116.794296 
	C161.103119,116.873970 161.810776,116.847069 162.518417,116.820160 
	C166.402206,117.031784 165.402267,119.335182 163.893860,121.769745 
	C162.786804,122.006195 162.340225,122.046364 161.893646,122.086533 
	C161.893646,122.086540 161.970032,122.022736 161.917389,121.893646 
	C161.582291,121.767891 161.299835,121.771225 161.017365,121.774559 
	C158.601837,122.103607 156.186310,122.432655 153.261536,122.628769 
	C152.388657,122.388939 152.138687,122.527306 152.002350,122.910934 
	C150.502441,123.123367 149.002548,123.335793 146.917847,123.310242 
	C145.567795,123.280663 144.802536,123.489052 144.037262,123.697449 
	C143.334290,123.820900 142.631302,123.944351 141.217010,124.082375 
	C139.361893,125.447388 138.218079,126.797829 137.074265,128.148270 
	C137.074265,128.148270 137.052414,128.056259 136.823761,128.246750 
	C136.487717,128.861511 136.380341,129.285767 136.272949,129.710022 
	C136.272949,129.710022 136.316147,129.889008 135.875366,129.952393 
	C133.947769,131.319672 132.460938,132.623550 130.974121,133.927429 
	C129.352341,135.288452 127.730560,136.649460 125.396118,138.052582 
	C123.817612,138.799423 122.951759,139.504181 122.085907,140.208939 
	C120.987259,140.558578 119.888611,140.908218 118.417328,140.912140 
	C118.031113,140.044800 118.017548,139.523193 118.215942,138.885254 
	C118.692459,138.569702 118.887520,138.316895 119.312302,137.848877 
	C120.068268,136.711166 120.525040,135.735077 121.173492,134.497314 
	C123.209480,133.076447 125.053780,131.917236 127.102043,131.041534 
	C130.609283,131.969208 131.176666,130.138229 130.817902,127.067589 
	C128.749527,126.509682 126.598572,126.618752 124.600861,126.117332 
	C120.168488,125.004807 115.708527,123.841469 111.497009,122.118904 
	C110.396439,121.668755 110.166138,119.090866 109.536156,117.490189 
	C111.143173,116.995766 112.725296,116.355118 114.368851,116.075439 
	C115.073868,115.955467 116.063972,116.400536 116.656891,116.904053 
	C122.560493,121.917542 128.967834,120.454437 135.310196,118.240318 
	C136.744873,117.739464 137.787689,116.116188 139.267471,114.891495 
	C140.008240,114.481308 140.492401,114.189217 141.010956,114.229782 
	C141.717865,115.382248 142.390411,116.202049 143.062958,117.021851 
	C143.941483,121.350624 146.618179,117.372009 148.747925,118.315704 
	C149.485107,118.359421 149.740051,118.235435 149.995010,118.111450 
M133.423904,125.485001 
	C133.423904,125.485001 133.518768,125.432076 133.423904,125.485001 
z"/>
<path fill="#13190E" opacity="1.000000" stroke="none" 
	d="
M143.351562,116.822823 
	C142.390411,116.202049 141.717865,115.382248 141.062927,113.916222 
	C141.590408,112.402824 142.100281,111.535652 142.829620,110.295235 
	C141.547791,110.159897 140.777328,110.078552 139.981903,109.584061 
	C140.049149,104.778572 140.488022,100.360435 140.163712,95.999062 
	C139.414780,85.927086 137.031250,76.317505 130.953491,67.935181 
	C130.827286,65.506516 130.396484,63.266258 129.983444,61.003506 
	C130.001221,60.981010 130.050598,60.951847 130.050598,60.951847 
	C136.476273,62.994011 139.275436,68.319595 140.701218,74.094620 
	C143.096390,83.796165 145.275879,93.619843 146.447174,103.522133 
	C146.943710,107.719940 144.660187,112.246597 143.351562,116.822823 
z"/>
<path fill="#161E0E" opacity="1.000000" stroke="none" 
	d="
M163.730621,109.976173 
	C162.364243,106.023453 160.605820,102.359978 160.327667,98.587379 
	C159.890854,92.663208 160.605453,86.663742 160.539032,80.699432 
	C160.491699,76.449890 161.985535,72.288795 158.907898,67.956215 
	C156.100174,64.003586 160.129242,61.950901 164.495224,60.006630 
	C165.030533,62.256268 165.971466,64.392097 165.977234,66.530449 
	C166.014206,80.260376 165.876495,93.991310 165.671738,107.720062 
	C165.659210,108.560318 164.583405,109.384720 163.730621,109.976173 
z"/>
<path fill="#11150D" opacity="1.000000" stroke="none" 
	d="
M95.995743,47.029499 
	C98.061607,47.230888 100.127472,47.432278 102.651573,48.088207 
	C105.332962,49.720383 107.416039,52.702038 110.011986,49.078705 
	C112.060753,49.775772 114.314331,50.136581 116.118385,51.235420 
	C120.799377,54.086594 125.282600,57.262463 129.947678,60.630291 
	C130.050598,60.951847 130.001221,60.981010 129.529083,60.994602 
	C126.925743,61.061222 124.794548,61.114246 122.360153,61.015598 
	C116.045456,58.176174 110.033936,55.488422 103.948929,52.476505 
	C102.883064,52.230686 101.890694,52.309029 100.647614,52.414085 
	C100.270630,52.329853 100.144363,52.218906 99.893600,51.797073 
	C98.489792,50.305546 97.210472,49.124908 95.937515,47.714886 
	C95.943886,47.485504 95.995743,47.029499 95.995743,47.029499 
z"/>
<path fill="#181F12" opacity="1.000000" stroke="none" 
	d="
M120.981812,134.758972 
	C120.525040,135.735077 120.068268,136.711166 119.093552,137.956909 
	C118.303108,138.424438 118.112556,138.682785 118.003975,139.001587 
	C118.017548,139.523193 118.031113,140.044800 118.062439,140.957596 
	C115.616821,142.536911 113.153442,143.725021 110.333008,144.933167 
	C109.967575,143.474670 109.959198,141.996124 110.084061,139.745758 
	C113.805473,137.568939 117.393646,136.163956 120.981812,134.758972 
z"/>
<path fill="#212F14" opacity="1.000000" stroke="none" 
	d="
M57.972664,172.386383 
	C59.088398,172.593872 60.244576,173.156509 61.689697,173.883362 
	C62.914097,177.625275 68.323875,179.417847 66.027824,184.634308 
	C63.335976,180.911118 60.674545,176.826309 57.972664,172.386383 
z"/>
<path fill="#383923" opacity="1.000000" stroke="none" 
	d="
M155.953949,151.831024 
	C155.427216,150.991241 154.900467,150.151474 154.143372,149.111771 
	C157.458069,149.950317 159.566208,148.597855 160.582260,145.098816 
	C160.732239,144.582306 161.755905,144.319519 162.639069,144.247986 
	C162.902786,144.556641 163.029633,144.968689 162.986420,145.217926 
	C162.955734,145.635315 162.968277,145.803482 162.742432,146.056412 
	C162.267410,146.375687 162.030777,146.610214 161.485260,147.037323 
	C160.851349,147.589615 160.526306,147.949310 160.001190,148.416779 
	C159.427475,149.044830 159.053864,149.565109 158.486053,150.128494 
	C158.291855,150.171616 157.922379,150.319199 157.670288,150.381073 
	C156.930115,150.905640 156.442032,151.368332 155.953949,151.831024 
z"/>
<path fill="#334720" opacity="1.000000" stroke="none" 
	d="
M95.785461,46.800308 
	C95.995743,47.029499 95.943886,47.485504 95.582397,47.772228 
	C93.816696,48.361599 92.412476,48.664246 90.807022,48.728348 
	C89.719604,48.186142 88.833427,47.882484 88.669556,47.826332 
	C88.768913,47.109470 88.848434,46.535759 88.927948,45.962044 
	C91.201218,45.537266 93.687683,42.785690 95.785461,46.800308 
z"/>
<path fill="#1D2712" opacity="1.000000" stroke="none" 
	d="
M88.548920,45.929913 
	C88.848434,46.535759 88.768913,47.109470 88.669556,47.826332 
	C88.833427,47.882484 89.719604,48.186142 90.614639,48.990532 
	C89.730316,50.035851 88.837143,50.580437 87.620880,51.081932 
	C86.864311,51.014709 86.430832,50.990582 85.961349,50.648438 
	C85.285133,49.881733 84.644936,49.433044 84.004730,48.984360 
	C84.004730,48.984360 83.988297,48.617874 84.024368,48.178566 
	C84.066566,47.566963 84.072685,47.394665 84.078804,47.222363 
	C85.442497,46.780834 86.806190,46.339306 88.548920,45.929913 
z"/>
<path fill="#12130F" opacity="1.000000" stroke="none" 
	d="
M42.566154,117.541290 
	C47.762875,117.724937 46.746426,122.467941 48.002701,125.920746 
	C46.138927,123.450645 44.391365,120.676254 42.566154,117.541290 
z"/>
<path fill="#29341F" opacity="1.000000" stroke="none" 
	d="
M109.694626,48.928047 
	C107.416039,52.702038 105.332962,49.720383 103.041199,48.176373 
	C105.107491,48.132458 107.242378,48.454926 109.694626,48.928047 
z"/>
<path fill="#D63935" opacity="1.000000" stroke="none" 
	d="
M171.235535,149.513977 
	C170.846054,149.931625 170.578964,150.171555 170.283813,150.959702 
	C170.323593,151.733429 170.391403,151.958954 170.459213,152.184464 
	C170.459213,152.184464 170.403687,152.583740 169.972443,152.811432 
	C168.837997,153.027893 168.134827,153.016693 167.325958,152.727951 
	C167.334976,151.702194 167.449692,150.953949 167.862625,150.073380 
	C168.416702,149.594345 168.672577,149.247635 169.161102,148.916016 
	C169.700836,148.852264 169.971756,148.706299 170.206497,148.493179 
	C170.590317,148.774200 170.974121,149.055222 171.235535,149.513977 
z"/>
<path fill="#13190E" opacity="1.000000" stroke="none" 
	d="
M131.217651,133.704529 
	C132.460938,132.623550 133.947769,131.319672 135.810974,130.018188 
	C134.611954,131.174271 133.036575,132.327957 131.217651,133.704529 
z"/>
<path fill="#13190E" opacity="1.000000" stroke="none" 
	d="
M137.388580,128.024750 
	C138.218079,126.797829 139.361893,125.447388 140.858490,124.093094 
	C140.041794,125.359894 138.872345,126.630562 137.388580,128.024750 
z"/>
<path fill="#12130F" opacity="1.000000" stroke="none" 
	d="
M38.017448,112.280022 
	C38.784298,112.480209 39.385014,112.959839 40.015755,113.695129 
	C39.382587,114.184875 38.719402,114.418953 38.056217,114.653023 
	C37.987919,113.955170 37.919617,113.257317 38.017448,112.280022 
z"/>
<path fill="#12130F" opacity="1.000000" stroke="none" 
	d="
M45.765877,68.179085 
	C45.627235,68.982758 45.233009,69.952187 44.535866,70.962601 
	C44.658730,70.117340 45.084511,69.231094 45.765877,68.179085 
z"/>
<path fill="#12130F" opacity="1.000000" stroke="none" 
	d="
M37.910141,92.231438 
	C38.217113,92.897964 38.393780,93.800247 38.298531,94.843811 
	C37.944355,94.145790 37.862095,93.306488 37.910141,92.231438 
z"/>
<path fill="#641518" opacity="1.000000" stroke="none" 
	d="
M161.794144,146.844727 
	C162.030777,146.610214 162.267410,146.375687 163.131531,146.066162 
	C164.533218,145.959732 165.307449,145.928268 166.081665,145.896820 
	C166.666107,146.082382 167.250549,146.267944 167.948608,146.733627 
	C168.062210,147.013748 168.017868,147.008469 167.571594,147.086823 
	C165.920731,147.112564 164.716141,147.059967 163.226990,146.971832 
	C162.559677,146.905777 162.176910,146.875259 161.794144,146.844727 
z"/>
<path fill="#12130F" opacity="1.000000" stroke="none" 
	d="
M38.802235,83.793526 
	C38.916580,85.039520 38.890800,86.652618 38.726860,88.540222 
	C38.613171,87.263367 38.637638,85.711990 38.802235,83.793526 
z"/>
<path fill="#181F12" opacity="1.000000" stroke="none" 
	d="
M102.287735,149.594727 
	C102.541336,149.077377 103.052147,148.545578 103.772629,147.933395 
	C103.503181,148.428757 103.024063,149.004501 102.287735,149.594727 
z"/>
<path fill="#13190E" opacity="1.000000" stroke="none" 
	d="
M122.415611,140.144104 
	C122.951759,139.504181 123.817612,138.799423 125.085083,138.136322 
	C124.572899,138.811752 123.659111,139.445511 122.415611,140.144104 
z"/>
<path fill="#13190E" opacity="1.000000" stroke="none" 
	d="
M144.390854,123.750946 
	C144.802536,123.489052 145.567795,123.280663 146.562134,123.179214 
	C146.108963,123.458931 145.426697,123.631691 144.390854,123.750946 
z"/>
<path fill="#240207" opacity="1.000000" stroke="none" 
	d="
M170.110870,148.126236 
	C169.971756,148.706299 169.700836,148.852264 169.061523,148.662598 
	C168.492157,147.932205 168.255020,147.470337 168.017883,147.008469 
	C168.017868,147.008469 168.062210,147.013748 168.085876,147.014648 
	C168.744781,147.263443 169.380020,147.511368 170.110870,148.126236 
z"/>
<path fill="#DAD1D5" opacity="1.000000" stroke="none" 
	d="
M163.029633,144.968689 
	C163.029633,144.968689 162.902786,144.556641 162.868408,144.344421 
	C163.749130,144.228149 164.664246,144.324097 165.398529,144.705780 
	C164.488358,144.983887 163.758987,144.976288 163.029633,144.968689 
z"/>
<path fill="#828786" opacity="1.000000" stroke="none" 
	d="
M162.986420,145.217926 
	C163.758987,144.976288 164.488358,144.983887 165.579849,145.006805 
	C165.941986,145.022110 166.000488,145.461548 166.041077,145.679184 
	C165.307449,145.928268 164.533218,145.959732 163.369919,145.981415 
	C162.968277,145.803482 162.955734,145.635315 162.986420,145.217926 
z"/>
<path fill="#12130F" opacity="1.000000" stroke="none" 
	d="
M77.520836,44.695480 
	C77.306427,44.904457 76.899872,44.968990 76.286041,45.026585 
	C76.495415,44.863445 76.912056,44.707241 77.520836,44.695480 
z"/>
<path fill="#13190E" opacity="1.000000" stroke="none" 
	d="
M162.270935,116.553940 
	C161.810776,116.847069 161.103119,116.873970 159.864944,116.841782 
	C160.230759,116.617699 161.127090,116.452713 162.270935,116.553940 
z"/>
<path fill="#13190E" opacity="1.000000" stroke="none" 
	d="
M162.040619,122.308174 
	C162.340225,122.046364 162.786804,122.006195 163.569641,121.965721 
	C163.333130,122.153557 162.760361,122.341682 162.040619,122.308174 
z"/>
<path fill="#181F12" opacity="1.000000" stroke="none" 
	d="
M109.277802,145.338074 
	C109.250893,145.103256 109.421684,145.001190 109.783249,144.965851 
	C109.856171,145.212936 109.689995,145.359024 109.277802,145.338074 
z"/>
<path fill="#181F12" opacity="1.000000" stroke="none" 
	d="
M106.125412,146.474152 
	C106.067505,146.271133 106.253929,146.111404 106.681938,145.988159 
	C106.746628,146.195129 106.562035,146.359390 106.125412,146.474152 
z"/>
<path fill="#12130F" opacity="1.000000" stroke="none" 
	d="
M82.011276,45.699013 
	C81.783821,45.771008 81.510567,45.559891 81.141251,45.103897 
	C81.351944,45.044651 81.658707,45.230274 82.011276,45.699013 
z"/>
<path fill="#12130F" opacity="1.000000" stroke="none" 
	d="
M40.710274,74.970650 
	C40.928593,75.197670 40.812054,75.468262 40.421783,75.833923 
	C40.318974,75.665039 40.394760,75.360115 40.710274,74.970650 
z"/>
<path fill="#181F12" opacity="1.000000" stroke="none" 
	d="
M105.275284,147.148132 
	C105.236259,147.025284 105.429939,146.905701 105.487297,146.914703 
	C105.544655,146.923706 105.557602,147.182800 105.557602,147.182800 
	C105.557602,147.182800 105.314316,147.270966 105.275284,147.148132 
z"/>
<path fill="#334720" opacity="1.000000" stroke="none" 
	d="
M83.804504,47.183491 
	C84.072685,47.394665 84.066566,47.566963 84.014175,47.995422 
	C83.680496,48.027901 83.393089,47.804214 83.045906,47.310162 
	C83.167496,47.074738 83.348854,47.109680 83.804504,47.183491 
z"/>
<path fill="#13190E" opacity="1.000000" stroke="none" 
	d="
M136.521332,129.499603 
	C136.380341,129.285767 136.487717,128.861511 136.871002,128.245178 
	C137.021164,128.465118 136.895432,128.877151 136.521332,129.499603 
z"/>
<path fill="#13190E" opacity="1.000000" stroke="none" 
	d="
M149.743439,118.073715 
	C149.740051,118.235435 149.485107,118.359421 149.124557,118.353508 
	C149.176605,118.161072 149.334229,118.098526 149.743439,118.073715 
z"/>
<path fill="#13190E" opacity="1.000000" stroke="none" 
	d="
M161.216614,121.944611 
	C161.299835,121.771225 161.582291,121.767891 161.902267,121.941055 
	C161.765137,122.116592 161.590515,122.115631 161.216614,121.944611 
z"/>
<path fill="#13190E" opacity="1.000000" stroke="none" 
	d="
M152.258026,122.939819 
	C152.138687,122.527306 152.388657,122.388939 152.864105,122.619179 
	C152.821823,122.817917 152.667755,122.893311 152.258026,122.939819 
z"/>
<path fill="#FAFAFA" opacity="1.000000" stroke="none" 
	d="
M85.997360,50.966454 
	C86.430832,50.990582 86.864311,51.014709 87.814438,51.424278 
	C92.226761,51.909134 96.122421,52.008549 100.018089,52.107964 
	C100.144363,52.218906 100.270630,52.329853 100.912170,52.605431 
	C102.292427,52.780266 103.157425,52.790470 104.022423,52.800671 
	C110.033936,55.488422 116.045456,58.176174 122.503784,61.325607 
	C125.516701,63.899395 128.082794,66.011497 130.648895,68.123596 
	C137.031250,76.317505 139.414780,85.927086 140.163712,95.999062 
	C140.488022,100.360435 140.049149,104.778572 139.775620,109.890678 
	C139.399841,112.076813 139.205368,113.543198 139.010880,115.009583 
	C137.787689,116.116188 136.744873,117.739464 135.310196,118.240318 
	C128.967834,120.454437 122.560493,121.917542 116.656891,116.904053 
	C116.063972,116.400536 115.073868,115.955467 114.368851,116.075439 
	C112.725296,116.355118 111.143173,116.995766 109.536156,117.490189 
	C110.166138,119.090866 110.396439,121.668755 111.497009,122.118904 
	C115.708527,123.841469 120.168488,125.004807 124.600861,126.117332 
	C126.598572,126.618752 128.749527,126.509682 130.537796,127.233566 
	C129.129120,128.779022 128.013611,129.768524 126.898087,130.758026 
	C125.053780,131.917236 123.209480,133.076447 121.173492,134.497314 
	C117.393646,136.163956 113.805473,137.568939 110.043655,139.303619 
	C107.167618,140.780167 104.465210,141.927017 101.007523,143.138031 
	C98.504807,143.482712 96.757385,143.763214 95.009956,144.043716 
	C93.656479,143.922211 92.302994,143.800720 90.224838,143.401260 
	C87.999580,143.059555 86.499001,142.995819 84.998413,142.932098 
	C83.577682,142.655441 82.156952,142.378799 80.070663,141.913101 
	C77.612305,141.134598 75.819519,140.545166 74.026726,139.955719 
	C74.026726,139.955719 74.000206,140.000015 73.911942,139.656433 
	C71.246353,137.830750 68.669029,136.348648 66.091698,134.866531 
	C66.091698,134.866531 66.035164,134.972290 65.964645,134.646713 
	C65.012291,133.787277 64.130455,133.253418 63.248623,132.719559 
	C63.248623,132.719559 63.088181,132.902740 63.069191,132.563705 
	C62.700279,132.066727 62.350357,131.908783 62.000431,131.750839 
	C61.974747,131.414902 61.803375,131.190002 61.140320,130.746826 
	C59.861603,129.981918 58.928875,129.546295 57.996147,129.110672 
	C57.996151,129.110672 57.756340,128.827209 57.464294,128.541962 
	C56.805603,127.777359 56.438953,127.297989 56.072304,126.818626 
	C55.921635,126.289680 55.770973,125.760735 55.373398,124.780884 
	C54.662994,123.675354 54.199509,123.020729 53.736023,122.366104 
	C50.968483,118.756508 48.200939,115.146912 45.243446,110.950485 
	C44.715359,109.858833 44.377220,109.354012 44.039082,108.849197 
	C43.771542,103.527969 43.504002,98.206734 43.175545,92.033180 
	C43.406334,87.788383 43.698032,84.395912 43.989731,81.003441 
	C44.296806,80.534927 44.603882,80.066406 45.239738,79.164970 
	C46.633991,77.141975 47.699459,75.551910 48.764931,73.961838 
	C54.067715,68.174995 59.370502,62.388157 65.148926,56.297489 
	C66.035545,56.014736 66.446533,56.035812 66.857521,56.056885 
	C65.556152,61.100193 64.254784,66.143501 62.705597,71.813431 
	C62.384758,73.296188 62.311733,74.152328 62.238708,75.008469 
	C62.150902,75.699547 62.063095,76.390633 61.623085,77.546844 
	C60.115540,79.825668 58.960201,81.639359 57.778629,83.503082 
	C57.752392,83.553116 57.639450,83.550049 57.258438,83.455795 
	C52.696796,89.514320 52.639160,96.461380 53.300945,103.425903 
	C54.020061,110.993820 57.224327,117.639359 65.009521,119.400879 
	C70.583038,120.661964 76.744682,120.041397 82.549744,119.403427 
	C92.804688,118.276436 96.412209,110.203583 98.082932,101.730644 
	C99.685562,93.603050 98.157501,85.763321 89.899811,80.754440 
	C89.229240,80.186897 88.663933,79.845703 88.091553,79.522667 
	C88.084480,79.540825 88.101608,79.511147 88.101608,79.511147 
	C85.966789,78.087173 83.831970,76.663200 81.324524,74.774475 
	C80.850044,73.871223 80.748184,73.432716 80.762573,72.538857 
	C81.051178,66.100471 81.223526,60.117451 81.590317,53.931141 
	C81.962578,53.194221 82.140404,52.660583 82.318230,52.126949 
	C82.727150,51.860977 83.136078,51.595009 84.102798,51.343285 
	C85.106194,51.227173 85.551773,51.096809 85.997360,50.966454 
M116.010056,93.733948 
	C115.927521,96.715401 116.524559,99.373177 120.311661,98.500587 
	C121.641365,98.194221 123.198257,96.621391 123.607277,95.302940 
	C123.919861,94.295334 122.624359,91.709930 121.981117,91.688148 
	C120.092987,91.624207 118.173386,92.489037 116.010056,93.733948 
M127.111755,94.819839 
	C128.120712,96.261238 129.129684,97.702637 130.138657,99.144043 
	C131.366135,97.926414 133.041183,96.893211 133.648254,95.419922 
	C133.995834,94.576370 132.607239,93.017418 132.000305,91.780556 
	C130.451553,92.556046 128.902786,93.331528 127.111755,94.819839 
z"/>
<path fill="#B10203" opacity="1.000000" stroke="none" 
	d="
M133.140152,170.009766 
	C138.681152,169.377884 143.776901,168.735855 148.862213,168.019775 
	C152.533676,167.502777 155.899338,167.471115 157.400421,173.169250 
	C149.441116,174.182358 141.720551,176.081879 134.050476,175.896164 
	C125.545525,175.690231 117.010315,173.925323 108.656105,172.079605 
	C106.269264,171.552277 104.298157,168.524368 102.497574,166.344742 
	C101.966927,165.702377 102.256332,163.587860 102.928192,162.962021 
	C103.653862,162.286041 105.381752,162.186111 106.466438,162.514816 
	C108.018227,162.985062 109.526665,163.895370 110.801483,164.928802 
	C115.219704,168.510391 120.331337,169.272552 125.793198,169.182831 
	C128.087341,169.145111 130.391068,169.688614 133.140152,170.009766 
z"/>
<path fill="#890404" opacity="1.000000" stroke="none" 
	d="
M114.745514,181.604736 
	C117.416962,182.697525 119.879295,183.572037 122.335213,184.464188 
	C122.909004,184.672607 123.520248,184.855286 124.013123,185.196091 
	C126.604431,186.987808 129.163315,188.826431 132.628052,191.283081 
	C129.556351,190.890671 127.064056,190.572281 124.237717,190.143509 
	C123.903671,190.033127 123.958153,190.003250 123.858040,189.802139 
	C123.483780,189.408646 123.209641,189.216278 122.935501,189.023895 
	C122.935501,189.023895 122.998344,189.008636 122.886955,188.800812 
	C122.495728,188.406403 122.215889,188.219803 121.936050,188.033203 
	C121.936050,188.033203 121.999580,188.013092 121.868813,187.854706 
	C121.373276,187.874649 121.008507,188.052979 120.643738,188.231308 
	C118.079155,186.530762 115.514565,184.830215 112.949974,183.129669 
	C113.477997,182.550735 114.006027,181.971802 114.745514,181.604736 
z"/>
<path fill="#710303" opacity="1.000000" stroke="none" 
	d="
M133.011963,157.967407 
	C135.447876,157.012894 137.883774,156.058395 140.766678,155.482574 
	C143.543152,156.274246 145.872635,156.687210 148.467468,157.147217 
	C147.038345,158.377426 145.533569,159.672775 144.028793,160.968140 
	C142.609772,160.980179 141.190765,160.992218 139.061981,160.861588 
	C137.569656,160.477264 136.787094,160.235611 135.950867,159.866577 
	C135.817764,159.693451 135.738297,159.647720 135.658844,159.601990 
	C135.770630,159.736145 135.882401,159.870316 135.818710,160.229034 
	C134.766144,159.624863 133.889053,158.796127 133.011963,157.967407 
z"/>
<path fill="#181F12" opacity="1.000000" stroke="none" 
	d="
M74.010529,140.458145 
	C75.819519,140.545166 77.612305,141.134598 79.708649,141.933853 
	C79.146576,146.937515 84.717323,145.077301 85.990952,148.168579 
	C82.043533,147.564743 77.962555,146.589966 73.771835,145.298996 
	C73.772835,143.642059 73.883575,142.301315 74.010529,140.458145 
z"/>
<path fill="#790304" opacity="1.000000" stroke="none" 
	d="
M136.004532,159.993973 
	C136.787094,160.235611 137.569656,160.477264 138.636505,160.840408 
	C137.498444,161.671021 136.139053,162.589249 134.639160,163.040604 
	C132.344788,163.731018 129.953491,164.099411 126.957748,164.743256 
	C127.869385,161.315887 128.692139,158.605209 132.635925,157.918854 
	C133.889053,158.796127 134.766144,159.624863 135.821625,160.226791 
	C136.000000,160.000000 136.004532,159.993973 136.004532,159.993973 
z"/>
<path fill="#A40206" opacity="1.000000" stroke="none" 
	d="
M144.432816,161.005798 
	C145.533569,159.672775 147.038345,158.377426 148.467468,157.147217 
	C145.872635,156.687210 143.543152,156.274246 141.148621,155.508118 
	C144.137314,154.958755 147.191055,154.762558 150.240097,154.566666 
	C151.783646,159.681747 151.519547,159.997162 144.432816,161.005798 
z"/>
<path fill="#140D07" opacity="1.000000" stroke="none" 
	d="
M169.199173,161.078400 
	C168.614182,161.491150 168.029175,161.903885 167.277908,162.562332 
	C165.235901,163.500320 163.360168,164.192596 161.484436,164.884888 
	C161.213211,163.847855 160.942001,162.810837 161.266571,161.396698 
	C163.888397,161.007309 165.914413,160.995071 168.256195,160.992798 
	C168.781006,161.027985 168.990082,161.053192 169.199173,161.078400 
z"/>
<path fill="#181F12" opacity="1.000000" stroke="none" 
	d="
M95.014229,144.399109 
	C96.757385,143.763214 98.504807,143.482712 100.645889,143.269638 
	C100.682472,145.223953 100.325394,147.110855 99.782265,149.980881 
	C97.826027,147.834671 96.422264,146.294601 95.014229,144.399109 
z"/>
<path fill="#140D07" opacity="1.000000" stroke="none" 
	d="
M159.022964,159.963196 
	C158.038284,160.682892 157.053619,161.402573 156.068954,162.122269 
	C155.773590,161.763733 155.478226,161.405197 155.182861,161.046661 
	C156.088287,159.389053 156.993713,157.731445 158.386948,155.971130 
	C159.173752,155.977814 159.481140,156.052734 159.868683,156.310638 
	C159.940430,156.528076 160.021957,156.978714 160.006165,157.170654 
	C159.990356,157.362610 159.974304,157.747467 159.684998,157.906189 
	C159.271439,158.697693 159.147202,159.330444 159.022964,159.963196 
z"/>
<path fill="#ABAEAF" opacity="1.000000" stroke="none" 
	d="
M167.940430,160.982819 
	C165.914413,160.995071 163.888397,161.007309 161.429062,161.069611 
	C160.707108,160.952118 160.418457,160.784561 160.163834,160.101074 
	C160.551468,159.317749 160.905075,159.050339 161.653442,158.828094 
	C163.365402,158.867661 164.682571,158.862076 166.357605,158.911804 
	C167.425446,159.059235 168.135422,159.151352 168.773422,159.479004 
	C168.447769,160.137283 168.194092,160.560043 167.940430,160.982819 
z"/>
<path fill="#140D07" opacity="1.000000" stroke="none" 
	d="
M169.987518,169.562744 
	C169.043411,170.123810 168.083481,170.311996 166.765717,170.437500 
	C165.656036,169.773361 164.904190,169.171875 164.152328,168.570389 
	C164.289383,168.147537 164.426422,167.724686 164.563461,167.301849 
	C166.366211,167.931183 168.168961,168.560532 169.987518,169.562744 
z"/>
<path fill="#D72220" opacity="1.000000" stroke="none" 
	d="
M159.796936,156.093185 
	C159.481140,156.052734 159.173752,155.977814 158.640839,155.842590 
	C158.406952,155.816757 158.279022,155.396072 158.241852,154.803528 
	C158.110580,152.913727 158.016479,151.616470 157.922379,150.319199 
	C157.922379,150.319199 158.291855,150.171616 158.736389,150.320679 
	C159.766357,150.659668 160.351807,150.849594 160.937744,151.296310 
	C161.044495,152.539505 161.150787,153.525879 161.083511,154.835358 
	C160.538940,155.470016 160.167938,155.781601 159.796936,156.093185 
z"/>
<path fill="#181F12" opacity="1.000000" stroke="none" 
	d="
M93.915939,149.758179 
	C92.104912,149.580673 90.265480,149.040573 88.145981,148.281952 
	C89.996902,147.947906 92.672783,145.369400 93.915939,149.758179 
z"/>
<path fill="#181F12" opacity="1.000000" stroke="none" 
	d="
M98.472557,156.834259 
	C97.480194,155.583389 96.735252,154.172440 95.934265,152.424164 
	C98.642632,152.490250 99.986275,153.773819 98.472557,156.834259 
z"/>
<path fill="#181F12" opacity="1.000000" stroke="none" 
	d="
M85.073273,143.301300 
	C86.499001,142.995819 87.999580,143.059555 89.817581,143.329346 
	C88.472702,143.580429 86.810410,143.625473 85.073273,143.301300 
z"/>
<path fill="#140D07" opacity="1.000000" stroke="none" 
	d="
M157.670288,150.381073 
	C158.016479,151.616470 158.110580,152.913727 158.152222,154.602783 
	C157.410965,154.170166 156.722183,153.345764 155.993683,152.176193 
	C156.442032,151.368332 156.930115,150.905640 157.670288,150.381073 
z"/>
<path fill="#140D07" opacity="1.000000" stroke="none" 
	d="
M181.158539,163.143738 
	C182.066345,162.580460 183.183823,162.292236 184.653015,162.066574 
	C183.792542,162.559021 182.580368,162.988907 181.158539,163.143738 
z"/>
<path fill="#A09797" opacity="1.000000" stroke="none" 
	d="
M161.258667,158.782928 
	C160.905075,159.050339 160.551468,159.317749 160.041092,159.882751 
	C159.884308,160.180359 159.450333,160.084396 159.236649,160.023804 
	C159.147202,159.330444 159.271439,158.697693 159.945328,158.001099 
	C160.677261,157.966339 160.859558,157.995407 161.039825,158.010712 
	C161.037766,157.996918 161.035416,157.969131 161.086761,158.173859 
	C161.138092,158.378571 161.258667,158.782928 161.258667,158.782928 
z"/>
<path fill="#140D07" opacity="1.000000" stroke="none" 
	d="
M171.171844,164.344635 
	C171.454666,164.107468 171.893677,164.060684 172.658447,164.087265 
	C172.432159,164.285416 171.880096,164.410217 171.171844,164.344635 
z"/>
<path fill="#140D07" opacity="1.000000" stroke="none" 
	d="
M190.774414,166.501282 
	C190.523499,166.772583 190.096954,166.880585 189.340546,166.940399 
	C189.540054,166.707474 190.069412,166.522736 190.774414,166.501282 
z"/>
<path fill="#181F12" opacity="1.000000" stroke="none" 
	d="
M95.854744,151.876770 
	C95.649445,151.929428 95.376083,151.729004 95.031570,151.272522 
	C95.235840,151.218872 95.511261,151.421280 95.854744,151.876770 
z"/>
<path fill="#BA0203" opacity="1.000000" stroke="none" 
	d="
M122.933960,189.332245 
	C123.209641,189.216278 123.483780,189.408646 123.866470,189.832092 
	C123.627480,189.922302 123.279953,189.781448 122.933960,189.332245 
z"/>
<path fill="#BA0203" opacity="1.000000" stroke="none" 
	d="
M121.876770,188.357422 
	C122.215889,188.219803 122.495728,188.406403 122.875076,188.830902 
	C122.588882,188.939743 122.203186,188.810699 121.876770,188.357422 
z"/>
<path fill="#BA0203" opacity="1.000000" stroke="none" 
	d="
M120.995934,188.345505 
	C121.008507,188.052979 121.373276,187.874649 121.860184,187.886902 
	C121.770927,188.204865 121.559532,188.332275 120.995934,188.345505 
z"/>
<path fill="#140D07" opacity="1.000000" stroke="none" 
	d="
M166.051819,170.273117 
	C166.090088,170.636322 165.832016,170.762100 165.274551,170.645645 
	C165.260712,170.329010 165.520828,170.206436 166.051819,170.273117 
z"/>
<path fill="#140D07" opacity="1.000000" stroke="none" 
	d="
M173.355927,169.202164 
	C173.312653,169.411697 172.973587,169.605194 172.334030,169.757965 
	C172.375763,169.540222 172.717957,169.363174 173.355927,169.202164 
z"/>
<path fill="#140D07" opacity="1.000000" stroke="none" 
	d="
M185.416061,167.276459 
	C185.368515,167.505524 185.008713,167.697464 184.334686,167.848541 
	C184.381592,167.618240 184.742691,167.428787 185.416061,167.276459 
z"/>
<path fill="#181F12" opacity="1.000000" stroke="none" 
	d="
M98.071228,159.930328 
	C97.980690,159.777420 98.071449,159.625931 98.349762,159.287766 
	C98.442390,159.377991 98.347466,159.654877 98.071228,159.930328 
z"/>
<path fill="#232F16" opacity="1.000000" stroke="none" 
	d="
M55.927933,135.062195 
	C56.148388,135.623154 56.368847,136.184128 56.852375,136.905884 
	C59.397179,142.469116 61.678909,147.871536 63.653984,153.614960 
	C62.569157,153.631805 61.790989,153.307648 60.954861,152.852463 
	C60.810993,152.676971 60.725094,152.632523 60.639194,152.588074 
	C60.753445,152.730164 60.867695,152.872238 61.009636,153.338348 
	C61.190304,154.537704 61.343285,155.413055 61.496265,156.288391 
	C60.663433,156.192566 59.830601,156.096725 58.997772,156.000885 
	C57.512188,152.093094 56.542942,147.865509 54.381783,144.376160 
	C52.570320,141.451416 51.530357,138.983704 53.252151,135.306061 
	C54.343674,134.902817 55.135803,134.982513 55.927933,135.062195 
z"/>
<path fill="#12190D" opacity="1.000000" stroke="none" 
	d="
M61.012825,152.983490 
	C61.790989,153.307648 62.569157,153.631805 63.664459,153.980896 
	C64.354996,154.776596 64.728401,155.547379 64.878143,156.760986 
	C64.441154,157.470642 64.227814,157.737457 64.014481,158.004272 
	C62.818951,158.504898 61.623413,159.005508 60.216709,159.767120 
	C59.498184,158.837036 58.990829,157.645996 58.740623,156.227905 
	C59.830601,156.096725 60.663433,156.192566 61.496265,156.288391 
	C61.343285,155.413055 61.190304,154.537704 61.018295,153.331421 
	C60.999268,153.000458 61.012829,152.983475 61.012825,152.983490 
z"/>
<path fill="#0A0F07" opacity="1.000000" stroke="none" 
	d="
M70.146049,168.586716 
	C69.359352,169.635376 68.561180,170.329742 67.150055,171.557327 
	C66.992813,168.591537 66.852356,165.942444 67.024490,163.068573 
	C68.269577,164.639984 69.202072,166.436203 70.146049,168.586716 
z"/>
<path fill="#12130F" opacity="1.000000" stroke="none" 
	d="
M60.011665,137.559906 
	C60.580772,137.561707 61.291100,137.785492 62.007393,138.324677 
	C61.393200,138.354019 60.773045,138.067947 60.011665,137.559906 
z"/>
<path fill="#0A0F07" opacity="1.000000" stroke="none" 
	d="
M64.408363,157.980225 
	C64.227814,157.737457 64.441154,157.470642 64.887024,157.087830 
	C65.254890,157.090179 65.390221,157.208557 65.555710,157.594696 
	C65.324669,157.893692 65.063454,157.924942 64.408363,157.980225 
z"/>
<path fill="#12190D" opacity="1.000000" stroke="none" 
	d="
M61.311958,166.122742 
	C60.695236,164.851944 60.386677,163.711716 60.041656,162.269531 
	C61.216297,162.208466 62.427402,162.449341 65.245987,163.009949 
	C63.575363,164.504333 62.597744,165.378830 61.311958,166.122742 
z"/>
<path fill="#212F14" opacity="1.000000" stroke="none" 
	d="
M62.347134,171.961426 
	C61.500984,170.467514 60.992523,168.967300 60.730663,167.273712 
	C61.950821,167.921127 63.112103,168.637695 63.795616,169.670486 
	C64.033340,170.029663 63.089191,171.171021 62.347134,171.961426 
z"/>
<path fill="#030401" opacity="1.000000" stroke="none" 
	d="
M168.256180,160.992798 
	C168.194092,160.560043 168.447769,160.137283 168.828110,159.130127 
	C169.027496,158.082260 169.100189,157.618774 169.375244,157.256073 
	C169.767975,157.592560 169.935699,157.843384 170.080811,158.109329 
	C169.981949,158.992004 169.883102,159.874664 169.491714,160.917877 
	C168.990082,161.053192 168.781006,161.027985 168.256180,160.992798 
z"/>
<path fill="#372D1B" opacity="1.000000" stroke="none" 
	d="
M170.360870,157.894943 
	C169.935699,157.843384 169.767975,157.592560 169.314453,157.192566 
	C169.051285,157.028259 168.950623,156.884079 168.987488,156.729462 
	C169.024338,156.574829 169.108795,156.267838 169.347076,156.112366 
	C169.809570,155.652527 170.033783,155.348145 170.257996,155.043762 
	C170.257996,155.043777 170.737640,155.041595 170.975586,155.072571 
	C171.022659,155.962555 170.831802,156.821548 170.360870,157.894943 
z"/>
<path fill="#DF201F" opacity="1.000000" stroke="none" 
	d="
M170.275604,154.694031 
	C170.033783,155.348145 169.809570,155.652527 169.307373,155.844254 
	C168.791946,155.483994 168.554489,155.236374 168.134338,154.757812 
	C167.652191,154.030228 167.352753,153.533600 167.150665,153.062454 
	C167.248032,153.087936 167.431641,153.005478 167.431641,153.005478 
	C168.134827,153.016693 168.837997,153.027893 169.892212,152.996323 
	C170.259918,153.417130 170.276581,153.880707 170.275604,154.694031 
z"/>
<path fill="#710303" opacity="1.000000" stroke="none" 
	d="
M170.584167,152.019073 
	C170.391403,151.958954 170.323593,151.733429 170.264511,151.153748 
	C170.418549,151.150940 170.563828,151.502304 170.584167,152.019073 
z"/>
<path fill="#F50306" opacity="1.000000" stroke="none" 
	d="
M81.035301,79.087364 
	C81.512321,79.366417 81.989349,79.645477 82.917595,80.224884 
	C84.530121,81.404633 85.691422,82.284027 87.034653,83.452415 
	C89.222900,88.534035 92.339714,93.178139 93.004646,98.150146 
	C94.394623,108.543457 86.570671,116.146492 77.336182,114.147278 
	C75.142929,114.258278 73.195107,114.818138 71.383141,114.528381 
	C69.712204,114.261177 66.638748,114.519554 68.255051,110.893799 
	C69.015976,110.515587 69.516869,110.250420 70.444870,109.984993 
	C73.681633,109.776085 77.079010,111.045319 78.411453,107.070374 
	C79.218819,104.661827 74.977409,94.802834 72.596451,93.899277 
	C71.476105,93.474121 70.050919,93.380836 68.885056,93.654137 
	C66.990234,94.098312 65.228027,95.085670 63.344933,95.611137 
	C62.270161,95.911057 60.572411,96.229340 60.041138,95.680969 
	C59.305313,94.921486 59.035049,93.293472 59.224503,92.146194 
	C59.566967,90.072334 60.397163,88.079010 61.190155,85.759689 
	C63.628307,83.998894 65.900017,82.530479 68.171722,81.062073 
	C68.986427,80.888268 69.801132,80.714470 71.262039,80.300079 
	C74.950592,79.735443 77.992950,79.411407 81.035301,79.087364 
z"/>
<path fill="#12130F" opacity="1.000000" stroke="none" 
	d="
M67.733650,81.038330 
	C65.900017,82.530479 63.628307,83.998894 60.865555,85.918427 
	C55.767521,94.431747 56.150208,102.485001 60.835300,110.281830 
	C64.338638,116.112007 71.351295,117.593536 77.640862,114.225624 
	C86.570671,116.146492 94.394623,108.543457 93.004646,98.150146 
	C92.339714,93.178139 89.222900,88.534035 87.102348,83.379776 
	C86.988106,83.018135 87.126518,82.875732 87.465714,82.907425 
	C88.538292,82.286346 89.271675,81.633575 90.005058,80.980797 
	C98.157501,85.763321 99.685562,93.603050 98.082932,101.730644 
	C96.412209,110.203583 92.804688,118.276436 82.549744,119.403427 
	C76.744682,120.041397 70.583038,120.661964 65.009521,119.400879 
	C57.224327,117.639359 54.020061,110.993820 53.300945,103.425903 
	C52.639160,96.461380 52.696796,89.514320 57.341232,83.737427 
	C57.922428,84.400009 58.039814,84.686699 58.157204,84.973389 
	C58.308800,84.840111 58.608414,84.618690 58.589512,84.586952 
	C58.354885,84.192955 58.073914,83.826553 57.804867,83.453056 
	C58.960201,81.639359 60.115540,79.825668 61.590252,77.895294 
	C61.815163,82.002617 64.978737,80.803955 67.733650,81.038330 
z"/>
<path fill="#ED0813" opacity="1.000000" stroke="none" 
	d="
M73.383301,51.116165 
	C75.198166,49.749039 77.017242,47.792091 78.637268,51.570145 
	C78.239624,52.631466 78.003113,53.277401 77.538940,54.098236 
	C77.182724,54.824791 77.054169,55.376453 76.704330,56.241283 
	C76.483040,62.276699 76.483040,67.998940 76.483040,73.557144 
	C74.574287,74.022667 72.700737,74.479607 70.827187,74.936546 
	C69.859428,75.149605 68.891670,75.362671 67.610199,75.343452 
	C67.554153,71.755791 67.811806,68.400406 68.069458,65.045021 
	C68.069458,65.045021 68.012100,65.031471 68.285187,64.774948 
	C68.730164,63.361889 68.902054,62.205360 69.073944,61.048832 
	C69.073952,61.048832 69.021477,61.040184 69.285904,60.776482 
	C69.731544,59.357258 69.912750,58.201729 70.093964,57.046204 
	C70.093964,57.046204 70.006439,56.994492 70.318710,56.846058 
	C71.079109,55.489872 71.527245,54.282120 71.975380,53.074371 
	C71.975380,53.074371 72.077026,53.038399 72.320419,52.841217 
	C72.836975,52.134747 73.110138,51.625458 73.383301,51.116165 
z"/>
<path fill="#12130F" opacity="1.000000" stroke="none" 
	d="
M71.255173,74.960022 
	C72.700737,74.479607 74.574287,74.022667 76.483040,73.557144 
	C76.483040,67.998940 76.483040,62.276699 76.838211,56.547737 
	C77.462357,60.957603 77.565636,65.394829 78.111664,69.776886 
	C78.256172,70.936607 79.764320,71.926399 80.646324,72.994217 
	C80.748184,73.432716 80.850044,73.871223 81.006287,74.643501 
	C77.934837,74.979347 74.808998,74.981422 71.255173,74.960022 
z"/>
<path fill="#12130F" opacity="1.000000" stroke="none" 
	d="
M43.627419,81.075256 
	C43.698032,84.395912 43.406334,87.788383 43.028145,91.584625 
	C40.308914,88.292862 40.652805,84.686119 43.627419,81.075256 
z"/>
<path fill="#181F12" opacity="1.000000" stroke="none" 
	d="
M66.094986,135.234085 
	C68.669029,136.348648 71.246353,137.830750 73.933441,139.642120 
	C70.859192,139.488800 67.400482,139.505661 66.094986,135.234085 
z"/>
<path fill="#12130F" opacity="1.000000" stroke="none" 
	d="
M67.776749,65.305405 
	C67.811806,68.400406 67.554153,71.755791 67.358231,75.508354 
	C67.441315,72.458954 67.462669,69.012375 67.776749,65.305405 
z"/>
<path fill="#12130F" opacity="1.000000" stroke="none" 
	d="
M48.480515,73.817139 
	C47.699459,75.551910 46.633991,77.141975 45.285225,78.887421 
	C45.570137,76.957367 43.768650,73.462479 48.480515,73.817139 
z"/>
<path fill="#12130F" opacity="1.000000" stroke="none" 
	d="
M80.762665,78.795670 
	C77.992950,79.411407 74.950592,79.735443 71.504318,80.099754 
	C74.230270,79.594681 77.360153,79.049324 80.762665,78.795670 
z"/>
<path fill="#12130F" opacity="1.000000" stroke="none" 
	d="
M56.059204,134.773407 
	C55.135803,134.982513 54.343674,134.902817 53.317123,134.928299 
	C53.886776,134.152313 54.690849,133.271149 55.494926,132.389999 
	C55.726776,133.088211 55.958626,133.786407 56.059204,134.773407 
z"/>
<path fill="#12130F" opacity="1.000000" stroke="none" 
	d="
M86.920410,83.090775 
	C85.691422,82.284027 84.530121,81.404633 83.195724,80.254578 
	C84.470604,79.886040 85.918579,79.788162 87.734085,79.600723 
	C88.101608,79.511147 88.084480,79.540825 87.812416,79.882309 
	C87.402405,81.107773 87.264458,81.991753 87.126518,82.875732 
	C87.126518,82.875732 86.988106,83.018135 86.920410,83.090775 
z"/>
<path fill="#12130F" opacity="1.000000" stroke="none" 
	d="
M77.766594,53.923340 
	C78.003113,53.277401 78.239624,52.631466 78.667999,51.828674 
	C79.629112,51.777699 80.398369,51.883572 81.742935,52.058197 
	C82.140404,52.660583 81.962578,53.194221 81.137886,53.890285 
	C79.582878,54.009590 78.674736,53.966465 77.766594,53.923340 
z"/>
<path fill="#12130F" opacity="1.000000" stroke="none" 
	d="
M43.879677,109.110176 
	C44.377220,109.354012 44.715359,109.858833 45.030602,110.681061 
	C44.254993,111.346878 43.502281,111.695290 42.749565,112.043694 
	C43.073135,111.152847 43.396706,110.262001 43.879677,109.110176 
z"/>
<path fill="#12130F" opacity="1.000000" stroke="none" 
	d="
M62.544445,74.944366 
	C62.311733,74.152328 62.384758,73.296188 62.701118,72.210907 
	C62.913029,72.947929 62.881607,73.914101 62.544445,74.944366 
z"/>
<path fill="#12130F" opacity="1.000000" stroke="none" 
	d="
M71.617157,53.122471 
	C71.527245,54.282120 71.079109,55.489872 70.359085,56.875504 
	C70.477768,55.759117 70.868355,54.464844 71.617157,53.122471 
z"/>
<path fill="#12130F" opacity="1.000000" stroke="none" 
	d="
M58.063854,129.444916 
	C58.928875,129.546295 59.861603,129.981918 60.920937,130.709335 
	C60.075546,130.593826 59.103554,130.186493 58.063854,129.444916 
z"/>
<path fill="#181F12" opacity="1.000000" stroke="none" 
	d="
M63.229717,133.088593 
	C64.130455,133.253418 65.012291,133.787277 66.012627,134.610748 
	C65.157684,134.419464 64.184250,133.938538 63.229717,133.088593 
z"/>
<path fill="#1C2215" opacity="1.000000" stroke="none" 
	d="
M53.560501,122.711548 
	C54.199509,123.020729 54.662994,123.675354 55.134785,124.636162 
	C54.557053,124.313889 53.971016,123.685432 53.560501,122.711548 
z"/>
<path fill="#12130F" opacity="1.000000" stroke="none" 
	d="
M69.806808,57.264408 
	C69.912750,58.201729 69.731544,59.357258 69.310242,60.766930 
	C69.219986,59.841587 69.369827,58.662102 69.806808,57.264408 
z"/>
<path fill="#080C04" opacity="1.000000" stroke="none" 
	d="
M85.961349,50.648438 
	C85.551773,51.096809 85.106194,51.227173 84.329498,51.217308 
	C83.998970,50.612164 83.999542,50.147243 84.002426,49.333340 
	C84.644936,49.433044 85.285133,49.881733 85.961349,50.648438 
z"/>
<path fill="#12130F" opacity="1.000000" stroke="none" 
	d="
M68.792221,61.271111 
	C68.902054,62.205360 68.730164,63.361889 68.313446,64.770264 
	C68.215919,63.845875 68.363213,62.669632 68.792221,61.271111 
z"/>
<path fill="#12130F" opacity="1.000000" stroke="none" 
	d="
M67.028427,55.892944 
	C66.446533,56.035812 66.035545,56.014736 65.315872,56.007416 
	C65.737907,55.923779 66.468620,55.826389 67.028427,55.892944 
z"/>
<path fill="#12130F" opacity="1.000000" stroke="none" 
	d="
M73.081825,51.206825 
	C73.110138,51.625458 72.836975,52.134747 72.312805,52.787849 
	C72.301315,52.386932 72.540833,51.842209 73.081825,51.206825 
z"/>
<path fill="#12130F" opacity="1.000000" stroke="none" 
	d="
M56.041771,127.182571 
	C56.438953,127.297989 56.805603,127.777359 57.278877,128.551147 
	C57.154705,128.883072 56.923901,128.920547 56.346588,128.979004 
	C56.000080,128.999969 55.998180,129.006516 55.998180,129.006516 
	C56.002533,128.519852 56.006886,128.033173 56.041771,127.182571 
z"/>
<path fill="#181F12" opacity="1.000000" stroke="none" 
	d="
M62.122826,132.019073 
	C62.350357,131.908783 62.700279,132.066727 63.167252,132.491531 
	C62.937935,132.601364 62.591576,132.444336 62.122826,132.019073 
z"/>
<path fill="#1C2215" opacity="1.000000" stroke="none" 
	d="
M55.008556,128.989014 
	C55.008556,128.989014 55.503468,128.993134 55.750824,128.999817 
	C55.998180,129.006516 56.000080,128.999969 55.996532,129.000839 
	C55.718872,129.112259 55.444759,129.222809 55.085228,129.166718 
	C54.999809,129.000076 55.008556,128.989014 55.008556,128.989014 
z"/>
<path fill="#1C2215" opacity="1.000000" stroke="none" 
	d="
M54.994125,129.004578 
	C54.874252,128.869461 54.760063,128.729858 54.645866,128.590256 
	C54.729824,128.635757 54.813782,128.681244 54.953148,128.857880 
	C55.008556,128.989014 54.999809,129.000076 54.994125,129.004578 
z"/>
<path fill="#272F1E" opacity="1.000000" stroke="none" 
	d="
M139.267471,114.891487 
	C139.205368,113.543198 139.399841,112.076813 139.800598,110.303818 
	C140.777328,110.078552 141.547791,110.159897 142.829620,110.295235 
	C142.100281,111.535652 141.590408,112.402824 141.028564,113.583557 
	C140.492401,114.189217 140.008240,114.481308 139.267471,114.891487 
z"/>
<path fill="#13190E" opacity="1.000000" stroke="none" 
	d="
M127.102043,131.041534 
	C128.013611,129.768524 129.129120,128.779022 130.524750,127.623550 
	C131.176666,130.138229 130.609283,131.969208 127.102043,131.041534 
z"/>
<path fill="#13190E" opacity="1.000000" stroke="none" 
	d="
M118.215942,138.885254 
	C118.112556,138.682785 118.303108,138.424438 118.794373,138.118530 
	C118.887520,138.316895 118.692459,138.569702 118.215942,138.885254 
z"/>
<path fill="#13190E" opacity="1.000000" stroke="none" 
	d="
M133.471344,125.458542 
	C133.518768,125.432076 133.423904,125.485001 133.471344,125.458542 
z"/>
<path fill="#29361C" opacity="1.000000" stroke="none" 
	d="
M130.953491,67.935181 
	C128.082794,66.011497 125.516701,63.899395 122.806976,61.477283 
	C124.794548,61.114246 126.925743,61.061222 129.511307,61.017097 
	C130.396484,63.266258 130.827286,65.506516 130.953491,67.935181 
z"/>
<path fill="#080C04" opacity="1.000000" stroke="none" 
	d="
M99.893600,51.797073 
	C96.122421,52.008549 92.226761,51.909134 88.137527,51.467369 
	C88.837143,50.580437 89.730316,50.035851 90.815872,49.229080 
	C92.412476,48.664246 93.816696,48.361599 95.576035,48.001610 
	C97.210472,49.124908 98.489792,50.305546 99.893600,51.797073 
z"/>
<path fill="#29341F" opacity="1.000000" stroke="none" 
	d="
M103.948929,52.476505 
	C103.157425,52.790470 102.292427,52.780266 101.162872,52.578720 
	C101.890694,52.309029 102.883064,52.230686 103.948929,52.476505 
z"/>
<path fill="#E82326" opacity="1.000000" stroke="none" 
	d="
M161.485260,147.037323 
	C162.176910,146.875259 162.559677,146.905777 163.292267,147.297180 
	C163.766800,148.079407 163.891510,148.500763 163.656525,149.013031 
	C162.634933,149.466751 161.973053,149.829590 161.070953,149.699600 
	C160.620926,148.907516 160.411102,148.608261 160.201279,148.309006 
	C160.526306,147.949310 160.851349,147.589615 161.485260,147.037323 
z"/>
<path fill="#F86568" opacity="1.000000" stroke="none" 
	d="
M160.001190,148.416779 
	C160.411102,148.608261 160.620926,148.907516 161.040405,149.845428 
	C161.173035,150.684525 161.068771,150.869675 160.937256,151.039505 
	C160.351807,150.849594 159.766357,150.659668 158.930573,150.277557 
	C159.053864,149.565109 159.427475,149.044830 160.001190,148.416779 
z"/>
<path fill="#E75652" opacity="1.000000" stroke="none" 
	d="
M164.016235,148.922134 
	C163.891510,148.500763 163.766800,148.079407 163.576813,147.332703 
	C164.716141,147.059967 165.920731,147.112564 167.571609,147.086823 
	C168.255020,147.470337 168.492157,147.932205 168.828888,148.647507 
	C168.672577,149.247635 168.416702,149.594345 167.605530,149.931015 
	C166.329498,149.683167 165.608780,149.445343 164.696747,149.170486 
	C164.505447,149.133438 164.123962,149.223511 164.076614,149.155457 
	C164.029266,149.087418 164.016235,148.922134 164.016235,148.922134 
z"/>
<path fill="#322123" opacity="1.000000" stroke="none" 
	d="
M164.888062,149.207535 
	C165.608780,149.445343 166.329498,149.683167 167.307312,150.063354 
	C167.449692,150.953949 167.334976,151.702194 167.325958,152.727951 
	C167.431641,153.005478 167.248032,153.087936 166.893555,152.942383 
	C166.028625,152.567123 165.518158,152.337433 164.987152,151.744202 
	C164.940414,150.656296 164.914230,149.931915 164.888062,149.207535 
z"/>
<path fill="#0A0F07" opacity="1.000000" stroke="none" 
	d="
M77.538940,54.098236 
	C78.674736,53.966465 79.582878,54.009590 80.943451,54.093571 
	C81.223526,60.117451 81.051178,66.100471 80.762573,72.538857 
	C79.764320,71.926399 78.256172,70.936607 78.111664,69.776886 
	C77.565636,65.394829 77.462357,60.957603 77.059494,56.234566 
	C77.054169,55.376453 77.182724,54.824791 77.538940,54.098236 
z"/>
<path fill="#141414" opacity="1.000000" stroke="none" 
	d="
M116.138084,93.362045 
	C118.173386,92.489037 120.092987,91.624207 121.981117,91.688148 
	C122.624359,91.709930 123.919861,94.295334 123.607277,95.302940 
	C123.198257,96.621391 121.641365,98.194221 120.311661,98.500587 
	C116.524559,99.373177 115.927521,96.715401 116.138084,93.362045 
z"/>
<path fill="#171717" opacity="1.000000" stroke="none" 
	d="
M127.232895,94.463425 
	C128.902786,93.331528 130.451553,92.556046 132.000305,91.780556 
	C132.607239,93.017418 133.995834,94.576370 133.648254,95.419922 
	C133.041183,96.893211 131.366135,97.926414 130.138641,99.144043 
	C129.129684,97.702637 128.120712,96.261238 127.232895,94.463425 
z"/>
<path fill="#0A0F07" opacity="1.000000" stroke="none" 
	d="
M87.465714,82.907425 
	C87.264458,81.991753 87.402405,81.107773 87.819489,79.864151 
	C88.663933,79.845703 89.229240,80.186897 89.899811,80.754440 
	C89.271675,81.633575 88.538292,82.286346 87.465714,82.907425 
z"/>
<path fill="#790304" opacity="1.000000" stroke="none" 
	d="
M135.997101,160.002228 
	C135.882401,159.870316 135.770630,159.736145 135.658844,159.601990 
	C135.738297,159.647720 135.817764,159.693451 135.950867,159.866577 
	C136.004532,159.993973 136.000000,160.000000 135.997101,160.002228 
z"/>
<path fill="#E21A1B" opacity="1.000000" stroke="none" 
	d="
M159.868683,156.310638 
	C160.167938,155.781601 160.538940,155.470016 161.345322,154.986053 
	C162.495392,155.189957 163.210083,155.566238 163.935394,156.283569 
	C163.947388,157.079132 163.948746,157.533630 163.584595,157.973328 
	C162.491180,157.962051 161.763306,157.965591 161.035416,157.969131 
	C161.035416,157.969131 161.037766,157.996918 160.998703,157.741333 
	C160.647079,157.316742 160.334518,157.147720 160.021957,156.978714 
	C160.021957,156.978714 159.940430,156.528076 159.868683,156.310638 
z"/>
<path fill="#1F1B17" opacity="1.000000" stroke="none" 
	d="
M160.006165,157.170654 
	C160.334518,157.147720 160.647079,157.316742 161.000763,157.755127 
	C160.859558,157.995407 160.677261,157.966339 160.234650,157.842377 
	C159.974304,157.747467 159.990356,157.362610 160.006165,157.170654 
z"/>
<path fill="#321C19" opacity="1.000000" stroke="none" 
	d="
M169.112091,157.091766 
	C169.100189,157.618774 169.027496,158.082260 168.900101,158.894623 
	C168.135422,159.151352 167.425446,159.059235 166.386642,158.740051 
	C166.057831,158.513000 166.124237,158.170990 166.344711,158.081390 
	C166.896454,157.910400 167.145126,157.720657 167.587128,157.341370 
	C168.225586,157.134796 168.588104,157.009445 168.950623,156.884079 
	C168.950623,156.884079 169.051285,157.028259 169.112091,157.091766 
z"/>
<path fill="#790304" opacity="1.000000" stroke="none" 
	d="
M166.124237,158.170990 
	C166.124237,158.170990 166.057831,158.513000 166.028778,158.684753 
	C164.682571,158.862076 163.365402,158.867661 161.653442,158.828094 
	C161.258667,158.782928 161.138092,158.378571 161.086761,158.173859 
	C161.763306,157.965591 162.491180,157.962051 163.943573,158.038513 
	C165.153473,158.136017 165.638855,158.153503 166.124237,158.170990 
z"/>
<path fill="#291514" opacity="1.000000" stroke="none" 
	d="
M163.924774,155.942535 
	C163.210083,155.566238 162.495392,155.189957 161.518890,154.662964 
	C161.150787,153.525879 161.044495,152.539505 160.937744,151.296310 
	C161.068771,150.869675 161.173035,150.684525 161.280609,150.338242 
	C161.973053,149.829590 162.634933,149.466751 163.656525,149.013031 
	C164.016235,148.922134 164.029266,149.087418 164.039642,149.495819 
	C164.330505,150.956360 164.610977,152.008484 165.005920,153.329193 
	C165.695557,154.102753 166.270691,154.607773 166.842911,155.267044 
	C166.839981,155.421310 166.878555,155.727478 166.510635,155.776337 
	C165.403397,155.864319 164.664093,155.903427 163.924774,155.942535 
z"/>
<path fill="#12190D" opacity="1.000000" stroke="none" 
	d="
M60.990608,153.007385 
	C60.867695,152.872238 60.753445,152.730164 60.639194,152.588074 
	C60.725094,152.632523 60.810993,152.676971 60.954865,152.852448 
	C61.012829,152.983475 60.999268,153.000458 60.990608,153.007385 
z"/>
<path fill="#F45356" opacity="1.000000" stroke="none" 
	d="
M166.878555,155.727478 
	C166.878555,155.727478 166.839981,155.421310 167.208298,155.206055 
	C167.823410,154.990112 168.070221,154.989441 168.317047,154.988770 
	C168.554489,155.236374 168.791946,155.483994 169.069092,155.999725 
	C169.108795,156.267838 169.024338,156.574829 168.987488,156.729462 
	C168.588104,157.009445 168.225586,157.134796 167.465973,156.920547 
	C167.005432,156.296448 166.941986,156.011963 166.878555,155.727478 
z"/>
<path fill="#B1B1B2" opacity="1.000000" stroke="none" 
	d="
M168.134338,154.757812 
	C168.070221,154.989441 167.823410,154.990112 167.211227,155.051788 
	C166.270691,154.607773 165.695557,154.102753 165.062225,153.094299 
	C165.004028,152.590866 165.007706,152.107742 165.007706,152.107742 
	C165.518158,152.337433 166.028625,152.567123 166.796204,152.916901 
	C167.352753,153.533600 167.652191,154.030228 168.134338,154.757812 
z"/>
<path fill="#F6051F" opacity="1.000000" stroke="none" 
	d="
M77.336182,114.147278 
	C71.351295,117.593536 64.338638,116.112007 60.835300,110.281830 
	C56.150208,102.485001 55.767521,94.431747 60.699108,86.210800 
	C60.397163,88.079010 59.566967,90.072334 59.224503,92.146194 
	C59.035049,93.293472 59.305313,94.921486 60.041138,95.680969 
	C60.572411,96.229340 62.270161,95.911057 63.344933,95.611137 
	C65.228027,95.085670 66.990234,94.098312 68.885056,93.654137 
	C70.050919,93.380836 71.476105,93.474121 72.596451,93.899277 
	C74.977409,94.802834 79.218819,104.661827 78.411453,107.070374 
	C77.079010,111.045319 73.681633,109.776085 70.287537,109.641029 
	C67.990555,104.125107 66.557259,103.633560 61.221931,107.677307 
	C63.843792,108.966171 65.919411,109.986504 67.995026,111.006844 
	C66.638748,114.519554 69.712204,114.261177 71.383141,114.528381 
	C73.195107,114.818138 75.142929,114.258278 77.336182,114.147278 
z"/>
<path fill="#FA030A" opacity="1.000000" stroke="none" 
	d="
M68.255051,110.893799 
	C65.919411,109.986504 63.843792,108.966171 61.221931,107.677307 
	C66.557259,103.633560 67.990555,104.125107 69.860428,109.641296 
	C69.516869,110.250420 69.015976,110.515587 68.255051,110.893799 
z"/>
<path fill="#0A0F07" opacity="1.000000" stroke="none" 
	d="
M57.778629,83.503082 
	C58.073914,83.826553 58.354885,84.192955 58.589512,84.586952 
	C58.608414,84.618690 58.308800,84.840111 58.157204,84.973389 
	C58.039814,84.686699 57.922428,84.400009 57.722244,83.831680 
	C57.639450,83.550049 57.752392,83.553116 57.778629,83.503082 
z"/>
<path fill="#6E6162" opacity="1.000000" stroke="none" 
	d="
M164.987152,151.744202 
	C165.007706,152.107742 165.004028,152.590866 164.947723,152.825745 
	C164.610977,152.008484 164.330505,150.956360 164.087006,149.563873 
	C164.123962,149.223511 164.505447,149.133438 164.696747,149.170486 
	C164.914230,149.931915 164.940414,150.656296 164.987152,151.744202 
z"/>
<path fill="#E82326" opacity="1.000000" stroke="none" 
	d="
M166.510635,155.776337 
	C166.941986,156.011963 167.005432,156.296448 167.190018,157.001740 
	C167.145126,157.720657 166.896454,157.910400 166.344711,158.081390 
	C165.638855,158.153503 165.153473,158.136017 164.309097,158.053329 
	C163.948746,157.533630 163.947388,157.079132 163.935394,156.283569 
	C164.664093,155.903427 165.403397,155.864319 166.510635,155.776337 
z"/>
</svg>