<?xml version="1.0" standalone="no"?>
<!DOCTYPE svg PUBLIC "-//W3C//DTD SVG 20010904//EN"
 "http://www.w3.org/TR/2001/REC-SVG-20010904/DTD/svg10.dtd">
<svg version="1.0" xmlns="http://www.w3.org/2000/svg"
 width="100.000000pt" height="100.000000pt" viewBox="0 0 100.000000 100.000000"
 preserveAspectRatio="xMidYMid meet">
<metadata>
Created by potrace 1.14, written by Peter Selinger 2001-2017
</metadata>
<g transform="translate(0.000000,100.000000) scale(0.100000,-0.100000)"
fill="#000000" stroke="none">
<path d="M0 500 l0 -500 500 0 500 0 0 500 0 500 -500 0 -500 0 0 -500z m950
440 c0 -35 -34 -51 -57 -27 -16 15 -10 57 8 57 6 0 6 -6 0 -18 -12 -23 2 -47
23 -39 19 8 21 38 4 56 -11 10 -10 11 5 6 10 -5 17 -18 17 -35z m-111 -7 c-2
-31 -3 -33 -6 -10 -2 15 -10 27 -16 27 -10 0 10 19 21 20 1 0 1 -17 1 -37z
m-119 -9 c0 -30 -26 -42 -47 -21 -12 11 -13 19 -4 33 10 17 11 17 8 -6 -1 -16
4 -25 16 -28 20 -4 24 27 5 47 -11 10 -10 11 5 6 10 -4 17 -17 17 -31z m33 29
c-7 -2 -13 -12 -13 -22 0 -9 6 -23 13 -31 10 -12 9 -12 -5 -1 -27 20 -22 62 6
60 6 0 5 -3 -1 -6z m37 -23 c0 -10 -3 -21 -7 -23 -5 -3 -8 8 -8 23 0 15 3 26
8 23 4 -2 7 -13 7 -23z m-140 11 c0 -5 -8 -8 -17 -7 -13 1 -18 -6 -17 -22 0
-14 -3 -19 -9 -13 -14 14 2 51 24 51 10 0 19 -4 19 -9z m-165 -32 c0 -15 -7
-25 -17 -27 -10 -2 -18 1 -18 7 0 6 7 8 15 5 11 -4 15 0 15 16 0 16 -4 20 -16
16 -9 -3 -12 -2 -9 5 11 17 30 4 30 -22z m72 -6 c-3 -10 -5 -4 -5 12 0 17 2
24 5 18 2 -7 2 -21 0 -30z m-174 20 c-7 -2 -13 -14 -14 -26 0 -12 -3 -16 -6
-9 -7 18 4 42 19 41 10 0 10 -2 1 -6z m47 -18 c0 -14 -2 -25 -4 -25 -2 0 -6
11 -8 25 -3 14 -1 25 3 25 5 0 9 -11 9 -25z m-153 -19 c-4 -9 -12 -16 -19 -16
-10 0 -9 3 1 9 9 6 11 16 7 27 -6 15 -4 16 5 7 6 -6 9 -19 6 -27z m-164 5 c-3
-11 -11 -22 -18 -25 -16 -6 -8 24 9 36 15 10 15 10 9 -11z m537 9 c0 -5 -5
-10 -11 -10 -5 0 -7 5 -4 10 3 6 8 10 11 10 2 0 4 -4 4 -10z m-583 -32 c-3 -7
-5 -2 -5 12 0 14 2 19 5 13 2 -7 2 -19 0 -25z m328 -47 c0 -16 -3 -27 -7 -24
-13 7 -7 53 6 53 1 0 1 -13 1 -29z m52 -18 c-3 -10 -5 -2 -5 17 0 19 2 27 5
18 2 -10 2 -26 0 -35z m58 17 c0 -13 -6 -25 -12 -27 -16 -6 -27 21 -19 43 9
23 31 11 31 -16z m42 -17 c-3 -10 -5 -2 -5 17 0 19 2 27 5 18 2 -10 2 -26 0
-35z m68 17 c0 -28 -29 -40 -38 -15 -9 22 3 46 22 43 10 -2 16 -13 16 -28z
m69 15 c7 -19 -3 -45 -16 -45 -6 0 -5 6 2 15 10 12 10 18 0 30 -7 9 -8 15 -2
15 5 0 12 -7 16 -15z m46 -15 c0 -16 -2 -30 -4 -30 -2 0 -6 14 -8 30 -3 17 -1
30 4 30 4 0 8 -13 8 -30z m55 0 c0 -16 -3 -30 -7 -30 -5 0 -8 14 -8 30 0 17 3
30 8 30 4 0 7 -13 7 -30z m45 0 c0 -31 -15 -30 -16 1 -1 15 3 26 7 23 5 -3 9
-14 9 -24z m49 -2 c-2 -28 -2 -29 -6 -8 -3 14 -10 28 -17 32 -7 5 -5 8 7 8 13
0 17 -8 16 -32z m-722 -10 c-3 -7 -5 -2 -5 12 0 14 2 19 5 13 2 -7 2 -19 0
-25z m90 0 c-3 -7 -5 -2 -5 12 0 14 2 19 5 13 2 -7 2 -19 0 -25z m60 0 c-3 -7
-5 -2 -5 12 0 14 2 19 5 13 2 -7 2 -19 0 -25z m40 0 c-3 -7 -5 -2 -5 12 0 14
2 19 5 13 2 -7 2 -19 0 -25z m296 2 c3 -11 1 -18 -4 -14 -5 3 -9 12 -9 20 0
20 7 17 13 -6z m-533 -4 c-7 -7 -13 -7 -20 0 -6 6 -3 10 10 10 13 0 16 -4 10
-10z m-12 -57 c-3 -8 -7 -3 -11 10 -4 17 -3 21 5 13 5 -5 8 -16 6 -23z m79
-11 c-3 -7 -5 -2 -5 12 0 14 2 19 5 13 2 -7 2 -19 0 -25z m98 7 c0 -10 -6 -19
-13 -21 -7 -1 -8 0 -2 3 5 2 10 11 10 18 0 7 -5 16 -10 18 -6 3 -5 4 2 3 7 -2
13 -11 13 -21z m71 13 c4 -7 3 -8 -4 -4 -8 5 -12 -1 -13 -16 0 -13 -3 -17 -6
-10 -5 13 2 42 11 42 3 0 8 -5 12 -12z m38 -41 c7 -6 6 -7 -4 -4 -8 2 -16 14
-17 28 -1 19 -1 20 4 4 3 -11 10 -24 17 -28z m93 37 c-3 -3 -12 -4 -19 -1 -8
3 -5 6 6 6 11 1 17 -2 13 -5z m40 -41 c-3 -10 -5 -2 -5 17 0 19 2 27 5 18 2
-10 2 -26 0 -35z m40 0 c-3 -10 -5 -4 -5 12 0 17 2 24 5 18 2 -7 2 -21 0 -30z
m30 0 c-3 -10 -5 -4 -5 12 0 17 2 24 5 18 2 -7 2 -21 0 -30z m26 17 c-3 -12
-8 -19 -11 -16 -5 6 5 36 12 36 2 0 2 -9 -1 -20z m37 -14 c0 -31 -2 -33 -22
-28 -20 5 -21 7 -5 10 14 3 18 10 14 28 -2 13 0 24 4 24 5 0 9 -15 9 -34z m50
4 c0 -16 -2 -30 -4 -30 -2 0 -6 14 -8 30 -3 17 -1 30 4 30 4 0 8 -13 8 -30z
m80 15 c19 -23 8 -50 -20 -50 -19 0 -26 6 -28 24 -5 35 26 53 48 26z m60 -30
c0 -19 -2 -35 -4 -35 -2 0 -6 16 -8 35 -2 19 0 35 4 35 4 0 8 -16 8 -35z m94
29 c16 -6 23 -64 8 -64 -4 0 -8 12 -7 27 0 18 -6 29 -16 31 -22 4 -33 -26 -17
-46 11 -13 10 -14 -2 -10 -20 6 -25 35 -10 53 14 17 21 18 44 9z m-877 -46
c-3 -8 -6 -5 -6 6 -1 11 2 17 5 13 3 -3 4 -12 1 -19z m54 13 c-7 -5 -11 -13
-8 -18 3 -5 0 -10 -8 -10 -10 0 -11 5 -4 19 5 10 15 18 22 18 8 0 8 -3 -2 -9z
m97 -14 c7 -5 9 -13 5 -20 -4 -7 -9 -4 -14 9 -7 17 -8 17 -8 2 -1 -24 -21 -23
-21 1 0 19 14 22 38 8z m62 -8 c0 -8 4 -8 14 0 12 10 14 9 12 -5 -4 -24 -33
-26 -39 -3 -3 10 -1 19 4 19 5 0 9 -5 9 -11z m70 -24 c0 -14 -2 -25 -4 -25 -2
0 -6 11 -8 25 -3 14 -1 25 3 25 5 0 9 -11 9 -25z m40 21 c0 -3 -4 -8 -10 -11
-5 -3 -10 -1 -10 4 0 6 5 11 10 11 6 0 10 -2 10 -4z m140 -41 c0 -14 -2 -25
-4 -25 -2 0 -6 11 -8 25 -3 14 -1 25 3 25 5 0 9 -11 9 -25z m-417 8 c-7 -2
-19 -2 -25 0 -7 3 -2 5 12 5 14 0 19 -2 13 -5z m484 -30 c-3 -10 -5 -4 -5 12
0 17 2 24 5 18 2 -7 2 -21 0 -30z m61 4 c2 -15 -1 -27 -6 -27 -5 0 -7 11 -4
25 3 19 0 25 -13 25 -13 0 -16 -6 -13 -25 3 -13 1 -22 -3 -19 -11 6 -12 38 -2
48 15 14 38 0 41 -27z m51 -9 c-2 -28 -2 -29 -6 -8 -3 14 -10 28 -17 32 -7 5
-5 8 7 8 13 0 17 -8 16 -32z m-589 6 c0 -2 -9 -4 -20 -4 -11 0 -20 4 -20 9 0
5 9 7 20 4 11 -3 20 -7 20 -9z m129 -17 c-1 -20 -2 -20 -9 3 -6 19 -8 21 -9 6
-1 -11 -4 -17 -7 -13 -10 10 5 39 16 32 5 -3 10 -16 9 -28z m236 15 c-3 -3
-11 0 -18 7 -9 10 -8 11 6 5 10 -3 15 -9 12 -12z m270 -11 c0 -16 -3 -27 -7
-24 -5 2 -8 15 -8 29 0 13 3 24 8 24 4 0 7 -13 7 -29z m45 -1 c0 -10 -3 -21
-7 -23 -5 -3 -8 8 -8 23 0 15 3 26 8 23 4 -2 7 -13 7 -23z m-363 14 c-3 -3
-12 -4 -19 -1 -8 3 -5 6 6 6 11 1 17 -2 13 -5z m416 -13 c2 -10 1 -25 -4 -32
-6 -10 -9 -6 -9 13 0 14 -6 29 -12 31 -8 4 -7 6 3 6 9 1 19 -8 22 -18z m-526
-23 c-3 -8 -6 -5 -6 6 -1 11 2 17 5 13 3 -3 4 -12 1 -19z m108 12 c3 -6 -1 -7
-9 -4 -18 7 -21 14 -7 14 6 0 13 -4 16 -10z m-320 -10 c17 -8 16 -9 -7 -7 -15
2 -30 6 -34 10 -10 10 17 8 41 -3z m362 -42 c-2 -13 -4 -5 -4 17 -1 22 1 32 4
23 2 -10 2 -28 0 -40z m71 4 c2 -22 -1 -32 -10 -32 -19 0 -38 21 -37 40 0 9 4
6 9 -7 12 -30 30 -29 30 1 0 15 -7 27 -17 30 -14 4 -14 4 2 3 15 -2 21 -11 23
-35z m-401 -4 c-3 -7 -5 -2 -5 12 0 14 2 19 5 13 2 -7 2 -19 0 -25z m48 -3 c0
-16 -4 -20 -11 -14 -6 5 -13 7 -15 5 -2 -2 -4 6 -4 18 0 15 5 22 15 19 8 -2
15 -15 15 -28z m415 15 c8 -15 8 -25 0 -38 -11 -16 -11 -16 -6 1 3 9 3 24 0
32 -9 23 -34 18 -35 -7 0 -13 -3 -17 -6 -10 -15 37 28 57 47 22z m-490 0 c18
-12 2 -12 -25 0 -13 6 -15 9 -5 9 8 0 22 -4 30 -9z m533 3 c-7 -2 -13 -18 -13
-35 0 -23 4 -29 18 -26 12 3 17 12 15 33 -1 28 -1 28 9 8 15 -31 3 -55 -24
-51 -34 5 -39 79 -6 77 10 0 10 -2 1 -6z m-213 -9 c0 -8 -19 -13 -24 -6 -3 5
1 9 9 9 8 0 15 -2 15 -3z m275 -15 c-11 -17 4 -59 21 -59 21 0 28 25 13 52
-11 21 -11 22 4 9 22 -17 22 -60 1 -68 -21 -8 -48 9 -52 31 -4 19 4 46 13 46
4 0 3 -5 0 -11z m-617 -30 c-3 -8 -7 -3 -11 10 -4 17 -3 21 5 13 5 -5 8 -16 6
-23z m215 12 c-6 -23 -30 -35 -39 -19 -4 7 -3 8 4 4 7 -4 12 -1 12 8 0 8 6 17
13 19 6 3 13 6 14 6 0 1 -1 -8 -4 -18z m515 -28 l-1 -48 -4 42 c-3 34 -7 41
-21 37 -15 -5 -15 -4 -2 5 26 18 30 13 28 -36z m-462 25 c4 -7 3 -8 -4 -4 -8
5 -12 -1 -13 -16 0 -13 -3 -17 -6 -10 -5 13 2 42 11 42 3 0 8 -5 12 -12z m589
-14 c17 -17 17 -65 0 -71 -5 -2 -10 14 -10 34 0 29 -4 38 -19 41 -17 4 -35
-12 -36 -30 0 -5 9 -17 20 -28 13 -13 15 -20 7 -20 -7 0 -18 5 -25 12 -13 13
-16 60 -5 71 12 13 51 7 68 -9z m-547 -19 c-3 -3 -9 2 -12 12 -6 14 -5 15 5 6
7 -7 10 -15 7 -18z m-285 -51 c-3 -8 -8 -14 -12 -14 -14 0 -44 28 -47 43 -2
14 1 14 31 0 20 -10 31 -21 28 -29z m118 21 c7 19 8 18 8 -3 1 -29 -24 -25
-25 4 -1 17 -1 17 4 -1 l4 -20 9 20z m226 -7 c-3 -7 -5 -2 -5 12 0 14 2 19 5
13 2 -7 2 -19 0 -25z m111 -16 c3 -27 0 -33 -14 -30 -23 4 -39 31 -31 52 12
30 42 14 45 -22z m25 -2 c-3 -12 -8 -19 -11 -16 -5 6 5 36 12 36 2 0 2 -9 -1
-20z m41 4 c9 -23 7 -54 -3 -54 -5 0 -7 9 -4 20 3 11 0 27 -7 35 -7 9 -8 15
-2 15 5 0 13 -7 16 -16z m-491 -9 c-3 -9 -8 -14 -10 -11 -3 3 -2 9 2 15 9 16
15 13 8 -4z m177 -3 c0 -10 -7 -19 -14 -19 -11 0 -13 5 -5 19 5 10 12 18 14
18 3 0 5 -8 5 -18z m-130 -28 c0 -8 -8 -14 -17 -14 -15 0 -15 2 -4 9 13 8 13
12 0 28 -13 16 -13 17 4 4 9 -7 17 -20 17 -27z m498 -6 c-1 -41 -1 -41 -5 -8
-3 19 -10 38 -16 42 -8 5 -6 8 6 8 14 0 17 -8 15 -42z m-262 4 c1 -7 0 -8 -3
-2 -8 16 -23 12 -23 -7 0 -9 -3 -14 -6 -10 -4 3 -4 13 0 22 7 18 28 16 32 -3z
m363 4 c16 -19 10 -68 -9 -74 -13 -4 -13 -3 -2 11 18 21 11 61 -11 65 -23 5
-33 -26 -17 -52 12 -19 12 -20 -3 -7 -17 13 -23 52 -10 64 11 12 40 8 52 -7z
m-582 -18 c-3 -8 -6 -5 -6 6 -1 11 2 17 5 13 3 -3 4 -12 1 -19z m20 -15 c-3
-10 -5 -4 -5 12 0 17 2 24 5 18 2 -7 2 -21 0 -30z m243 -3 c0 -16 -2 -30 -4
-30 -2 0 -6 14 -8 30 -3 17 -1 30 4 30 4 0 8 -13 8 -30z m-223 -2 c-3 -8 -6
-5 -6 6 -1 11 2 17 5 13 3 -3 4 -12 1 -19z m621 -25 l-1 -48 -4 42 c-3 29 -9
43 -21 46 -12 3 -11 5 6 6 20 1 22 -3 20 -46z m-598 17 c0 -11 -4 -20 -9 -20
-5 0 -7 9 -4 20 3 11 7 20 9 20 2 0 4 -9 4 -20z m243 13 c-7 -2 -13 -12 -13
-20 0 -9 -3 -14 -6 -10 -10 10 4 37 18 36 10 0 10 -2 1 -6z m-177 -25 c4 -6 3
-8 -4 -4 -6 3 -13 -2 -15 -11 -4 -14 -5 -13 -6 5 -1 23 13 30 25 10z m204 -13
c0 -25 -23 -35 -35 -15 -3 6 1 7 9 4 11 -4 16 0 16 15 0 12 2 21 5 21 3 0 5
-11 5 -25z m48 13 c13 -13 17 -68 4 -68 -4 0 -7 14 -7 32 0 36 -25 52 -26 16
0 -12 -3 -17 -6 -10 -6 15 3 42 15 42 4 0 13 -5 20 -12z m61 -55 c-2 -35 -2
-35 -6 -8 -3 16 -10 33 -16 37 -8 5 -6 8 6 8 13 0 17 -8 16 -37z m-223 -9 c1
-29 1 -29 -3 -1 -5 29 -23 38 -23 10 0 -9 -3 -14 -6 -10 -4 3 -4 13 0 22 10
26 31 12 32 -21z m276 -14 c-3 -21 0 -32 13 -36 26 -10 36 8 20 39 -16 31 -13
34 9 11 9 -8 16 -26 16 -40 0 -18 -5 -24 -23 -24 -13 0 -28 5 -35 12 -14 14
-16 68 -4 68 5 0 7 -13 4 -30z m-232 -10 c0 -16 -2 -30 -4 -30 -2 0 -6 14 -8
30 -3 17 -1 30 4 30 4 0 8 -13 8 -30z m58 -2 c7 -7 11 -23 11 -38 -1 -24 -2
-24 -8 4 -3 16 -12 31 -18 34 -17 5 -17 -30 0 -48 10 -12 9 -12 -5 -1 -18 14
-24 42 -11 54 9 10 17 9 31 -5z m290 -44 l-3 -39 -5 47 c-3 26 -1 43 3 39 5
-5 7 -26 5 -47z m-230 14 c13 -13 17 -68 4 -68 -4 0 -7 14 -7 32 0 37 -21 50
-28 16 -4 -20 -4 -20 -6 5 -1 29 16 36 37 15z m353 -19 c13 -13 19 -30 17 -47
-7 -59 -88 -24 -88 38 0 25 4 30 25 30 14 0 34 -9 46 -21z m-291 -44 c0 -19
-2 -35 -4 -35 -2 0 -6 16 -8 35 -2 19 0 35 4 35 4 0 8 -16 8 -35z m63 -2 c-16
-6 -17 -45 -1 -61 21 -21 30 -13 26 24 -4 32 -3 34 9 18 31 -42 0 -83 -37 -49
-26 23 -27 75 -2 74 10 0 12 -3 5 -6z m105 -90 l-1 -48 -4 42 c-3 29 -9 43
-21 46 -12 3 -11 5 6 6 20 1 22 -3 20 -46z"/>
<path d="M480 820 c0 -11 5 -20 10 -20 6 0 10 9 10 20 0 11 -4 20 -10 20 -5 0
-10 -9 -10 -20z"/>
<path d="M585 830 c-7 -12 2 -30 16 -30 5 0 9 9 9 20 0 21 -15 27 -25 10z"/>
<path d="M747 734 c-16 -16 -7 -44 14 -44 15 0 20 5 17 22 -3 22 -19 33 -31
22z"/>
<path d="M532 428 c5 -32 28 -35 28 -4 0 17 -5 26 -16 26 -10 0 -14 -7 -12
-22z"/>
<path d="M887 193 c-21 -20 8 -73 39 -73 17 0 19 51 2 68 -13 13 -31 16 -41 5z"/>
</g>
</svg>
