<?xml version="1.0" standalone="no"?>
<!DOCTYPE svg PUBLIC "-//W3C//DTD SVG 20010904//EN"
 "http://www.w3.org/TR/2001/REC-SVG-20010904/DTD/svg10.dtd">
<svg version="1.0" xmlns="http://www.w3.org/2000/svg"
 width="463.000000pt" height="463.000000pt" viewBox="0 0 463.000000 463.000000"
 preserveAspectRatio="xMidYMid meet">
<metadata>
Created by potrace 1.14, written by Peter Selinger 2001-2017
</metadata>
<g transform="translate(0.000000,463.000000) scale(0.100000,-0.100000)"
fill="#000000" stroke="none">
<path d="M2168 3484 c-102 -24 -196 -79 -278 -163 -87 -87 -132 -165 -160
-277 -57 -221 22 -460 201 -610 43 -36 79 -58 84 -52 1 2 39 65 83 141 l80
139 -43 39 c-86 80 -112 198 -66 305 44 101 134 159 246 159 112 0 202 -58
246 -159 46 -107 20 -225 -66 -305 l-43 -39 80 -139 c44 -76 82 -139 83 -141
11 -12 111 69 167 135 81 97 138 254 138 377 -1 277 -198 529 -462 591 -78 18
-214 18 -290 -1z"/>
<path d="M2644 2229 c-197 -148 -290 -372 -250 -599 42 -233 218 -426 442
-484 71 -18 209 -21 286 -5 29 6 91 29 137 51 147 70 259 204 310 372 26 84
28 230 5 320 -22 84 -78 188 -137 253 -54 59 -132 117 -146 109 -4 -3 -43 -66
-86 -141 l-78 -136 40 -37 c118 -109 122 -272 10 -387 -42 -43 -64 -57 -111
-70 -127 -37 -255 19 -319 139 -16 31 -22 59 -22 116 0 90 24 145 87 202 l41
36 -80 138 c-44 76 -85 140 -90 141 -5 2 -23 -6 -39 -18z"/>
</g>
</svg>
