<?xml version="1.0" standalone="no"?>
<!DOCTYPE svg PUBLIC "-//W3C//DTD SVG 20010904//EN"
 "http://www.w3.org/TR/2001/REC-SVG-20010904/DTD/svg10.dtd">
<svg version="1.0" xmlns="http://www.w3.org/2000/svg"
 width="500.000000pt" height="500.000000pt" viewBox="0 0 500.000000 500.000000"
 preserveAspectRatio="xMidYMid meet">
<metadata>
Created by potrace 1.11, written by Peter Selinger 2001-2013
</metadata>
<g transform="translate(0.000000,500.000000) scale(0.100000,-0.100000)"
fill="#000000" stroke="none">
<path d="M2230 4984 c-106 -12 -129 -16 -230 -35 -89 -17 -92 -17 -201 -50
-296 -87 -565 -225 -829 -423 -108 -81 -329 -297 -412 -401 -198 -252 -372
-577 -448 -840 -26 -93 -59 -223 -65 -260 -4 -22 -9 -52 -11 -66 -22 -127 -31
-269 -29 -454 2 -115 5 -219 8 -230 2 -11 8 -42 11 -70 12 -82 16 -106 37
-200 12 -49 22 -94 23 -100 10 -45 76 -238 107 -314 125 -299 301 -562 539
-801 358 -361 775 -585 1280 -691 97 -20 128 -25 260 -39 80 -8 475 -6 500 3
8 3 34 8 58 11 109 15 134 19 234 41 276 62 582 193 820 353 474 318 826 783
998 1319 31 97 36 114 46 163 3 14 9 41 14 60 39 151 55 312 55 550 -1 242
-22 415 -79 635 -16 62 -28 103 -36 120 -5 11 -13 36 -19 55 -54 203 -267 576
-452 795 -37 44 -224 232 -281 282 -68 60 -234 180 -326 237 -97 59 -352 186
-375 186 -7 0 -17 4 -22 9 -25 22 -319 108 -435 126 -25 4 -52 9 -60 10 -8 1
-37 6 -65 9 -27 4 -66 9 -85 12 -75 12 -429 11 -530 -2z"/>
</g>
</svg>
