<?xml version="1.0" standalone="no"?>
<!DOCTYPE svg PUBLIC "-//W3C//DTD SVG 20010904//EN"
 "http://www.w3.org/TR/2001/REC-SVG-20010904/DTD/svg10.dtd">
<svg version="1.0" xmlns="http://www.w3.org/2000/svg"
 width="400.000000pt" height="400.000000pt" viewBox="0 0 400.000000 400.000000"
 preserveAspectRatio="xMidYMid meet">
<metadata>
Created by potrace 1.14, written by Peter Selinger 2001-2017
</metadata>
<g transform="translate(0.000000,400.000000) scale(0.100000,-0.100000)"
fill="#000000" stroke="none">
<path d="M1819 3996 c-2 -2 -26 -7 -54 -10 -241 -32 -486 -116 -640 -219 -128
-86 -283 -261 -354 -402 -37 -75 -79 -202 -88 -269 -14 -108 0 -323 32 -496 5
-30 35 -219 35 -223 0 -1 -12 -4 -27 -5 -37 -3 -74 -42 -79 -83 -16 -119 -18
-173 -13 -246 7 -93 34 -151 123 -263 29 -36 72 -100 96 -143 68 -119 100
-141 183 -123 19 5 27 2 27 -8 0 -7 20 -74 44 -149 40 -123 63 -170 106 -217
60 -66 128 -135 190 -193 68 -65 72 -71 77 -120 4 -43 0 -62 -25 -112 -16 -33
-37 -81 -47 -107 -10 -27 -24 -48 -31 -48 -7 0 -20 -13 -28 -29 -14 -26 -83
-68 -128 -76 -10 -2 -64 -20 -120 -40 -253 -91 -580 -188 -668 -199 -90 -12
-127 -21 -155 -40 -17 -12 -57 -35 -88 -51 -44 -23 -62 -40 -82 -77 l-26 -48
1921 0 1921 0 -26 49 c-20 36 -38 54 -68 67 -22 10 -58 31 -79 46 -26 19 -64
33 -116 43 -42 8 -88 17 -101 20 -128 25 -375 99 -573 171 -81 29 -159 56
-173 58 -49 9 -115 49 -127 78 -9 20 -18 27 -30 24 -10 -2 -18 0 -18 6 0 12
-68 148 -83 166 -10 13 -11 76 -1 125 2 11 31 45 65 75 88 80 207 204 236 247
13 20 45 100 70 178 24 78 46 148 49 155 3 9 11 11 26 6 67 -22 97 -2 162 109
30 50 77 120 105 155 108 134 130 197 126 354 -7 196 -31 246 -118 240 -12 0
-16 4 -13 16 34 113 50 379 32 521 -26 207 -51 328 -94 453 -40 114 -57 150
-108 229 -98 150 -219 217 -399 223 -20 1 -39 12 -62 37 -40 44 -130 92 -227
121 -62 18 -102 22 -312 25 -132 2 -242 2 -245 -1z"/>
</g>
</svg>
