<?xml version="1.0" standalone="no"?>
<!DOCTYPE svg PUBLIC "-//W3C//DTD SVG 20010904//EN"
 "http://www.w3.org/TR/2001/REC-SVG-20010904/DTD/svg10.dtd">
<svg version="1.0" xmlns="http://www.w3.org/2000/svg"
 width="320.000000pt" height="320.000000pt" viewBox="0 0 320.000000 320.000000"
 preserveAspectRatio="xMidYMid meet">
<metadata>
Created by potrace 1.14, written by Peter Selinger 2001-2017
</metadata>
<g transform="translate(0.000000,320.000000) scale(0.100000,-0.100000)"
fill="#000000" stroke="none">
<path d="M800 2800 l0 -80 160 0 160 0 0 -40 0 -40 -160 0 -160 0 0 -80 0 -80
-80 0 -80 0 0 -600 0 -600 80 0 80 0 0 -80 0 -80 80 0 80 0 0 -400 0 -400 80
0 80 0 0 -80 0 -80 80 0 80 0 0 80 0 80 80 0 80 0 0 80 0 80 160 0 160 0 0
-160 0 -160 80 0 80 0 0 -80 0 -80 80 0 80 0 0 80 0 80 80 0 80 0 0 480 0 480
80 0 80 0 0 80 0 80 80 0 80 0 0 480 0 480 -80 0 -80 0 0 80 0 80 -240 0 -240
0 0 80 0 80 -80 0 -80 0 0 40 0 40 -160 0 -160 0 0 40 0 40 -160 0 -160 0 0
80 0 80 -160 0 -160 0 0 -80z"/>
</g>
</svg>
