<?xml version="1.0" standalone="no"?>
<!DOCTYPE svg PUBLIC "-//W3C//DTD SVG 20010904//EN"
 "http://www.w3.org/TR/2001/REC-SVG-20010904/DTD/svg10.dtd">
<svg version="1.0" xmlns="http://www.w3.org/2000/svg"
 width="500.000000pt" height="500.000000pt" viewBox="0 0 500.000000 500.000000"
 preserveAspectRatio="xMidYMid meet">
<metadata>
Created by potrace 1.14, written by Peter Selinger 2001-2017
</metadata>
<g transform="translate(0.000000,500.000000) scale(0.100000,-0.100000)"
fill="#000000" stroke="none">
<path d="M518 4819 c-20 -12 -20 -1855 0 -1875 11 -12 272 -14 1609 -14 l1595
0 -4 -132 c-6 -151 -24 -218 -84 -305 -36 -52 -36 -53 -19 -79 15 -23 21 -25
61 -20 25 3 72 19 105 36 33 16 66 30 74 30 8 0 15 4 15 9 0 5 12 14 28 20 26
11 107 84 142 127 8 11 33 42 55 69 22 28 44 52 48 53 14 7 85 120 99 158 l13
36 91 -5 c148 -9 131 -131 131 953 0 662 -3 933 -11 938 -15 10 -3932 11
-3948 1z m3590 -1942 c-7 -12 -11 -25 -10 -29 1 -5 -5 -8 -13 -8 -8 0 -15 -6
-15 -13 0 -7 -8 -22 -18 -33 -9 -10 -40 -47 -67 -82 -70 -89 -94 -113 -143
-145 -47 -31 -79 -30 -63 0 19 34 41 117 41 151 0 31 2 33 18 21 15 -12 15
-12 -1 7 -14 17 -15 23 -4 27 23 9 35 -6 31 -38 -3 -16 -6 -44 -8 -61 -1 -17
-6 -36 -10 -42 -11 -19 13 -24 32 -6 9 10 17 21 17 25 0 4 14 19 30 33 17 14
27 26 23 26 -3 0 6 13 20 28 46 48 97 113 105 135 7 18 10 19 17 7 9 -13 10
-13 11 0 1 8 1 19 0 23 -1 5 3 6 9 2 7 -4 6 -13 -2 -28z"/>
<path d="M2163 2648 c-18 -11 -33 -24 -33 -29 0 -5 -6 -9 -13 -9 -17 0 -89
-74 -81 -83 4 -4 3 -7 -2 -7 -6 0 -21 -19 -34 -42 -13 -24 -27 -45 -30 -48
-16 -12 -69 -119 -75 -153 -4 -20 -10 -37 -14 -37 -6 0 -9 -29 -11 -112 -1
-21 -5 -38 -10 -38 -4 0 -7 -16 -5 -35 2 -19 0 -35 -5 -35 -4 0 -6 -8 -4 -17
2 -10 -2 -25 -9 -34 -17 -21 -107 -82 -107 -72 0 4 -4 2 -9 -5 -4 -7 -14 -14
-22 -15 -8 -2 -39 -18 -69 -36 -30 -19 -107 -64 -170 -101 -63 -37 -149 -88
-191 -113 -42 -26 -82 -47 -89 -47 -29 0 -177 -130 -242 -211 -14 -19 -36 -45
-47 -59 -11 -14 -24 -29 -28 -35 -35 -45 -121 -142 -135 -153 -10 -7 -20 -28
-24 -46 -5 -31 -2 -38 36 -73 38 -34 210 -138 210 -127 0 7 94 -48 102 -60 4
-5 3 -17 -2 -25 -4 -9 -9 -20 -10 -26 -4 -16 -7 -26 -25 -88 -19 -63 -15 -87
13 -87 10 0 23 -5 29 -11 19 -19 40 17 47 83 4 35 9 76 10 91 2 15 5 30 8 32
3 3 23 -8 44 -23 22 -16 71 -45 109 -64 39 -20 101 -52 139 -72 38 -20 75 -36
82 -36 23 0 26 -20 9 -71 -12 -35 -16 -73 -13 -119 4 -75 4 -75 34 -84 27 -8
39 19 54 124 17 120 28 138 49 80 8 -26 25 -38 98 -72 86 -40 175 -94 181
-110 2 -4 8 -8 14 -8 6 0 19 -11 29 -24 21 -27 190 -126 215 -126 9 0 42 17
74 37 31 21 76 49 99 63 24 14 52 33 62 42 11 10 22 18 26 18 3 0 14 6 22 14
17 15 93 58 179 102 28 14 52 30 52 35 0 5 5 9 10 9 11 0 82 44 113 70 10 8
21 15 26 15 13 0 145 87 158 104 7 9 13 25 13 35 0 11 3 16 7 12 25 -24 -24
-192 -78 -265 -16 -23 -29 -51 -29 -64 0 -24 28 -57 48 -57 41 0 151 236 165
352 3 23 33 58 51 58 8 0 16 3 18 8 2 4 26 19 53 33 60 31 98 52 105 59 3 3
19 12 35 20 41 20 90 51 155 99 51 37 152 92 166 90 4 0 10 3 13 9 15 22 127
90 251 150 74 36 137 66 140 67 3 0 46 27 97 60 100 66 121 94 98 138 -18 36
-87 127 -126 168 -19 19 -46 50 -60 69 -15 19 -37 46 -49 60 -40 45 -105 134
-120 165 -17 33 -89 144 -105 160 -18 18 -85 66 -85 61 0 -7 -72 32 -233 125
-70 41 -136 78 -147 84 -11 5 -20 13 -20 18 0 7 -35 24 -53 25 -7 1 -21 12
-83 61 -6 5 -29 18 -51 29 -22 11 -45 28 -52 36 -8 9 -18 16 -24 16 -6 0 -18
7 -28 16 -9 8 -30 15 -45 16 -26 0 -55 -11 -211 -82 -23 -11 -44 -24 -48 -30
-4 -6 -17 -15 -28 -21 -23 -9 -58 -30 -67 -39 -3 -3 -25 -16 -50 -29 -25 -13
-67 -39 -93 -58 -27 -19 -80 -50 -118 -70 -38 -20 -72 -40 -75 -45 -3 -4 -9
-6 -14 -3 -4 3 -13 -2 -20 -10 -7 -8 -19 -15 -26 -15 -8 0 -14 -4 -14 -10 0
-5 -5 -10 -11 -10 -6 0 -24 -9 -40 -21 -16 -11 -29 -17 -29 -12 0 4 -4 4 -8
-2 -4 -5 -27 -21 -52 -34 -25 -13 -52 -29 -60 -36 -27 -22 -112 -65 -127 -65
-12 0 -13 7 -8 28 4 15 8 33 8 40 0 6 3 12 6 12 3 0 7 10 8 23 3 25 7 45 16
67 3 8 13 40 23 70 9 30 42 94 73 142 31 48 62 99 69 112 7 14 21 28 32 31 11
4 20 10 20 15 0 5 9 12 20 15 11 4 28 17 36 31 15 22 15 26 0 49 -19 29 -21
29 -63 3z"/>
<path d="M1942 2577 c-24 -14 -20 -27 10 -27 11 0 18 7 18 20 0 23 2 23 -28 7z"/>
<path d="M1980 2562 c0 -12 3 -12 18 -1 9 7 19 14 21 16 2 1 -6 1 -18 0 -11
-1 -21 -8 -21 -15z"/>
</g>
</svg>
