<?xml version="1.0" standalone="no"?>
<!DOCTYPE svg PUBLIC "-//W3C//DTD SVG 20010904//EN"
 "http://www.w3.org/TR/2001/REC-SVG-20010904/DTD/svg10.dtd">
<svg version="1.0" xmlns="http://www.w3.org/2000/svg"
 width="500.000000pt" height="500.000000pt" viewBox="0 0 500.000000 500.000000"
 preserveAspectRatio="xMidYMid meet">
<metadata>
Created by potrace 1.14, written by Peter Selinger 2001-2017
</metadata>
<g transform="translate(0.000000,500.000000) scale(0.100000,-0.100000)"
fill="#000000" stroke="none">
<path d="M0 2500 l0 -2500 2500 0 2500 0 0 2500 0 2500 -2500 0 -2500 0 0
-2500z m900 355 l-155 -155 155 -156 155 -155 -24 -20 -25 -20 -172 172 c-96
95 -171 176 -169 179 3 3 83 82 177 177 172 172 173 172 193 153 20 -20 19
-21 -135 -175z m571 17 c23 -26 29 -42 29 -78 0 -40 -5 -51 -34 -78 l-33 -32
38 -82 38 -82 -42 0 -42 0 -35 80 c-29 65 -39 80 -57 80 -22 0 -23 -4 -23 -80
l0 -80 -35 0 -35 0 0 115 0 115 73 0 c100 0 144 32 101 74 -11 12 -36 16 -95
16 l-79 0 0 36 0 36 101 -4 c99 -3 101 -3 130 -36z m289 3 l0 -35 -55 0 -55 0
0 -45 0 -45 80 0 80 0 0 -35 0 -35 -80 0 -80 0 0 -45 0 -45 55 0 55 0 0 -35 0
-35 -95 0 -95 0 0 195 0 195 95 0 95 0 0 -35z m307 -120 c24 -16 31 -35 13
-35 -6 0 -22 7 -35 16 -30 20 -84 12 -109 -15 -44 -48 -24 -137 35 -161 29
-12 36 -11 71 7 44 25 65 11 28 -19 -31 -25 -109 -24 -142 2 -35 27 -52 72
-45 121 12 90 108 133 184 84z m288 -1 c30 -20 45 -56 45 -110 0 -39 -5 -51
-34 -80 -30 -30 -40 -34 -84 -34 -43 0 -55 5 -80 30 -46 45 -50 129 -10 178
35 41 113 49 163 16z m1358 4 c9 -5 17 -12 17 -17 0 -17 -13 -18 -42 -3 -38
19 -82 7 -86 -24 -2 -16 5 -24 30 -33 83 -30 103 -45 106 -78 5 -47 -26 -73
-86 -73 -28 0 -57 7 -71 16 -35 25 -11 36 37 18 38 -16 43 -16 67 0 44 29 31
54 -40 76 -53 17 -75 37 -75 70 0 58 75 83 143 48z m-1123 -79 l65 -91 3 91
c2 72 6 91 17 91 12 0 15 -21 15 -120 0 -97 -3 -120 -14 -120 -8 0 -46 44 -85
97 l-71 98 0 -98 c0 -80 -3 -97 -15 -97 -12 0 -15 20 -15 120 0 153 9 156 100
29z m246 -4 c20 -52 40 -95 44 -95 4 0 22 41 41 91 31 84 50 111 66 96 3 -4
-16 -58 -42 -122 -63 -151 -71 -151 -131 0 -49 122 -50 125 -30 125 9 0 29
-38 52 -95z m391 83 c-2 -8 -25 -13 -63 -14 l-59 -1 -3 -36 -3 -36 61 -3 c80
-4 82 -22 3 -26 l-63 -3 0 -39 0 -40 65 0 c51 0 65 -3 65 -15 0 -12 -16 -15
-80 -15 l-80 0 0 120 0 120 81 0 c60 0 80 -3 76 -12z m238 -13 c33 -32 31 -60
-5 -97 l-30 -29 31 -45 c27 -40 28 -44 11 -44 -13 0 -31 18 -51 49 -23 35 -37
48 -54 47 -19 -1 -22 -7 -25 -48 -2 -34 -7 -48 -18 -48 -11 0 -14 22 -14 120
l0 120 65 0 c57 0 69 -3 90 -25z m523 13 c-3 -8 -28 -14 -66 -16 l-62 -3 0
-34 0 -35 60 0 c47 0 60 -3 60 -15 0 -12 -13 -15 -60 -15 l-60 0 0 -40 0 -40
60 0 c47 0 60 -3 60 -15 0 -12 -15 -15 -74 -15 -41 0 -76 4 -78 10 -1 5 -2 59
0 120 l3 110 80 0 c60 0 80 -3 77 -12z m-1550 -355 c10 -30 0 -49 -11 -20 -3
9 -9 9 -25 0 -17 -10 -20 -10 -17 0 28 78 33 80 53 20z m99 2 c2 -31 0 -36 -8
-22 -5 9 -14 17 -19 17 -5 0 -11 -8 -13 -17 -3 -10 -5 1 -6 25 -1 40 1 43 22
40 18 -2 22 -10 24 -43z m426 38 c-18 -3 -23 -11 -23 -33 0 -22 5 -30 23 -33
19 -4 18 -4 -5 -6 -26 -1 -28 2 -28 39 0 37 2 40 28 39 23 -2 24 -2 5 -6z
m655 -2 c8 -5 12 -21 10 -37 -4 -38 -44 -47 -57 -12 -15 41 13 71 47 49z m82
-32 c0 -36 -2 -40 -22 -37 -31 4 -38 47 -9 55 12 3 21 9 21 14 0 5 2 9 5 9 3
0 5 -18 5 -41z m-1104 3 c1 -7 0 -8 -3 -2 -8 17 -23 11 -23 -9 0 -11 8 -22 18
-24 13 -4 12 -5 -4 -6 -26 -1 -39 26 -23 46 13 15 32 13 35 -5z m63 -12 c-12
-33 -24 -38 -33 -14 -11 28 -6 38 7 19 13 -17 14 -17 20 4 3 11 8 21 11 21 3
0 0 -13 -5 -30z m67 12 c1 -7 0 -8 -3 -2 -2 5 -12 10 -21 10 -15 0 -15 -2 -2
-10 10 -6 11 -10 3 -10 -19 0 -16 -18 5 -23 16 -4 16 -5 -1 -6 -20 -1 -32 22
-23 45 7 18 38 15 42 -4z m35 4 c-5 -6 -11 -20 -14 -31 -3 -14 -5 -10 -6 11
-1 21 4 31 14 31 9 0 11 -4 6 -11z m46 7 c-9 -2 -14 -9 -11 -15 4 -7 2 -8 -5
-4 -15 10 -4 26 17 25 15 -1 15 -2 -1 -6z m79 -11 c1 -7 0 -8 -3 -2 -8 17 -29
11 -30 -9 -1 -11 6 -22 15 -24 15 -4 15 -5 -1 -6 -20 -1 -32 22 -23 45 7 18
38 15 42 -4z m153 -14 c-2 -31 -2 -31 -6 -5 -5 32 -11 34 -29 10 -12 -16 -13
-16 -14 -1 0 9 6 19 13 21 29 12 37 6 36 -25z m61 12 c0 -12 -7 -20 -17 -21
-14 0 -13 -2 5 -9 26 -11 29 -25 6 -34 -14 -5 -15 -4 -4 9 10 12 10 15 -3 15
-8 0 -18 -6 -21 -12 -2 -7 -4 3 -4 22 2 43 5 50 24 50 8 0 14 -9 14 -20z m27
-27 c-3 -10 -5 -2 -5 17 0 19 2 27 5 18 2 -10 2 -26 0 -35z m69 14 c1 -25 1
-25 -3 -2 -6 34 -31 32 -36 -2 -4 -26 -4 -25 -6 5 -1 29 2 33 22 30 16 -2 22
-10 23 -31z m60 15 c1 -7 0 -8 -3 -2 -8 17 -23 11 -23 -9 0 -11 8 -22 18 -24
13 -4 12 -5 -4 -6 -26 -1 -39 26 -23 46 13 15 32 13 35 -5z m69 7 c4 -6 4 -13
0 -17 -4 -4 -10 -1 -12 6 -7 18 -19 14 -20 -7 -1 -11 6 -22 15 -24 12 -3 10
-5 -5 -6 -18 -1 -23 4 -23 22 0 13 3 27 7 30 10 10 31 8 38 -4z m39 3 c-7 -4
-14 -18 -17 -32 -4 -21 -4 -20 -6 8 -1 24 3 32 17 32 11 0 13 -3 6 -8z m95
-24 c-2 -32 -2 -32 -6 -5 -5 33 -25 31 -34 -4 l-7 -24 -1 27 c-1 14 5 29 12
31 29 12 37 6 36 -25z m61 12 c0 -12 -7 -20 -17 -21 -14 0 -13 -2 5 -9 26 -11
29 -25 6 -34 -14 -5 -15 -4 -4 9 10 12 10 15 -3 15 -8 0 -18 -6 -21 -12 -2 -7
-4 3 -4 22 2 43 5 50 24 50 8 0 14 -9 14 -20z m235 0 c19 33 19 21 0 -24 -17
-41 -20 -43 -22 -18 -1 9 -4 28 -7 42 l-7 25 11 -25 11 -25 14 25z m45 10
c-12 -8 -12 -10 3 -16 25 -9 21 -34 -5 -33 -22 0 -22 1 -3 9 18 7 19 8 3 15
-10 4 -18 13 -18 21 0 8 8 14 18 14 14 0 15 -2 2 -10z m55 0 c-18 -7 -19 -8
-2 -15 25 -10 21 -35 -5 -34 -21 0 -22 1 -3 8 18 7 18 8 1 18 -21 12 -13 33
12 32 14 0 13 -2 -3 -9z m79 -5 c3 -8 1 -15 -4 -15 -6 0 -10 5 -10 10 0 6 -4
10 -10 10 -17 0 -11 -38 8 -43 13 -4 11 -5 -5 -6 -18 -1 -23 4 -23 22 0 37 32
53 44 22z m51 -5 c19 33 19 21 0 -23 -8 -20 -20 -39 -27 -43 -10 -6 -10 -4 0
8 10 13 11 22 3 37 -6 11 -11 26 -10 33 0 7 5 2 10 -12 l10 -25 14 25z m-598
-27 c-3 -10 -5 -4 -5 12 0 17 2 24 5 18 2 -7 2 -21 0 -30z m-565 -5 c-5 -5
-18 -8 -28 -5 -15 4 -14 5 4 6 15 1 21 5 16 13 -5 7 -3 8 5 3 8 -5 9 -11 3
-17z"/>
<path d="M2245 2738 c-33 -19 -44 -41 -45 -89 0 -36 5 -50 25 -69 37 -34 90
-33 121 4 66 76 -16 203 -101 154z"/>
<path d="M3342 2698 c3 -40 5 -43 35 -46 50 -5 75 13 71 51 -3 31 -4 32 -56
35 l-53 3 3 -43z"/>
<path d="M2406 2415 c-3 -8 -1 -15 4 -15 6 0 10 7 10 15 0 8 -2 15 -4 15 -2 0
-6 -7 -10 -15z"/>
<path d="M2500 2424 c0 -9 5 -14 12 -12 18 6 21 28 4 28 -9 0 -16 -7 -16 -16z"/>
<path d="M3587 2434 c-4 -4 -7 -18 -7 -31 0 -17 6 -23 21 -23 16 0 20 5 17 27
-3 26 -18 39 -31 27z"/>
<path d="M3660 2400 c0 -11 7 -20 15 -20 8 0 15 9 15 20 0 11 -7 20 -15 20 -8
0 -15 -9 -15 -20z"/>
<path d="M3070 2410 c0 -5 5 -10 10 -10 6 0 10 5 10 10 0 6 -4 10 -10 10 -5 0
-10 -4 -10 -10z"/>
<path d="M3490 2410 c0 -5 5 -10 10 -10 6 0 10 5 10 10 0 6 -4 10 -10 10 -5 0
-10 -4 -10 -10z"/>
</g>
</svg>
