<?xml version="1.0" standalone="no"?>
<!DOCTYPE svg PUBLIC "-//W3C//DTD SVG 20010904//EN"
 "http://www.w3.org/TR/2001/REC-SVG-20010904/DTD/svg10.dtd">
<svg version="1.0" xmlns="http://www.w3.org/2000/svg"
 width="512.000000pt" height="512.000000pt" viewBox="0 0 512.000000 512.000000"
 preserveAspectRatio="xMidYMid meet">
<metadata>
Created by potrace 1.14, written by Peter Selinger 2001-2017
</metadata>
<g transform="translate(0.000000,512.000000) scale(0.100000,-0.100000)"
fill="#000000" stroke="none">
<path d="M3327 4144 c-1 -1 -38 -4 -82 -8 -235 -17 -496 -142 -669 -320 -57
-59 -140 -164 -148 -187 -3 -9 -23 -6 -68 9 -121 39 -187 46 -360 40 -8 0 -45
-7 -82 -14 -254 -51 -484 -227 -593 -452 l-30 -62 -55 6 c-226 25 -416 -6
-615 -100 -396 -188 -634 -578 -620 -1016 7 -223 61 -396 179 -574 177 -266
479 -450 791 -482 93 -10 3197 -11 3299 -2 216 21 400 106 557 258 146 142
233 300 274 495 11 52 14 258 5 310 -16 94 -19 105 -41 167 -64 183 -198 361
-352 466 -63 44 -173 98 -241 119 l-58 18 7 42 c38 255 8 464 -96 676 -165
334 -493 565 -854 603 -57 6 -145 11 -148 8z m133 -208 c73 -9 101 -16 180
-42 277 -92 492 -321 570 -606 25 -93 29 -124 30 -228 1 -103 -4 -140 -31
-247 -19 -71 -20 -87 -9 -113 16 -39 44 -58 95 -65 239 -35 447 -190 551 -410
45 -95 64 -172 70 -281 13 -280 -132 -540 -377 -677 -43 -23 -171 -74 -194
-76 -5 0 -30 -4 -55 -7 -60 -9 -3228 -9 -3305 0 -241 28 -466 159 -612 356
-163 219 -216 505 -143 769 121 433 547 711 990 644 47 -7 102 -16 122 -19 47
-7 93 18 108 60 60 161 109 237 205 324 147 130 357 188 555 152 36 -6 106
-29 156 -50 120 -51 155 -42 203 53 75 149 225 294 387 375 158 79 328 109
504 88z"/>
</g>
</svg>
