<?xml version="1.0" standalone="no"?>
<!DOCTYPE svg PUBLIC "-//W3C//DTD SVG 20010904//EN"
 "http://www.w3.org/TR/2001/REC-SVG-20010904/DTD/svg10.dtd">
<svg version="1.0" xmlns="http://www.w3.org/2000/svg"
 width="779.000000pt" height="779.000000pt" viewBox="0 0 779.000000 779.000000"
 preserveAspectRatio="xMidYMid meet">
<metadata>
Created by potrace 1.14, written by Peter Selinger 2001-2017
</metadata>
<g transform="translate(0.000000,779.000000) scale(0.100000,-0.100000)"
fill="#000000" stroke="none">
<path d="M1092 4918 l-1062 -1063 1063 -1063 1062 -1062 275 275 275 275 -787
788 -786 787 779 785 c428 432 779 788 779 791 0 3 -120 129 -267 278 l-268
272 -1063 -1063z"/>
<path d="M5366 5698 l-266 -273 583 -585 c320 -322 672 -676 782 -788 l200
-202 -784 -784 -785 -785 269 -276 269 -276 1063 1063 1063 1063 -1057 1057
c-582 582 -1061 1058 -1065 1058 -3 0 -126 -123 -272 -272z"/>
<path d="M3340 5024 c-174 -25 -402 -117 -547 -220 -149 -106 -330 -325 -403
-487 -137 -306 -156 -614 -55 -923 148 -453 524 -771 1005 -850 71 -12 136
-15 255 -11 156 5 195 12 375 63 44 13 204 95 270 139 94 62 231 205 298 310
58 90 122 241 152 353 38 144 52 416 29 549 l-11 63 -589 0 -589 0 0 -240 0
-240 335 0 c261 0 335 -3 335 -12 0 -23 -28 -104 -50 -149 -55 -110 -173 -224
-282 -274 -119 -54 -303 -83 -425 -65 -171 24 -304 91 -428 215 -102 102 -154
183 -190 298 -52 162 -55 279 -14 440 61 241 248 439 494 523 72 25 94 28 220
28 108 0 154 -4 200 -18 81 -25 170 -70 229 -117 27 -22 51 -39 55 -39 3 0 85
79 181 175 l174 174 -20 22 c-41 46 -175 137 -265 182 -234 115 -468 150 -739
111z"/>
<path d="M4990 3978 l1 -903 78 -194 78 -194 76 192 77 191 0 515 0 515 40 0
40 0 0 195 0 195 -40 0 -40 0 0 40 0 40 40 0 40 0 0 80 0 80 -40 0 -40 0 0 75
0 75 -155 0 -155 0 0 -902z m220 -900 c0 -7 -57 -149 -62 -153 -3 -3 -19 31
-36 75 l-30 80 64 0 c35 0 64 -1 64 -2z"/>
</g>
</svg>
