<?xml version="1.0" standalone="no"?>
<!DOCTYPE svg PUBLIC "-//W3C//DTD SVG 20010904//EN"
 "http://www.w3.org/TR/2001/REC-SVG-20010904/DTD/svg10.dtd">
<svg version="1.0" xmlns="http://www.w3.org/2000/svg"
 width="256.000000pt" height="256.000000pt" viewBox="0 0 256.000000 256.000000"
 preserveAspectRatio="xMidYMid meet">
<metadata>
Created by potrace 1.14, written by Peter Selinger 2001-2017
</metadata>
<g transform="translate(0.000000,256.000000) scale(0.100000,-0.100000)"
fill="#000000" stroke="none">
<path d="M1150 2379 c-171 -20 -334 -84 -505 -197 -218 -145 -420 -439 -465
-680 -10 -56 -24 -202 -24 -262 0 -58 17 -171 31 -210 3 -8 7 -25 9 -36 8 -67
95 -245 172 -354 146 -207 452 -411 690 -459 48 -10 172 -25 197 -23 143 6
241 17 300 32 79 20 203 71 245 100 14 10 44 27 68 39 39 20 75 49 209 172 23
21 66 69 95 106 29 38 55 70 58 73 40 39 152 310 165 401 13 92 17 284 6 338
-6 31 -13 74 -17 95 -16 104 -105 299 -190 413 -78 105 -154 176 -279 258
-150 99 -267 155 -357 170 -18 4 -53 11 -78 16 -63 15 -240 19 -330 8z"/>
</g>
</svg>
