<?xml version="1.0" standalone="no"?>
<!DOCTYPE svg PUBLIC "-//W3C//DTD SVG 20010904//EN"
 "http://www.w3.org/TR/2001/REC-SVG-20010904/DTD/svg10.dtd">
<svg version="1.0" xmlns="http://www.w3.org/2000/svg"
 width="512.000000pt" height="512.000000pt" viewBox="0 0 512.000000 512.000000"
 preserveAspectRatio="xMidYMid meet">
<metadata>
Created by potrace 1.14, written by Peter Selinger 2001-2017
</metadata>
<g transform="translate(0.000000,512.000000) scale(0.100000,-0.100000)"
fill="#000000" stroke="none">
<path d="M2363 5070 c-72 -37 -82 -65 -127 -370 -3 -19 -8 -58 -12 -86 -3 -28
-9 -56 -13 -61 -3 -5 -49 -24 -101 -42 -52 -18 -125 -48 -161 -66 l-66 -34
-174 126 c-96 69 -185 130 -199 135 -44 17 -82 16 -121 -5 -37 -19 -229 -208
-262 -257 -18 -27 -22 -95 -8 -132 7 -19 119 -174 221 -308 50 -65 49 -56 9
-134 -20 -39 -49 -107 -64 -151 -14 -44 -36 -97 -47 -118 -11 -21 -18 -47 -15
-57 4 -16 -1 -20 -27 -24 -73 -11 -103 -16 -141 -21 -22 -3 -67 -11 -100 -16
-33 -6 -73 -13 -90 -15 -55 -7 -68 -32 -69 -135 l-2 -92 -64 -32 c-114 -55
-212 -126 -311 -224 -189 -188 -299 -407 -337 -671 -9 -61 -8 -252 1 -322 39
-291 210 -580 445 -752 l80 -59 8 -56 c4 -31 8 -65 9 -76 4 -37 16 -120 20
-135 2 -8 6 -42 10 -75 3 -33 8 -69 10 -80 4 -18 7 -43 21 -155 17 -142 65
-255 150 -348 173 -192 453 -236 676 -105 85 50 169 139 212 227 39 80 53 146
92 426 14 107 27 202 29 210 1 8 6 42 9 75 10 84 11 86 68 125 29 19 90 72
137 118 l85 82 421 0 422 0 89 -88 c49 -48 110 -101 136 -117 48 -30 55 -45
63 -135 1 -14 5 -38 8 -55 3 -16 9 -52 12 -80 7 -55 8 -61 29 -215 8 -58 18
-127 21 -155 25 -198 138 -360 310 -444 90 -45 119 -52 225 -56 233 -8 454
148 530 375 16 49 26 102 45 250 12 91 16 116 20 140 3 14 7 45 10 70 7 61 36
265 38 265 17 5 139 106 193 159 184 185 290 397 328 658 13 86 13 252 2 316
-3 17 -8 45 -11 60 -3 16 -16 67 -29 114 -90 310 -299 564 -593 721 l-98 52 0
97 c0 111 -7 124 -70 133 -22 3 -62 10 -90 15 -27 5 -68 11 -90 14 -22 3 -58
7 -80 11 -22 3 -51 7 -65 9 -19 2 -26 10 -32 37 -9 48 -79 231 -120 314 l-34
71 108 144 c164 218 168 225 168 285 0 62 -8 74 -142 208 -109 109 -149 137
-196 137 -52 0 -87 -20 -266 -153 l-169 -125 -76 38 c-77 39 -129 59 -208 80
-37 9 -43 15 -44 38 0 15 -2 34 -4 42 -5 24 -26 162 -31 200 -2 19 -6 46 -9
60 -2 14 -7 45 -10 70 -9 58 -28 93 -67 122 -31 22 -43 23 -208 26 -162 3
-178 1 -217 -18z m336 -1315 c179 -54 309 -175 371 -346 11 -29 20 -62 20 -72
0 -28 37 -74 65 -81 21 -5 25 -12 25 -43 0 -20 -5 -65 -11 -101 -11 -63 -14
-67 -99 -153 l-87 -89 -422 -1 -422 -2 -84 84 c-91 91 -102 114 -112 230 l-6
69 30 6 c34 7 58 42 66 94 7 51 46 138 84 192 71 98 172 171 293 208 73 23
219 26 289 5z"/>
</g>
</svg>
