<?xml version="1.0" standalone="no"?>
<!DOCTYPE svg PUBLIC "-//W3C//DTD SVG 20010904//EN"
 "http://www.w3.org/TR/2001/REC-SVG-20010904/DTD/svg10.dtd">
<svg version="1.0" xmlns="http://www.w3.org/2000/svg"
 width="1038.000000pt" height="1038.000000pt" viewBox="0 0 1038.000000 1038.000000"
 preserveAspectRatio="xMidYMid meet">
<metadata>
Created by potrace 1.14, written by Peter Selinger 2001-2017
</metadata>
<g transform="translate(0.000000,1038.000000) scale(0.100000,-0.100000)"
fill="#000000" stroke="none">
<path d="M4845 10370 c-198 -17 -242 -21 -265 -25 -14 -2 -45 -7 -70 -10 -58
-8 -218 -33 -250 -40 -14 -3 -41 -8 -60 -11 -19 -4 -100 -21 -180 -39 -1144
-259 -2194 -929 -2912 -1856 -163 -212 -228 -309 -441 -664 -33 -56 -195 -389
-237 -490 -196 -464 -347 -1043 -386 -1485 -3 -41 -8 -77 -10 -81 -7 -12 -19
-317 -19 -484 1 -169 11 -438 19 -481 2 -10 7 -50 10 -89 4 -38 11 -97 16
-130 27 -186 26 -179 55 -325 114 -571 336 -1148 628 -1632 42 -70 77 -130 77
-132 0 -2 -18 -34 -40 -70 -246 -405 -220 -917 65 -1285 99 -129 219 -230 365
-309 346 -187 801 -171 1127 40 l70 46 59 -38 c497 -315 1187 -585 1754 -686
14 -2 34 -6 45 -9 11 -2 43 -7 70 -11 28 -3 53 -8 56 -10 3 -2 35 -6 70 -10
35 -3 66 -7 69 -9 3 -2 37 -6 75 -10 39 -4 84 -9 100 -11 150 -20 667 -26 865
-11 58 5 125 10 150 12 25 2 83 8 130 15 47 7 101 14 120 16 19 2 82 13 140
24 58 10 116 21 130 24 72 13 268 61 405 101 579 166 1147 445 1625 798 103
76 274 212 330 263 19 17 60 53 90 80 70 63 289 281 360 360 567 626 974 1391
1184 2229 22 87 72 321 81 380 10 62 19 122 21 135 2 20 15 118 20 150 27 198
27 1038 0 1210 -7 45 -18 124 -21 155 -2 17 -6 41 -8 55 -3 14 -8 41 -11 60
-13 75 -15 87 -26 140 -6 30 -13 69 -16 85 -14 83 -93 370 -144 525 -124 377
-263 683 -465 1023 l-84 141 25 33 c61 80 151 298 168 408 4 22 9 48 12 57 3
9 6 63 8 120 10 300 -85 566 -283 796 -124 144 -334 278 -526 336 -144 43
-347 55 -496 31 -160 -27 -326 -91 -447 -173 l-44 -30 -76 48 c-74 45 -191
112 -314 178 -168 91 -468 220 -688 297 -278 96 -686 197 -940 230 -25 3 -72
10 -105 15 -59 9 -107 13 -295 29 -116 10 -625 10 -735 1z m680 -594 c87 -6
319 -32 380 -42 486 -79 912 -212 1320 -412 161 -79 395 -209 395 -219 0 -3
-11 -35 -24 -72 -45 -125 -60 -224 -59 -386 0 -133 4 -163 31 -265 51 -197
143 -364 274 -501 155 -162 340 -269 553 -319 121 -29 150 -33 270 -32 136 0
221 13 348 53 54 17 100 30 102 28 2 -2 29 -47 60 -99 90 -152 227 -432 298
-610 58 -147 149 -415 161 -473 3 -12 14 -58 26 -102 23 -89 75 -343 85 -420
4 -27 9 -61 11 -75 2 -14 7 -52 10 -85 3 -33 7 -71 10 -85 24 -146 24 -709 0
-910 -3 -19 -7 -60 -11 -90 -11 -105 -26 -199 -60 -380 -15 -83 -53 -235 -92
-370 -25 -85 -48 -165 -50 -178 -3 -12 -9 -25 -14 -28 -5 -3 -9 -12 -9 -21 0
-15 -88 -246 -133 -348 -102 -233 -315 -614 -432 -771 -16 -23 -58 -80 -93
-128 -35 -48 -99 -130 -143 -183 l-80 -97 -436 436 -435 435 29 34 c156 179
360 511 471 764 71 163 163 428 187 540 2 11 15 72 29 135 13 63 27 138 31
165 3 28 8 59 10 70 33 151 38 622 10 845 -18 141 -25 191 -30 210 -2 8 -7 31
-10 50 -38 231 -174 634 -293 865 -70 137 -218 384 -262 438 -5 7 -45 58 -87
113 -165 214 -367 419 -588 593 -86 67 -319 231 -330 231 -2 0 -39 21 -82 46
-327 194 -807 359 -1190 408 -42 6 -55 8 -173 22 -79 10 -461 12 -555 4 -145
-14 -209 -21 -265 -31 -30 -5 -68 -11 -85 -14 -341 -58 -729 -197 -1052 -376
-95 -53 -322 -197 -343 -219 -3 -3 -23 -19 -45 -35 -22 -16 -51 -39 -64 -50
-418 -345 -720 -723 -936 -1168 -120 -249 -233 -586 -275 -822 -5 -33 -12 -69
-14 -80 -4 -23 -16 -108 -21 -145 -2 -14 -7 -54 -11 -90 -11 -86 -11 -553 -1
-655 5 -44 10 -97 12 -117 7 -68 45 -271 71 -378 95 -392 285 -806 524 -1140
237 -332 568 -651 907 -872 458 -299 963 -475 1533 -535 153 -16 567 -9 730
12 609 79 1212 330 1663 692 43 35 81 63 85 63 11 0 862 -854 861 -865 0 -12
-134 -123 -281 -233 -385 -290 -850 -533 -1313 -687 -92 -30 -291 -88 -345
-100 -8 -2 -58 -13 -110 -24 -80 -18 -173 -35 -300 -56 -14 -2 -45 -7 -70 -10
-25 -3 -64 -8 -87 -11 -213 -31 -779 -37 -943 -10 -14 3 -52 7 -85 10 -95 10
-133 15 -250 36 -60 10 -126 22 -145 25 -19 3 -62 12 -95 21 -33 8 -69 16 -80
19 -52 10 -290 79 -370 106 -268 92 -561 223 -808 363 -185 105 -171 88 -142
169 46 125 63 237 60 397 -2 80 -6 161 -10 180 -32 162 -117 357 -208 477
-288 381 -777 538 -1242 399 -44 -13 -87 -26 -95 -30 -12 -5 -33 23 -87 116
-317 544 -529 1197 -589 1808 -3 36 -8 79 -11 95 -2 17 -6 172 -8 345 -3 337
10 519 56 795 107 646 342 1249 698 1795 288 441 707 879 1142 1190 430 308
923 546 1430 690 125 35 413 101 499 114 180 26 330 43 475 52 61 3 111 7 112
8 6 5 416 -2 498 -8z m3319 -615 c305 -107 446 -469 293 -754 -139 -261 -468
-361 -727 -221 -115 62 -213 178 -256 303 -19 56 -22 83 -20 181 2 103 5 122
33 187 115 269 405 400 677 304z m-3414 -1195 c222 -19 405 -56 635 -128 55
-17 106 -34 115 -38 8 -4 51 -22 95 -41 658 -271 1203 -810 1484 -1467 92
-216 160 -451 191 -667 24 -158 31 -254 32 -412 1 -122 -8 -298 -18 -346 -2
-12 -6 -44 -10 -71 -15 -138 -73 -372 -128 -526 -13 -36 -32 -87 -41 -114 -30
-84 -171 -356 -236 -456 -357 -551 -879 -954 -1494 -1153 -93 -30 -225 -65
-275 -73 -19 -3 -51 -9 -70 -14 -19 -5 -60 -12 -90 -15 -30 -4 -64 -9 -75 -11
-94 -18 -419 -24 -580 -11 -92 8 -283 34 -294 41 -3 2 -24 7 -45 10 -184 29
-503 145 -726 262 -162 86 -384 236 -499 339 -199 175 -336 328 -492 545 -100
139 -246 419 -313 601 -65 176 -125 411 -142 554 -3 22 -7 47 -9 55 -18 66
-26 461 -12 620 6 70 24 199 41 295 67 370 275 828 518 1137 l44 57 452 -452
c248 -249 455 -455 458 -459 3 -4 -10 -34 -30 -67 -73 -120 -163 -350 -180
-461 -3 -19 -8 -46 -11 -60 -10 -49 -19 -166 -19 -250 2 -393 143 -744 419
-1039 54 -57 220 -194 276 -226 19 -10 55 -31 81 -46 209 -119 493 -189 746
-183 130 3 184 10 362 49 122 26 359 138 481 226 247 179 435 425 538 708 29
79 56 177 67 245 3 21 8 48 11 60 12 50 10 345 -3 430 -76 491 -375 902 -821
1125 -249 124 -561 177 -845 141 -213 -26 -432 -102 -591 -203 l-54 -35 -457
459 -458 459 33 27 c17 16 39 32 48 37 9 5 18 12 21 15 9 10 152 106 215 143
316 187 681 317 1024 364 25 3 57 8 71 10 14 2 70 7 125 10 55 4 101 7 102 8
5 4 264 -3 333 -8z m-60 -1880 c428 -92 730 -449 734 -871 1 -141 -7 -199 -45
-314 -102 -306 -376 -541 -699 -599 -79 -15 -254 -13 -331 3 -191 40 -329 114
-465 250 -517 515 -240 1396 481 1530 66 12 268 13 325 1z m-3510 -3829 c176
-40 332 -184 391 -357 31 -92 31 -249 0 -339 -110 -318 -467 -461 -760 -306
-71 38 -115 75 -173 146 -165 201 -145 529 43 709 77 75 191 137 269 147 19 3
37 7 40 10 5 5 161 -3 190 -10z"/>
</g>
</svg>
