<?xml version="1.0" standalone="no"?>
<!DOCTYPE svg PUBLIC "-//W3C//DTD SVG 20010904//EN"
 "http://www.w3.org/TR/2001/REC-SVG-20010904/DTD/svg10.dtd">
<svg version="1.0" xmlns="http://www.w3.org/2000/svg"
 width="614.000000pt" height="614.000000pt" viewBox="0 0 614.000000 614.000000"
 preserveAspectRatio="xMidYMid meet">
<metadata>
Created by potrace 1.14, written by Peter Selinger 2001-2017
</metadata>
<g transform="translate(0.000000,614.000000) scale(0.100000,-0.100000)"
fill="#000000" stroke="none">
<path d="M0 5070 c0 -708 4 -1069 10 -1065 6 4 8 11 5 16 -4 5 -2 9 4 9 5 0 8
9 6 20 -2 11 0 22 5 25 5 3 7 12 3 20 -3 8 0 15 5 15 12 0 62 44 62 54 0 4 -5
4 -12 0 -7 -5 -8 -3 -3 5 4 7 -2 22 -15 36 -13 13 -17 25 -11 29 5 4 12 2 16
-3 4 -7 15 -6 30 1 21 9 23 14 12 26 -10 13 -9 15 8 9 19 -7 19 -6 2 7 -23 18
-22 23 13 29 21 5 28 11 24 22 -4 10 0 15 12 16 11 0 41 3 67 5 32 3 46 1 42
-6 -3 -5 2 -10 12 -10 10 0 40 -16 67 -35 50 -35 151 -125 141 -125 -3 0 3 -8
12 -19 10 -10 20 -18 23 -18 3 1 16 -3 29 -7 l24 -8 -23 -18 -24 -18 27 5 c19
4 29 0 33 -11 3 -9 11 -13 17 -9 6 3 7 1 3 -5 -5 -9 -13 -9 -29 -1 -12 7 -19
8 -15 4 4 -4 0 -14 -10 -22 -15 -13 -12 -14 28 -9 44 6 44 5 20 -10 l-25 -15
27 5 c15 4 30 2 33 -4 3 -6 -1 -7 -9 -4 -9 3 -16 1 -16 -5 0 -6 4 -11 9 -11 4
0 6 -12 3 -26 -3 -16 -7 -21 -12 -14 -5 8 -9 7 -13 -4 -4 -9 -1 -15 5 -13 7 1
13 -8 14 -21 1 -18 -2 -21 -19 -16 -16 5 -19 3 -13 -11 4 -12 2 -16 -8 -12
-10 4 -13 1 -9 -9 3 -7 0 -14 -6 -14 -6 0 -11 -6 -11 -14 0 -9 7 -12 23 -9 16
3 18 2 8 -5 -16 -12 2 -27 22 -17 6 4 1 -2 -12 -13 -14 -11 -19 -21 -12 -23 6
-2 1 -10 -11 -18 -21 -13 -22 -13 -10 1 10 13 10 17 0 21 -10 4 -10 8 2 17 13
10 13 11 -2 6 -10 -3 -18 0 -18 6 0 6 -3 8 -7 4 -5 -4 -8 -17 -8 -29 0 -11 -6
-22 -13 -24 -7 -3 -10 1 -6 11 4 11 0 16 -14 16 -11 0 -22 -4 -24 -10 -2 -6
-49 3 -113 20 -115 31 -173 39 -125 17 24 -11 24 -11 -14 -15 -23 -2 -58 -17
-88 -38 -45 -30 -67 -39 -90 -35 -5 0 -8 -2 -8 -6 0 -5 20 -16 45 -26 25 -11
57 -33 71 -50 15 -18 34 -31 42 -29 8 2 11 -1 7 -7 -3 -6 4 -15 17 -20 13 -6
19 -10 15 -10 -11 -1 40 -51 51 -51 6 0 13 -7 16 -16 3 -8 10 -12 16 -9 5 3
10 -1 10 -9 0 -10 6 -13 16 -9 10 4 17 -2 21 -16 4 -17 8 -19 19 -10 12 10 13
9 8 -5 -4 -9 -1 -16 6 -16 8 0 7 -8 -5 -26 -18 -27 -7 -26 27 4 25 21 23 3 -3
-24 l-20 -21 20 -6 c12 -3 19 -2 16 3 -6 10 23 35 32 27 3 -4 13 -1 22 5 9 7
3 -2 -13 -20 -16 -17 -28 -34 -25 -36 2 -2 20 -9 39 -15 l35 -11 -36 5 c-28 4
-38 2 -43 -11 -13 -33 11 -39 56 -15 39 21 41 21 18 2 -14 -11 -29 -21 -33
-21 -5 0 -5 -4 -2 -10 3 -5 0 -7 -8 -5 -7 3 -24 1 -38 -4 -24 -10 -24 -10 -1
-10 12 -1 21 -4 21 -8 -3 -19 2 -25 14 -17 7 5 1 -1 -13 -13 -14 -13 -28 -23
-32 -23 -5 0 -8 -4 -8 -10 0 -5 7 -10 16 -10 8 0 13 4 10 9 -3 5 1 11 9 15 8
3 17 1 20 -5 4 -5 11 -7 16 -4 21 14 6 -22 -21 -49 -32 -32 -36 -41 -20 -51
13 -8 -6 -35 -24 -35 -6 0 -3 7 7 14 12 9 14 16 7 21 -6 4 -17 2 -24 -4 -7 -6
-17 -7 -22 -3 -5 4 -1 -2 9 -14 9 -11 14 -24 10 -29 -5 -4 -1 -6 8 -3 9 4 16
1 16 -8 0 -7 -4 -11 -9 -8 -4 3 -8 1 -8 -5 0 -6 -7 -7 -17 -4 -11 4 -14 3 -9
-6 5 -7 16 -9 29 -5 20 6 20 6 -1 -21 -23 -29 -29 -51 -11 -39 7 4 9 -1 7 -12
-2 -11 -11 -18 -21 -18 -9 1 -14 -3 -11 -8 3 -5 12 -7 20 -4 8 3 14 1 14 -5 0
-5 -7 -12 -15 -15 -13 -5 -12 -9 4 -23 19 -17 19 -18 2 -31 -21 -14 -21 -30
-3 -52 7 -10 8 -18 2 -24 -16 -16 75 -11 94 5 9 8 19 11 23 8 3 -4 -24 -20
-60 -37 -73 -33 -85 -45 -34 -35 l32 6 -24 -19 c-13 -11 -21 -24 -17 -31 4 -6
10 -9 14 -7 4 2 8 -11 9 -30 2 -19 -2 -34 -7 -34 -6 0 3 -13 19 -29 20 -19 26
-31 18 -35 -9 -3 -8 -7 3 -15 13 -10 13 -12 0 -22 -12 -8 -10 -9 7 -4 19 5 22
3 16 -11 -3 -10 0 -22 8 -28 8 -6 20 -24 27 -39 13 -30 17 -35 58 -82 15 -16
20 -21 13 -10 -13 18 -12 19 3 7 9 -8 14 -20 11 -28 -3 -8 1 -14 9 -14 8 0 27
-13 43 -30 16 -17 25 -30 21 -30 -4 0 -1 -7 8 -15 8 -8 19 -15 24 -15 13 0 21
-46 11 -62 -6 -9 -9 -6 -9 11 0 21 -2 22 -18 10 -14 -11 -15 -11 -4 1 28 32
-5 48 -41 19 l-25 -19 6 23 c5 20 4 21 -11 8 -16 -12 -17 -12 -11 5 7 18 6 18
-12 3 -24 -20 -44 -14 -37 11 6 22 -7 26 -24 9 -8 -8 -13 -7 -18 2 -6 8 -4 10
6 4 8 -5 11 -5 7 0 -4 4 -3 14 3 22 7 8 8 13 1 13 -5 0 -12 -7 -16 -15 -3 -8
-12 -15 -21 -15 -15 0 -19 11 -15 39 1 13 -1 13 -14 2 -14 -12 -16 -10 -16 15
0 16 -4 24 -8 18 -4 -6 -18 -17 -32 -24 -23 -12 -24 -12 -12 3 11 13 11 18 0
31 -11 12 -15 12 -31 -2 -17 -15 -17 -15 -8 12 9 21 8 25 -2 19 -18 -11 -38
-13 -31 -2 3 5 10 7 15 4 5 -4 9 1 9 10 0 9 -5 13 -10 10 -6 -3 -10 0 -10 7
-1 7 -15 -3 -32 -22 -19 -23 -26 -27 -18 -12 14 28 21 62 13 62 -3 0 -29 -14
-57 -31 -28 -18 -46 -25 -39 -18 6 8 11 18 11 22 0 5 4 12 8 15 4 4 4 1 -1 -7
-5 -9 -3 -12 6 -9 8 3 13 10 12 16 -1 5 4 16 12 22 18 15 20 34 3 24 -8 -5 -9
-2 -4 11 5 15 4 16 -8 6 -12 -10 -14 -9 -9 7 5 19 -20 37 -37 27 -5 -3 -7 4
-5 16 2 12 2 19 -2 15 -3 -3 -13 0 -21 7 -9 7 -13 7 -9 1 4 -7 -2 -9 -19 -6
l-25 5 20 21 c30 32 26 39 -16 33 l-37 -6 32 19 c18 11 32 23 32 26 0 4 -7 1
-15 -6 -19 -16 -34 -5 -17 12 18 18 14 27 -9 23 -17 -3 -19 -2 -9 10 10 12 7
13 -22 5 -41 -12 -41 -12 -32 2 4 7 -8 3 -27 -8 l-34 -20 -3 -961 -2 -960 57
9 c91 15 279 2 398 -29 141 -35 392 -154 438 -206 77 -88 -92 -179 -305 -164
-74 5 -92 11 -246 86 -136 65 -317 141 -338 141 -2 0 -4 -115 -4 -255 l0 -254
3070 -1 3070 0 0 319 c0 296 -1 320 -17 324 -17 4 -17 5 0 6 13 1 17 10 17 45
0 26 -5 46 -12 49 -10 4 -10 6 0 6 9 1 12 135 12 637 l0 635 -66 -3 c-54 -2
-68 0 -77 14 -18 27 11 49 64 50 24 0 52 2 62 5 16 4 17 79 17 1394 l0 1389
-39 -6 c-39 -6 -81 8 -81 28 0 7 21 9 60 6 l60 -4 0 198 0 198 -37 1 c-84 1
-193 10 -283 24 -52 8 -117 17 -145 20 -117 13 -283 32 -470 54 -38 5 -142 16
-230 25 -88 9 -216 24 -285 33 -69 9 -148 19 -177 23 -60 7 -71 14 -57 38 9
13 5 20 -20 37 -29 19 -31 25 -34 88 -4 81 8 107 49 107 52 0 1450 -200 1613
-231 27 -5 55 -9 62 -9 12 0 14 56 14 320 l0 320 -3070 0 -3070 0 0 -1070z
m1631 312 c7 10 11 10 21 0 19 -19 28 -14 28 14 0 14 4 23 10 19 6 -4 8 -10 5
-15 -3 -4 7 -7 22 -5 15 1 29 8 31 14 3 8 10 7 23 -5 11 -9 22 -14 25 -11 4 3
15 2 25 -4 13 -6 19 -6 19 1 0 6 8 5 20 -2 17 -11 22 -10 29 0 6 11 10 10 15
-4 6 -16 7 -16 20 2 14 18 15 18 35 0 21 -19 21 -19 22 0 0 18 1 18 9 -1 5
-11 9 -14 9 -7 1 9 8 8 26 -4 23 -15 30 -12 25 11 -1 5 8 1 19 -9 12 -11 21
-15 21 -11 0 4 8 1 18 -8 19 -17 33 -13 50 18 11 19 11 18 12 -7 0 -15 5 -30
10 -33 6 -3 10 -1 10 5 0 8 6 8 20 0 18 -10 19 -9 10 16 -16 41 -3 41 16 0 10
-20 24 -36 31 -36 8 0 11 5 8 10 -3 6 -1 10 4 10 6 0 11 -3 11 -8 0 -13 37
-31 81 -37 24 -4 49 -10 54 -14 6 -4 17 -7 25 -6 8 0 21 -5 28 -12 8 -7 18
-11 23 -7 6 3 16 1 24 -6 7 -6 33 -12 57 -13 32 -2 42 -6 41 -17 -2 -10 14
-22 47 -35 28 -11 50 -23 50 -28 0 -5 7 -6 16 -3 8 3 13 2 10 -3 -7 -11 22
-23 35 -16 5 4 6 -2 2 -11 -4 -12 -3 -15 5 -10 6 4 20 2 31 -3 15 -9 22 -6 35
12 16 22 16 22 6 0 -12 -26 -3 -56 16 -49 7 3 16 -4 19 -15 6 -18 17 -24 38
-20 5 1 11 -8 14 -19 3 -11 9 -18 13 -15 4 3 10 -2 14 -10 3 -8 15 -15 26 -15
12 0 30 -5 41 -10 14 -8 19 -7 19 1 0 7 2 10 5 7 3 -3 0 -17 -6 -31 -9 -21 -9
-29 2 -40 8 -7 20 -12 27 -9 6 2 12 -2 12 -10 0 -7 9 -19 20 -26 12 -7 18 -16
16 -21 -6 -9 37 -31 61 -31 12 0 13 -3 4 -14 -10 -12 -8 -17 9 -26 21 -11 18
-35 -3 -24 -7 3 -1 -4 13 -15 14 -12 33 -19 43 -17 15 4 16 2 6 -10 -8 -10 -8
-14 -1 -14 7 0 15 -15 20 -32 6 -22 15 -33 25 -32 12 1 14 -2 8 -14 -11 -19
13 -46 34 -38 13 4 12 1 -1 -19 -15 -23 -15 -25 0 -31 9 -3 16 -14 16 -24 0
-9 10 -30 21 -44 17 -21 24 -25 30 -14 6 8 7 0 3 -19 -5 -25 -3 -34 10 -39 13
-5 14 -9 5 -20 -9 -11 -8 -14 4 -14 10 0 14 -6 11 -15 -3 -8 1 -22 10 -30 9
-9 16 -22 16 -28 0 -7 -5 -6 -11 3 -8 12 -9 10 -4 -8 4 -13 16 -33 27 -44 12
-12 18 -28 15 -39 -3 -11 0 -19 7 -19 15 0 18 -40 4 -57 -8 -11 -7 -12 7 -7
15 6 16 4 5 -17 l-13 -23 27 17 c30 20 32 16 9 -24 -21 -36 -10 -48 19 -23
l23 19 -19 -22 c-32 -38 -29 -71 7 -94 30 -18 30 -19 6 -14 -19 5 -26 2 -26
-8 0 -10 6 -13 16 -9 14 5 14 3 2 -11 -15 -19 -8 -22 20 -7 24 13 24 9 -1 -34
-13 -24 -16 -37 -9 -42 6 -4 15 0 20 7 6 9 9 10 9 2 0 -6 -4 -14 -9 -17 -5 -3
-11 -15 -14 -27 -5 -20 -5 -20 15 -2 12 10 18 12 14 6 -11 -20 -16 -55 -9 -67
4 -6 6 -23 4 -37 -2 -24 3 -29 46 -45 26 -9 53 -22 58 -27 7 -7 3 -7 -10 -2
-87 32 -164 47 -280 54 -129 8 -129 8 -37 9 91 2 106 8 78 32 -8 6 -13 17 -10
24 3 8 -2 20 -10 29 -8 8 -12 17 -9 21 4 3 1 6 -5 6 -7 0 -11 3 -11 8 1 4 -4
21 -10 39 -8 21 -17 30 -27 26 -10 -4 -12 0 -7 13 4 12 3 15 -5 10 -8 -4 -10
-2 -6 8 3 8 -2 17 -13 20 -10 4 -35 22 -57 41 -21 19 -45 35 -53 35 -8 0 -12
4 -9 9 3 5 0 11 -7 14 -10 4 -13 -2 -10 -21 3 -24 2 -25 -6 -6 -5 12 -17 24
-27 28 -14 5 -15 4 -4 -9 11 -13 10 -14 -11 -6 -13 5 -23 15 -21 22 2 9 -3 8
-16 -4 -10 -9 -25 -17 -34 -17 -8 0 -25 -8 -37 -17 -11 -10 -32 -27 -45 -38
-14 -10 -22 -23 -20 -27 3 -4 0 -8 -7 -8 -9 0 -9 -3 0 -14 10 -11 7 -17 -11
-30 -12 -9 -17 -16 -11 -16 7 0 15 5 18 10 3 6 14 10 23 10 12 0 9 -4 -8 -13
-16 -8 -26 -23 -28 -40 -2 -15 -8 -27 -13 -27 -5 0 -9 -7 -9 -16 0 -9 5 -12
12 -8 7 5 8 3 3 -7 -5 -7 -8 -27 -7 -45 2 -18 -4 -37 -13 -44 -8 -7 -15 -18
-15 -24 0 -6 5 -4 10 4 6 10 10 11 10 3 0 -7 4 -13 10 -13 5 0 7 8 4 18 -5 14
-4 15 5 2 6 -8 11 -18 11 -21 0 -6 -84 -23 -86 -17 0 2 -8 -3 -17 -11 -9 -7
-24 -11 -32 -7 -8 3 -15 2 -15 -3 0 -7 -64 -7 -80 -1 -3 1 -9 2 -14 1 -4 -1
-15 6 -23 16 -14 17 -14 17 -9 0 3 -10 6 -23 6 -28 0 -5 12 -10 28 -10 24 -2
24 -2 4 -6 -13 -3 -80 16 -150 40 -70 25 -147 48 -172 52 -25 4 -40 10 -33 12
15 5 207 -43 242 -61 48 -25 72 -29 65 -12 -3 8 -11 13 -17 10 -7 -2 -23 14
-37 35 -13 22 -26 38 -29 36 -2 -3 2 -11 9 -20 7 -8 8 -15 3 -15 -5 0 -15 11
-21 25 -12 26 -35 36 -26 10 4 -8 2 -15 -4 -15 -5 0 -13 10 -16 23 -7 21 -7
21 -16 2 -5 -11 -9 -14 -9 -7 -1 7 -5 10 -11 7 -6 -3 -10 2 -10 12 0 23 -18
43 -39 43 -12 0 -12 -3 -3 -12 7 -7 12 -17 12 -22 0 -6 -5 -3 -11 7 -6 9 -15
15 -21 11 -6 -4 -6 1 1 14 8 15 8 23 -1 28 -7 5 -8 3 -3 -6 5 -8 3 -11 -5 -8
-7 2 -14 12 -16 23 -1 10 -8 21 -14 25 -9 6 -9 13 -1 28 15 28 14 42 -3 36 -8
-3 -17 0 -22 7 -5 8 -3 10 5 4 8 -4 7 4 -3 24 -9 17 -21 31 -26 31 -6 0 -10 7
-10 16 0 14 -3 14 -16 4 -12 -11 -15 -11 -12 1 2 8 -3 13 -10 11 -8 -1 -11 2
-8 7 4 5 -5 21 -18 36 -23 25 -25 25 -36 8 -10 -15 -11 -15 -6 -1 3 12 -3 18
-25 23 -24 6 -28 9 -17 18 7 7 11 11 9 9 -2 -1 -14 4 -26 12 -14 9 -27 11 -36
5 -12 -7 -12 -9 0 -9 8 0 12 -3 9 -6 -4 -3 -16 -1 -27 5 -23 13 -19 33 12 69
31 34 10 26 -28 -11 -32 -31 -33 -34 -17 -50 16 -16 15 -17 -10 -5 -15 7 -26
15 -26 18 2 25 -4 31 -24 25 -18 -5 -20 -4 -8 4 12 8 12 13 3 22 -9 9 -16 9
-27 -1 -9 -7 -14 -16 -11 -19 2 -4 -2 -8 -10 -8 -24 0 -18 16 20 54 20 20 33
38 29 42 -4 3 -9 0 -11 -7 -8 -22 -23 -1 -17 24 5 20 3 24 -17 24 -14 0 -19
-3 -13 -8 7 -4 12 -20 12 -36 0 -17 -3 -23 -8 -15 -5 6 -6 18 -3 25 8 23 -47
29 -97 11 -45 -16 -45 -16 -21 4 13 10 29 19 35 19 11 0 36 79 36 111 0 20
-20 -3 -21 -24 -1 -18 -2 -16 -10 7 -4 17 -7 30 -6 30 1 1 12 7 25 14 18 10
22 10 22 0 0 -9 3 -8 10 2 5 8 10 10 10 4 0 -14 34 -24 49 -15 12 8 3 51 -11
51 -5 0 -4 -8 2 -19 8 -17 7 -20 -10 -18 -14 1 -18 6 -14 19 4 13 0 18 -13 18
-14 0 -15 -2 -4 -9 8 -5 -5 -7 -34 -3 -38 4 -46 2 -40 -8 5 -9 4 -11 -4 -6 -9
6 -9 11 0 22 6 8 9 14 6 14 -3 0 1 23 9 51 12 39 13 54 4 59 -8 5 -4 9 10 13
12 3 24 15 27 26 3 12 10 21 15 21 6 0 8 18 6 40 -2 22 0 40 5 40 4 0 7 17 5
37 -2 28 -9 41 -28 50 -19 9 -26 9 -32 0 -6 -9 -8 -8 -8 2 0 10 -3 11 -14 2
-11 -9 -16 -9 -22 0 -4 7 -3 9 4 5 17 -10 34 28 19 43 -7 7 -7 11 -2 10 6 -1
21 3 35 10 l25 11 -28 -3 c-15 -3 -30 0 -33 5 -3 4 -10 5 -16 2 -6 -4 -8 -2
-4 4 3 5 0 13 -6 15 -9 4 -8 6 2 6 8 0 22 -3 30 -9 9 -6 17 -5 23 3 7 9 10 9
14 0 9 -22 20 -14 16 11 -3 14 -14 27 -26 30 -12 3 -18 8 -15 11 3 4 16 1 28
-5 19 -10 21 -9 18 7 -3 13 -11 17 -31 15 -15 -1 -27 2 -27 8 0 6 -5 8 -12 4
-7 -5 -8 -3 -3 5 4 7 16 11 26 8 12 -3 19 0 19 9 0 7 -6 11 -14 8 -16 -6 -51
39 -43 54 3 4 2 14 -2 21 -6 9 -11 10 -15 2 -4 -6 -2 -11 4 -11 8 0 7 -6 -1
-21 -12 -23 -24 -16 -32 16 -4 18 -5 18 -6 -2 -1 -22 -31 -34 -31 -12 0 5 -4
7 -10 4 -5 -3 -10 1 -10 10 0 9 5 13 10 10 6 -3 10 -1 10 5 0 6 -11 8 -26 6
-19 -4 -27 1 -35 17 -9 20 -9 19 -6 -6 4 -25 3 -26 -12 -14 -9 8 -22 12 -28
10 -15 -5 -45 21 -36 31 4 3 1 6 -5 6 -7 0 -12 -7 -12 -15 0 -9 -9 -15 -22
-15 -17 0 -19 3 -9 9 8 5 9 11 3 15 -6 3 -18 -2 -28 -11 -17 -17 -18 -17 -11
0 4 11 1 24 -7 33 -17 16 -30 19 -21 4 8 -13 -11 -13 -36 0 -13 7 -19 7 -19 0
0 -15 -16 -12 -34 6 -15 14 -16 14 -16 -3 0 -14 -2 -15 -9 -4 -6 9 -18 11 -34
7 -14 -3 -29 -2 -32 4 -3 5 -12 10 -18 10 -7 0 -6 -4 3 -10 17 -11 10 -13 -14
-4 -9 3 -14 9 -11 14 2 4 -7 6 -20 4 -14 -1 -27 2 -31 7 -3 5 0 9 6 9 8 0 8 6
0 20 -6 11 -15 18 -19 15 -10 -6 -25 84 -16 93 4 4 11 8 16 8 5 1 11 3 14 4 3
1 8 3 13 5 4 1 15 5 25 9 9 5 24 5 33 2 15 -6 15 -4 3 10 -12 15 -11 16 8 10
13 -4 25 -2 30 6 4 7 24 14 43 15 19 1 40 3 45 4 6 1 19 -2 29 -7 14 -5 17 -4
11 5 -6 10 -3 11 11 3 11 -6 31 -9 46 -9 23 2 26 5 22 27 l-5 25 22 -28 c16
-22 24 -25 30 -15z m3414 -1 c185 -24 195 -27 195 -48 0 -12 -6 -14 -27 -9
-16 4 -39 6 -53 5 -63 -6 -145 -2 -270 14 -192 25 -192 25 -220 48 l-25 20
120 -4 c66 -2 192 -14 280 -26z m-146 -54 c11 -9 9 -14 -9 -29 -18 -15 -33
-17 -74 -12 -55 6 -106 22 -106 33 0 4 6 13 13 20 14 15 154 5 176 -12z m41
-75 c63 -10 90 -20 90 -33 0 -14 -36 -29 -69 -29 -17 0 -31 -4 -31 -10 0 -5
22 -10 48 -10 27 0 52 -3 56 -7 4 -4 45 -8 92 -8 51 -1 89 -6 97 -14 20 -20
-12 -33 -68 -26 -27 4 -79 9 -115 12 -36 2 -74 10 -86 18 -14 9 -25 10 -38 3
-35 -20 -186 8 -186 34 0 4 32 8 70 8 39 0 70 4 70 9 0 13 -26 21 -66 21 -41
0 -97 26 -88 41 7 12 135 7 224 -9z m355 -42 c111 -10 180 -30 180 -51 0 -17
-27 -17 -140 -1 -44 6 -119 14 -167 17 -89 7 -127 22 -113 45 6 9 25 11 74 6
36 -3 111 -10 166 -16z m-1165 -143 c0 -61 4 -127 9 -144 18 -63 49 -773 34
-773 -30 0 -45 194 -59 743 -5 214 -4 287 4 287 8 0 12 -34 12 -113z m1508 81
c3 -15 -4 -18 -35 -18 -37 0 -63 14 -63 33 0 4 21 7 47 5 36 -2 49 -7 51 -20z
m-549 -57 c19 -19 28 -20 96 -14 53 4 79 2 90 -7 22 -18 12 -26 -53 -39 -49
-9 -70 -9 -118 4 -66 17 -134 20 -134 5 0 -5 12 -10 28 -10 15 0 44 -5 65 -11
20 -5 65 -12 100 -14 34 -1 96 -8 137 -14 41 -6 125 -15 185 -20 176 -16 326
-42 332 -58 11 -29 -14 -38 -75 -25 -31 6 -97 16 -147 21 -335 37 -527 62
-575 76 -34 11 -72 15 -100 12 -25 -3 -65 0 -90 5 -105 26 -134 36 -138 48 -4
10 14 11 84 7 49 -3 101 -9 117 -13 16 -4 27 -2 27 4 0 12 -54 32 -86 32 -29
0 -74 20 -74 33 0 6 59 8 154 4 139 -4 155 -6 175 -26z m323 -47 c19 -12 -6
-24 -51 -24 -54 0 -66 7 -49 28 9 10 23 12 52 8 21 -4 43 -9 48 -12z m-3567
-47 c29 1 43 -2 39 -9 -3 -5 -17 -8 -30 -5 -13 2 -24 -1 -25 -7 0 -8 -2 -8 -5
0 -2 6 -18 8 -36 6 -30 -5 -30 -4 -12 14 11 11 20 15 22 9 1 -5 23 -9 47 -8z
m-98 -23 c-3 -3 -12 -4 -19 -1 -8 3 -5 6 6 6 11 1 17 -2 13 -5z m153 -35 c0
-3 -11 -11 -25 -17 -14 -6 -25 -16 -25 -22 0 -5 -6 -10 -13 -10 -7 0 -13 8
-13 19 0 10 5 17 12 14 6 -2 14 3 17 11 6 14 47 19 47 5z m7 -33 c0 -8 -6 -12
-15 -9 -11 5 -11 7 0 14 7 5 13 9 14 9 0 0 1 -6 1 -14z m4035 2 c48 -14 44
-32 -8 -36 -46 -3 -69 10 -61 32 8 19 17 20 69 4z m-965 -22 c15 -14 -23 -26
-87 -26 -62 0 -90 10 -90 33 0 11 166 4 177 -7z m-3182 -6 c3 -6 -1 -7 -9 -4
-18 7 -21 14 -7 14 6 0 13 -4 16 -10z m3220 -55 c224 -12 322 -24 354 -43 l32
-20 -26 -6 c-14 -4 -30 -4 -34 -2 -5 3 -57 8 -117 11 -165 8 -215 15 -221 31
-4 11 -21 13 -87 8 -84 -6 -143 6 -130 27 4 8 32 9 88 4 44 -4 108 -9 141 -10z
m-3155 -25 c0 -5 -8 -10 -17 -10 -9 0 -25 -7 -35 -17 -10 -9 -18 -11 -18 -5 0
6 12 18 28 26 32 18 42 19 42 6z m3710 -25 c15 -19 13 -21 -25 -29 -38 -8 -80
17 -55 34 22 15 66 12 80 -5z m165 -25 c0 -17 -27 -24 -61 -16 -30 8 -31 23
-1 29 38 8 62 3 62 -13z m-655 -6 c19 -8 59 -14 88 -13 37 2 56 -2 63 -12 16
-26 3 -33 -74 -35 -63 -3 -85 1 -132 21 -42 19 -61 23 -75 15 -40 -22 -163 -5
-168 23 -3 16 8 17 130 16 90 -1 144 -6 168 -15z m230 -45 c0 -5 -4 -9 -10 -9
-5 0 -10 7 -10 16 0 8 5 12 10 9 6 -3 10 -10 10 -16z m-3443 -27 c-10 -10 -15
-22 -12 -25 3 -4 2 -5 -2 -2 -3 3 -16 -3 -27 -12 -18 -15 -18 -14 2 8 12 14
22 31 22 37 0 7 7 12 17 12 15 0 15 -1 0 -18z m3126 -13 c17 -8 30 -8 44 -1
14 8 32 7 64 -2 24 -7 121 -19 214 -26 125 -10 178 -18 198 -31 16 -9 24 -20
19 -23 -6 -3 -102 -1 -214 4 -156 9 -216 16 -260 31 -46 16 -62 18 -79 9 -38
-21 -169 6 -169 35 0 12 15 15 80 15 43 0 90 -5 103 -11z m-3248 -49 c3 -5 1
-10 -4 -10 -6 0 -11 5 -11 10 0 6 2 10 4 10 3 0 8 -4 11 -10z m62 -32 c-3 -8
-6 -5 -6 6 -1 11 2 17 5 13 3 -3 4 -12 1 -19z m3896 15 c12 -11 -15 -33 -40
-33 -31 0 -65 18 -58 31 7 10 88 13 98 2z m-673 -28 c25 -30 4 -45 -59 -45
-51 0 -61 -3 -66 -20 -8 -25 -39 -33 -89 -23 -49 11 -56 28 -16 41 19 7 30 18
30 30 0 10 2 21 5 24 3 3 46 6 95 6 65 1 92 -3 100 -13z m143 -30 c-5 -32 -80
-29 -91 3 -3 10 8 12 44 10 27 -2 48 -7 47 -13z m-3393 -73 c0 -5 -12 -14 -27
-21 l-28 -12 25 21 c29 22 30 23 30 12z m3051 -95 c-13 -13 -26 -3 -16 12 3 6
11 8 17 5 6 -4 6 -10 -1 -17z m-3037 -32 c-18 -14 -18 -14 4 -15 19 0 21 -2
10 -14 -7 -8 -14 -10 -16 -5 -7 17 -23 9 -42 -23 -11 -18 -20 -28 -20 -22 0
17 59 94 72 94 6 0 3 -7 -8 -15z m77 -38 c-10 -9 -11 -8 -5 6 3 10 9 15 12 12
3 -3 0 -11 -7 -18z m3361 -17 c51 1 88 -13 88 -34 0 -10 -36 -13 -164 -14
-148 -2 -166 0 -188 17 l-23 20 25 10 c15 7 62 9 120 5 52 -3 116 -5 142 -4z
m222 -26 c28 -11 18 -34 -13 -34 -31 0 -47 13 -36 30 7 11 26 13 49 4z m181
-7 c34 -9 51 -19 53 -32 4 -19 6 -19 -120 1 -41 7 -48 17 -20 33 22 13 27 13
87 -2z m-3908 -49 c-3 -7 -5 -2 -5 12 0 14 2 19 5 13 2 -7 2 -19 0 -25z m4117
26 c23 -9 20 -19 -8 -32 -18 -8 -28 -8 -42 2 -32 24 6 47 50 30z m194 -23 c-6
-29 -88 -26 -88 3 0 18 14 23 57 18 25 -3 33 -9 31 -21z m-979 8 c58 2 85 -12
76 -40 -3 -9 -1 -20 5 -24 12 -8 14 -45 1 -45 -5 0 -14 7 -21 15 -17 21 -37
19 -50 -5 -8 -15 -21 -20 -55 -20 -24 0 -54 -5 -67 -10 -31 -14 -123 9 -123
30 0 23 118 45 170 32 22 -6 44 -7 48 -3 11 11 -49 35 -68 27 -18 -6 -126 12
-139 24 -4 5 -5 14 -1 20 5 9 30 10 89 4 44 -4 105 -6 135 -5z m-3352 -15 c-3
-3 -12 -4 -19 -1 -8 3 -5 6 6 6 11 1 17 -2 13 -5z m3592 -8 c18 -22 -12 -40
-56 -33 -71 12 -70 47 1 47 25 0 49 -6 55 -14z m-3339 -9 c0 -5 -6 -7 -14 -4
-8 3 -17 1 -19 -6 -2 -7 -8 -8 -13 -4 -10 9 10 24 31 24 8 0 15 -5 15 -10z
m-4 -45 c-10 -2 -22 0 -28 6 -6 6 0 7 19 4 21 -5 23 -7 9 -10z m-56 -12 c0 -5
5 -10 11 -10 5 0 7 5 3 12 -5 7 -3 8 5 3 9 -5 10 -10 2 -18 -7 -7 -15 -6 -25
2 -11 9 -24 10 -52 2 -43 -12 -59 -6 -23 8 32 13 79 13 79 1z m70 -14 c0 -2
-9 -6 -20 -9 -11 -3 -18 -1 -14 4 5 9 34 13 34 5z m50 -15 c-30 -17 -60 -23
-60 -11 0 6 3 9 8 7 4 -3 16 -1 27 4 27 10 44 11 25 0z m2964 -40 c50 -12 63
-25 46 -46 -24 -29 -198 -14 -188 16 4 12 61 36 88 38 8 0 32 -4 54 -8z m126
-26 c20 -25 2 -37 -31 -20 -16 9 -27 20 -24 25 9 15 41 12 55 -5z m155 -76
c113 -10 195 -31 195 -51 0 -17 -33 -21 -106 -12 -87 11 -106 5 -86 -27 12
-18 11 -24 -1 -36 -12 -13 -17 -10 -35 21 -17 29 -27 36 -69 41 -26 4 -62 16
-79 26 -40 24 -65 24 -86 -1 -14 -16 -25 -18 -70 -13 -57 6 -88 18 -88 33 0
20 37 27 102 19 53 -6 73 -5 95 7 19 10 42 13 68 9 22 -3 94 -11 160 -16z
m357 -35 c96 -27 63 -51 -51 -37 -69 9 -86 23 -49 41 31 14 33 14 100 -4z
m-4883 2 c-20 -17 -49 -25 -55 -14 -4 6 -3 8 2 5 6 -3 16 -2 24 4 14 8 38 13
29 5z m5113 -22 c17 -11 -15 -34 -47 -34 -35 0 -61 22 -50 41 7 11 76 6 97 -7z
m-794 -37 c24 -8 40 -8 65 1 43 16 62 15 76 -2 9 -11 8 -18 -4 -30 -19 -18
-25 -19 -80 -6 -25 6 -44 5 -49 0 -6 -6 -27 -10 -48 -10 -32 0 -40 -4 -48 -25
-8 -20 -16 -25 -45 -25 -20 0 -54 9 -76 21 -34 17 -40 24 -37 47 3 25 7 27 65
32 34 3 65 9 70 13 9 9 61 2 111 -16z m-4408 -61 c0 -2 -8 -10 -17 -17 -16
-13 -17 -12 -4 4 13 16 21 21 21 13z m4210 -116 c0 -23 -22 -27 -39 -7 -13 16
-5 27 21 27 11 0 18 -7 18 -20z m-4607 -47 c9 -3 17 -9 17 -14 0 -5 3 -8 8 -6
7 2 12 -6 12 -24 0 -6 -7 -3 -16 5 -8 9 -22 16 -30 16 -8 0 -12 5 -9 10 3 6
-1 10 -9 10 -8 0 -18 5 -22 12 -5 8 -2 9 12 4 10 -5 27 -11 37 -13z m1765 -20
c-10 -2 -28 -2 -40 0 -13 2 -5 4 17 4 22 1 32 -1 23 -4z m-80 -10 c-10 -2 -28
-2 -40 0 -13 2 -5 4 17 4 22 1 32 -1 23 -4z m-128 -23 c-36 -10 -66 -17 -68
-15 -6 5 90 34 113 34 11 0 -9 -9 -45 -19z m3267 10 c27 -7 51 -6 68 0 27 10
92 4 116 -10 11 -7 9 -13 -6 -30 -18 -19 -27 -21 -97 -16 -86 6 -114 1 -98
-19 14 -17 3 -43 -22 -51 -33 -10 -165 6 -179 22 -17 21 -6 27 56 32 30 2 55
6 55 9 0 2 -12 15 -27 28 l-28 23 25 6 c83 18 84 18 137 6z m-2127 -10 c0 -5
-5 -10 -11 -10 -5 0 -7 5 -4 10 3 6 8 10 11 10 2 0 4 -4 4 -10z m-842 -22 c79
-24 95 -188 28 -286 -56 -80 -155 -114 -227 -77 -16 9 -34 13 -40 10 -5 -4 -8
-3 -7 2 1 4 -10 27 -26 50 -55 82 -55 168 1 229 78 85 158 106 271 72z m722
-4 c0 -2 -11 -4 -25 -4 -14 0 -25 4 -25 9 0 4 11 6 25 3 14 -2 25 -6 25 -8z
m786 -13 c23 -10 44 -23 48 -29 7 -12 -3 -44 -13 -38 -3 2 -7 -9 -7 -25 -1
-16 2 -27 6 -24 14 9 21 -27 8 -42 -16 -20 -17 -62 -1 -75 16 -13 17 -32 1
-22 -7 4 -8 3 -4 -4 4 -7 2 -12 -3 -12 -6 0 -11 -5 -11 -12 0 -6 10 -2 23 10
22 21 24 21 39 5 8 -10 18 -25 22 -33 4 -8 -1 -4 -13 10 -19 23 -21 24 -37 9
-19 -20 -10 -64 12 -55 8 3 14 1 14 -4 0 -6 -8 -10 -17 -10 -16 -1 -16 -2 1
-15 14 -10 22 -12 27 -4 4 7 8 6 12 -3 6 -18 -31 -21 -53 -5 -12 10 -13 10 -4
-3 6 -8 13 -27 16 -42 4 -21 2 -26 -14 -23 -12 3 -16 0 -11 -8 4 -7 6 -24 4
-39 -2 -19 8 -38 33 -66 20 -22 36 -43 36 -48 0 -5 -6 -2 -13 6 -7 8 -26 15
-43 16 l-31 1 14 -40 c14 -40 12 -54 -6 -43 -6 4 -8 13 -5 20 3 8 1 17 -5 21
-7 3 -8 0 -5 -9 4 -11 0 -16 -12 -16 -16 0 -15 -4 9 -24 27 -23 39 -47 15 -29
-12 8 -21 9 -44 4 -4 0 -1 -7 5 -15 16 -19 -24 -62 -65 -71 -16 -4 -37 -9 -46
-12 -24 -6 -23 5 4 47 12 19 23 42 25 50 1 8 4 26 7 40 3 14 8 41 11 60 4 19
11 37 16 38 5 2 6 9 2 15 -9 15 -10 56 -1 51 4 -3 8 -2 9 3 0 4 2 20 4 36 2
18 0 25 -7 21 -8 -5 -9 1 -4 17 4 13 8 33 7 44 0 10 5 25 11 32 7 9 7 13 0 13
-7 0 -11 19 -11 48 1 61 -14 217 -21 217 -1 0 -4 19 -6 43 -6 50 5 53 72 23z
m-423 -28 c37 -40 59 -99 59 -163 1 -96 -49 -173 -131 -200 -47 -15 -56 -10
-65 36 -7 30 -6 31 34 37 33 4 49 14 78 48 48 55 55 75 42 114 -14 42 -39 64
-91 79 l-43 13 31 32 c39 38 52 39 86 4z m2241 -12 c45 -24 25 -36 -67 -39
l-86 -3 6 -29 c3 -16 2 -37 -1 -47 -6 -14 -10 -11 -28 18 -24 40 -35 49 -65
49 -26 0 -73 20 -73 31 0 8 52 26 90 31 70 8 199 2 224 -11z m200 0 c14 -22
-7 -41 -44 -41 -38 0 -67 21 -55 40 8 12 92 14 99 1z m-1639 -61 l50 -9 -54 4
c-33 3 -61 11 -70 21 -15 15 -14 15 4 5 11 -6 43 -15 70 -21z m1086 -10 c29
-16 23 -38 -13 -54 -25 -11 -28 -15 -13 -15 23 -1 65 -27 65 -41 0 -5 -21 -12
-47 -16 -65 -9 -113 -30 -113 -48 0 -9 -10 -18 -22 -20 -68 -14 -87 -14 -104
-2 -15 12 -16 16 -5 30 7 9 18 16 24 16 6 0 25 16 43 35 26 28 39 35 70 35 29
0 35 3 24 10 -8 5 -31 10 -51 10 -19 0 -43 6 -52 13 -29 21 -4 39 64 47 96 11
109 11 130 0z m129 -5 c19 -23 4 -45 -29 -45 -65 0 -85 33 -28 49 44 13 43 13
57 -4z m-2760 1 c0 -3 -4 -8 -10 -11 -5 -3 -10 -1 -10 4 0 6 5 11 10 11 6 0
10 -2 10 -4z m-1064 -21 c-10 -7 -15 -18 -11 -24 9 -15 -8 -14 -23 1 -17 17
-15 26 6 31 37 10 48 7 28 -8z m-451 -45 c-8 -13 31 -13 57 1 16 9 19 8 13 -2
-6 -9 -2 -11 13 -7 12 4 20 2 16 -3 -3 -5 0 -9 5 -9 6 0 11 6 11 13 0 6 5 4
11 -6 8 -14 7 -23 -7 -38 -10 -11 -24 -17 -31 -15 -7 3 -15 1 -18 -3 -9 -15
51 -31 66 -18 10 10 10 9 0 -5 -7 -10 -21 -18 -30 -19 -10 0 -11 -2 -4 -6 9
-3 2 -17 -19 -44 -22 -27 -34 -36 -39 -27 -4 7 -11 9 -15 5 -10 -10 2 -20 29
-23 12 -1 25 -3 30 -3 14 -2 7 -16 -15 -30 -18 -11 -23 -11 -33 2 -10 14 -13
14 -28 -4 -9 -10 -12 -19 -7 -19 6 0 6 -9 0 -24 -10 -27 9 -43 29 -23 16 16
13 0 -5 -29 -9 -13 -14 -27 -11 -30 6 -6 41 53 42 71 0 6 8 9 18 7 21 -3 23 4
3 11 -8 3 -26 -3 -40 -14 -14 -11 -26 -16 -26 -11 0 5 18 21 40 36 25 17 37
21 34 11 -4 -11 1 -15 17 -15 14 0 19 -4 13 -8 -6 -4 -13 -17 -16 -29 -5 -17
-2 -23 10 -24 10 0 12 -3 5 -5 -7 -3 -20 -1 -30 5 -10 6 -12 11 -5 11 14 0 17
20 3 20 -5 0 -18 -18 -29 -41 l-21 -41 24 22 c15 14 25 18 30 11 3 -6 10 -9
14 -7 4 3 8 -2 8 -10 0 -10 -4 -11 -11 -4 -17 17 -32 11 -46 -17 -7 -16 -13
-31 -12 -35 1 -5 -4 -8 -10 -8 -9 0 -9 -3 1 -9 9 -6 22 -6 33 0 10 5 18 7 18
4 0 -4 6 -3 13 2 6 4 21 9 32 10 16 3 17 1 5 -7 -13 -9 -13 -11 0 -20 8 -5 11
-10 7 -10 -18 0 16 -40 34 -40 l20 0 -20 -26 c-23 -30 -29 -60 -8 -48 9 6 9 4
1 -7 -8 -10 -6 -18 7 -31 17 -16 29 -14 29 4 0 4 -8 8 -17 9 -10 0 -13 3 -6 5
9 4 9 13 3 30 -7 17 -7 23 0 19 6 -3 10 -13 10 -21 0 -8 6 -14 14 -14 9 0 12
-8 8 -25 -4 -21 -1 -24 14 -19 17 6 17 5 -1 -9 -11 -9 -17 -17 -12 -18 4 -1
12 -3 17 -4 6 -1 14 -3 20 -4 5 0 7 -8 3 -17 -5 -13 -2 -15 17 -9 20 6 22 5
17 -16 -7 -27 11 -63 20 -41 8 21 40 8 54 -23 2 -5 11 -10 20 -9 12 0 16 -7
14 -23 -1 -13 2 -26 8 -30 6 -3 7 -1 3 5 -11 17 9 15 24 -3 7 -8 23 -15 35
-15 12 0 28 -7 35 -15 7 -9 19 -14 27 -11 9 4 13 0 11 -11 -2 -9 3 -18 11 -21
10 -3 12 1 8 17 -3 11 -1 19 4 15 5 -3 9 -12 9 -20 0 -8 5 -12 10 -9 6 4 8 10
6 14 -3 3 4 7 15 7 10 0 19 -5 19 -11 0 -5 21 -10 47 -9 40 0 50 4 60 25 10
18 13 20 13 6 0 -26 30 -34 46 -12 10 14 17 15 27 7 8 -7 17 -8 21 -4 4 4 11
7 14 8 36 6 73 18 78 25 3 5 10 7 15 4 5 -3 6 1 3 10 -4 9 -3 15 2 13 5 -1 18
3 29 9 11 6 22 11 25 11 17 2 39 15 35 22 -3 4 3 7 13 6 9 0 16 4 15 10 -3 14
26 41 47 46 8 2 17 5 20 8 3 3 30 14 60 24 89 31 131 55 194 115 33 31 56 49
51 41 -13 -21 15 10 33 36 7 11 10 12 6 4 -4 -8 -4 -12 1 -8 4 4 14 3 22 -3 8
-8 13 -8 13 -1 0 11 58 34 75 29 5 -1 9 -6 7 -12 -1 -5 6 0 17 13 14 16 21 18
25 10 6 -13 2 20 -9 72 -2 14 4 0 15 -30 10 -30 19 -46 19 -35 0 11 -8 43 -18
72 l-18 52 -17 -55 c-10 -31 -25 -58 -34 -61 -9 -4 -21 -11 -25 -17 -4 -6 -5
7 -1 29 8 49 14 58 14 22 0 -15 5 -27 11 -27 6 0 8 8 5 18 -10 37 -15 66 -9
53 4 -10 10 -3 17 20 8 24 17 34 31 34 32 0 48 14 34 31 -9 11 -8 15 5 20 9 3
13 10 10 15 -3 5 4 9 15 9 12 0 21 5 21 11 0 5 5 7 10 4 6 -3 10 -1 10 5 0 6
5 8 12 4 8 -5 9 -2 4 11 -5 15 -4 16 9 5 13 -11 14 -10 10 2 -4 11 1 14 17 13
13 -1 29 5 35 14 11 13 14 14 22 2 7 -11 10 -9 16 8 6 21 7 22 21 4 13 -17 13
-17 14 2 0 11 4 16 8 10 4 -5 19 -11 34 -12 15 -1 36 -11 47 -22 12 -12 27
-21 34 -21 7 0 20 -8 29 -17 9 -10 22 -22 27 -28 10 -9 32 -35 81 -94 11 -13
20 -28 20 -33 0 -6 10 -24 22 -41 13 -18 22 -34 22 -37 -2 -9 9 -35 28 -62 11
-16 16 -28 12 -28 -4 0 1 -10 12 -22 19 -21 19 -21 0 -14 -14 5 -16 3 -9 -6 6
-7 11 -20 11 -28 1 -8 5 -42 9 -75 5 -33 6 -75 2 -93 -5 -24 -3 -35 7 -39 8
-3 11 -10 8 -15 -11 -17 18 -27 34 -12 12 12 17 12 30 2 11 -9 13 -9 9 -1 -4
7 0 16 10 22 10 6 14 11 10 11 -5 0 -5 5 -1 12 5 8 10 6 15 -8 6 -17 8 -16 14
9 4 15 13 27 21 27 8 0 14 8 14 17 0 9 3 13 7 10 3 -4 11 0 17 7 6 8 40 17 82
21 l72 7 16 -34 16 -33 -22 25 c-15 18 -19 20 -15 7 4 -11 10 -31 13 -45 4
-23 3 -24 -6 -9 -13 21 -47 23 -47 2 0 -18 9 -19 25 -3 9 9 12 9 12 -1 0 -7
-9 -15 -20 -18 -24 -6 -26 -28 -4 -37 9 -3 12 -11 8 -18 -6 -10 -4 -10 7 -2 8
6 25 8 39 3 24 -7 23 -7 -7 -10 -18 -1 -39 -2 -45 -3 -7 -1 -17 -7 -21 -14 -7
-11 -12 -10 -27 3 -17 15 -18 15 -24 -13 -4 -15 -2 -41 4 -56 16 -44 11 -54
-10 -16 -19 34 -19 35 -20 8 0 -15 -4 -30 -10 -33 -6 -3 -10 1 -10 9 0 8 -4
17 -9 20 -5 4 -7 -3 -4 -14 4 -14 0 -20 -12 -20 -13 0 -15 -6 -11 -32 5 -27 4
-29 -4 -13 -8 16 -9 11 -5 -20 l4 -40 -15 33 c-14 32 -16 33 -37 19 -15 -10
-24 -28 -28 -58 -6 -41 -6 -41 -7 -9 -2 31 -3 33 -18 18 -9 -9 -20 -31 -24
-49 l-8 -34 -1 30 -1 30 -21 -30 c-20 -29 -21 -29 -15 -5 5 24 4 24 -9 6 -10
-13 -15 -15 -15 -6 0 9 -5 8 -16 -6 -13 -16 -15 -16 -10 -1 8 27 -2 20 -19
-13 -17 -32 -37 -41 -30 -12 3 9 -2 2 -10 -15 -18 -38 -25 -42 -18 -10 4 19 3
20 -9 7 -7 -9 -21 -14 -30 -12 -11 2 -18 -3 -18 -11 0 -8 -7 -17 -15 -21 -8
-3 -15 -12 -15 -21 0 -8 -4 -15 -10 -15 -5 0 -10 4 -10 10 0 5 -21 -2 -46 -16
-26 -14 -43 -20 -38 -12 6 11 5 11 -8 0 -11 -9 -18 -9 -23 -3 -4 7 -15 5 -33
-7 -14 -9 -23 -11 -19 -4 12 18 -4 15 -20 -5 -8 -11 -11 -12 -7 -3 6 12 5 13
-7 4 -8 -6 -22 -10 -31 -9 -10 2 -18 -1 -18 -6 0 -5 -6 -9 -14 -9 -8 0 -16 -3
-19 -7 -2 -5 -2 -2 -1 5 4 15 1 15 -61 -1 -27 -7 -61 -12 -75 -11 -14 1 -34
-3 -44 -8 -16 -9 -18 -8 -12 8 7 17 6 17 -13 0 -14 -13 -21 -14 -27 -5 -5 8
-3 10 6 4 9 -6 11 -4 5 5 -6 10 -11 9 -22 -5 -7 -11 -13 -14 -13 -7 0 6 -9 9
-22 6 -13 -3 -27 -6 -33 -7 -5 -2 -16 -6 -24 -11 -8 -5 -16 -4 -20 2 -6 11
-34 1 -32 -12 1 -3 -1 -6 -4 -6 -3 0 -5 3 -4 6 0 4 -5 11 -13 15 -8 6 -19 1
-31 -14 -16 -20 -17 -20 -10 -2 l6 20 -23 -20 c-13 -11 -20 -15 -16 -8 5 9 -3
11 -28 8 -19 -3 -37 -1 -40 4 -9 14 -60 -1 -78 -22 -24 -27 -23 -35 7 -49 14
-6 25 -15 25 -20 0 -13 -12 -10 -32 9 -11 9 -26 18 -36 19 -23 4 -80 -33 -87
-56 -7 -21 20 -80 35 -80 6 0 22 -23 38 -50 21 -40 31 -49 47 -46 13 3 32 -7
55 -30 35 -35 35 -35 42 -12 5 20 6 21 7 3 1 -11 10 -26 22 -33 19 -12 19 -11
9 8 -8 15 -8 20 1 20 6 0 13 -9 16 -20 5 -20 15 -24 42 -21 8 2 10 -2 5 -11
-6 -10 -5 -10 7 -2 10 8 21 8 42 0 15 -7 24 -15 21 -19 -4 -4 1 -16 11 -27 10
-11 15 -20 12 -20 -4 0 1 -9 11 -20 16 -20 18 -20 32 -3 10 12 27 18 48 17 21
-1 32 3 32 12 0 8 5 15 10 15 6 1 15 2 20 3 6 0 14 6 18 12 10 18 82 27 82 11
0 -6 7 -25 15 -40 8 -15 16 -46 19 -69 3 -25 12 -45 22 -51 11 -6 13 -12 5
-16 -7 -5 -2 -20 15 -45 27 -40 26 -58 -3 -35 -15 12 -16 12 -10 -4 4 -11 10
-31 13 -45 5 -22 3 -24 -6 -12 -10 12 -10 10 -5 -10 16 -59 16 -83 1 -152 -9
-40 -18 -89 -20 -108 -3 -34 -4 -35 -62 -45 l-59 -10 -3 -44 -3 -43 48 5 c141
15 223 26 263 35 25 6 99 13 165 17 66 4 125 11 130 15 6 4 51 11 100 15 82 6
148 14 365 44 41 5 136 17 210 26 74 9 166 21 203 26 37 6 74 8 83 5 8 -3 13
-2 10 3 -4 6 79 20 151 24 7 0 10 4 7 9 -8 13 10 9 32 -7 16 -11 23 -30 28
-81 4 -37 14 -80 22 -96 31 -59 68 -50 -526 -132 -217 -30 -470 -65 -562 -77
-130 -18 -168 -26 -171 -39 -2 -9 -10 0 -20 24 -12 28 -21 37 -33 32 -8 -3
-20 -6 -25 -6 -6 0 -7 -4 -4 -10 3 -5 1 -10 -4 -10 -6 0 -11 5 -11 10 0 6 -16
8 -40 4 -32 -5 -45 -3 -61 12 -26 24 -145 28 -154 5 -3 -7 -11 -11 -18 -8 -6
2 -21 1 -32 -3 -11 -4 -34 -4 -52 0 -19 5 -31 4 -27 -1 3 -6 -11 -7 -34 -3
-43 7 -51 1 -54 -40 -2 -20 -5 -23 -16 -14 -9 8 -12 26 -9 52 2 23 0 62 -5 88
-7 36 -6 57 7 93 11 35 13 51 5 61 -7 7 -13 43 -15 79 -2 37 -6 69 -9 72 -3 3
-34 -1 -68 -9 -63 -15 -99 -11 -106 11 -2 6 10 16 27 22 23 8 31 17 31 34 0
34 -63 54 -185 57 l-100 3 0 -25 c0 -43 -29 -48 -265 -49 -207 0 -331 -10
-395 -32 -42 -15 -155 -39 -168 -36 -15 3 -29 -193 -16 -209 5 -6 6 -20 2 -30
-3 -10 -7 -69 -7 -132 -1 -112 -2 -115 -28 -135 l-27 -20 -53 26 c-79 40 -193
139 -228 200 -27 46 -31 59 -28 114 2 35 0 57 -4 50 -4 -7 -8 6 -8 30 0 106
131 162 276 118 27 -8 50 -15 52 -15 1 0 0 17 -4 38 -8 50 14 69 116 98 59 17
130 27 263 35 178 12 227 22 193 41 -9 5 -16 16 -16 23 0 8 -4 15 -10 15 -5 0
-10 7 -10 16 0 8 -4 13 -9 10 -5 -3 -12 1 -15 10 -3 8 -10 12 -16 9 -6 -4 -7
1 -3 12 6 16 5 17 -13 3 -10 -8 -16 -10 -12 -6 4 5 -2 24 -13 42 -11 19 -17
39 -13 45 4 8 3 9 -5 5 -6 -4 -9 -17 -6 -29 2 -12 2 -16 -1 -9 -3 6 -12 12
-19 12 -7 0 -12 6 -11 13 0 6 -3 13 -8 14 -5 1 -15 14 -21 30 -11 24 -10 31 8
51 12 12 27 20 35 17 7 -2 11 -1 7 4 -7 13 5 42 16 35 5 -3 9 1 9 8 0 9 3 9
10 -2 6 -9 13 -11 18 -5 4 6 15 11 25 11 13 2 16 -3 12 -20 -6 -20 -6 -21 6
-1 16 26 39 49 39 39 0 -5 5 -3 12 4 6 6 15 36 19 66 7 56 12 67 66 160 25 42
31 62 27 86 -6 28 -8 29 -20 13 -12 -17 -13 -16 -14 9 0 29 -21 50 -28 28 -3
-9 -9 -5 -19 11 -8 13 -12 17 -10 8 3 -9 0 -16 -7 -16 -8 0 -11 10 -9 26 3 22
2 23 -5 7 -6 -15 -11 -16 -16 -7 -5 7 -14 10 -22 7 -8 -3 -17 1 -20 9 -9 21
-25 19 -18 -2 5 -15 4 -15 -4 -3 -6 8 -8 18 -5 23 3 5 -4 6 -16 2 -24 -7 -29
12 -8 35 6 8 2 6 -10 -4 -12 -10 -27 -15 -32 -11 -6 3 -11 1 -11 -5 0 -6 -4
-8 -10 -5 -5 3 -10 1 -10 -6 0 -10 -3 -10 -12 -1 -8 8 -8 15 3 29 13 17 13 17
-4 4 -15 -12 -20 -12 -26 -2 -5 7 -12 13 -17 13 -5 -1 -8 6 -6 15 2 8 -1 12
-7 8 -6 -3 -11 -12 -11 -19 0 -7 -7 -21 -15 -32 -14 -18 -14 -17 -5 9 13 36
13 67 0 67 -5 0 -7 -7 -4 -15 4 -8 1 -15 -4 -15 -16 0 -25 19 -15 33 4 7 1 5
-9 -5 -22 -24 -31 -23 -23 5 6 21 6 21 -15 -3 -21 -25 -22 -25 -17 -2 3 12 1
20 -3 17 -15 -9 -22 15 -10 30 7 8 8 15 3 15 -5 0 -20 -22 -33 -50 -26 -55
-38 -60 -22 -8 19 62 23 88 12 88 -5 0 -9 -3 -9 -7 1 -5 1 -17 0 -28 -2 -18
-3 -17 -12 5 l-10 25 -20 -25 c-12 -14 -17 -19 -13 -11 4 9 2 12 -7 9 -8 -3
-13 -10 -12 -16 2 -6 -4 -9 -13 -5 -15 6 -14 29 2 26 5 -1 21 8 34 19 14 11
20 17 14 14 -7 -3 -14 1 -18 9 -3 8 -1 15 5 15 6 0 7 5 4 10 -5 8 -11 7 -21
-1 -8 -6 -14 -8 -14 -4 0 4 -6 2 -14 -4 -10 -8 -16 -9 -21 -1 -11 18 -30 11
-47 -17 -12 -20 -18 -23 -18 -11 0 9 5 20 10 23 5 3 10 23 10 43 l-1 37 -24
-30 c-26 -32 -33 -28 -13 8 6 12 11 37 9 55 -1 21 2 31 9 27 5 -3 10 1 10 10
0 10 -4 13 -12 8 -7 -4 -21 -6 -30 -5 -12 2 -18 -3 -18 -15 0 -10 -8 -27 -17
-38 -13 -17 -15 -17 -9 -2 3 11 2 16 -4 12 -6 -3 -10 -15 -10 -25 0 -10 -4
-21 -9 -24 -15 -10 9 78 29 106 15 21 16 26 5 22 -8 -4 -15 -1 -15 5 0 6 5 11
10 11 6 0 10 8 9 18 0 10 -3 12 -6 5 -2 -7 -9 -13 -14 -13 -6 0 -7 5 -4 10 3
6 -1 10 -9 10 -21 0 -36 -32 -29 -60 6 -22 7 -22 19 -5 8 10 17 15 21 11 4 -4
2 -10 -4 -14 -6 -4 -20 -23 -32 -42 -21 -36 -30 -35 -11 1 7 12 7 25 2 35 -7
13 -11 9 -16 -19 -4 -20 -11 -39 -17 -42 -10 -7 -5 23 15 85 14 44 10 70 -12
70 -13 0 -14 -2 -3 -9 9 -6 10 -11 2 -15 -6 -4 -9 -11 -6 -16 3 -4 -3 -7 -12
-5 -10 1 -17 8 -16 14 2 6 -3 11 -11 11 -20 0 -25 20 -13 48 8 16 16 21 30 16
14 -4 17 -3 12 6 -6 10 -1 12 19 8 14 -3 26 -1 26 3 0 5 -5 9 -11 9 -5 0 -7 5
-3 11 8 13 -35 3 -51 -12 -14 -14 -31 -11 -17 3 7 7 12 21 12 31 0 16 -3 17
-15 7 -8 -7 -13 -16 -10 -20 3 -5 1 -11 -5 -15 -36 -22 34 105 79 144 12 10
13 14 3 18 -6 3 -9 10 -5 16 3 7 2 8 -3 4 -5 -5 -10 -13 -10 -18 -1 -5 -2 -14
-3 -20 0 -5 -5 -8 -10 -4 -6 3 -19 -14 -29 -39 -17 -38 -62 -81 -62 -59 0 17
18 35 29 29 7 -5 11 2 11 18 0 13 4 26 10 28 5 2 11 15 12 30 1 16 9 29 20 31
22 6 23 23 3 31 -9 3 -15 0 -15 -9 0 -13 -12 -19 -32 -16 -4 0 -3 -10 2 -24 7
-20 6 -25 -5 -25 -8 0 -15 9 -15 20 0 10 -8 23 -17 29 -17 9 -17 11 -2 23 17
14 43 78 34 86 -2 2 -10 -7 -16 -22 -13 -29 -29 -35 -29 -10 0 9 5 12 12 8 8
-5 9 -2 5 10 -4 9 -3 14 2 11 5 -3 12 -1 16 5 4 6 11 8 16 5 5 -3 6 1 3 9 -3
9 -2 16 4 16 15 0 24 -32 11 -41 -6 -4 -8 -12 -5 -18 4 -6 12 -8 18 -5 7 4 8
2 4 -5 -6 -9 -11 -9 -21 -1 -9 8 -14 7 -18 -4 -4 -10 -1 -13 9 -9 8 3 14 -1
14 -8 0 -8 5 -6 13 6 9 12 19 15 28 10 8 -5 5 2 -6 14 l-19 22 28 -3 c19 -2
31 2 34 12 4 13 3 13 -11 2 -13 -11 -17 -10 -27 8 -6 11 -8 26 -4 33 5 7 1 7
-9 -2 -27 -22 -33 -4 -6 20 21 18 20 18 -11 -2 -19 -13 -40 -30 -47 -39 -7 -8
-13 -11 -13 -7 0 5 19 27 42 49 l42 40 -24 21 c-24 19 -24 19 -3 13 16 -5 25
-2 34 15 10 20 9 21 -7 15 -11 -4 -35 -9 -54 -12 l-35 -4 33 9 c40 10 38 8 45
47 4 23 2 31 -8 31 -8 0 -17 -9 -21 -19 -3 -10 -10 -18 -15 -18 -13 0 -12 4
17 55 25 45 25 47 7 62 -10 8 -13 12 -7 9 11 -5 28 28 25 47 -1 5 3 6 9 2 6
-4 17 10 27 34 8 22 23 43 31 46 14 5 14 4 0 -12 -21 -24 -32 -63 -19 -63 6 0
11 6 11 14 0 19 40 67 50 61 5 -3 12 0 16 6 4 8 3 9 -4 5 -7 -4 -12 -3 -12 1
0 11 -103 13 -110 2 -3 -4 -12 -4 -20 1 -13 8 -13 10 1 10 9 0 19 7 23 15 3 8
8 15 11 15 4 0 3 -4 0 -10z m3058 3 c-7 -2 -19 -2 -25 0 -7 3 -2 5 12 5 14 0
19 -2 13 -5z m-1256 -55 c-3 -8 -6 -5 -6 6 -1 11 2 17 5 13 3 -3 4 -12 1 -19z
m43 5 c0 -14 -2 -15 -9 -4 -7 11 -9 11 -14 0 -4 -10 -6 -9 -6 4 -1 9 6 17 14
17 8 0 15 -8 15 -17z m30 7 c0 -5 -4 -10 -10 -10 -5 0 -10 5 -10 10 0 6 5 10
10 10 6 0 10 -4 10 -10z m290 -25 c17 -21 2 -36 -28 -29 -27 8 -30 44 -3 44
10 0 24 -7 31 -15z m-2181 -19 c-6 -13 -20 -27 -31 -30 -20 -5 -20 -4 1 15 11
11 21 24 21 29 0 6 4 10 10 10 6 0 5 -9 -1 -24z m-111 -11 c-6 -14 -13 -23
-15 -21 -5 5 15 46 22 46 3 0 -1 -11 -7 -25z m22 -42 c-19 -8 -44 -20 -55 -25
-17 -9 -18 -8 -7 3 13 14 68 37 87 38 6 0 -6 -7 -25 -16z m220 -38 c0 -2 -6
-8 -13 -14 -10 -8 -14 -7 -14 2 0 8 6 14 14 14 7 0 13 -1 13 -2z m-177 -12
c-7 -2 -19 -2 -25 0 -7 3 -2 5 12 5 14 0 19 -2 13 -5z m190 -28 c-3 -9 -8 -14
-10 -11 -3 3 -2 9 2 15 9 16 15 13 8 -4z m-93 -41 c0 -8 -5 -12 -10 -9 -6 4
-8 11 -5 16 9 14 15 11 15 -7z m3950 -4 c0 -6 -7 -22 -16 -35 -16 -25 -16 -25
20 -40 28 -12 49 -13 103 -6 103 15 303 11 335 -5 18 -10 25 -19 21 -30 -4
-12 -21 -15 -82 -14 -101 2 -219 -8 -239 -20 -16 -9 -16 -9 -1 -10 21 0 33
-28 19 -45 -6 -7 -21 -10 -34 -8 -13 3 -34 -1 -47 -7 -22 -12 -21 -13 20 -27
28 -9 47 -11 53 -5 12 12 68 -7 68 -23 0 -26 -23 -34 -52 -19 -26 13 -31 13
-53 -3 -30 -22 -31 -28 -4 -47 20 -13 20 -16 6 -31 -25 -24 -78 -31 -92 -12
-11 16 -16 16 -59 1 -50 -17 -74 -10 -63 19 7 19 85 31 103 16 11 -9 14 -9 14
0 0 6 10 16 23 21 18 9 17 9 -10 4 -45 -8 -113 14 -113 38 0 13 7 18 28 18 27
0 52 15 52 32 0 4 -15 8 -33 8 -18 0 -42 7 -53 15 -18 14 -18 16 -1 29 11 8
57 17 113 21 52 4 94 10 94 14 0 4 -14 15 -31 25 -23 13 -34 15 -42 7 -15 -15
-130 -14 -145 1 -18 18 -15 26 21 44 43 22 43 21 22 45 -17 17 -17 22 -5 29
20 13 60 12 60 0z m-2330 -24 c0 -3 -4 -8 -10 -11 -5 -3 -10 -1 -10 4 0 6 5
11 10 11 6 0 10 -2 10 -4z m1114 -14 c2 -4 -5 -9 -17 -9 -17 -2 -19 0 -7 7 18
12 18 12 24 2z m-2805 -16 c-9 -10 -59 -14 -54 -5 4 5 18 9 32 9 15 0 24 -2
22 -4z m4850 -39 c18 -22 -40 -41 -66 -22 -17 13 -17 14 1 34 19 21 40 18 65
-12z m308 0 c-7 -18 -67 -28 -84 -15 -26 21 -14 37 30 40 47 3 62 -4 54 -25z
m-5237 2 c0 -5 -4 -9 -8 -9 -5 0 -9 7 -9 15 0 8 4 12 9 9 4 -3 8 -9 8 -15z
m4777 5 c16 -12 16 -15 3 -24 -23 -15 -124 -18 -160 -4 -12 4 -11 9 8 24 27
22 122 25 149 4z m309 4 c8 -13 -22 -38 -45 -38 -26 0 -44 17 -38 34 7 19 72
22 83 4z m-5126 -23 c0 -2 -6 -8 -13 -14 -10 -8 -14 -7 -14 2 0 8 6 14 14 14
7 0 13 -1 13 -2z m100 1 c0 -3 -4 -8 -10 -11 -5 -3 -10 -1 -10 4 0 6 5 11 10
11 6 0 10 -2 10 -4z m-30 -10 c0 -9 -30 -14 -35 -6 -4 6 3 10 14 10 12 0 21
-2 21 -4z m170 -36 c-6 -12 -16 -17 -26 -13 -13 5 -13 8 3 23 22 22 37 15 23
-10z m-300 10 c-8 -5 -19 -10 -25 -10 -5 0 -3 5 5 10 8 5 20 10 25 10 6 0 3
-5 -5 -10z m166 1 c-4 -5 -3 -11 1 -14 5 -2 3 -3 -3 -1 -6 1 -17 -3 -23 -9
-10 -9 -12 -9 -9 3 3 16 18 30 31 30 5 0 6 -4 3 -9z m-429 -7 c-3 -3 -12 -4
-19 -1 -8 3 -5 6 6 6 11 1 17 -2 13 -5z m348 -4 c-3 -5 -16 -10 -28 -10 -18 0
-19 2 -7 10 20 13 43 13 35 0z m-150 -20 c-3 -5 -12 -10 -18 -10 -7 0 -6 4 3
10 19 12 23 12 15 0z m80 0 c-11 -5 -27 -9 -35 -9 -9 0 -8 4 5 9 11 5 27 9 35
9 9 0 8 -4 -5 -9z m1812 -22 c-3 -7 -5 -2 -5 12 0 14 2 19 5 13 2 -7 2 -19 0
-25z m-1937 2 c-8 -5 -22 -9 -30 -9 -10 0 -8 3 5 9 27 12 43 12 25 0z m231
-17 c-12 -20 -14 -14 -5 12 4 9 9 14 11 11 3 -2 0 -13 -6 -23z m1608 13 c9
-10 8 -15 -4 -20 -10 -4 -15 1 -15 14 0 24 4 25 19 6z m-1989 -10 c0 -3 -4 -8
-10 -11 -5 -3 -10 -1 -10 4 0 6 5 11 10 11 6 0 10 -2 10 -4z m43 -17 c-18 -5
-35 -14 -38 -19 -3 -6 -11 -10 -16 -10 -13 0 11 25 31 33 8 3 24 5 35 5 12 0
6 -4 -12 -9z m427 -9 c0 -5 -2 -10 -4 -10 -3 0 -8 5 -11 10 -3 6 -1 10 4 10 6
0 11 -4 11 -10z m-370 -45 c0 -1 -11 -5 -25 -7 -20 -4 -23 -2 -14 8 8 10 39
10 39 -1z m251 -8 c-10 -9 -11 -8 -5 6 3 10 9 15 12 12 3 -3 0 -11 -7 -18z
m942 -69 c44 -13 50 -16 22 -12 -53 8 -129 41 -152 66 -14 16 -8 14 25 -7 23
-15 70 -36 105 -47z m-913 48 c0 -3 -4 -8 -10 -11 -5 -3 -10 -1 -10 4 0 6 5
11 10 11 6 0 10 -2 10 -4z m4759 -30 c10 -11 7 -17 -11 -30 -26 -19 -51 -20
-79 -6 -22 12 -25 36 -6 43 26 11 85 6 96 -7z m-4809 -6 c0 -5 -2 -10 -4 -10
-3 0 -8 5 -11 10 -3 6 -1 10 4 10 6 0 11 -4 11 -10z m4614 -7 c46 -24 17 -38
-70 -35 -48 2 -91 -3 -121 -13 -34 -12 -54 -13 -75 -6 -15 6 -28 8 -28 5 0 -3
-9 0 -20 6 -25 13 -26 36 -2 49 28 17 281 12 316 -6z m-629 -23 c-3 -5 -12 -7
-20 -3 -21 7 -19 13 6 13 11 0 18 -4 14 -10z m-4005 -29 c0 -5 -7 -12 -16 -15
-14 -5 -15 -4 -4 9 14 17 20 19 20 6z m490 -56 c-7 -8 -18 -15 -24 -15 -6 0
-2 7 8 15 25 19 32 19 16 0z m2097 -27 c-3 -8 -6 -5 -6 6 -1 11 2 17 5 13 3
-3 4 -12 1 -19z m1520 6 c10 -27 -14 -40 -37 -19 -11 10 -17 22 -14 26 9 15
44 10 51 -7z m-4032 -101 c-9 -15 -13 -19 -10 -8 4 11 9 34 13 50 5 25 7 27
10 8 2 -12 -4 -34 -13 -50z m4968 53 c11 -28 -48 -51 -89 -36 -26 10 -32 35
-11 43 28 12 95 7 100 -7z m-218 -8 c25 -7 45 -16 45 -20 0 -23 -99 -37 -157
-22 -33 9 -28 32 10 43 44 13 50 13 102 -1z m-5100 -8 c-3 -5 -14 -10 -23 -9
-14 0 -13 2 3 9 27 11 27 11 20 0z m4912 -6 c41 -27 13 -43 -80 -46 -74 -3
-82 -5 -80 -23 4 -51 -36 -68 -106 -44 -29 10 -35 9 -54 -10 -18 -18 -19 -21
-5 -21 10 0 22 -9 28 -20 9 -17 6 -23 -21 -39 -30 -18 -30 -20 -11 -30 15 -8
29 -8 49 0 38 14 133 3 133 -17 0 -10 -7 -13 -23 -9 -15 4 -28 1 -36 -9 -15
-18 -76 -22 -86 -5 -5 7 -13 5 -24 -5 -10 -9 -32 -19 -50 -22 -24 -5 -36 -14
-43 -34 -8 -24 -16 -29 -61 -34 -75 -9 -151 5 -155 27 -3 15 3 18 41 16 50 -3
72 10 81 45 4 17 15 26 41 30 21 4 33 11 29 17 -3 6 -15 8 -26 6 -24 -7 -65
10 -72 29 -5 13 2 16 57 28 38 9 29 30 -14 36 -26 4 -34 10 -34 25 0 15 10 22
43 30 40 10 42 12 27 25 -10 8 -28 13 -41 12 -32 -5 -30 6 3 19 39 15 80 20
228 27 239 13 237 13 262 -4z m-4535 -26 c-7 -7 -12 -8 -12 -2 0 14 12 26 19
19 2 -3 -1 -11 -7 -17z m915 -10 c-3 -8 -6 -5 -6 6 -1 11 2 17 5 13 3 -3 4
-12 1 -19z m-921 -66 c-17 -16 -18 -16 -5 5 7 12 15 20 18 17 3 -2 -3 -12 -13
-22z m4434 8 c0 -5 -4 -10 -10 -10 -5 0 -10 5 -10 10 0 6 5 10 10 10 6 0 10
-4 10 -10z m-4280 -19 c0 -5 -7 -11 -15 -15 -15 -5 -20 5 -8 17 9 10 23 9 23
-2z m-86 -56 c-4 -8 -8 -15 -10 -15 -2 0 -4 7 -4 15 0 8 4 15 10 15 5 0 7 -7
4 -15z m156 -15 c0 -5 -4 -10 -10 -10 -5 0 -10 5 -10 10 0 6 5 10 10 10 6 0
10 -4 10 -10z m-11 -51 c-13 -26 -23 -18 -14 10 3 12 11 19 16 16 5 -4 5 -14
-2 -26z m151 -105 c0 -21 -20 -17 -21 4 0 9 -9 -1 -20 -23 -18 -39 -19 -39
-13 -7 5 31 -9 46 -19 20 -3 -8 -6 -5 -6 6 -1 14 4 17 19 13 11 -3 22 -1 25 4
8 12 35 -1 35 -17z m4355 -64 c3 -5 -1 -10 -10 -10 -9 0 -13 5 -10 10 3 6 8
10 10 10 2 0 7 -4 10 -10z m80 0 c-3 -5 -21 -10 -38 -9 -27 0 -29 2 -12 9 28
12 57 12 50 0z m60 0 c-3 -5 -13 -10 -21 -10 -8 0 -12 5 -9 10 3 6 13 10 21
10 8 0 12 -4 9 -10z m-5021 -23 c-3 -8 -12 -18 -20 -21 -10 -4 -13 -2 -8 7 21
37 41 47 28 14z m4841 13 c5 -7 0 -11 -11 -9 -11 2 -24 1 -29 -3 -6 -4 -49 -7
-95 -8 -47 -1 -112 -6 -145 -11 -33 -4 -127 -10 -210 -13 -224 -8 -306 -16
-312 -32 -3 -8 -2 -26 1 -40 l7 -25 111 5 c118 5 148 -2 148 -34 0 -35 -15
-38 -295 -55 -38 -2 -77 -6 -86 -10 -32 -12 -64 45 -40 70 6 6 5 33 -1 68 -16
90 -20 88 206 82 117 -4 261 -1 371 7 260 19 372 21 380 8z m-4210 -39 c-3
-12 -10 -21 -15 -21 -5 0 -4 11 2 25 13 29 23 26 13 -4z m49 -36 c-4 -8 -8
-15 -10 -15 -2 0 -4 7 -4 15 0 8 4 15 10 15 5 0 7 -7 4 -15z m39 -5 c-3 -11
-7 -20 -8 -20 -1 0 -5 9 -8 20 -3 12 0 20 8 20 8 0 11 -8 8 -20z m4410 -4 c9
0 17 -4 17 -8 0 -4 19 -8 42 -8 52 0 44 -10 -11 -15 -22 -1 -52 -10 -65 -19
-37 -24 -165 -27 -179 -4 -20 30 16 57 82 60 31 2 65 2 76 -1 11 -2 28 -5 38
-5z m-234 -20 c14 -9 14 -43 0 -52 -16 -9 -80 -15 -101 -8 -21 6 -24 44 -6 62
12 12 86 11 107 -2z m-2622 -18 c-3 -8 -6 -5 -6 6 -1 11 2 17 5 13 3 -3 4 -12
1 -19z m2481 -5 c5 -31 -40 -53 -69 -35 -16 10 -23 10 -36 -3 -9 -10 -25 -14
-36 -11 -12 3 -26 1 -32 -4 -7 -5 -63 -11 -126 -12 -112 -3 -114 -3 -117 20
-5 32 16 53 52 52 17 -1 81 1 143 4 69 3 115 2 118 -4 4 -6 15 -4 28 5 31 22
71 16 75 -12z m-3843 -13 c3 -5 1 -10 -4 -10 -6 0 -11 5 -11 10 0 6 2 10 4 10
3 0 8 -4 11 -10z m765 -36 c0 -8 -19 -13 -24 -6 -3 5 1 9 9 9 8 0 15 -2 15 -3z
m-140 -358 c0 -3 -4 -8 -10 -11 -5 -3 -10 -1 -10 4 0 6 5 11 10 11 6 0 10 -2
10 -4z m-703 -52 c-3 -3 -12 -4 -19 -1 -8 3 -5 6 6 6 11 1 17 -2 13 -5z m-14
-32 c-4 -9 -11 -20 -16 -23 -5 -4 -4 -16 3 -30 9 -20 9 -21 -2 -8 -7 9 -21 15
-30 13 -9 -1 -23 4 -29 12 -10 12 -9 18 6 32 10 9 15 12 12 6 -4 -6 -1 -19 6
-29 12 -15 13 -14 11 12 -1 24 2 29 22 31 18 1 22 -2 17 -16z m2737 -437 c0
-8 -16 -19 -37 -24 -47 -13 -56 -14 -48 -1 3 6 21 10 38 10 26 0 29 2 17 11
-13 9 -12 10 3 5 9 -3 17 -1 17 4 0 6 2 10 5 10 3 0 5 -7 5 -15z m-4043 -51
c-3 -3 -12 -4 -19 -1 -8 3 -5 6 6 6 11 1 17 -2 13 -5z m5896 -231 c-7 -2 -19
-2 -25 0 -7 3 -2 5 12 5 14 0 19 -2 13 -5z m-585 -39 c30 -9 28 -21 -4 -21
-16 0 -22 2 -14 7 9 6 8 9 -6 13 -10 2 -14 5 -9 6 6 0 20 -2 33 -5z m389 0
c-3 -3 -12 -4 -19 -1 -8 3 -5 6 6 6 11 1 17 -2 13 -5z m-862 -32 c-3 -3 -11 0
-18 7 -9 10 -8 11 6 5 10 -3 15 -9 12 -12z m295 -22 c0 -5 -4 -10 -10 -10 -5
0 -10 5 -10 10 0 6 5 10 10 10 6 0 10 -4 10 -10z m35 0 c3 -5 2 -10 -4 -10 -5
0 -13 5 -16 10 -3 6 -2 10 4 10 5 0 13 -4 16 -10z m522 4 c-3 -3 -12 -4 -19
-1 -8 3 -5 6 6 6 11 1 17 -2 13 -5z m-724 -11 c-13 -2 -35 -2 -50 0 -16 2 -5
4 22 4 28 0 40 -2 28 -4z m62 -3 c-3 -5 -14 -10 -23 -9 -14 0 -13 2 3 9 27 11
27 11 20 0z m312 4 c-3 -3 -12 -4 -19 -1 -8 3 -5 6 6 6 11 1 17 -2 13 -5z
m493 -4 c0 -5 -2 -10 -4 -10 -3 0 -8 5 -11 10 -3 6 -1 10 4 10 6 0 11 -4 11
-10z m37 4 c-3 -3 -12 -4 -19 -1 -8 3 -5 6 6 6 11 1 17 -2 13 -5z m-1292 -14
c3 -5 -1 -10 -9 -10 -9 0 -16 5 -16 10 0 6 4 10 9 10 6 0 13 -4 16 -10z m502
4 c-3 -3 -12 -4 -19 -1 -8 3 -5 6 6 6 11 1 17 -2 13 -5z m583 -14 c16 0 32 5
35 10 3 6 12 10 18 9 9 0 8 -2 -1 -6 -6 -2 -10 -9 -7 -13 3 -5 -29 -9 -72 -8
-43 1 -63 4 -45 6 17 2 32 9 33 15 0 9 2 8 6 0 2 -7 18 -13 33 -13z m247 14
c-3 -3 -12 -4 -19 -1 -8 3 -5 6 6 6 11 1 17 -2 13 -5z m-1450 -10 c-3 -3 -12
-4 -19 -1 -8 3 -5 6 6 6 11 1 17 -2 13 -5z m678 -4 c3 -5 -1 -10 -9 -10 -8 0
-18 5 -21 10 -3 6 1 10 9 10 8 0 18 -4 21 -10z m145 -33 c-4 -5 -19 -1 -33 8
-14 9 -27 12 -29 7 -4 -13 -68 -3 -68 10 0 6 14 8 35 5 19 -3 35 -2 35 2 0 5
15 1 34 -8 19 -9 31 -20 26 -24z m-227 26 c-7 -2 -19 -2 -25 0 -7 3 -2 5 12 5
14 0 19 -2 13 -5z m814 -8 c0 -8 -4 -15 -9 -15 -10 0 -11 14 -1 23 9 10 10 9
10 -8z m-1390 -1 c-3 -3 -12 -4 -19 -1 -8 3 -5 6 6 6 11 1 17 -2 13 -5z m968
-4 c3 -6 -4 -10 -17 -10 -18 0 -20 2 -8 10 19 12 18 12 25 0z m-1173 -14 c10
-7 15 -16 12 -19 -3 -3 22 -3 56 0 43 3 60 1 55 -6 -3 -6 -16 -11 -29 -11 -12
0 -27 -5 -34 -12 -16 -16 -82 -38 -115 -38 -16 0 -38 -5 -49 -11 -15 -8 -22
-8 -28 1 -6 10 -18 10 -55 1 -32 -8 -51 -9 -59 -1 -7 5 -16 8 -19 5 -4 -3 -5
-2 -2 2 3 3 0 12 -6 20 -14 16 -56 17 -61 2 -2 -6 -15 -9 -28 -7 -22 3 -19 5
17 17 48 16 93 8 93 -16 0 -13 3 -14 12 -5 7 7 22 12 34 12 25 0 45 21 26 28
-19 6 -14 21 6 17 9 -1 16 -9 14 -19 -2 -9 1 -16 5 -16 11 1 43 26 43 34 0 3
-8 6 -17 7 -10 0 -13 3 -6 5 7 3 22 0 34 -6 12 -7 19 -8 15 -2 -8 13 17 22 46
15 18 -4 20 -3 8 6 -13 10 -13 11 0 11 8 -1 23 -7 32 -14z m1125 8 c-3 -3 -12
-4 -19 -1 -8 3 -5 6 6 6 11 1 17 -2 13 -5z m99 -19 c1 -8 -4 -15 -12 -15 -8 0
-14 -6 -14 -12 0 -9 -2 -10 -8 -2 -4 6 -23 15 -42 18 -26 5 -31 4 -20 -3 13
-10 13 -11 0 -10 -8 1 -26 4 -40 8 -22 7 -19 9 22 16 26 4 59 4 73 1 19 -5 25
-3 25 10 0 20 13 11 16 -11z m183 21 c-2 -2 -17 -6 -34 -10 -22 -5 -26 -4 -15
4 14 9 59 15 49 6z m108 -2 c-3 -3 -12 -4 -19 -1 -8 3 -5 6 6 6 11 1 17 -2 13
-5z m-600 -20 c-3 -3 -12 -4 -19 -1 -8 3 -5 6 6 6 11 1 17 -2 13 -5z m83 -4
c8 -5 11 -10 5 -10 -5 0 -17 5 -25 10 -8 5 -10 10 -5 10 6 0 17 -5 25 -10z
m305 0 c19 -8 19 -9 -2 -9 -12 -1 -27 -3 -35 -4 -7 -2 -10 -2 -5 0 4 3 5 9 1
14 -6 11 14 11 41 -1z m-943 -12 c-9 -9 -15 -9 -24 0 -9 9 -7 12 12 12 19 0
21 -3 12 -12z m1078 2 c0 -5 -2 -10 -4 -10 -3 0 -8 5 -11 10 -3 6 -1 10 4 10
6 0 11 -4 11 -10z m-963 -6 c-3 -3 -12 -4 -19 -1 -8 3 -5 6 6 6 11 1 17 -2 13
-5z m-264 -11 c-7 -2 -19 -2 -25 0 -7 3 -2 5 12 5 14 0 19 -2 13 -5z m-93 -13
c0 -5 -5 -10 -11 -10 -5 0 -7 5 -4 10 3 6 8 10 11 10 2 0 4 -4 4 -10z m-517
-7 c-7 -2 -19 -2 -25 0 -7 3 -2 5 12 5 14 0 19 -2 13 -5z m107 -13 c0 -5 -4
-10 -9 -10 -6 0 -13 5 -16 10 -3 6 1 10 9 10 9 0 16 -4 16 -10z m373 -11 c-4
-14 -8 -17 -13 -9 -5 9 -9 9 -14 1 -4 -6 -17 -11 -29 -10 l-22 0 23 9 c12 5
22 14 22 20 0 5 9 10 19 10 14 0 18 -5 14 -21z m87 14 c-8 -3 -23 -10 -32 -15
-11 -5 -18 -5 -18 1 0 10 23 18 50 19 13 0 13 0 0 -5z m515 -3 c3 -5 -1 -10
-9 -10 -9 0 -16 5 -16 10 0 6 4 10 9 10 6 0 13 -4 16 -10z m-1038 -16 c-3 -3
-12 -4 -19 -1 -8 3 -5 6 6 6 11 1 17 -2 13 -5z m993 -3 c0 -5 -11 -8 -25 -8
-14 0 -25 3 -25 8 0 5 11 9 25 9 14 0 25 -4 25 -9z m-2628 -42 c-2 -19 -7 -38
-11 -42 -10 -11 -22 48 -14 68 10 28 28 9 25 -26z m3098 25 c0 -2 -7 -4 -15
-4 -8 0 -15 4 -15 10 0 5 7 7 15 4 8 -4 15 -8 15 -10z m-640 -4 c0 -5 -2 -10
-4 -10 -3 0 -8 5 -11 10 -3 6 -1 10 4 10 6 0 11 -4 11 -10z m85 1 l40 -9 -52
-1 c-28 0 -55 4 -58 9 -7 12 15 12 70 1z m232 -67 c-3 -3 -12 -4 -19 -1 -8 3
-5 6 6 6 11 1 17 -2 13 -5z"/>
<path d="M1936 5377 c3 -10 9 -15 12 -12 3 3 0 11 -7 18 -10 9 -11 8 -5 -6z"/>
<path d="M2595 5220 c3 -5 8 -10 11 -10 2 0 4 5 4 10 0 6 -5 10 -11 10 -5 0
-7 -4 -4 -10z"/>
<path d="M1680 5100 c-8 -5 -10 -10 -5 -10 6 0 17 5 25 10 8 5 11 10 5 10 -5
0 -17 -5 -25 -10z"/>
<path d="M1926 5028 c5 -8 2 -9 -10 -5 -9 4 -15 3 -11 -2 3 -6 14 -9 25 -8 14
1 16 4 8 14 -13 16 -22 17 -12 1z"/>
<path d="M1986 4952 c2 -3 -1 -11 -7 -19 -8 -9 -8 -13 -1 -13 16 0 26 20 15
30 -6 4 -8 5 -7 2z"/>
<path d="M1990 4900 c-7 -14 -7 -20 0 -20 5 0 10 7 10 16 0 9 5 12 12 8 7 -4
8 -3 4 4 -10 16 -14 15 -26 -8z"/>
<path d="M2015 4869 c-11 -16 -1 -19 13 -3 7 8 8 14 3 14 -5 0 -13 -5 -16 -11z"/>
<path d="M1959 4833 c0 -11 -3 -13 -6 -5 -7 17 -20 15 -20 -3 0 -8 7 -15 14
-15 8 0 12 -4 8 -9 -3 -6 4 -15 15 -21 21 -11 21 -11 24 33 2 21 -10 37 -26
37 -5 0 -8 -8 -9 -17z"/>
<path d="M2025 4810 c-4 -6 -10 -8 -15 -5 -10 6 -6 -37 5 -55 5 -8 4 -11 -2
-7 -13 8 -24 -18 -17 -38 4 -8 2 -15 -4 -15 -15 0 -11 -48 4 -54 21 -8 56 31
49 55 -4 12 -2 19 7 19 8 1 6 6 -6 15 -11 8 -14 15 -7 15 7 0 9 4 6 10 -3 6 1
7 9 4 20 -8 21 10 1 26 -8 7 -13 16 -10 20 3 5 1 11 -4 14 -5 4 -12 2 -16 -4z
m9 -28 c3 -5 -1 -9 -9 -9 -8 0 -15 4 -15 9 0 4 4 8 9 8 6 0 12 -4 15 -8z"/>
<path d="M2069 4818 c-6 -21 -5 -38 1 -38 5 0 8 9 7 20 -1 17 -5 26 -8 18z"/>
<path d="M2102 4727 c-14 -17 -19 -62 -7 -62 6 0 9 12 9 27 -1 16 1 26 5 23 4
-2 8 2 8 10 0 18 -2 18 -15 2z"/>
<path d="M2065 4640 c10 -11 20 -20 23 -20 3 0 -3 9 -13 20 -10 11 -20 20 -23
20 -3 0 3 -9 13 -20z"/>
<path d="M1989 4622 c6 -2 8 -9 5 -14 -4 -7 -2 -8 4 -4 7 4 22 9 33 11 36 7
31 11 -12 11 -23 0 -37 -2 -30 -4z"/>
<path d="M2034 4595 c-11 -8 -14 -15 -6 -15 17 0 15 -20 -3 -20 -8 0 -15 8
-16 18 0 11 -4 7 -11 -11 -5 -15 -14 -25 -19 -21 -5 3 -5 12 1 23 5 10 6 21 3
25 -9 8 -34 -14 -27 -25 3 -5 -1 -9 -8 -9 -7 -1 -2 -7 12 -15 33 -19 38 -18
43 3 4 13 5 11 6 -5 2 -33 16 -28 32 10 13 30 20 57 15 57 -1 0 -11 -7 -22
-15z"/>
<path d="M2075 4570 c3 -5 8 -10 11 -10 2 0 4 5 4 10 0 6 -5 10 -11 10 -5 0
-7 -4 -4 -10z"/>
<path d="M2050 4540 c-6 -11 -8 -20 -6 -20 3 0 10 9 16 20 6 11 8 20 6 20 -3
0 -10 -9 -16 -20z"/>
<path d="M1924 4515 c-3 -13 -3 -29 2 -36 4 -8 3 -9 -4 -5 -8 5 -12 -1 -12
-18 0 -20 4 -24 23 -21 70 14 72 15 74 46 1 17 -2 27 -7 24 -6 -4 -10 -15 -10
-25 0 -13 -5 -17 -15 -14 -8 4 -15 10 -15 16 0 5 6 6 13 2 7 -5 6 0 -3 11 -8
10 -10 16 -3 12 6 -4 14 -4 17 1 2 4 -8 13 -25 19 -27 10 -30 9 -35 -12z"/>
<path d="M2027 4486 c-4 -9 -3 -15 2 -11 5 3 11 1 13 -4 1 -5 10 -2 18 7 13
14 12 15 -2 9 -9 -3 -18 -1 -21 6 -2 6 -6 3 -10 -7z"/>
<path d="M2070 4439 c-7 -11 -10 -23 -7 -25 2 -2 9 7 15 21 14 30 7 33 -8 4z"/>
<path d="M2092 4435 c-17 -37 -14 -45 4 -12 9 16 14 31 11 33 -2 2 -9 -7 -15
-21z"/>
<path d="M2140 4380 c0 -5 5 -10 11 -10 5 0 7 5 4 10 -3 6 -8 10 -11 10 -2 0
-4 -4 -4 -10z"/>
<path d="M2046 4365 c-16 -12 -16 -14 4 -20 26 -8 43 6 26 21 -9 8 -17 8 -30
-1z"/>
<path d="M1951 4348 c-14 -40 -21 -88 -12 -88 5 0 12 15 15 33 3 17 8 42 10
55 3 12 3 22 0 22 -2 0 -8 -10 -13 -22z"/>
<path d="M2120 4350 c0 -4 7 -7 15 -6 23 3 26 12 5 13 -11 1 -20 -2 -20 -7z"/>
<path d="M1977 4323 c-4 -3 -7 -13 -7 -22 1 -13 3 -13 11 2 11 19 8 33 -4 20z"/>
<path d="M2006 4289 c3 -5 9 -7 14 -4 5 3 11 -3 14 -12 4 -15 5 -15 3 1 -1 11
-10 20 -20 22 -9 1 -15 -2 -11 -7z"/>
<path d="M2052 4255 c-13 -29 -10 -31 12 -10 13 14 17 13 34 -5 15 -17 21 -18
25 -7 3 8 1 20 -4 28 -7 12 -9 12 -9 -1 0 -13 -1 -13 -10 0 -5 8 -10 11 -10 6
0 -5 -6 -3 -13 3 -11 8 -16 5 -25 -14z"/>
<path d="M2066 4216 c3 -8 12 -12 20 -9 17 6 9 23 -11 23 -8 0 -12 -6 -9 -14z"/>
<path d="M2125 4181 c-3 -6 -3 -11 2 -11 4 0 1 -5 -7 -10 -10 -7 -11 -10 -2
-10 7 0 15 7 19 15 7 19 -2 31 -12 16z"/>
<path d="M2051 4165 c-1 -5 8 -20 17 -33 16 -20 20 -21 30 -9 10 11 7 18 -10
33 -19 16 -20 16 -9 2 8 -11 9 -18 3 -18 -6 0 -16 8 -21 18 -6 9 -10 13 -10 7z"/>
<path d="M2143 4101 c-10 -16 -9 -18 8 -14 10 3 19 12 19 19 0 20 -13 17 -27
-5z"/>
<path d="M2235 4050 c-3 -5 -1 -10 4 -10 6 0 11 5 11 10 0 6 -2 10 -4 10 -3 0
-8 -4 -11 -10z"/>
<path d="M1947 3480 c-45 -39 -64 -107 -43 -148 47 -90 160 -103 210 -24 12
20 25 48 29 61 10 39 -37 131 -67 131 -6 0 -4 -5 4 -11 12 -8 11 -9 -5 -6 -11
2 -19 9 -17 15 1 8 -12 12 -38 12 -29 0 -48 -7 -73 -30z m101 -166 c3 -19 -3
-22 -45 -26 -51 -5 -77 10 -66 38 4 11 19 14 57 12 43 -3 51 -6 54 -24z"/>
<path d="M3661 2983 c7 -12 15 -20 18 -17 3 2 -3 12 -13 22 -17 16 -18 16 -5
-5z"/>
<path d="M1000 3248 c-12 -22 -12 -22 6 -6 10 10 15 20 12 24 -4 3 -12 -5 -18
-18z"/>
<path d="M1000 3210 c-6 -11 -16 -17 -22 -14 -7 4 -8 3 -4 -4 4 -7 10 -12 14
-12 11 1 44 50 33 50 -6 0 -15 -9 -21 -20z"/>
<path d="M927 3213 c-4 -3 -7 -13 -7 -22 1 -13 3 -13 11 2 11 19 8 33 -4 20z"/>
<path d="M955 3209 c-4 -6 -5 -12 -2 -15 2 -3 7 2 10 11 7 17 1 20 -8 4z"/>
<path d="M916 3134 c-15 -39 4 -42 24 -3 8 15 7 19 -4 19 -7 0 -17 -7 -20 -16z"/>
<path d="M990 3140 c-9 -6 -10 -10 -3 -10 6 0 15 5 18 10 8 12 4 12 -15 0z"/>
<path d="M2530 3000 c-6 -23 -9 -44 -7 -46 2 -3 9 14 15 38 6 23 9 44 7 46 -2
2 -9 -15 -15 -38z"/>
<path d="M2580 3026 c0 -8 4 -17 9 -20 5 -4 7 3 4 14 -6 23 -13 26 -13 6z"/>
<path d="M2625 2979 c-4 -6 -5 -12 -2 -15 2 -3 7 2 10 11 7 17 1 20 -8 4z"/>
<path d="M2601 2970 c-1 -21 16 -46 26 -37 4 5 3 11 -3 15 -6 4 -14 14 -17 22
-5 13 -5 13 -6 0z"/>
<path d="M955 2959 c-4 -6 -5 -12 -2 -15 2 -3 7 2 10 11 7 17 1 20 -8 4z"/>
<path d="M994 2895 c-18 -13 -18 -15 -1 -32 16 -16 17 -16 17 0 0 9 -6 17 -12
18 -7 1 -2 4 12 8 14 4 20 10 14 14 -6 3 -20 0 -30 -8z"/>
<path d="M1050 2891 c0 -6 4 -13 10 -16 6 -3 7 1 4 9 -7 18 -14 21 -14 7z"/>
<path d="M2780 2890 c0 -6 -5 -8 -10 -5 -6 4 -16 2 -23 -3 -7 -5 -25 -12 -41
-16 -80 -19 -149 -120 -126 -181 18 -47 50 -74 105 -90 36 -11 56 -23 67 -43
9 -15 25 -36 36 -45 16 -15 19 -24 12 -49 -5 -16 -15 -37 -22 -46 -12 -14
-116 -86 -128 -87 -12 -2 -90 -46 -90 -51 0 -14 182 51 188 68 9 20 56 -4 139
-72 7 -6 19 -10 28 -10 20 0 13 14 -42 75 -47 52 -48 53 -32 108 8 32 18 41
54 57 27 12 53 32 67 55 13 19 34 38 48 42 29 7 62 32 55 43 -3 4 3 10 13 12
40 11 53 148 18 178 -12 9 -13 8 -10 -7 4 -15 -1 -19 -28 -21 -18 -2 -46 -4
-63 -6 -33 -4 -58 10 -48 28 4 6 -1 5 -10 -3 -12 -9 -17 -10 -17 -2 0 7 -4 9
-10 6 -6 -4 -7 2 -2 16 5 12 17 24 27 25 10 1 22 7 27 12 6 6 -21 9 -74 9 -46
0 -89 3 -96 7 -7 4 -12 2 -12 -4z"/>
<path d="M946 2875 c4 -8 10 -12 15 -9 14 8 10 24 -6 24 -9 0 -12 -6 -9 -15z"/>
<path d="M1026 2865 c-9 -26 -7 -32 5 -12 6 10 9 21 6 23 -2 3 -7 -2 -11 -11z"/>
<path d="M1045 2849 c-4 -6 -5 -11 -4 -12 2 -2 11 -8 20 -15 13 -10 19 -8 35
10 10 12 14 18 7 15 -6 -4 -14 -3 -18 3 -8 13 -32 13 -40 -1z m29 -15 c3 -8 2
-12 -4 -9 -6 3 -10 10 -10 16 0 14 7 11 14 -7z"/>
<path d="M2921 2844 c0 -11 3 -14 6 -6 3 7 2 16 -1 19 -3 4 -6 -2 -5 -13z"/>
<path d="M2545 2839 c-4 -6 -5 -12 -2 -15 2 -3 7 2 10 11 7 17 1 20 -8 4z"/>
<path d="M2575 2840 c-3 -5 -1 -10 4 -10 6 0 11 5 11 10 0 6 -2 10 -4 10 -3 0
-8 -4 -11 -10z"/>
<path d="M990 2830 c8 -5 20 -10 25 -10 6 0 3 5 -5 10 -8 5 -19 10 -25 10 -5
0 -3 -5 5 -10z"/>
<path d="M2510 2830 c-9 -6 -10 -10 -3 -10 6 0 15 5 18 10 8 12 4 12 -15 0z"/>
<path d="M980 2804 c0 -8 5 -12 10 -9 6 4 8 11 5 16 -9 14 -15 11 -15 -7z"/>
<path d="M957 2803 c-4 -3 -7 -11 -7 -17 0 -6 5 -5 12 2 6 6 9 14 7 17 -3 3
-9 2 -12 -2z"/>
<path d="M1018 2793 c-8 -10 -18 -25 -22 -33 -4 -8 -1 -7 7 3 9 10 24 25 34
32 10 8 13 15 7 15 -6 0 -18 -8 -26 -17z"/>
<path d="M860 2771 c0 -16 28 -20 34 -5 4 9 -1 14 -14 14 -11 0 -20 -4 -20 -9z"/>
<path d="M960 2770 c-9 -6 -10 -10 -3 -10 6 0 15 5 18 10 8 12 4 12 -15 0z"/>
<path d="M2415 2759 c-4 -6 -5 -12 -2 -15 2 -3 7 2 10 11 7 17 1 20 -8 4z"/>
<path d="M1013 2737 c0 -8 6 -14 14 -14 9 0 10 4 2 14 -6 7 -12 13 -14 13 -1
0 -2 -6 -2 -13z"/>
<path d="M956 2668 c-16 -22 -15 -35 2 -24 9 5 24 46 17 46 -2 0 -11 -10 -19
-22z"/>
<path d="M974 2639 c-3 -5 6 -9 20 -9 31 0 34 6 6 13 -11 3 -23 1 -26 -4z"/>
<path d="M935 2604 c-23 -23 -9 -31 15 -9 12 11 20 13 20 6 0 -7 5 -9 10 -6
17 10 11 25 -9 25 -11 0 -27 -7 -36 -16z"/>
<path d="M1035 2600 c-3 -5 -2 -10 4 -10 5 0 13 5 16 10 3 6 2 10 -4 10 -5 0
-13 -4 -16 -10z"/>
<path d="M931 2511 c-14 -4 -26 -12 -29 -19 -3 -9 4 -9 27 -1 17 6 34 15 37
20 6 10 0 10 -35 0z"/>
<path d="M985 2510 c-3 -5 -1 -10 4 -10 6 0 11 5 11 10 0 6 -2 10 -4 10 -3 0
-8 -4 -11 -10z"/>
<path d="M1425 2490 c10 -11 20 -18 23 -15 7 6 -18 35 -31 35 -5 0 -2 -9 8
-20z"/>
<path d="M923 2465 c0 -8 4 -12 9 -9 4 3 8 9 8 15 0 5 -4 9 -8 9 -5 0 -9 -7
-9 -15z"/>
<path d="M1143 2287 c-1 -11 -1 -18 0 -16 2 2 8 11 15 20 9 12 9 16 -1 16 -7
0 -14 -9 -14 -20z"/>
<path d="M1174 2289 c-3 -6 -1 -16 5 -22 8 -8 11 -5 11 11 0 24 -5 28 -16 11z"/>
<path d="M1245 2290 c3 -5 8 -10 11 -10 2 0 4 5 4 10 0 6 -5 10 -11 10 -5 0
-7 -4 -4 -10z"/>
<path d="M1545 2090 c-3 -5 -1 -10 4 -10 6 0 11 5 11 10 0 6 -2 10 -4 10 -3 0
-8 -4 -11 -10z"/>
<path d="M1653 2054 c-15 -16 -16 -24 -4 -24 8 0 24 30 19 35 -2 2 -9 -3 -15
-11z"/>
<path d="M1896 1925 c4 -8 8 -15 10 -15 2 0 4 7 4 15 0 8 -4 15 -10 15 -5 0
-7 -7 -4 -15z"/>
<path d="M1890 1761 c0 -11 -3 -26 -6 -35 -5 -14 -9 -14 -36 2 -28 16 -30 16
-44 -2 -18 -25 -18 -45 1 -89 11 -26 19 -35 31 -30 9 3 11 9 6 12 -6 4 -4 11
4 19 12 11 14 9 14 -7 0 -30 17 -34 40 -11 11 11 26 20 33 20 6 -1 2 -6 -11
-13 -12 -7 -20 -16 -16 -19 6 -7 28 11 52 44 11 13 10 23 -3 54 -26 63 -65 96
-65 55z"/>
<path d="M2271 1540 c0 -8 4 -22 9 -30 12 -18 12 -2 0 25 -6 13 -9 15 -9 5z"/>
<path d="M1631 1514 c0 -11 3 -14 6 -6 3 7 2 16 -1 19 -3 4 -6 -2 -5 -13z"/>
<path d="M1588 1497 c-3 -19 -2 -25 4 -19 6 6 8 18 6 28 -3 14 -5 12 -10 -9z"/>
<path d="M1006 995 c4 -10 0 -15 -10 -15 -32 0 -78 -32 -91 -63 -16 -39 -6
-113 19 -152 60 -92 282 -240 251 -167 -11 24 -14 50 -24 193 -5 75 -14 134
-22 147 -8 13 -31 28 -51 34 -21 6 -38 17 -38 25 0 7 -9 13 -20 13 -13 0 -18
-5 -14 -15z"/>
<path d="M5100 2480 c0 -5 6 -10 14 -10 8 0 18 5 21 10 3 6 -3 10 -14 10 -12
0 -21 -4 -21 -10z"/>
<path d="M4385 591 c-3 -5 -1 -12 5 -16 5 -3 10 1 10 9 0 18 -6 21 -15 7z"/>
<path d="M4446 592 c-2 -4 4 -9 15 -9 10 -1 19 2 19 8 0 11 -27 12 -34 1z"/>
<path d="M590 3975 c-7 -8 -16 -13 -19 -10 -4 2 -8 -2 -8 -10 0 -7 8 -13 18
-12 10 1 15 5 12 10 -2 4 1 14 7 22 7 8 10 15 7 15 -2 0 -10 -7 -17 -15z"/>
<path d="M565 3919 c-11 -17 1 -21 15 -4 8 9 8 15 2 15 -6 0 -14 -5 -17 -11z"/>
<path d="M460 3369 c0 -5 5 -7 10 -4 6 3 10 8 10 11 0 2 -4 4 -10 4 -5 0 -10
-5 -10 -11z"/>
<path d="M426 3321 c-4 -5 3 -7 14 -4 23 6 26 13 6 13 -8 0 -17 -4 -20 -9z"/>
<path d="M406 3272 c-3 -5 9 -9 26 -10 24 -1 28 2 18 8 -19 12 -37 13 -44 2z"/>
<path d="M410 3220 c-9 -6 -10 -10 -3 -10 6 0 15 5 18 10 8 12 4 12 -15 0z"/>
<path d="M457 3152 c-10 -10 -14 -22 -10 -25 7 -8 43 21 43 35 0 14 -16 9 -33
-10z"/>
<path d="M5 2768 c-3 -8 -5 -37 -3 -62 3 -43 4 -46 21 -34 10 8 20 25 21 40 3
21 0 24 -18 20 -17 -5 -19 -3 -9 9 7 9 9 20 3 29 -8 12 -10 12 -15 -2z"/>
<path d="M295 2370 c-16 -11 -25 -20 -20 -20 10 0 64 39 55 40 -3 0 -18 -9
-35 -20z"/>
<path d="M607 2173 c-4 -3 -7 -11 -7 -17 0 -6 5 -5 12 2 6 6 9 14 7 17 -3 3
-9 2 -12 -2z"/>
</g>
</svg>
