<?xml version="1.0" standalone="no"?>
<!DOCTYPE svg PUBLIC "-//W3C//DTD SVG 20010904//EN"
 "http://www.w3.org/TR/2001/REC-SVG-20010904/DTD/svg10.dtd">
<svg version="1.0" xmlns="http://www.w3.org/2000/svg"
 width="512.000000pt" height="512.000000pt" viewBox="0 0 512.000000 512.000000"
 preserveAspectRatio="xMidYMid meet">
<metadata>
Created by potrace 1.14, written by Peter Selinger 2001-2017
</metadata>
<g transform="translate(0.000000,512.000000) scale(0.100000,-0.100000)"
fill="#000000" stroke="none">
<path d="M2451 4047 c-20 -20 -12 -69 34 -217 100 -319 115 -408 124 -715 l6
-230 17 110 c25 163 31 294 18 443 -17 212 -62 405 -126 538 -34 73 -53 91
-73 71z"/>
<path d="M3295 3742 c-49 -31 -180 -158 -247 -240 -143 -178 -254 -379 -323
-583 -19 -59 -35 -112 -35 -118 0 -7 36 59 79 146 119 237 193 342 372 531
179 190 209 227 209 258 0 29 -15 30 -55 6z"/>
<path d="M2368 3642 c7 -5 10 -16 6 -25 -5 -13 -2 -16 11 -11 15 6 16 4 6 -14
-15 -28 -14 -32 4 -26 11 5 13 2 9 -11 -4 -9 -2 -20 4 -24 6 -3 13 -26 16 -50
2 -24 10 -47 17 -52 7 -4 14 -32 15 -62 1 -31 7 -64 12 -73 7 -13 9 -4 5 32
-3 36 -2 45 6 34 18 -25 12 -3 -11 46 -15 31 -19 48 -12 51 13 4 6 50 -8 59
-6 4 -7 -2 -3 -16 5 -16 4 -20 -5 -15 -6 4 -10 18 -7 31 2 13 0 22 -6 21 -5
-1 -12 4 -15 12 -3 10 0 12 11 8 11 -4 14 -2 10 9 -3 7 -10 14 -16 14 -6 0 -7
3 -4 6 9 9 -31 64 -46 64 -8 0 -8 -3 1 -8z"/>
<path d="M1599 3596 c7 -8 24 -17 38 -21 22 -5 24 -8 12 -16 -10 -8 -8 -9 9
-4 19 5 22 2 22 -19 0 -14 5 -28 10 -31 6 -3 10 -2 10 4 0 6 7 8 15 5 30 -12
15 26 -17 43 -71 38 -111 54 -99 39z"/>
<path d="M1620 3540 c0 -5 5 -10 11 -10 5 0 7 5 4 10 -3 6 -8 10 -11 10 -2 0
-4 -4 -4 -10z"/>
<path d="M2371 3534 c0 -11 3 -14 6 -6 3 7 2 16 -1 19 -3 4 -6 -2 -5 -13z"/>
<path d="M1567 3519 c11 -12 26 -18 32 -15 16 10 14 26 -3 20 -8 -3 -17 -1
-21 5 -3 6 -11 11 -18 11 -6 0 -2 -10 10 -21z"/>
<path d="M1750 3510 c0 -5 7 -10 15 -10 18 0 20 -16 3 -24 -7 -3 -2 -3 11 0
13 3 21 2 18 -3 -3 -5 3 -9 13 -9 15 0 16 3 8 14 -17 20 -68 44 -68 32z"/>
<path d="M2385 3510 c-3 -5 -1 -10 4 -10 6 0 11 5 11 10 0 6 -2 10 -4 10 -3 0
-8 -4 -11 -10z"/>
<path d="M1617 3503 c-12 -11 -8 -20 18 -37 15 -10 25 -12 25 -5 0 6 -9 13
-20 16 -27 7 -25 21 3 26 20 4 20 4 1 6 -11 0 -24 -2 -27 -6z"/>
<path d="M2897 3490 c5 -22 4 -23 -11 -11 -14 12 -16 12 -10 -4 5 -12 4 -16
-4 -11 -6 3 -14 1 -18 -5 -4 -8 -3 -9 4 -5 7 4 12 1 12 -9 0 -9 -4 -13 -10
-10 -6 4 -7 -1 -3 -12 6 -15 9 -14 17 10 5 15 13 27 18 27 4 0 12 10 19 21 6
13 7 19 1 15 -6 -3 -13 0 -16 6 -3 7 -3 2 1 -12z"/>
<path d="M3370 3500 c-8 -5 -10 -10 -5 -10 6 0 17 5 25 10 8 5 11 10 5 10 -5
0 -17 -5 -25 -10z"/>
<path d="M2390 3481 c0 -6 5 -13 10 -16 6 -3 10 1 10 9 0 9 -4 16 -10 16 -5 0
-10 -4 -10 -9z"/>
<path d="M3590 3457 c-262 -115 -577 -366 -758 -604 -114 -151 -104 -152 45
-3 223 221 334 300 648 465 156 82 207 119 203 149 -5 33 -52 31 -138 -7z"/>
<path d="M3283 3458 c-15 -11 -21 -18 -12 -15 9 3 20 2 25 -3 5 -5 19 -1 33 9
23 17 23 18 3 23 -11 3 -32 -3 -49 -14z m31 -3 c-4 -8 -11 -12 -16 -9 -6 4 -5
10 3 15 19 12 19 11 13 -6z"/>
<path d="M1720 3450 c0 -5 6 -10 14 -10 8 0 18 5 21 10 3 6 -3 10 -14 10 -12
0 -21 -4 -21 -10z"/>
<path d="M1844 3452 c8 -13 66 -56 66 -49 0 3 -17 17 -37 33 -20 15 -33 23
-29 16z"/>
<path d="M1773 3435 c0 -8 4 -12 9 -9 5 3 6 10 3 15 -9 13 -12 11 -12 -6z"/>
<path d="M2412 3425 c6 -14 13 -24 14 -22 6 6 -9 47 -17 47 -5 0 -3 -11 3 -25z"/>
<path d="M2471 3434 c0 -11 3 -14 6 -6 3 7 2 16 -1 19 -3 4 -6 -2 -5 -13z"/>
<path d="M3190 3392 c-22 -22 -40 -37 -40 -34 0 10 -52 -43 -62 -63 -10 -21
-6 -18 80 65 18 18 39 33 45 34 30 5 57 18 57 27 0 22 -42 6 -80 -29z"/>
<path d="M1810 3390 c-13 -11 -18 -20 -12 -20 6 0 14 5 17 10 9 15 27 12 19
-2 -6 -10 -4 -10 7 0 16 14 33 16 24 2 -7 -11 8 -14 18 -4 8 9 -18 34 -36 34
-8 0 -24 -9 -37 -20z"/>
<path d="M2810 3378 c-8 -18 -13 -39 -12 -45 2 -7 -1 -13 -7 -13 -11 0 -43
-61 -36 -68 6 -7 5 -9 50 68 51 86 50 84 37 76 -5 -3 -12 -2 -14 4 -2 6 -10
-5 -18 -22z"/>
<path d="M1920 3396 c0 -2 8 -10 18 -17 15 -13 16 -12 3 4 -13 16 -21 21 -21
13z"/>
<path d="M1905 3354 c17 -13 18 -16 5 -25 -13 -9 -12 -10 3 -5 9 3 17 0 17 -6
0 -8 6 -6 16 4 18 18 10 42 -12 34 -7 -3 -16 -1 -19 4 -4 6 -12 10 -18 10 -7
0 -3 -7 8 -16z"/>
<path d="M2501 3334 c0 -11 3 -14 6 -6 3 7 2 16 -1 19 -3 4 -6 -2 -5 -13z"/>
<path d="M1850 3336 c0 -2 7 -7 16 -10 8 -3 12 -2 9 4 -6 10 -25 14 -25 6z"/>
<path d="M1980 3316 c7 -7 13 -7 20 0 6 6 3 10 -10 10 -13 0 -16 -4 -10 -10z"/>
<path d="M2210 3314 c0 -22 15 -47 90 -148 89 -120 128 -191 168 -306 l33 -95
-6 58 c-3 32 -15 86 -27 120 -39 116 -139 299 -196 360 -28 30 -62 36 -62 11z"/>
<path d="M1942 3305 c-6 -11 -12 -14 -12 -7 0 7 -5 10 -11 6 -16 -9 10 -24 29
-16 10 3 13 0 10 -9 -3 -8 2 -19 11 -26 24 -18 38 -16 15 3 -16 13 -16 15 -2
10 10 -3 20 0 24 6 4 6 3 9 -2 5 -11 -7 -39 13 -46 33 -4 11 -7 10 -16 -5z"/>
<path d="M2505 3288 c-4 -16 -11 -25 -16 -22 -10 6 -6 -19 16 -91 10 -33 14
-37 20 -21 4 10 4 21 -2 25 -16 11 -23 40 -16 73 5 27 7 29 14 13 5 -13 8 -14
8 -5 0 8 -4 24 -9 35 -7 18 -8 18 -15 -7z"/>
<path d="M2052 3263 c23 -23 26 -32 15 -42 -8 -10 -8 -12 0 -7 6 3 14 2 18 -4
3 -5 2 -10 -3 -10 -5 0 -9 -7 -9 -15 0 -12 5 -11 19 5 23 24 26 25 24 3 -1
-12 5 -17 16 -15 13 2 16 -2 12 -13 -4 -10 -13 -13 -25 -10 -12 4 -19 2 -19
-6 0 -7 3 -10 6 -6 3 3 19 -8 35 -25 15 -18 35 -33 43 -34 19 -3 30 26 15 40
-9 8 -10 7 -6 -6 4 -10 2 -18 -3 -18 -5 0 -11 8 -13 18 -4 14 -5 14 -6 -3 -1
-18 -2 -18 -17 3 -19 27 -9 49 14 30 11 -8 9 -3 -5 17 -30 43 -60 68 -72 60
-6 -3 -9 0 -6 7 3 8 -9 24 -27 37 l-33 24 27 -30z"/>
<path d="M3049 3263 c-13 -16 -12 -17 4 -4 9 7 17 15 17 17 0 8 -8 3 -21 -13z"/>
<path d="M2020 3258 c0 -9 7 -19 16 -22 15 -6 15 -4 3 11 -7 10 -15 20 -16 22
-2 2 -3 -3 -3 -11z"/>
<path d="M1576 3235 c-14 -37 16 -56 232 -151 226 -99 335 -170 523 -344 111
-102 113 -102 34 5 -118 159 -368 351 -600 461 -92 44 -178 57 -189 29z"/>
<path d="M2532 3220 c0 -14 2 -19 5 -12 2 6 2 18 0 25 -3 6 -5 1 -5 -13z"/>
<path d="M2735 3209 c-4 -6 -5 -12 -2 -15 2 -3 7 2 10 11 7 17 1 20 -8 4z"/>
<path d="M2541 3154 c0 -11 3 -14 6 -6 3 7 2 16 -1 19 -3 4 -6 -2 -5 -13z"/>
<path d="M2533 3115 c-8 -9 -9 -24 -2 -51 4 -22 9 -57 10 -79 0 -22 3 -34 6
-27 2 6 9 10 14 6 5 -3 9 5 9 18 0 16 -3 19 -9 10 -5 -9 -10 3 -15 34 -8 64
-6 99 4 59 7 -28 8 -28 9 -5 1 35 -11 51 -26 35z"/>
<path d="M3960 3110 c-8 -5 -10 -10 -5 -10 6 0 17 5 25 10 8 5 11 10 5 10 -5
0 -17 -5 -25 -10z"/>
<path d="M1460 3103 c8 -2 25 -9 37 -15 11 -6 27 -8 35 -5 9 4 7 6 -4 6 -10 1
-18 6 -18 11 0 6 -15 10 -32 9 -18 0 -26 -3 -18 -6z"/>
<path d="M3860 3101 c-16 -4 -21 -9 -13 -14 7 -4 27 -1 45 7 35 15 15 20 -32
7z"/>
<path d="M4020 3088 c1 -21 2 -22 14 -6 7 10 16 15 19 11 4 -3 1 -13 -6 -22
-10 -14 -10 -14 5 -3 21 16 13 42 -13 42 -13 0 -19 -7 -19 -22z"/>
<path d="M2221 3090 c-1 -18 18 -40 34 -40 5 0 3 6 -6 13 -9 7 -18 19 -22 27
-5 13 -6 13 -6 0z"/>
<path d="M3913 3089 c-13 -4 -14 -7 -4 -13 7 -5 15 -5 18 -2 3 3 13 2 22 -3
18 -10 54 0 49 13 -4 10 -61 14 -85 5z"/>
<path d="M1563 3080 c-13 -5 -23 -12 -23 -15 0 -4 5 -3 10 0 6 3 10 1 10 -4 0
-6 7 -11 16 -11 8 0 12 5 9 10 -3 6 1 10 9 10 9 0 16 5 16 10 0 12 -17 12 -47
0z"/>
<path d="M3793 3083 c9 -2 17 -9 17 -14 0 -6 -9 -7 -20 -4 -14 5 -20 2 -20 -9
0 -9 -4 -15 -9 -13 -5 1 -10 -2 -11 -8 -2 -17 33 -18 42 -1 5 9 19 16 32 16
40 0 86 -12 80 -21 -3 -5 2 -9 10 -9 22 0 70 20 63 26 -3 3 -13 2 -22 -4 -19
-10 -82 8 -119 33 -11 8 -30 14 -41 14 -17 -1 -17 -2 -2 -6z"/>
<path d="M1441 3076 c2 -2 20 -6 39 -10 25 -4 31 -3 20 4 -14 9 -69 15 -59 6z"/>
<path d="M1640 3071 c12 -9 11 -11 -8 -11 -13 0 -20 -4 -17 -10 9 -15 34 -12
51 5 9 8 11 15 6 15 -6 0 -19 3 -29 6 -15 5 -15 4 -3 -5z"/>
<path d="M3705 3070 c-19 -8 -19 -9 2 -9 12 -1 25 4 28 9 7 12 -2 12 -30 0z"/>
<path d="M1690 3050 c-18 -11 -13 -15 25 -24 19 -4 25 -3 16 3 -7 5 -16 13
-20 19 -4 7 -12 8 -21 2z"/>
<path d="M3645 3050 c-10 -16 22 -23 42 -10 15 10 14 10 -10 5 -19 -4 -26 -2
-22 5 3 5 4 10 1 10 -3 0 -8 -5 -11 -10z"/>
<path d="M2248 2997 c21 -22 28 -25 30 -13 2 9 8 16 14 16 7 0 6 5 -2 15 -6 8
-25 13 -40 12 l-29 -2 27 -28z m30 11 c-2 -5 -8 -9 -13 -9 -5 0 -11 4 -13 9
-1 5 4 9 13 9 9 0 14 -4 13 -9z"/>
<path d="M3568 3023 c7 -3 16 -2 19 1 4 3 -2 6 -13 5 -11 0 -14 -3 -6 -6z"/>
<path d="M3610 3020 c-9 -6 -10 -10 -3 -10 6 0 15 5 18 10 8 12 4 12 -15 0z"/>
<path d="M3485 3005 c-22 -8 -33 -14 -25 -14 12 -1 13 -3 1 -10 -20 -13 19
-24 56 -16 18 4 23 3 15 -3 -9 -6 -1 -9 25 -10 24 -1 33 2 25 7 -10 6 -7 10
13 15 15 4 25 9 23 12 -3 2 -18 -1 -35 -6 -21 -8 -38 -8 -59 0 l-29 12 25 13
c31 17 18 17 -35 0z"/>
<path d="M3820 3010 l-25 -8 28 -1 c15 -1 27 4 27 9 0 6 -1 10 -2 9 -2 -1 -14
-5 -28 -9z"/>
<path d="M3558 3003 c6 -2 18 -2 25 0 6 3 1 5 -13 5 -14 0 -19 -2 -12 -5z"/>
<path d="M3638 3003 c7 -3 16 -2 19 1 4 3 -2 6 -13 5 -11 0 -14 -3 -6 -6z"/>
<path d="M1233 2986 c-21 -10 -33 -22 -33 -35 0 -40 50 -52 335 -81 199 -21
312 -42 435 -81 72 -24 298 -118 373 -156 27 -13 51 -23 52 -21 2 2 -35 31
-83 66 -169 121 -452 238 -707 292 -133 28 -328 36 -372 16z"/>
<path d="M1833 2993 c15 -2 25 -9 22 -14 -4 -5 -2 -9 4 -9 5 0 12 4 15 9 7 11
-18 22 -47 20 -16 -2 -15 -3 6 -6z"/>
<path d="M3410 2980 c-8 -5 -39 -19 -68 -32 -51 -22 -52 -24 -38 -43 15 -20
15 -20 11 2 -3 18 5 24 61 44 35 12 64 26 64 31 0 10 -11 9 -30 -2z"/>
<path d="M3626 2974 c-5 -12 -2 -15 10 -10 8 3 25 6 37 6 18 0 19 2 7 10 -23
15 -47 12 -54 -6z"/>
<path d="M3708 2983 c6 -2 18 -2 25 0 6 3 1 5 -13 5 -14 0 -19 -2 -12 -5z"/>
<path d="M1890 2963 c8 -3 24 -10 35 -15 20 -9 20 -9 1 6 -11 9 -27 16 -35 15
-14 0 -14 -1 -1 -6z"/>
<path d="M2559 2945 c-3 -5 -7 -30 -7 -55 -1 -39 1 -42 9 -20 10 25 8 92 -2
75z"/>
<path d="M2334 2919 c-3 -6 6 -23 20 -38 14 -15 26 -33 26 -40 0 -7 5 -9 10
-6 6 3 10 -2 11 -12 0 -10 3 -13 5 -6 7 16 -46 94 -59 86 -6 -4 -8 0 -4 10 7
19 2 23 -9 6z"/>
<path d="M3438 2923 c7 -3 16 -2 19 1 4 3 -2 6 -13 5 -11 0 -14 -3 -6 -6z"/>
<path d="M3243 2903 c-18 -9 -33 -21 -33 -27 0 -6 4 -6 11 1 9 9 17 8 34 -3
20 -13 23 -13 28 1 4 8 3 14 -1 14 -19 -3 -23 2 -12 16 15 18 14 18 -27 -2z"/>
<path d="M3352 2913 c-6 -2 -10 -9 -7 -13 7 -11 35 -2 35 11 0 10 -8 10 -28 2z"/>
<path d="M3162 2856 c-18 -10 -20 -14 -10 -25 11 -11 9 -12 -8 -3 -16 9 -26 8
-40 -3 -13 -10 -15 -14 -5 -15 10 0 11 -3 2 -14 -8 -9 4 -6 33 7 38 17 44 23
33 35 -10 13 -9 14 12 3 17 -9 26 -10 34 -2 8 8 7 11 -5 11 -9 0 -18 4 -20 9
-2 6 -13 4 -26 -3z m-27 -36 c3 -5 1 -10 -4 -10 -6 0 -11 5 -11 10 0 6 2 10 4
10 3 0 8 -4 11 -10z"/>
<path d="M2551 2824 c0 -11 3 -14 6 -6 3 7 2 16 -1 19 -3 4 -6 -2 -5 -13z"/>
<path d="M3510 2833 c-59 -9 -216 -46 -230 -54 -11 -7 -8 -8 10 -4 154 31 324
33 504 5 162 -25 176 -25 176 -1 0 23 -32 36 -121 50 -61 10 -283 13 -339 4z"/>
<path d="M3050 2789 c0 -5 -5 -7 -12 -3 -8 5 -9 2 -5 -10 6 -14 3 -17 -8 -12
-19 7 -95 -39 -95 -57 0 -9 2 -9 8 1 5 7 21 15 35 18 37 6 89 39 79 49 -4 4 2
5 12 1 16 -5 17 -4 6 9 -15 18 -20 19 -20 4z m-30 -33 c0 -2 -7 -7 -16 -10 -8
-3 -12 -2 -9 4 6 10 25 14 25 6z"/>
<path d="M2876 2680 c-52 -40 -58 -47 -18 -24 29 17 72 54 61 54 -2 0 -21 -14
-43 -30z"/>
<path d="M1660 2670 c-24 -8 -24 -8 7 -9 17 -1 35 4 38 9 7 11 -9 11 -45 0z"/>
<path d="M1742 2671 c46 -15 128 -24 128 -13 0 5 -10 10 -22 9 -13 0 -48 3
-78 6 -38 5 -47 4 -28 -2z"/>
<path d="M1566 2661 c-3 -4 -18 -7 -33 -5 -33 4 -73 -5 -73 -16 0 -4 12 -5 26
-2 19 3 25 1 20 -7 -10 -16 37 -5 84 20 34 18 34 18 8 19 -15 0 -29 -4 -32 -9z"/>
<path d="M1896 2655 c21 -16 38 -20 30 -6 -4 5 0 12 6 14 7 3 -2 6 -21 6 -33
1 -34 0 -15 -14z"/>
<path d="M1627 2635 c2 -6 17 -9 33 -7 39 6 38 9 -4 14 -22 2 -32 0 -29 -7z"/>
<path d="M1758 2643 c6 -2 18 -2 25 0 6 3 1 5 -13 5 -14 0 -19 -2 -12 -5z"/>
<path d="M1948 2643 c6 -2 18 -2 25 0 6 3 1 5 -13 5 -14 0 -19 -2 -12 -5z"/>
<path d="M2024 2638 c-3 -4 11 -8 30 -8 20 0 36 2 36 4 0 8 -61 12 -66 4z"/>
<path d="M3275 2630 c19 -4 -9 -7 -73 -8 -57 0 -107 -3 -110 -6 -3 -3 53 -6
124 -6 71 0 139 -3 152 -6 17 -5 21 -3 16 9 -4 11 2 17 23 20 15 2 -15 4 -67
4 -59 1 -84 -2 -65 -7z m78 -7 c-7 -2 -21 -2 -30 0 -10 3 -4 5 12 5 17 0 24
-2 18 -5z"/>
<path d="M1393 2614 c-9 -9 -9 -14 3 -18 21 -8 74 -6 104 5 17 6 4 7 -40 4
-39 -3 -55 -1 -40 3 23 8 24 9 5 14 -11 3 -26 -1 -32 -8z"/>
<path d="M3500 2620 c0 -13 30 -13 50 0 11 7 7 10 -17 10 -18 0 -33 -4 -33
-10z"/>
<path d="M1558 2613 c6 -2 18 -2 25 0 6 3 1 5 -13 5 -14 0 -19 -2 -12 -5z"/>
<path d="M3588 2613 c7 -3 16 -2 19 1 4 3 -2 6 -13 5 -11 0 -14 -3 -6 -6z"/>
<path d="M3018 2603 c7 -3 16 -2 19 1 4 3 -2 6 -13 5 -11 0 -14 -3 -6 -6z"/>
<path d="M3610 2600 c-17 -11 -14 -12 60 -12 l45 0 -53 -10 c-47 -10 -58 -9
-84 7 -17 10 -28 12 -23 6 5 -9 -2 -11 -29 -6 -20 4 -36 5 -36 2 0 -6 141 -32
155 -28 5 1 23 4 40 5 16 2 39 7 50 11 16 7 11 11 -30 22 -60 15 -75 16 -95 3z"/>
<path d="M3776 2546 c3 -9 -2 -16 -13 -18 -10 -2 4 -8 30 -12 27 -4 51 -5 55
-2 3 3 -7 6 -23 6 -16 0 -25 3 -22 7 8 7 -11 33 -24 33 -5 0 -6 -6 -3 -14z"/>
<path d="M3834 2548 c-5 -7 -2 -9 8 -6 19 8 49 -11 31 -19 -18 -7 -16 -24 2
-17 21 8 19 31 -4 44 -25 13 -28 13 -37 -2z"/>
<path d="M3678 2543 c7 -3 16 -2 19 1 4 3 -2 6 -13 5 -11 0 -14 -3 -6 -6z"/>
<path d="M3715 2540 c3 -5 11 -10 16 -10 6 0 7 5 4 10 -3 6 -11 10 -16 10 -6
0 -7 -4 -4 -10z"/>
<path d="M2107 2520 c-272 -24 -725 -184 -821 -290 -40 -45 -42 -52 -21 -70
26 -21 71 -4 310 115 263 132 376 169 615 205 80 12 159 25 175 30 27 7 24 8
-21 9 -28 1 -71 3 -95 5 -24 2 -88 0 -142 -4z"/>
<path d="M2895 2511 c-53 -5 -43 -7 90 -18 243 -20 380 -54 618 -154 150 -63
203 -77 219 -61 32 32 -61 93 -221 146 -232 77 -486 108 -706 87z"/>
<path d="M2365 2451 c-170 -50 -368 -168 -510 -302 -73 -70 -102 -116 -91
-144 9 -25 41 -3 172 120 162 153 208 185 379 270 150 75 162 89 50 56z"/>
<path d="M2915 2386 c255 -90 351 -143 570 -312 102 -78 144 -104 173 -104 83
0 -61 140 -266 259 -144 83 -290 141 -465 181 -138 32 -143 23 -12 -24z"/>
<path d="M2407 2376 c-14 -13 -28 -22 -31 -19 -2 3 -9 -5 -16 -16 -6 -12 -16
-18 -22 -15 -7 5 -8 2 -3 -6 6 -10 4 -12 -7 -7 -14 5 -17 -8 -9 -30 2 -6 51
49 51 57 0 6 3 9 8 8 4 -2 21 9 37 25 16 15 27 27 24 27 -3 0 -18 -11 -32 -24z"/>
<path d="M1930 2350 c-9 -6 -10 -10 -3 -10 6 0 15 5 18 10 8 12 4 12 -15 0z"/>
<path d="M2410 2268 c-296 -334 -489 -691 -581 -1075 -33 -138 -36 -194 -13
-217 20 -20 27 -20 47 2 28 31 54 100 116 312 33 113 76 252 96 310 64 182
193 419 346 637 45 63 79 117 76 119 -3 3 -42 -37 -87 -88z"/>
<path d="M1885 2323 c-11 -8 -44 -26 -73 -40 -59 -29 -71 -41 -39 -38 12 2 21
8 20 14 -2 6 6 11 18 11 11 0 37 12 57 27 20 15 39 28 41 30 2 2 2 5 0 7 -2 2
-13 -2 -24 -11z"/>
<path d="M2885 2296 c17 -14 36 -26 43 -26 6 0 12 -4 12 -10 0 -5 5 -10 11
-10 7 0 18 -8 25 -17 7 -10 16 -14 21 -9 9 9 -14 26 -91 69 -50 28 -51 28 -21
3z"/>
<path d="M2244 2258 c-16 -18 -23 -28 -15 -21 7 6 20 9 28 6 8 -3 23 4 34 16
11 11 15 21 10 21 -5 0 -13 -4 -16 -10 -3 -5 -11 -10 -17 -10 -7 0 -6 6 2 15
24 29 4 15 -26 -17z"/>
<path d="M2495 2225 c-15 -35 -25 -73 -22 -84 3 -13 1 -18 -8 -15 -7 3 -15 -5
-19 -18 -9 -37 -7 -43 9 -22 11 14 14 15 15 4 0 -13 1 -13 10 0 6 8 7 27 4 42
-6 32 3 71 16 63 4 -3 6 3 3 13 -2 11 2 25 9 33 18 18 30 49 19 49 -5 0 -21
-29 -36 -65z"/>
<path d="M2853 2193 c177 -240 246 -377 352 -701 54 -164 82 -236 97 -246 63
-44 64 44 4 228 -89 270 -241 527 -426 721 -94 99 -102 98 -27 -2z"/>
<path d="M3496 2278 c3 -5 10 -6 15 -3 13 9 11 12 -6 12 -8 0 -12 -4 -9 -9z"/>
<path d="M3526 2272 c-3 -6 12 -17 34 -26 22 -9 40 -20 40 -26 0 -5 7 -6 17
-3 12 5 14 3 8 -7 -5 -9 -4 -11 4 -6 16 10 7 21 -31 36 -18 7 -40 20 -50 27
-9 9 -18 10 -22 5z"/>
<path d="M1711 2216 c-12 -12 -18 -26 -14 -30 4 -4 0 -4 -8 -1 -9 3 -16 0 -16
-7 0 -7 -3 -23 -7 -35 -5 -16 8 -8 43 28 28 28 51 52 51 54 0 2 -6 5 -14 8 -8
3 -23 -5 -35 -17z m29 5 c0 -5 -7 -12 -16 -15 -14 -5 -15 -4 -4 9 14 17 20 19
20 6z"/>
<path d="M3029 2211 c13 -12 18 -21 12 -21 -7 0 -9 -5 -5 -11 4 -8 9 -7 15 2
10 16 4 26 -24 40 -21 10 -21 9 2 -10z"/>
<path d="M2179 2193 c-13 -14 -18 -23 -11 -19 8 5 12 1 12 -12 0 -28 -11 -34
-27 -14 -8 9 -11 11 -8 4 9 -17 -26 -57 -35 -41 -5 7 -9 5 -13 -5 -4 -9 -3
-15 1 -15 21 3 31 -3 26 -15 -3 -7 -13 -13 -22 -12 -11 1 -16 -6 -16 -17 1 -9
-3 -16 -10 -15 -11 2 -56 -23 -56 -32 0 -3 13 -5 30 -5 16 -1 28 1 26 2 -2 2
7 16 20 31 92 105 121 152 93 152 -5 0 -7 5 -4 10 5 8 11 7 21 -1 10 -8 14 -8
14 0 0 6 -5 11 -11 11 -5 0 -7 5 -4 10 11 18 -1 10 -26 -17z m-19 -73 c0 -5
-5 -10 -11 -10 -5 0 -7 5 -4 10 3 6 8 10 11 10 2 0 4 -4 4 -10z m-50 -64 c0
-3 -4 -8 -10 -11 -5 -3 -10 -1 -10 4 0 6 5 11 10 11 6 0 10 -2 10 -4z m-48
-48 c-7 -7 -12 -8 -12 -2 0 6 3 14 7 17 3 4 9 5 12 2 2 -3 -1 -11 -7 -17z"/>
<path d="M3656 2200 c5 -8 9 -18 9 -22 0 -3 3 -9 7 -13 3 -4 5 0 4 9 -1 9 -8
22 -16 29 -10 10 -11 9 -4 -3z"/>
<path d="M3703 2162 c12 -12 16 -26 11 -34 -6 -11 -5 -11 8 0 13 10 17 10 23
-5 5 -10 7 -21 7 -25 -1 -5 3 -8 8 -8 6 0 10 -8 10 -17 0 -15 2 -14 15 3 13
18 14 18 9 -8 -2 -15 0 -29 6 -33 6 -3 7 1 4 10 -4 9 -3 15 2 14 31 -5 38 3
16 21 -13 11 -30 16 -39 13 -13 -5 -15 -2 -9 12 4 11 4 16 0 13 -4 -4 -15 4
-26 17 -11 14 -29 30 -41 37 -22 11 -22 11 -4 -10z"/>
<path d="M1632 2148 c-15 -15 -16 -38 -1 -38 5 0 7 -5 3 -12 -5 -7 -3 -8 5 -3
9 5 10 10 2 18 -13 13 -15 31 -3 23 5 -3 9 1 9 9 0 18 0 18 -15 3z"/>
<path d="M3095 2150 c-16 -7 -17 -9 -3 -9 9 -1 20 4 23 9 7 11 7 11 -20 0z"/>
<path d="M3112 2132 c-14 -9 -1 -24 48 -54 21 -13 27 -13 38 -2 10 12 10 14
-5 15 -43 3 -48 5 -46 16 2 8 -4 10 -14 6 -12 -5 -15 -2 -10 10 7 19 7 20 -11
9z"/>
<path d="M2745 2090 c3 -14 11 -62 17 -107 6 -45 16 -79 21 -76 5 3 6 20 2 37
-4 17 -9 46 -12 65 -3 19 -11 50 -19 70 -8 20 -12 25 -9 11z"/>
<path d="M1569 2088 c-5 -18 -6 -39 -2 -34 4 3 12 1 19 -5 8 -7 14 -7 19 1 4
7 -2 14 -14 17 -11 3 -18 9 -15 14 3 5 3 9 0 9 -3 0 -6 -1 -7 -2z"/>
<path d="M3225 2059 c4 -5 1 -17 -7 -26 -12 -15 -11 -15 10 -2 26 16 28 25 6
33 -9 3 -12 2 -9 -5z"/>
<path d="M1537 2053 c-4 -3 -7 -11 -7 -17 0 -6 5 -5 12 2 6 6 9 14 7 17 -3 3
-9 2 -12 -2z"/>
<path d="M2435 2052 c4 -8 11 -26 15 -40 7 -22 8 -23 9 -6 1 11 -6 29 -15 40
-8 10 -12 13 -9 6z"/>
<path d="M3836 2041 c-3 -5 1 -14 10 -21 12 -11 12 -15 2 -22 -9 -6 -7 -8 7
-6 14 2 19 -2 17 -14 -2 -16 33 -36 45 -25 9 10 -18 47 -33 47 -10 0 -14 6
-11 14 9 23 -25 47 -37 27z m29 -11 c3 -5 2 -10 -4 -10 -5 0 -13 5 -16 10 -3
6 -2 10 4 10 5 0 13 -4 16 -10z"/>
<path d="M3251 2021 c-7 -12 -10 -25 -7 -28 3 -3 10 5 15 18 9 24 12 21 23
-20 3 -10 7 -9 18 5 8 11 11 16 6 12 -5 -4 -16 3 -26 14 l-17 22 -12 -23z"/>
<path d="M1507 2013 c5 -12 2 -15 -10 -10 -9 3 -19 1 -23 -5 -4 -7 -3 -8 4 -4
14 8 15 -3 3 -23 -5 -7 -14 -11 -19 -7 -6 4 -16 -3 -22 -15 -8 -15 -9 -19 -1
-15 14 9 14 -9 1 -34 -7 -13 -7 -21 0 -25 6 -4 9 -1 8 7 -2 8 4 12 14 10 12
-2 17 3 16 15 -3 36 2 54 13 47 7 -4 10 -1 7 7 -2 7 4 22 14 33 22 24 23 36 3
36 -9 0 -12 -6 -8 -17z m-43 -69 c3 -8 2 -12 -4 -9 -6 3 -10 10 -10 16 0 14 7
11 14 -7z"/>
<path d="M1533 2010 c-17 -26 -1 -34 20 -9 20 23 21 29 4 29 -7 0 -18 -9 -24
-20z"/>
<path d="M2421 2014 c0 -11 3 -14 6 -6 3 7 2 16 -1 19 -3 4 -6 -2 -5 -13z"/>
<path d="M2410 1986 c0 -2 -6 -41 -14 -87 -21 -118 -27 -187 -16 -169 5 8 12
48 16 90 5 53 9 69 15 55 5 -12 6 2 2 33 -4 35 -2 52 6 52 6 0 11 7 11 15 0 8
-4 15 -10 15 -5 0 -10 -2 -10 -4z"/>
<path d="M2034 1965 c-5 -11 -11 -12 -24 -5 -22 12 -33 0 -19 -20 8 -13 9 -13
9 0 0 11 3 11 12 2 18 -18 25 -15 30 13 6 28 1 33 -8 10z"/>
<path d="M3294 1968 c-4 -6 -3 -8 4 -4 6 3 13 2 17 -4 4 -6 11 -8 16 -4 6 3
17 -2 25 -12 14 -18 14 -17 4 4 -7 14 -17 21 -26 18 -8 -3 -14 -1 -14 4 0 14
-17 12 -26 -2z"/>
<path d="M1951 1913 c-9 -23 -9 -25 1 -12 7 9 20 14 28 12 9 -3 11 -1 5 4 -5
4 -13 12 -16 16 -3 4 -11 -5 -18 -20z"/>
<path d="M2432 1917 c-6 -7 -7 -19 -3 -26 6 -9 10 -6 14 10 8 28 3 34 -11 16z"/>
<path d="M3320 1916 c0 -2 7 -9 15 -16 13 -11 14 -10 9 4 -5 14 -24 23 -24 12z"/>
<path d="M3364 1901 c10 -11 15 -24 12 -29 -3 -5 1 -9 8 -9 8 0 12 7 9 16 -3
9 6 3 19 -13 19 -22 27 -26 33 -16 5 9 4 11 -3 6 -7 -4 -12 -2 -12 3 0 17 -42
55 -64 58 -19 3 -19 3 -2 -16z"/>
<path d="M2000 1889 c0 -5 5 -7 10 -4 6 3 10 8 10 11 0 2 -4 4 -10 4 -5 0 -10
-5 -10 -11z"/>
<path d="M1919 1873 c-1 -5 -1 -11 0 -15 0 -5 -3 -8 -9 -8 -17 0 -32 -39 -22
-57 9 -14 10 -14 16 5 7 21 26 31 26 14 0 -4 9 -13 19 -19 16 -10 20 -9 26 5
3 9 3 13 -1 9 -13 -13 -34 15 -34 44 0 25 -18 43 -21 22z"/>
<path d="M1987 1863 c-4 -3 -7 -11 -7 -17 0 -6 5 -5 12 2 6 6 9 14 7 17 -3 3
-9 2 -12 -2z"/>
<path d="M2793 1815 c0 -33 2 -45 4 -27 2 18 2 45 0 60 -2 15 -4 0 -4 -33z"/>
<path d="M2772 1785 c-1 -45 4 -79 13 -95 14 -24 14 -24 14 20 1 32 -2 41 -9
30 -6 -10 -10 5 -13 50 l-3 65 -2 -70z"/>
<path d="M3370 1845 c1 -20 57 -78 64 -67 4 7 2 12 -3 12 -6 0 -11 7 -11 16 0
8 -4 13 -9 9 -5 -3 -17 5 -25 17 -9 12 -16 18 -16 13z"/>
<path d="M1955 1830 c3 -5 8 -10 11 -10 2 0 4 5 4 10 0 6 -5 10 -11 10 -5 0
-7 -4 -4 -10z"/>
<path d="M3473 1815 c4 -4 0 -16 -9 -26 -12 -14 -13 -22 -4 -38 6 -12 9 -25 6
-30 -3 -5 2 -15 11 -22 15 -12 16 -12 10 5 -6 14 -4 17 10 11 12 -4 8 4 -10
23 l-29 30 21 14 c20 14 21 16 4 29 -10 7 -15 9 -10 4z"/>
<path d="M1866 1781 c-3 -5 1 -11 9 -14 9 -4 12 -1 8 9 -6 16 -10 17 -17 5z"/>
<path d="M1930 1780 c0 -5 5 -10 10 -10 6 0 10 5 10 10 0 6 -4 10 -10 10 -5 0
-10 -4 -10 -10z"/>
<path d="M3487 1772 c-14 -3 -16 -7 -6 -18 6 -7 15 -11 20 -8 14 9 36 -19 31
-39 -3 -11 0 -22 5 -26 14 -9 43 -71 33 -71 -19 0 -17 -30 3 -46 12 -10 16
-12 10 -4 -16 17 -17 34 -3 25 6 -4 18 -1 27 7 15 12 15 11 4 -10 -13 -25 -7
-42 14 -42 7 0 16 -6 18 -12 4 -9 6 -7 6 3 2 26 -29 78 -43 73 -7 -3 -18 7
-24 21 -16 35 -15 43 2 19 8 -10 17 -16 21 -13 3 4 0 13 -8 21 -8 8 -22 27
-31 43 -26 49 -60 82 -79 77z m82 -107 c0 -5 -6 1 -14 15 -8 14 -14 30 -14 35
0 6 6 -1 14 -15 8 -14 14 -29 14 -35z"/>
<path d="M1842 1734 c-7 -14 -8 -23 -3 -20 5 3 18 -12 29 -35 20 -39 21 -40
32 -19 6 12 9 33 6 46 -6 23 9 35 16 13 2 -6 9 0 15 14 11 23 10 25 -5 20 -9
-3 -23 -11 -30 -16 -8 -7 -18 -5 -31 7 -17 15 -18 15 -29 -10z m47 -30 c14
-31 14 -34 1 -34 -5 0 -10 5 -10 11 0 6 -7 17 -15 25 -19 19 -20 35 -1 28 7
-3 18 -16 25 -30z"/>
<path d="M2410 1718 c0 -37 -1 -40 -13 -23 -12 16 -14 12 -12 -31 1 -27 5 -57
10 -68 5 -10 4 -26 -2 -35 -10 -17 -5 -114 6 -107 3 2 6 -36 6 -86 0 -49 2
-91 5 -93 17 -11 32 19 36 71 5 56 4 58 -9 29 -12 -27 -14 -28 -20 -10 -8 27
-1 355 8 378 4 10 3 17 -4 17 -6 0 -11 -18 -11 -42z"/>
<path d="M1817 1683 c-4 -3 -7 -11 -7 -17 0 -6 5 -5 12 2 6 6 9 14 7 17 -3 3
-9 2 -12 -2z"/>
<path d="M1853 1631 c-6 -10 -8 -24 -3 -31 6 -10 10 -7 16 13 8 34 2 42 -13
18z"/>
<path d="M2770 1629 c0 -5 5 -7 10 -4 6 3 10 8 10 11 0 2 -4 4 -10 4 -5 0 -10
-5 -10 -11z"/>
<path d="M3526 1625 c4 -8 11 -15 16 -15 6 0 5 6 -2 15 -7 8 -14 15 -16 15 -2
0 -1 -7 2 -15z"/>
<path d="M1795 1610 c-7 -12 2 -30 16 -30 6 0 8 4 5 9 -4 5 -1 11 6 13 8 3 6
7 -5 11 -9 3 -19 2 -22 -3z"/>
<path d="M2354 1454 c3 -9 6 -23 6 -32 1 -16 1 -16 10 0 11 18 3 48 -12 48 -6
0 -7 -7 -4 -16z"/>
<path d="M2421 1394 c0 -11 3 -14 6 -6 3 7 2 16 -1 19 -3 4 -6 -2 -5 -13z"/>
<path d="M2362 1355 c0 -16 2 -22 5 -12 2 9 2 23 0 30 -3 6 -5 -1 -5 -18z"/>
<path d="M2385 1309 c-7 -10 -8 -48 -3 -92 1 -10 7 -16 15 -13 7 3 13 1 13 -4
0 -6 -6 -10 -12 -10 -7 0 -5 -5 5 -11 10 -6 21 -8 24 -5 4 3 1 6 -6 6 -7 0 -9
5 -6 11 11 16 -4 61 -17 53 -8 -5 -9 5 -5 34 5 43 3 50 -8 31z"/>
<path d="M2430 1223 c0 -4 5 -15 10 -23 8 -13 10 -13 10 2 0 9 -4 20 -10 23
-5 3 -10 3 -10 -2z"/>
</g>
</svg>
