<?xml version="1.0" standalone="no"?>
<!DOCTYPE svg PUBLIC "-//W3C//DTD SVG 20010904//EN"
 "http://www.w3.org/TR/2001/REC-SVG-20010904/DTD/svg10.dtd">
<svg version="1.0" xmlns="http://www.w3.org/2000/svg"
 width="512.000000pt" height="512.000000pt" viewBox="0 0 512.000000 512.000000"
 preserveAspectRatio="xMidYMid meet">
<metadata>
Created by potrace 1.14, written by Peter Selinger 2001-2017
</metadata>
<g transform="translate(0.000000,512.000000) scale(0.100000,-0.100000)"
fill="#000000" stroke="none">
<path d="M990 4349 c-232 -21 -404 -165 -460 -383 -20 -78 -20 -107 -20 -1405
1 -1058 3 -1338 14 -1386 37 -170 143 -296 309 -369 l72 -31 1630 -2 c1805 -3
1686 -7 1810 62 132 73 226 205 253 354 6 34 9 556 8 1400 l-1 1346 -23 65
c-63 176 -199 298 -379 340 -39 9 -432 12 -1600 13 -851 1 -1577 -1 -1613 -4z
m654 -790 c29 -13 175 -153 463 -442 403 -404 422 -424 437 -476 20 -69 20
-105 0 -167 -15 -44 -61 -93 -437 -471 -456 -457 -461 -462 -570 -464 -135 -3
-242 98 -254 241 -9 107 5 126 351 473 l308 307 -307 308 c-346 346 -356 359
-351 471 5 120 76 206 194 236 57 15 113 9 166 -16z m2031 -1529 c25 -11 55
-28 67 -40 12 -11 25 -20 28 -20 4 0 19 -23 35 -51 71 -131 21 -290 -111 -355
l-56 -27 -438 0 -439 0 -53 26 c-94 46 -140 115 -144 218 -6 122 67 223 186
260 14 4 217 8 453 8 400 0 430 -1 472 -19z"/>
</g>
</svg>
