<?xml version="1.0" standalone="no"?>
<!DOCTYPE svg PUBLIC "-//W3C//DTD SVG 20010904//EN"
 "http://www.w3.org/TR/2001/REC-SVG-20010904/DTD/svg10.dtd">
<svg version="1.0" xmlns="http://www.w3.org/2000/svg"
 width="400.000000pt" height="400.000000pt" viewBox="0 0 400.000000 400.000000"
 preserveAspectRatio="xMidYMid meet">
<metadata>
Created by potrace 1.14, written by Peter Selinger 2001-2017
</metadata>
<g transform="translate(0.000000,400.000000) scale(0.100000,-0.100000)"
fill="#000000" stroke="none">
<path d="M2490 3560 c0 -3 -19 -5 -42 -4 -38 2 -178 -31 -178 -42 0 -2 5 -13
12 -24 15 -24 8 -32 -31 -34 -17 0 -31 -4 -31 -8 0 -5 -3 -7 -7 -6 -34 8 -136
-38 -183 -83 l-34 -33 42 -9 42 -8 -25 -25 c-13 -13 -27 -24 -31 -24 -3 0 -23
-18 -43 -40 -36 -40 -36 -40 -131 -47 -52 -4 -116 -7 -142 -7 -27 -1 -48 -3
-48 -6 0 -3 -44 -5 -98 -5 -53 0 -101 -2 -107 -5 -5 -3 -32 -6 -60 -7 -27 -1
-84 -4 -125 -8 -41 -3 -110 -7 -152 -8 -43 -1 -78 -4 -78 -7 0 -3 -35 -6 -78
-6 -42 -1 -122 -5 -177 -8 -55 -4 -131 -9 -170 -11 -38 -2 -70 -5 -70 -6 0 -1
-27 -3 -60 -5 -398 -20 -390 -18 -379 -109 3 -27 7 -68 9 -90 2 -22 10 -87 18
-144 9 -57 13 -110 10 -117 -3 -8 -1 -14 5 -14 5 0 8 -18 7 -40 -1 -22 1 -40
4 -40 3 0 6 -15 7 -32 0 -18 3 -55 7 -83 4 -27 9 -72 12 -100 3 -27 11 -81 16
-120 6 -38 12 -81 14 -95 2 -14 6 -45 9 -70 3 -25 8 -65 12 -90 3 -25 7 -61
10 -80 2 -19 6 -48 8 -65 11 -92 19 -164 21 -190 1 -16 6 -42 10 -57 4 -15 9
-47 11 -70 14 -171 13 -168 34 -218 17 -41 5 -28 145 -171 61 -62 113 -112
118 -111 4 1 7 -3 7 -9 0 -9 94 -109 276 -293 34 -34 80 -77 102 -95 38 -29
45 -31 94 -26 87 9 140 12 493 32 150 8 172 10 181 15 22 11 174 1 229 -15 33
-10 71 -21 85 -24 46 -10 335 -11 348 0 6 5 12 7 12 4 0 -4 19 1 43 9 23 9 49
17 57 19 8 2 23 6 33 10 14 6 17 1 18 -36 1 -24 1 -48 0 -52 -8 -44 -1 -111
12 -124 17 -17 164 -25 185 -10 7 6 12 6 12 0 0 -7 107 -10 130 -3 3 1 41 1
85 0 44 -1 87 -1 95 -1 29 1 66 1 133 -2 38 -1 71 1 73 5 2 4 14 5 27 2 36 -8
98 -11 102 -5 2 5 158 5 185 1 3 -1 56 -1 119 -1 82 -1 117 3 127 13 8 8 15
54 19 128 9 182 14 484 7 495 -4 6 -7 16 -8 24 -7 40 -103 93 -160 86 -15 -1
-24 3 -24 11 0 20 -1 26 -11 52 -5 12 -11 33 -13 45 -3 12 -14 54 -26 92 -11
39 -23 83 -25 98 -3 16 -12 39 -21 52 -8 12 -14 27 -12 31 3 12 -86 187 -107
211 -9 10 -28 32 -43 49 -50 56 -153 114 -230 129 -37 8 -72 40 -72 66 0 10
-10 34 -21 54 l-21 36 36 -3 c20 -1 41 3 48 10 9 9 9 12 0 12 -19 0 -14 13 29
70 23 30 46 67 51 83 6 15 14 27 19 27 5 0 9 5 9 11 0 6 6 25 13 42 21 47 37
101 43 139 3 18 7 44 10 58 3 14 7 39 9 55 2 17 5 32 6 35 1 3 1 8 0 12 0 4
-3 56 -7 115 -8 150 -8 153 -17 153 -4 0 -7 6 -6 13 3 14 -10 77 -19 92 -4 6
-7 15 -7 20 -1 6 -6 21 -12 35 -24 55 -42 101 -44 108 -1 4 -14 26 -30 49 -16
23 -29 44 -29 47 0 7 -34 48 -67 83 -13 13 -23 26 -23 29 0 16 -110 104 -129
104 -8 0 -22 7 -32 16 -16 15 -142 63 -184 70 -11 1 -36 6 -55 9 -78 14 -210
23 -210 15z"/>
</g>
</svg>
