<?xml version="1.0" standalone="no"?>
<!DOCTYPE svg PUBLIC "-//W3C//DTD SVG 20010904//EN"
 "http://www.w3.org/TR/2001/REC-SVG-20010904/DTD/svg10.dtd">
<svg version="1.0" xmlns="http://www.w3.org/2000/svg"
 width="270.000000pt" height="270.000000pt" viewBox="0 0 270.000000 270.000000"
 preserveAspectRatio="xMidYMid meet">

<g transform="translate(0.000000,270.000000) scale(0.100000,-0.100000)"
fill="#000000" stroke="none">
<path d="M982 1963 l3 -68 90 0 90 0 -2 -75 c-2 -66 -30 -189 -58 -252 -6 -16
1 -18 78 -18 l85 0 15 38 c28 70 40 157 41 297 l1 140 -173 3 -173 2 3 -67z"/>
<path d="M1370 1966 l0 -65 93 -3 92 -3 -2 -84 c-1 -79 -25 -204 -45 -244 -8
-17 -3 -18 79 -15 l88 3 13 50 c20 82 33 224 30 325 l-3 95 -172 3 -173 2 0
-64z"/>
<path d="M950 1435 l0 -65 75 0 74 0 3 -127 3 -128 75 0 75 0 3 128 3 127 89
0 89 0 3 -127 3 -128 75 0 75 0 3 128 3 127 74 0 75 0 0 65 0 65 -400 0 -400
0 0 -65z"/>
<path d="M1360 1274 c0 -8 5 -12 10 -9 6 4 8 11 5 16 -9 14 -15 11 -15 -7z"/>
</g>
</svg>
