<?xml version="1.0" standalone="no"?>
<!DOCTYPE svg PUBLIC "-//W3C//DTD SVG 20010904//EN"
 "http://www.w3.org/TR/2001/REC-SVG-20010904/DTD/svg10.dtd">
<svg version="1.0" xmlns="http://www.w3.org/2000/svg"
 width="1999.000000pt" height="1999.000000pt" viewBox="0 0 1999.000000 1999.000000"
 preserveAspectRatio="xMidYMid meet">
<metadata>
Created by potrace 1.14, written by Peter Selinger 2001-2017
</metadata>
<g transform="translate(0.000000,1999.000000) scale(0.100000,-0.100000)"
fill="#000000" stroke="none">
<path d="M9265 19938 c-186 -217 -432 -739 -597 -1268 -39 -124 -76 -252 -82
-285 l-11 -60 -50 84 c-83 139 -228 323 -332 421 -148 139 -356 272 -663 424
-140 69 -266 128 -280 131 -24 6 -27 2 -57 -92 -66 -200 -79 -263 -128 -595
-28 -192 -34 -421 -15 -633 28 -317 169 -771 337 -1083 46 -85 83 -156 83
-158 0 -2 -37 28 -82 67 -262 227 -520 408 -728 512 -259 130 -445 184 -830
243 -253 38 -735 52 -982 28 l-58 -6 0 -45 c0 -105 47 -343 102 -513 64 -201
163 -419 279 -615 244 -413 445 -693 621 -861 223 -214 618 -435 895 -500 40
-10 72 -19 70 -20 -1 -1 -69 -14 -152 -29 -163 -29 -226 -47 -474 -137 -193
-70 -547 -243 -676 -331 -109 -74 -331 -245 -363 -280 l-23 -24 68 -63 c116
-106 211 -170 362 -242 254 -121 507 -210 719 -254 l132 -27 -98 -56 c-151
-86 -343 -235 -479 -373 -261 -264 -589 -793 -791 -1275 l-30 -71 37 -15 c147
-59 637 -69 1111 -23 241 24 614 76 658 93 8 4 -3 -20 -25 -53 -60 -89 -157
-267 -204 -374 -30 -68 -53 -150 -84 -290 -40 -184 -43 -210 -55 -465 -8 -157
-10 -315 -6 -377 l8 -108 27 0 c125 0 450 73 691 155 232 80 537 238 765 398
161 113 441 403 628 651 83 110 179 248 215 308 36 60 66 107 68 105 2 -1 -6
-32 -17 -67 -101 -322 -167 -639 -182 -885 -11 -159 -10 -215 9 -485 21 -299
23 -309 72 -510 65 -265 158 -530 187 -530 6 0 56 28 110 62 123 77 355 298
452 433 75 103 86 117 79 95 -3 -8 -57 -224 -120 -480 -151 -614 -259 -933
-456 -1350 -202 -429 -322 -753 -448 -1210 -211 -762 -261 -1034 -262 -1430
-1 -215 24 -580 50 -735 5 -33 10 -62 9 -65 0 -3 -20 33 -44 80 -25 48 -95
150 -162 235 l-118 150 -164 112 c-146 101 -181 119 -318 173 -115 45 -198 70
-326 97 l-172 36 -500 2 c-538 2 -525 1 -758 61 -236 61 -611 230 -932 422
-475 283 -751 475 -1004 699 -73 66 -75 54 -7 -60 206 -346 435 -645 678 -884
327 -322 818 -607 1223 -712 175 -45 290 -55 534 -45 124 4 298 8 386 7 144
-1 175 -5 315 -37 246 -56 390 -121 666 -301 329 -216 591 -487 787 -817 l86
-143 46 -185 c209 -839 470 -1629 803 -2430 254 -610 438 -987 562 -1146 45
-58 106 -114 123 -114 2 0 14 23 27 51 l24 50 -23 142 c-27 164 -88 383 -343
1232 -329 1096 -409 1386 -513 1865 -52 239 -108 518 -126 620 -30 178 -31
189 -19 290 34 292 152 775 262 1075 226 616 550 981 947 1065 91 20 120 22
233 15 118 -6 142 -11 274 -55 316 -106 717 -362 965 -617 139 -142 332 -400
534 -713 178 -276 218 -334 290 -426 436 -560 1038 -814 1930 -814 389 0 693
66 1025 222 328 154 630 451 799 785 22 44 29 84 8 46 -28 -51 -144 -167 -211
-212 -101 -68 -254 -143 -367 -179 -53 -17 -185 -50 -295 -73 l-199 -41 -370
-5 c-333 -5 -388 -3 -550 16 -292 35 -513 77 -682 132 -335 109 -564 257 -851
551 -82 85 -422 538 -565 753 -48 72 -143 190 -238 296 -164 184 -287 291
-478 419 -295 197 -805 351 -1121 338 l-115 -5 105 25 c97 23 124 25 370 25
291 0 297 0 590 -73 371 -93 670 -218 1090 -457 267 -152 784 -520 940 -668
36 -34 94 -84 130 -112 69 -54 358 -344 498 -501 45 -50 82 -89 82 -85 0 3
-28 76 -62 162 -146 368 -351 711 -603 1010 -114 135 -165 186 -309 305 -202
170 -511 373 -679 448 -420 186 -742 257 -1102 243 -404 -16 -733 -109 -1095
-310 -14 -7 -90 -35 -169 -61 -281 -92 -476 -245 -624 -490 -148 -245 -237
-480 -306 -804 -80 -384 -95 -514 -108 -955 l-7 -240 -23 130 c-38 220 -73
775 -73 1160 0 300 3 356 31 610 62 568 207 1104 473 1741 253 607 413 1252
447 1801 12 187 5 463 -16 623 -2 19 4 -5 15 -55 11 -49 45 -166 77 -259 69
-207 166 -384 318 -582 239 -310 422 -491 738 -728 77 -58 78 -59 98 -40 63
57 198 394 278 694 61 229 183 855 193 994 l3 38 43 -53 c64 -80 269 -285 332
-333 203 -156 348 -229 700 -352 132 -47 368 -114 398 -114 12 0 28 88 48 255
21 185 19 597 -5 776 -33 247 -82 446 -151 619 -64 161 -240 498 -318 609 -25
35 -39 60 -31 56 8 -5 32 -20 54 -35 75 -50 200 -109 350 -166 217 -82 363
-114 692 -153 140 -17 228 -21 475 -20 167 0 355 6 418 12 l115 12 3 32 c2 17
-17 93 -44 174 -71 220 -206 478 -407 778 -105 159 -347 500 -404 569 l-27 33
65 -8 c35 -4 163 -7 285 -7 189 1 236 5 325 24 138 30 369 109 499 171 105 50
428 225 465 252 19 14 17 19 -47 148 -37 74 -107 195 -156 269 -73 112 -118
166 -263 314 -157 162 -188 189 -324 279 -361 242 -752 373 -1260 422 -216 21
-566 17 -850 -9 l-60 -6 80 19 c133 33 431 135 585 200 353 152 584 304 838
554 159 156 319 373 389 525 34 75 83 235 83 271 0 45 -206 120 -410 148 -163
23 -602 22 -803 -2 -82 -9 -150 -15 -152 -13 -2 2 28 38 66 81 116 130 244
332 320 504 85 192 188 504 228 693 41 189 101 645 101 762 l0 91 -82 -6 c-79
-5 -117 -14 -383 -85 -163 -44 -444 -156 -660 -265 -55 -27 -136 -66 -180 -86
-110 -50 -290 -147 -349 -190 -39 -28 -47 -31 -43 -15 27 90 68 326 78 446 12
138 11 159 -10 320 -27 211 -95 469 -186 708 -34 91 -66 175 -69 188 -9 28
-15 28 -79 -4 -498 -253 -919 -625 -1187 -1049 -97 -152 -245 -458 -301 -620
l-27 -80 -1 51 c-1 28 -16 133 -35 235 -29 158 -42 205 -95 337 -154 385 -405
805 -639 1072 -183 208 -204 230 -212 230 -5 0 -25 -19 -45 -42z m2447 -705
c24 -51 44 -120 59 -198 21 -109 23 -148 23 -420 0 -275 -2 -318 -29 -510
l-28 -210 -148 -150 c-125 -127 -167 -178 -275 -335 -198 -291 -344 -605 -444
-960 -45 -162 -83 -326 -78 -341 2 -6 26 18 53 53 344 444 726 897 954 1131
182 187 443 398 736 594 145 97 442 240 620 298 39 12 78 26 88 30 20 9 22
-12 7 -77 -6 -24 -20 -83 -31 -133 -12 -49 -50 -180 -86 -290 -90 -277 -237
-570 -380 -760 -303 -402 -595 -726 -1246 -1382 l-240 -241 -51 61 c-90 108
-267 246 -417 325 -195 103 -372 155 -579 172 -85 7 -156 14 -157 15 -2 1 6
33 17 71 38 131 100 422 125 585 14 90 30 180 36 199 60 201 324 974 452 1325
134 365 285 595 583 884 93 90 201 189 239 220 39 31 88 70 110 88 22 18 43
32 46 32 3 1 22 -34 41 -76z m-2086 -473 c65 -133 116 -255 159 -385 64 -190
64 -190 109 -520 42 -310 46 -359 66 -820 14 -330 20 -596 18 -815 l-3 -325
-115 -12 c-159 -16 -344 -76 -515 -167 -259 -138 -483 -363 -620 -621 -93
-175 -160 -376 -170 -511 -9 -117 -17 -144 -45 -144 -78 0 -610 -121 -903
-205 -157 -45 -371 -116 -467 -155 -54 -22 -61 -22 -324 -16 -277 6 -403 21
-751 87 -60 11 -148 27 -195 36 -47 8 -89 18 -94 23 -22 21 266 259 419 346
124 70 465 193 690 249 61 15 137 34 170 42 33 8 105 26 160 40 140 35 381 89
435 98 25 4 88 17 140 30 52 13 146 34 208 46 77 16 108 25 95 30 -29 11 -249
38 -366 46 l-101 6 -88 56 c-49 31 -149 94 -223 141 -376 238 -653 427 -801
550 -50 41 -137 112 -195 157 -116 92 -352 335 -475 488 -184 230 -291 393
-370 565 -34 74 -61 136 -60 136 0 1 28 -2 61 -6 33 -5 107 -14 165 -20 149
-16 440 -75 576 -116 139 -42 316 -109 404 -154 265 -133 902 -561 1310 -880
67 -52 159 -124 205 -160 47 -36 153 -130 237 -210 138 -132 149 -140 123 -95
l-29 50 32 -25 c17 -14 54 -45 81 -68 79 -68 67 -40 -48 109 -36 46 -99 127
-142 179 -65 81 -103 146 -249 430 -314 608 -519 1043 -623 1320 -28 76 -41
138 -66 311 -36 253 -39 406 -16 724 8 110 15 214 15 232 l0 32 38 -13 c146
-52 328 -179 505 -354 129 -127 381 -415 460 -526 l57 -79 0 -201 c0 -188 3
-216 40 -431 33 -194 48 -257 98 -405 90 -264 189 -472 370 -777 59 -101 82
-128 82 -97 0 11 -5 51 -11 89 -33 234 -73 649 -92 965 -20 336 -21 392 -11
695 12 342 15 371 80 700 27 137 72 297 122 430 31 84 115 261 146 308 l19 28
89 -133 c56 -83 125 -206 184 -328z m4095 -2368 c-29 -101 -145 -270 -287
-420 -226 -238 -430 -391 -899 -674 -104 -63 -230 -141 -279 -172 -49 -32
-171 -105 -270 -163 -157 -92 -192 -108 -266 -124 -47 -11 -98 -24 -114 -31
-28 -11 -25 -13 60 -29 49 -10 110 -18 136 -18 26 -1 80 -8 120 -16 40 -9 120
-22 178 -29 168 -22 574 -85 715 -111 72 -14 197 -36 279 -50 81 -13 225 -42
320 -64 94 -22 187 -42 206 -46 19 -3 91 -25 160 -47 307 -99 704 -352 1003
-638 91 -87 97 -95 80 -108 -33 -25 -187 -99 -260 -125 -170 -61 -538 -110
-913 -122 l-215 -6 -80 67 c-175 146 -458 307 -721 410 -217 85 -663 183 -933
205 l-153 13 6 60 c16 156 18 246 6 378 -10 121 -19 165 -57 283 -45 141 -157
372 -210 435 -14 17 -23 36 -20 43 2 7 29 25 58 41 111 59 491 308 709 466
192 139 265 196 356 276 53 48 87 69 140 88 240 85 684 186 1023 231 57 8 106
17 109 20 14 13 20 2 13 -23z m-5183 -2004 c0 -24 5 -101 11 -173 10 -104 21
-160 59 -285 92 -304 252 -543 499 -745 67 -55 122 -104 123 -109 0 -4 -48
-72 -106 -150 -59 -77 -229 -303 -377 -501 -423 -562 -675 -872 -848 -1041
-146 -141 -391 -300 -673 -434 -124 -59 -472 -187 -483 -177 -32 32 2 304 64
512 66 222 123 363 287 711 l58 122 71 27 c100 39 293 136 379 191 206 132
448 350 553 499 28 38 74 101 103 140 51 68 149 251 140 260 -3 3 -72 -31
-154 -76 -354 -192 -827 -418 -1103 -528 -360 -142 -518 -191 -819 -253 -241
-49 -252 -50 -465 -55 -134 -3 -222 -2 -228 4 -17 17 185 317 352 523 83 103
300 322 389 392 153 122 551 365 865 528 88 46 207 110 265 143 57 33 172 94
255 135 135 68 777 381 782 382 1 0 2 -19 1 -42z m3267 -436 c66 -39 154 -92
195 -118 41 -26 118 -72 170 -102 52 -31 219 -136 370 -235 478 -312 679 -480
997 -830 232 -255 386 -481 464 -679 l20 -51 -123 6 c-122 5 -254 25 -483 73
-443 92 -638 174 -1041 435 -375 243 -606 400 -804 543 -118 85 -258 185 -312
222 l-96 66 97 118 c130 155 221 326 283 526 l43 141 50 -22 c28 -12 104 -54
170 -93z m-470 -1052 c114 -123 233 -265 322 -385 188 -254 718 -1056 784
-1186 28 -57 81 -189 116 -294 57 -169 68 -215 99 -415 26 -167 37 -272 41
-407 l6 -183 -23 0 c-12 0 -67 14 -121 30 -222 69 -545 301 -932 672 l-97 93
-34 215 c-31 199 -39 231 -106 419 -118 336 -293 659 -511 942 -83 108 -226
264 -215 235 3 -11 27 -101 52 -200 25 -100 67 -262 94 -361 63 -230 173 -745
210 -988 38 -246 46 -426 31 -733 -16 -325 -61 -622 -121 -799 -22 -66 -44
-126 -49 -134 -12 -18 -107 84 -232 248 -138 181 -253 367 -368 598 -41 83
-119 303 -175 494 -107 371 -329 1315 -386 1644 l-6 40 -7 -45 c-32 -233 -49
-743 -31 -980 5 -71 3 -98 -15 -160 -78 -268 -161 -469 -340 -829 -71 -141
-136 -274 -145 -295 -10 -25 -20 -36 -26 -30 -26 26 -97 194 -130 309 -59 203
-82 391 -80 667 1 252 34 764 74 1131 l25 228 85 212 c47 117 99 255 117 307
17 52 32 96 34 98 1 2 47 -21 101 -50 62 -33 155 -70 246 -99 129 -40 167 -48
302 -59 326 -28 596 25 873 171 73 39 163 95 200 126 l68 55 45 -53 c25 -29
126 -141 225 -249z m-1538 -2492 c-3 -8 -6 -5 -6 6 -1 11 2 17 5 13 3 -3 4
-12 1 -19z"/>
<path d="M12525 7440 c-168 -25 -474 -87 -575 -117 -86 -25 -402 -145 -396
-150 1 -2 43 6 92 17 116 26 356 35 544 22 117 -9 184 -21 345 -61 334 -83
566 -169 850 -315 403 -207 726 -453 1123 -855 340 -345 598 -675 854 -1094
l23 -39 3 51 c5 75 -63 469 -118 691 -67 268 -163 502 -319 775 -110 192 -124
213 -262 368 -144 160 -151 166 -344 302 -162 113 -221 148 -324 192 -281 122
-478 175 -785 213 -207 26 -535 26 -711 0z"/>
<path d="M4000 5845 c0 -9 13 -41 29 -73 16 -31 39 -91 51 -132 12 -41 42
-130 66 -198 50 -140 157 -524 215 -772 38 -166 107 -529 129 -685 48 -338
160 -725 282 -970 77 -154 239 -385 335 -476 249 -237 424 -350 706 -455 170
-64 375 -117 557 -145 140 -22 187 -24 480 -24 314 0 330 1 470 28 305 59 607
152 819 253 140 66 449 250 511 304 l45 39 -90 -24 c-90 -24 -187 -40 -410
-69 -198 -26 -674 -22 -1015 9 -714 64 -1204 200 -1545 428 -158 105 -336 271
-434 402 -177 239 -266 418 -369 750 -53 169 -87 321 -126 575 -91 576 -251
909 -555 1152 -91 73 -151 106 -151 83z"/>
<path d="M5576 4659 c3 -5 12 -9 20 -9 8 0 36 -11 62 -25 26 -14 52 -25 58
-25 5 0 36 -15 67 -34 31 -19 74 -40 94 -46 21 -7 72 -30 113 -51 41 -21 98
-47 127 -58 28 -11 102 -46 165 -77 114 -58 379 -176 738 -329 298 -126 440
-201 581 -306 283 -210 480 -428 721 -798 37 -58 68 -102 68 -99 0 4 -21 66
-46 140 -158 455 -398 883 -610 1089 -147 141 -237 191 -494 272 -113 36 -221
68 -240 72 -19 4 -123 28 -230 55 -107 27 -314 72 -460 100 -146 28 -314 61
-375 75 -60 13 -150 29 -200 35 -49 6 -107 15 -127 19 -22 5 -36 5 -32 0z"/>
</g>
</svg>
