<?xml version="1.0" standalone="no"?>
<!DOCTYPE svg PUBLIC "-//W3C//DTD SVG 20010904//EN"
 "http://www.w3.org/TR/2001/REC-SVG-20010904/DTD/svg10.dtd">
<svg version="1.0" xmlns="http://www.w3.org/2000/svg"
 width="627.000000pt" height="627.000000pt" viewBox="0 0 627.000000 627.000000"
 preserveAspectRatio="xMidYMid meet">
<metadata>
Created by potrace 1.14, written by Peter Selinger 2001-2017
</metadata>
<g transform="translate(0.000000,627.000000) scale(0.100000,-0.100000)"
fill="#000000" stroke="none">
<path d="M2871 6259 c-593 -56 -1136 -262 -1606 -609 -62 -46 -64 -47 -105
-81 -99 -82 -137 -117 -235 -214 -97 -96 -211 -225 -295 -336 -41 -53 -140
-198 -140 -204 0 -4 -11 -21 -24 -38 -45 -60 -177 -312 -169 -321 4 -3 1 -6
-5 -6 -7 0 -11 -3 -10 -7 2 -5 -7 -28 -18 -53 -19 -39 -33 -72 -39 -90 -1 -3
-7 -18 -14 -35 -7 -16 -14 -34 -15 -40 -1 -5 -4 -14 -8 -20 -6 -11 -62 -189
-60 -192 1 -2 -5 -21 -13 -44 -9 -23 -17 -52 -20 -65 -7 -36 -14 -66 -21 -94
-3 -14 -7 -35 -9 -47 -2 -11 -6 -29 -9 -40 -3 -10 -8 -40 -12 -68 -3 -27 -8
-52 -9 -55 -2 -3 -6 -37 -10 -75 -4 -39 -9 -79 -12 -90 -2 -11 -6 -121 -8
-245 -3 -239 9 -404 44 -595 11 -60 23 -122 25 -136 11 -62 74 -283 93 -329 3
-8 7 -17 8 -20 15 -61 91 -242 156 -373 46 -93 155 -286 168 -297 3 -3 12 -17
20 -32 8 -16 18 -28 23 -28 4 0 8 -6 8 -12 0 -7 10 -25 23 -40 12 -14 29 -36
37 -48 95 -140 342 -408 480 -520 23 -19 50 -43 59 -52 8 -10 19 -18 23 -18 5
0 16 -8 26 -17 43 -40 129 -103 141 -103 6 0 11 -4 11 -8 0 -5 16 -17 35 -28
19 -10 35 -22 35 -26 0 -5 5 -8 11 -8 6 0 30 -14 54 -30 24 -17 48 -30 54 -30
6 0 11 -5 11 -11 0 -5 5 -7 10 -4 6 3 10 2 10 -4 0 -5 10 -13 23 -17 12 -3 30
-13 40 -22 9 -8 17 -11 17 -6 0 5 4 4 8 -2 5 -9 150 -84 172 -90 14 -3 88 -36
112 -50 15 -8 31 -15 35 -16 11 -1 28 -7 96 -34 31 -12 57 -21 57 -19 0 3 12
0 28 -6 38 -16 221 -68 257 -75 17 -2 38 -7 47 -10 35 -10 186 -37 278 -49
163 -21 504 -27 675 -12 162 14 356 48 521 92 114 30 305 94 322 107 6 6 12 8
12 5 0 -11 269 113 399 184 67 37 258 158 285 180 6 5 45 35 86 66 41 31 77
59 80 62 3 3 34 31 70 61 75 63 256 244 315 314 22 27 48 55 58 64 9 9 17 20
17 24 0 5 8 16 18 26 19 20 49 59 72 93 8 12 36 51 63 88 26 36 47 69 47 73 0
5 15 30 34 57 19 27 32 52 29 55 -4 3 -2 6 3 6 6 0 16 16 24 35 8 19 18 35 22
35 5 0 7 4 4 9 -4 5 -2 11 2 13 12 4 130 252 121 253 -2 1 4 13 14 28 9 15 15
27 12 27 -3 0 4 18 15 40 11 22 18 40 15 40 -3 0 4 18 15 40 11 22 18 40 16
40 -3 0 2 16 10 35 8 19 11 35 8 35 -4 0 -2 6 4 12 6 7 11 16 11 21 1 4 1 8 2
10 0 1 2 9 4 17 2 8 9 33 15 55 18 69 21 79 26 105 3 14 9 42 15 63 6 21 12
50 14 65 2 15 6 43 10 62 28 153 39 297 39 520 1 293 -22 492 -85 749 -35 142
-105 358 -145 446 -15 33 -28 65 -29 70 -5 22 -132 272 -145 285 -3 3 -16 25
-29 50 -13 25 -41 71 -62 102 -22 32 -39 60 -39 63 0 3 -6 13 -14 22 -8 10
-45 59 -82 108 -37 50 -73 95 -78 101 -6 6 -29 33 -51 60 -70 87 -278 288
-395 383 -39 32 -43 35 -85 66 -22 17 -46 36 -53 43 -7 6 -17 12 -21 12 -4 0
-21 11 -37 25 -16 14 -37 28 -46 31 -10 3 -18 9 -18 14 0 5 -10 12 -22 16 -12
3 -26 11 -32 16 -14 12 -78 50 -136 80 -25 13 -47 26 -50 29 -8 10 -144 74
-152 71 -5 -1 -8 3 -8 8 0 5 -3 9 -7 8 -9 -1 -76 26 -113 46 -14 8 -28 15 -32
15 -9 2 -17 4 -90 31 -32 12 -59 21 -60 20 -2 -1 -19 6 -38 14 -19 8 -38 15
-42 15 -4 1 -13 3 -20 6 -36 12 -136 39 -153 41 -11 1 -20 3 -20 4 0 1 -11 4
-25 6 -14 3 -41 9 -60 14 -19 5 -48 11 -65 14 -16 3 -46 8 -65 11 -19 3 -42 8
-50 10 -8 2 -45 7 -82 10 -37 3 -77 8 -90 11 -40 9 -479 11 -567 3z"/>
</g>
</svg>
