<?xml version="1.0" standalone="no"?>
<!DOCTYPE svg PUBLIC "-//W3C//DTD SVG 20010904//EN"
 "http://www.w3.org/TR/2001/REC-SVG-20010904/DTD/svg10.dtd">
<svg version="1.0" xmlns="http://www.w3.org/2000/svg"
 width="512.000000pt" height="512.000000pt" viewBox="0 0 512.000000 512.000000"
 preserveAspectRatio="xMidYMid meet">
<metadata>
Created by potrace 1.14, written by Peter Selinger 2001-2017
</metadata>
<g transform="translate(0.000000,512.000000) scale(0.100000,-0.100000)"
fill="#000000" stroke="none">
<path d="M0 3800 c0 -873 3 -1320 10 -1320 6 0 10 5 10 10 0 6 11 10 25 10 14
0 25 5 25 10 0 6 3 9 7 8 13 -2 64 21 79 37 9 8 24 15 35 15 11 0 17 5 14 10
-3 6 5 10 19 10 14 0 28 5 31 10 4 6 11 8 16 5 5 -4 9 -1 9 4 0 15 63 14 79
-1 11 -10 13 -10 7 0 -4 6 -4 12 1 13 4 0 17 3 28 5 42 10 165 12 165 2 0 -5
10 -8 23 -7 12 2 33 -1 47 -6 14 -5 32 -10 40 -11 8 -1 29 -5 45 -8 17 -3 39
-7 50 -8 11 -2 23 -7 27 -13 5 -6 8 -5 8 3 0 10 5 10 20 2 11 -6 20 -7 20 -3
0 4 6 0 13 -9 9 -12 27 -16 63 -15 58 1 69 12 106 107 41 105 45 124 42 186
-1 32 1 77 6 99 11 52 22 305 25 575 2 221 9 269 45 301 10 8 25 30 35 49 10
19 27 41 38 50 11 10 22 30 23 46 2 16 7 54 13 84 6 30 12 74 14 98 5 55 13
62 21 18 8 -41 23 -55 33 -29 4 10 24 46 45 81 21 35 36 67 33 73 -4 5 -1 9 4
9 6 0 11 6 11 14 0 14 55 88 65 86 14 -3 26 7 29 25 2 11 9 20 17 20 8 0 18
10 24 22 5 12 19 27 31 34 12 6 27 22 34 34 7 13 21 26 31 28 11 3 19 13 20
24 0 16 1 16 9 -2 8 -18 9 -17 9 8 1 16 5 26 10 23 4 -3 16 3 26 14 10 11 22
17 26 14 5 -3 6 1 3 9 -3 8 0 18 5 22 6 3 9 11 6 16 -4 5 1 9 10 9 9 0 13 -5
9 -11 -4 -8 0 -8 15 0 15 8 21 9 21 1 0 -6 4 -8 10 -5 5 3 10 1 10 -6 0 -6 15
0 34 15 19 14 39 26 45 26 6 0 10 3 9 8 -4 9 22 35 86 87 32 26 45 32 36 18
-8 -12 -22 -24 -32 -26 -10 -3 -22 -17 -28 -31 -5 -14 -15 -26 -21 -26 -7 0
-10 -3 -6 -6 3 -3 19 3 35 15 38 27 52 27 22 1 -36 -31 -8 -24 39 10 26 19 39
35 35 43 -4 7 -4 9 1 5 4 -4 14 0 22 10 8 9 11 11 7 3 -4 -9 -2 -12 7 -9 8 3
13 10 12 16 -3 13 88 88 103 84 6 -1 33 10 60 24 37 20 65 27 119 29 l70 2
-107 -28 c-101 -26 -179 -59 -223 -93 -26 -20 -6 -21 22 -1 19 13 84 35 233
78 105 31 283 68 304 64 17 -3 15 -5 -6 -6 -15 0 -30 -6 -33 -11 -4 -6 -12
-10 -18 -9 -7 1 -25 -3 -42 -10 -16 -7 -44 -13 -61 -14 -18 -1 -30 -5 -27 -9
2 -5 -2 -8 -9 -8 -20 0 -224 -82 -308 -125 -92 -46 -238 -154 -328 -242 -37
-36 -58 -58 -46 -49 20 15 112 63 194 99 34 15 153 48 157 43 1 -1 -66 -37
-150 -81 -167 -86 -220 -122 -243 -166 -14 -28 -3 -42 13 -16 9 14 112 71 119
65 2 -2 -19 -31 -46 -63 -27 -32 -47 -62 -45 -66 3 -4 2 -9 -2 -11 -5 -1 -25
-22 -45 -46 -62 -70 -43 -74 27 -6 62 61 104 87 75 47 -7 -10 1 -3 19 15 17
18 31 28 31 22 0 -5 7 -7 15 -4 13 5 13 1 -2 -27 -10 -19 -21 -36 -26 -37 -11
-5 -68 -90 -66 -99 1 -4 -3 -21 -10 -37 -17 -41 -6 -44 18 -5 24 39 27 53 9
43 -7 -4 -9 -3 -5 1 4 5 14 10 22 11 19 3 12 -30 -26 -115 -34 -75 -35 -79
-10 -57 18 16 19 16 23 -8 3 -16 1 -23 -7 -20 -8 4 -11 -4 -10 -20 2 -14 0
-26 -5 -26 -4 0 -10 -6 -13 -13 -3 -8 1 -14 9 -14 8 0 22 21 31 48 14 39 22
48 45 51 28 4 35 -2 20 -16 -4 -4 -7 -11 -8 -14 -1 -15 -28 -62 -34 -62 -4 0
-15 -16 -26 -35 -10 -19 -22 -35 -26 -35 -5 0 -15 -18 -24 -40 -9 -23 -18 -39
-20 -38 -3 4 27 96 40 118 4 8 -4 3 -17 -12 -14 -15 -27 -32 -29 -38 -2 -6
-12 -12 -23 -14 -12 -2 -30 -23 -47 -56 -16 -29 -28 -46 -28 -39 0 11 -2 11
-10 -1 -5 -9 -5 -17 1 -21 5 -3 0 -18 -13 -34 -12 -16 -16 -25 -9 -21 11 7 11
3 -1 -20 -9 -16 -21 -40 -27 -54 -11 -25 -11 -25 -7 5 4 28 26 122 42 174 5
17 4 22 -4 17 -7 -4 -19 -33 -28 -64 -9 -31 -22 -67 -30 -79 -8 -13 -12 -23
-8 -23 4 0 1 -6 -5 -14 -6 -7 -18 -51 -26 -96 -17 -94 -24 -111 -26 -54 -1 21
-3 31 -6 22 -2 -10 -8 -18 -13 -18 -12 0 -1 69 16 100 23 43 45 103 39 108 -3
3 -5 0 -5 -6 0 -7 -4 -12 -10 -12 -24 0 3 110 48 193 22 41 19 79 -4 70 -8 -3
-13 -7 -11 -10 3 -2 -20 -51 -49 -109 -30 -58 -54 -111 -54 -119 0 -8 -4 -15
-10 -15 -5 0 -10 7 -10 15 0 27 -15 16 -33 -25 -9 -22 -20 -40 -23 -40 -4 0
-4 39 -1 88 l6 87 -19 -40 c-10 -22 -19 -46 -19 -54 -1 -8 -4 -11 -8 -8 -12
13 -64 -108 -82 -189 -16 -69 -17 -103 -10 -235 4 -85 8 -156 9 -159 1 -3 6 6
10 20 9 28 8 45 15 -193 2 -76 10 -164 17 -195 l13 -57 6 70 c3 39 7 68 8 65
1 -3 6 -68 10 -145 8 -142 24 -213 41 -185 16 26 20 -28 24 -350 3 -269 2
-311 -10 -290 -13 25 -13 24 -15 -15 -1 -22 -1 -116 -1 -210 1 -120 -1 -163
-8 -147 -6 13 -13 56 -17 95 -6 59 -8 66 -13 37 -3 -19 1 -69 8 -110 7 -41 12
-107 10 -146 -2 -51 1 -75 10 -84 10 -9 12 -25 8 -54 -14 -99 -19 -196 -8
-196 6 0 9 -23 6 -62 -2 -35 -6 -108 -8 -163 -6 -139 -25 -430 -36 -548 -6
-54 -10 -129 -10 -167 l0 -70 114 0 115 0 5 52 c4 29 8 78 9 108 2 30 4 6 5
-54 1 -60 4 -107 7 -104 3 3 15 63 26 134 30 187 64 382 93 519 14 66 31 176
39 245 8 69 21 141 29 160 l16 35 -5 -45 c-2 -25 -16 -117 -29 -206 -14 -88
-24 -165 -23 -170 1 -5 0 -16 -4 -24 -18 -49 -29 -91 -37 -140 -18 -115 -81
-476 -86 -492 -5 -16 3 -18 83 -17 55 1 91 5 95 12 6 9 8 9 8 0 0 -7 6 -13 14
-13 22 0 26 104 25 690 -2 532 4 725 22 714 5 -3 9 -18 9 -33 0 -16 15 -58 33
-94 23 -47 28 -64 18 -62 -8 1 -22 16 -31 33 -8 17 -19 32 -23 32 -11 0 3
-544 14 -548 5 -2 8 -83 8 -180 l-2 -177 -8 129 c-4 79 -12 133 -20 140 -9 8
-10 7 -5 -9 9 -24 9 -354 1 -517 l-6 -118 29 0 c21 0 32 7 40 25 6 13 49 75
95 137 46 62 91 124 100 138 11 16 17 19 17 9 0 -8 -5 -20 -10 -25 -6 -6 -12
-19 -14 -30 -8 -36 -24 -69 -59 -119 -19 -28 -44 -70 -56 -93 l-21 -42 57 0
c56 0 62 3 170 79 62 43 130 86 150 95 21 9 58 27 83 40 25 13 81 35 125 50
106 34 272 86 279 86 12 0 5 -22 -14 -42 -11 -12 -20 -18 -20 -13 0 5 -10 -1
-22 -12 -13 -11 -38 -28 -55 -37 -18 -9 -33 -22 -33 -29 0 -8 4 -7 11 3 6 8 9
10 7 3 -2 -6 -47 -48 -100 -92 -54 -45 -97 -87 -95 -94 1 -7 -3 -11 -10 -10
-6 1 -17 -4 -23 -12 -21 -25 136 -19 251 9 111 28 150 46 239 113 49 36 72 61
92 103 29 59 92 247 107 320 5 25 16 70 24 100 8 30 22 92 32 137 10 45 22 80
27 77 5 -3 6 9 3 28 -4 24 -3 29 5 18 6 -8 8 -33 5 -55 -5 -31 -4 -37 5 -25
10 12 11 12 5 -5 -3 -11 -37 -123 -75 -250 -38 -126 -76 -250 -85 -274 l-15
-44 21 19 c28 25 155 183 208 259 23 33 46 60 51 60 4 0 12 4 17 9 5 5 3 6 -4
2 -20 -11 -16 1 23 59 37 55 54 73 34 35 -6 -11 -8 -25 -5 -30 5 -9 -147 -242
-186 -286 -11 -11 -19 -24 -19 -28 0 -4 39 29 86 73 48 44 90 78 94 76 5 -3
36 29 71 70 34 41 64 75 66 75 11 0 -89 -131 -149 -195 -37 -40 -65 -75 -61
-78 7 -8 -226 -239 -236 -233 -4 3 -27 -11 -50 -30 -24 -19 -47 -34 -50 -34
-3 -1 -28 -21 -55 -45 -39 -35 -45 -44 -28 -42 12 0 19 3 17 5 -2 2 26 30 63
61 84 71 102 85 102 79 0 -3 -34 -33 -75 -67 -41 -34 -75 -67 -75 -72 0 -5
177 -9 444 -9 346 0 445 3 449 13 4 9 6 9 6 -1 1 -10 128 -12 616 -12 l615 0
0 2560 0 2560 -390 0 -390 0 0 -37 c0 -32 -13 -40 -16 -10 0 7 -2 20 -2 30 -2
16 -75 17 -1381 17 l-1380 0 2 -127 c1 -71 0 -182 -3 -248 -5 -93 -6 -65 -8
128 l-2 247 -775 0 -775 0 0 -1320z m4339 1188 c0 -37 -3 -47 -8 -33 -5 11 -7
27 -5 35 1 8 3 23 3 33 1 9 3 17 6 17 3 0 5 -24 4 -52z m-1522 26 c-3 -3 -12
-4 -19 -1 -8 3 -5 6 6 6 11 1 17 -2 13 -5z m-204 -11 c-7 -2 -19 -2 -25 0 -7
3 -2 5 12 5 14 0 19 -2 13 -5z m154 1 c-3 -3 -12 -4 -19 -1 -8 3 -5 6 6 6 11
1 17 -2 13 -5z m1570 -306 c-3 -8 -6 -5 -6 6 -1 11 2 17 5 13 3 -3 4 -12 1
-19z m72 -56 c8 -14 6 -19 -5 -19 -7 0 -14 9 -14 19 0 10 2 18 5 18 2 0 9 -8
14 -18z m-2367 -284 c-7 -7 -12 -8 -12 -2 0 14 12 26 19 19 2 -3 -1 -11 -7
-17z m2687 -145 c12 -18 19 -38 15 -44 -4 -8 -3 -9 4 -5 11 6 14 1 11 -20 0
-3 8 -13 19 -22 10 -9 23 -28 27 -42 4 -14 13 -35 21 -47 15 -24 21 -39 92
-243 69 -198 97 -377 106 -665 5 -158 5 -159 -8 -80 l-13 80 -3 -100 c-3 -91
-4 -84 -11 70 -4 98 -18 228 -31 306 -21 119 -22 141 -11 180 12 39 11 52 -6
109 -27 87 -90 239 -91 218 0 -37 -15 -16 -17 25 -2 23 -8 56 -15 72 l-13 30
-6 -35 -6 -35 -2 38 c0 20 4 37 10 37 6 0 3 7 -6 16 -9 9 -14 23 -11 30 3 8
-3 20 -14 26 -11 7 -20 18 -20 25 0 7 -7 13 -15 13 -8 0 -12 6 -9 13 2 7 -4
24 -16 37 -11 13 -20 29 -20 37 0 7 -4 13 -10 13 -5 0 -10 7 -10 15 0 13 3 13
18 -2 10 -10 29 -33 41 -50z m-2434 -32 c-3 -5 -1 -13 5 -16 7 -4 4 -18 -9
-38 -66 -107 -114 -236 -158 -422 -37 -158 -35 -321 7 -550 20 -110 34 -155
49 -155 6 0 7 -7 4 -17 -5 -12 -3 -14 7 -8 8 5 11 4 7 -2 -3 -5 0 -27 7 -49
21 -61 29 -104 18 -104 -5 0 -15 18 -22 41 -8 22 -18 43 -23 46 -6 4 -8 -1 -4
-11 4 -10 10 -36 13 -59 3 -23 13 -62 22 -87 18 -52 38 -79 29 -40 -25 118
-19 123 12 10 25 -94 96 -284 119 -318 9 -14 11 -23 5 -19 -18 11 -16 -8 1
-22 8 -6 24 -35 36 -64 31 -74 68 -121 85 -107 9 8 11 5 8 -14 -3 -13 1 -27 8
-31 9 -6 11 -3 6 8 -3 10 -2 17 3 17 6 0 10 -8 10 -17 0 -28 9 -9 15 33 8 52
47 166 63 182 6 8 25 33 42 56 16 24 38 46 50 49 11 3 18 1 14 -4 -3 -5 2 -9
11 -9 9 0 14 -4 11 -8 -2 -4 35 -7 83 -5 l88 2 -12 -36 c-12 -36 -12 -37 19
-58 l31 -22 15 26 15 26 3 -25 c2 -14 21 -43 42 -64 34 -32 45 -38 70 -33 41
9 48 -10 8 -23 -31 -9 -31 -10 14 -6 33 2 51 -1 60 -11 10 -12 9 -17 -2 -23
-8 -5 -24 -16 -35 -24 -19 -15 -18 -15 11 -7 51 14 103 54 116 88 12 34 21 34
38 3 9 -17 4 -24 -31 -50 -23 -16 -36 -30 -28 -30 11 0 11 -2 -1 -10 -30 -20
6 -9 40 11 24 15 30 17 21 5 -8 -9 -9 -16 -3 -16 10 0 29 21 60 66 11 17 11
17 2 -3 -15 -32 -12 -52 4 -31 7 10 15 15 19 12 12 -12 49 117 97 338 27 128
59 265 69 303 11 39 27 120 37 180 9 61 20 113 23 117 10 12 -7 -152 -30 -292
-12 -69 -23 -147 -25 -175 -2 -27 -12 -90 -23 -140 -11 -49 -22 -108 -26 -130
-15 -103 -91 -392 -126 -482 -16 -40 -93 -208 -172 -375 -80 -167 -164 -351
-187 -410 -24 -59 -47 -105 -51 -103 -11 7 -20 -26 -13 -48 4 -14 3 -17 -7
-12 -9 6 -11 4 -6 -7 3 -9 2 -19 -3 -24 -4 -5 -19 -49 -34 -99 -30 -105 -44
-239 -40 -380 2 -64 0 -89 -6 -70 -4 17 -9 71 -10 120 -1 50 -5 101 -9 115 -7
25 -7 25 -19 -9 -10 -29 -10 -32 3 -21 8 7 15 8 15 2 0 -5 -7 -15 -15 -22 -16
-14 -10 -34 7 -24 7 4 8 2 4 -4 -12 -20 -35 -14 -31 7 3 14 -1 18 -11 14 -8
-3 -14 -12 -14 -20 0 -11 -5 -13 -17 -8 -10 4 -23 8 -30 8 -14 0 -24 35 -12
43 5 3 9 16 9 30 0 14 -4 22 -10 19 -5 -3 -7 0 -4 8 6 18 -12 32 -21 17 -4 -6
-11 -8 -16 -4 -6 3 -3 11 8 19 16 12 14 13 -11 8 -20 -4 -27 -2 -22 6 10 16 1
14 -14 -5 -11 -12 -11 -15 1 -12 22 5 19 -91 -3 -116 -10 -11 -18 -24 -18 -29
0 -6 11 2 25 17 27 29 47 37 23 9 -8 -10 -19 -25 -23 -33 -8 -13 -7 -13 8 -1
25 20 21 5 -5 -20 -24 -23 -5 -16 25 9 10 9 17 11 17 4 0 -6 -11 -19 -25 -28
-38 -25 -23 -28 19 -5 22 13 35 16 33 8 -1 -6 -6 -15 -12 -19 -6 -5 -4 -8 5
-8 8 0 0 -9 -18 -20 -18 -11 -39 -20 -47 -20 -9 0 -15 -9 -15 -22 0 -19 2 -20
10 -8 9 13 10 13 11 0 1 -8 1 -18 0 -22 0 -5 4 -8 10 -8 5 0 7 -4 4 -10 -3 -5
-2 -10 3 -10 6 0 13 7 16 16 3 8 10 13 15 10 5 -3 11 1 15 9 3 8 11 15 17 15
8 0 8 -4 -1 -15 -8 -9 -9 -15 -2 -15 6 0 14 5 17 10 3 6 13 10 22 10 9 0 -76
-46 -188 -103 -232 -117 -325 -168 -388 -210 l-44 -30 7 34 c4 19 13 77 21
129 8 52 26 156 40 230 15 74 28 155 30 179 5 53 28 80 100 117 l53 26 7 68
c9 86 -7 165 -50 251 -26 51 -30 66 -18 66 8 0 19 -11 24 -24 10 -26 12 -27
42 -13 22 10 22 10 0 -6 -22 -16 -33 -42 -14 -29 6 3 8 -4 6 -15 -2 -11 1 -20
6 -20 6 0 8 -4 5 -9 -3 -5 1 -28 10 -52 11 -31 14 -61 9 -101 -3 -31 -2 -59 3
-62 5 -3 38 12 73 33 35 21 80 42 99 46 19 4 52 17 73 28 30 15 41 17 47 8 5
-10 21 -6 61 15 30 15 63 27 74 25 17 -1 17 0 5 9 -13 8 -12 10 5 8 59 -4 58
-5 124 165 34 89 71 184 82 211 11 27 17 51 15 53 -2 2 -12 -16 -21 -41 -10
-25 -21 -43 -26 -40 -5 3 -6 -3 -2 -12 4 -11 3 -15 -5 -10 -6 3 -13 -3 -17
-14 -3 -11 -18 -23 -33 -26 -15 -3 -33 -8 -40 -10 -10 -3 -12 7 -7 44 9 63 13
74 25 67 5 -3 10 -1 10 5 0 12 73 48 111 53 29 5 92 124 142 269 19 54 36 95
39 93 5 -5 71 142 83 185 5 20 2 18 -15 -9 -12 -19 -26 -45 -31 -58 -5 -13
-13 -23 -18 -23 -11 0 -56 -107 -72 -170 -6 -25 -17 -56 -25 -70 -8 -14 -23
-51 -35 -82 -11 -32 -23 -57 -27 -56 -7 2 -59 -29 -125 -74 -36 -25 -45 -17
-21 19 10 15 29 48 42 73 13 25 54 86 91 135 76 101 90 122 73 111 -17 -10
-15 -2 10 41 28 50 12 33 -47 -47 -26 -36 -49 -64 -52 -62 -2 2 -30 -20 -61
-50 -31 -29 -77 -71 -102 -92 -36 -31 -38 -34 -10 -16 19 13 65 53 103 89 37
36 67 60 67 53 0 -8 5 -10 13 -6 7 4 9 3 4 -2 -5 -5 -14 -9 -20 -9 -7 0 -11
-8 -11 -18 1 -9 -2 -14 -6 -12 -11 7 -99 -153 -121 -220 -10 -27 -18 -43 -18
-35 -1 12 -21 6 -88 -26 -161 -77 -513 -174 -634 -174 -44 0 -53 4 -91 43 -24
24 -59 63 -79 88 -70 86 -306 404 -311 418 -3 9 -11 3 -25 -19 -27 -42 -35
-28 -37 64 -2 67 -30 171 -45 162 -3 -2 -7 6 -7 17 -1 12 -9 56 -19 97 -20 87
-22 342 -3 450 6 36 14 139 17 230 4 91 9 152 10 135 2 -16 11 25 22 92 34
225 128 510 240 728 51 100 206 341 240 371 9 8 -10 -27 -45 -79 -34 -52 -79
-128 -101 -168 -21 -41 -46 -85 -55 -99 -105 -150 -235 -523 -271 -773 -16
-111 -21 -292 -11 -392 9 -89 9 -88 11 73 l1 163 30 -32 c44 -49 58 -46 52 8
-6 52 4 63 60 63 36 0 36 -1 28 -29 -4 -16 -5 -44 -1 -62 l7 -34 18 28 c19 29
36 35 36 14 0 -24 21 -37 42 -26 27 14 75 -23 53 -41 -8 -6 -20 -8 -26 -4 -7
4 -9 3 -6 -3 4 -6 16 -13 28 -16 15 -4 23 0 26 14 3 10 9 17 13 14 8 -5 -12
-76 -31 -109 -8 -13 -8 -16 1 -11 20 13 53 98 52 135 l-1 35 36 -40 c30 -34
34 -36 28 -15 -5 14 -8 32 -7 40 0 8 -11 53 -24 100 -13 47 -30 114 -38 150
l-14 65 -2 -100 c-2 -55 -5 -90 -7 -77 -2 12 -8 22 -13 22 -4 0 -7 8 -6 17 1
21 -108 62 -169 63 -65 1 -70 10 -43 66 26 56 56 67 108 40 17 -8 30 -10 30
-5 0 17 20 9 20 -8 0 -10 12 -36 25 -58 l25 -40 0 40 c0 22 -5 57 -11 78 -10
36 -12 37 -54 37 -25 0 -45 -4 -45 -10 0 -12 -47 -13 -54 -1 -3 4 15 37 40 72
44 63 77 124 87 164 2 11 6 -32 8 -95 l3 -115 6 155 c4 85 14 198 23 250 20
115 75 288 125 390 39 78 161 259 175 260 5 0 6 -4 2 -9z m-59 -249 c-9 -33
-16 -77 -16 -98 -1 -22 -7 -57 -15 -78 -7 -22 -19 -71 -26 -110 -14 -85 -34
-116 -26 -41 18 165 36 251 70 343 25 70 32 60 13 -16z m-206 54 c0 -3 -4 -8
-10 -11 -5 -3 -10 -1 -10 4 0 6 5 11 10 11 6 0 10 -2 10 -4z m344 -73 c-10 -7
-12 -13 -6 -13 7 0 13 -14 13 -32 1 -66 2 -98 4 -98 2 0 19 35 40 78 33 70 38
75 48 57 7 -11 24 -21 39 -22 20 -1 29 5 38 28 7 16 16 31 20 34 8 5 -13 -105
-35 -185 -13 -46 -26 -119 -50 -275 -4 -29 -17 -58 -32 -73 -11 -11 -13 -11
-13 0 0 8 6 20 13 27 6 8 7 11 2 8 -22 -12 -35 11 -36 65 -1 31 2 61 5 67 4 6
3 11 -2 11 -6 0 -15 -13 -21 -30 -11 -33 -26 -40 -28 -12 -7 72 -23 107 -23
49 0 -20 -4 -39 -10 -42 -5 -3 -10 -1 -10 4 0 6 -6 11 -14 11 -24 0 -39 -96
-38 -247 1 -175 9 -235 53 -420 24 -101 24 -109 0 -58 -11 22 -20 38 -20 35
-3 -19 46 -146 75 -195 26 -43 30 -55 15 -41 -29 26 -74 124 -102 219 -12 42
-24 76 -26 74 -1 -2 8 -57 21 -123 16 -80 36 -144 60 -193 35 -73 50 -115 60
-176 7 -40 61 -199 76 -222 9 -16 10 -15 5 7 -5 20 -4 22 5 8 5 -9 7 -24 4
-32 -5 -14 -11 -11 -30 15 -12 17 -31 53 -40 80 -10 27 -22 49 -27 49 -4 0 -5
4 -2 10 3 5 0 24 -8 42 -24 56 -65 170 -81 228 -21 74 -56 278 -54 315 1 17
-2 44 -6 60 -4 17 -8 89 -11 160 l-4 130 9 -104 c9 -107 33 -243 50 -283 14
-32 6 45 -14 137 -22 105 -40 355 -33 475 9 155 48 312 94 379 21 30 39 48 41
41 3 -7 -3 -19 -14 -27z m-110 -91 c-15 -50 -45 -197 -45 -224 0 -10 -4 -20
-9 -23 -13 -8 -4 103 15 176 35 138 37 143 45 130 4 -7 1 -33 -6 -59z m2583
26 c-3 -7 -5 -2 -5 12 0 14 2 19 5 13 2 -7 2 -19 0 -25z m-2186 -55 c-15 -53
-12 -74 5 -38 12 24 14 25 10 6 -2 -12 0 -34 7 -48 10 -23 12 -23 19 -6 5 12
6 8 3 -12 -3 -16 -8 -47 -11 -69 -11 -74 -49 -171 -67 -170 -9 1 -16 -1 -15
-5 0 -3 0 -17 -1 -31 -1 -22 -3 -23 -12 -7 -6 10 -8 25 -5 32 3 8 0 17 -6 21
-7 4 -6 9 3 15 9 6 10 9 2 9 -11 0 -10 18 2 95 9 51 67 256 72 251 2 -2 0 -21
-6 -43z m-907 -202 c-10 -33 -19 -59 -21 -57 -3 2 3 32 13 65 9 34 19 60 21
58 2 -3 -4 -32 -13 -66z m1613 27 c-3 -7 -5 -2 -5 12 0 14 2 19 5 13 2 -7 2
-19 0 -25z m-7 -98 l-8 -75 1 65 c0 60 5 95 12 88 2 -2 0 -37 -5 -78z m-1923
18 c-3 -8 -6 -5 -6 6 -1 11 2 17 5 13 3 -3 4 -12 1 -19z m170 -15 c-3 -10 -5
-4 -5 12 0 17 2 24 5 18 2 -7 2 -21 0 -30z m550 -5 c-3 -7 -5 -2 -5 12 0 14 2
19 5 13 2 -7 2 -19 0 -25z m34 -21 c-10 -9 -11 -8 -5 6 3 10 9 15 12 12 3 -3
0 -11 -7 -18z m2316 -9 c-3 -7 -5 -2 -5 12 0 14 2 19 5 13 2 -7 2 -19 0 -25z
m-2921 -111 c-9 -57 -16 -111 -16 -118 1 -15 44 30 53 53 2 7 7 10 11 6 4 -3
-2 -25 -14 -48 -20 -39 -71 -185 -90 -260 -13 -48 -2 130 11 190 6 25 14 72
19 105 15 99 33 186 37 181 2 -2 -3 -51 -11 -109z m1631 81 c-3 -7 -5 -2 -5
12 0 14 2 19 5 13 2 -7 2 -19 0 -25z m1303 -28 c0 -16 -2 -30 -4 -30 -2 0 -6
14 -8 30 -3 17 -1 30 4 30 4 0 8 -13 8 -30z m-1159 -53 c2 -53 19 -73 19 -21
0 13 6 24 13 24 9 0 8 3 -2 9 -8 5 -9 11 -3 15 13 8 21 -17 23 -74 2 -59 -10
-112 -24 -107 -12 4 -13 8 -16 44 -3 40 -13 2 -26 -102 -8 -58 -15 -88 -21
-83 -5 6 15 318 22 341 9 29 13 16 15 -46z m-1884 31 c-3 -8 -6 -5 -6 6 -1 11
2 17 5 13 3 -3 4 -12 1 -19z m3560 -100 c-3 -7 -5 -2 -5 12 0 14 2 19 5 13 2
-7 2 -19 0 -25z m-1867 -45 c-22 -84 -91 -242 -142 -329 -65 -111 -77 -115
-19 -6 62 116 137 286 152 344 7 26 15 45 17 43 3 -2 -1 -26 -8 -52z m-1811
-87 c-9 -8 -10 -5 -5 14 3 14 7 43 8 65 1 33 2 30 5 -14 3 -33 0 -58 -8 -65z
m28 32 c-3 -7 -5 -2 -5 12 0 14 2 19 5 13 2 -7 2 -19 0 -25z m3138 13 c3 -5 2
-12 -3 -15 -5 -3 -9 1 -9 9 0 17 3 19 12 6z m-2888 -33 c-3 -7 -5 -2 -5 12 0
14 2 19 5 13 2 -7 2 -19 0 -25z m2893 -25 c0 -19 -13 -9 -16 12 -1 8 2 13 7 9
5 -3 9 -12 9 -21z m-2903 -60 c-2 -16 -4 -5 -4 22 0 28 2 40 4 28 2 -13 2 -35
0 -50z m572 -30 c1 -18 -2 -33 -6 -33 -5 0 -9 26 -10 58 -1 41 1 50 7 32 4
-14 8 -40 9 -57z m2328 5 c-3 -7 -5 -2 -5 12 0 14 2 19 5 13 2 -7 2 -19 0 -25z
m-824 -10 c-9 -15 -23 -8 -23 12 0 17 2 19 14 8 8 -7 12 -16 9 -20z m-412 -89
l-11 -34 5 34 c3 18 6 45 6 60 l2 26 4 -26 c2 -15 -1 -42 -6 -60z m1055 54
c-10 -10 -19 5 -10 18 6 11 8 11 12 0 2 -7 1 -15 -2 -18z m-637 -6 c0 -8 -3
-7 -6 2 -4 11 -7 11 -14 0 -4 -7 -11 -10 -16 -6 -9 9 17 28 29 21 4 -3 8 -11
7 -17z m634 -20 c3 -8 2 -20 -3 -26 -5 -9 -7 -4 -7 13 0 29 2 32 10 13z m-643
-47 c0 -42 -2 -49 -17 -44 -11 4 -14 3 -7 -3 14 -10 2 -179 -14 -209 -5 -10
-12 -32 -15 -49 -10 -63 -79 -336 -84 -331 -3 2 1 30 7 62 7 32 13 67 15 78 5
35 36 180 42 196 3 8 6 40 8 70 2 54 20 204 30 248 3 13 10 20 15 17 6 -3 10
-1 10 4 0 6 2 11 5 11 3 0 5 -22 5 -50z m837 -12 c-3 -7 -5 -2 -5 12 0 14 2
19 5 13 2 -7 2 -19 0 -25z m-3020 -25 c-3 -10 -5 -4 -5 12 0 17 2 24 5 18 2
-7 2 -21 0 -30z m380 20 c29 -9 53 -20 53 -24 0 -18 -21 -18 -75 1 -32 11 -66
20 -77 20 -10 0 -18 5 -18 10 0 15 57 12 117 -7z m-314 -21 c-3 -12 -9 -22
-14 -22 -5 0 -3 11 3 25 13 30 20 28 11 -3z m234 -15 c8 -9 -64 -5 -78 4 -8 5
3 7 30 4 24 -2 45 -6 48 -8z m3230 -84 c-2 -16 -4 -5 -4 22 0 28 2 40 4 28 2
-13 2 -35 0 -50z m-3473 15 c-10 -60 -25 -95 -19 -43 2 22 4 50 5 63 0 12 5
22 10 22 6 0 8 -16 4 -42z m1712 -75 c-26 -53 -44 -98 -41 -101 3 -3 5 0 5 6
0 7 5 12 10 12 6 0 10 -8 10 -18 0 -10 5 -23 12 -30 17 -17 -4 -15 -30 4 -12
8 -27 12 -32 9 -15 -9 -11 25 9 75 14 33 20 40 22 25 3 -13 15 6 39 59 19 43
36 74 38 67 2 -7 -17 -55 -42 -108z m-81 77 c18 -35 19 -75 4 -121 -7 -19 -13
-35 -14 -37 -2 -3 -62 26 -103 51 l-34 20 64 58 c35 32 64 58 65 59 1 0 9 -13
18 -30z m62 -12 c-3 -8 -6 -5 -6 6 -1 11 2 17 5 13 3 -3 4 -12 1 -19z m1280
-10 c-3 -8 -6 -5 -6 6 -1 11 2 17 5 13 3 -3 4 -12 1 -19z m-1587 9 c0 -2 -10
-12 -22 -23 l-23 -19 19 23 c18 21 26 27 26 19z m-50 -61 c0 -2 -8 -10 -17
-17 -16 -13 -17 -12 -4 4 13 16 21 21 21 13z m-50 -56 c-6 -11 -13 -20 -16
-20 -2 0 0 9 6 20 6 11 13 20 16 20 2 0 0 -9 -6 -20z m-1328 -99 c-11 -63 -24
-260 -38 -589 -4 -98 -10 -150 -16 -144 -15 15 -3 498 16 637 9 66 19 127 23
135 7 18 10 26 13 43 1 8 3 8 7 -2 3 -8 1 -44 -5 -80z m1611 42 c40 -16 41
-22 29 -99 l-7 -41 -87 42 c-48 24 -103 48 -123 55 -19 6 -35 15 -35 20 0 8
66 42 100 52 17 5 66 -6 123 -29z m-434 -14 c-6 -19 -13 -50 -15 -68 l-5 -35
22 20 c21 18 21 17 -3 -24 -14 -23 -34 -53 -46 -67 -11 -13 -29 -36 -39 -52
-51 -80 -71 -103 -77 -87 -3 8 -2 13 2 10 5 -3 16 10 25 29 12 26 14 41 6 69
-5 20 -13 36 -17 36 -4 0 -38 35 -76 78 l-69 77 71 -70 c40 -38 72 -65 72 -60
0 6 9 -8 19 -30 l18 -40 50 105 c28 58 53 115 57 128 5 13 10 22 12 20 2 -3
-1 -20 -7 -39z m-99 -46 c-11 -17 -11 -17 -6 0 3 10 6 24 7 30 0 9 2 9 5 0 3
-7 0 -20 -6 -30z m160 23 c0 -2 -8 -10 -17 -17 -16 -13 -17 -12 -4 4 13 16 21
21 21 13z m504 -90 c8 -28 14 -54 13 -58 -1 -3 9 -18 23 -33 14 -15 25 -38 25
-52 1 -19 -1 -22 -10 -11 -12 17 -158 96 -238 128 -31 13 -65 32 -74 42 -17
19 17 8 172 -52 29 -11 29 -11 11 9 -18 20 -17 33 6 93 l10 26 24 -20 c13 -12
30 -44 38 -72z m-475 14 c-4 -3 -12 -17 -18 -31 -8 -22 -14 -25 -43 -20 -32 5
-33 6 -5 9 16 2 31 11 33 20 3 9 10 28 16 42 10 24 11 24 18 5 4 -11 4 -22 -1
-25z m1970 -47 c1 -51 -10 -55 -27 -10 -16 43 -15 84 1 90 15 5 25 -25 26 -80z
m228 -75 c-2 -29 -3 -8 -3 47 0 55 1 79 3 53 2 -26 2 -71 0 -100z m-350 -320
c-1 -51 -3 -12 -3 87 0 99 2 141 3 93 2 -48 2 -129 0 -180z m340 180 c-2 -18
-4 -6 -4 27 0 33 2 48 4 33 2 -15 2 -42 0 -60z m-1868 50 c21 -8 22 -10 8 -31
-21 -32 -52 -33 -72 -3 -10 14 -14 33 -11 42 6 15 16 15 75 -8z m-587 -12 c7
5 9 -2 4 -22 -9 -35 -21 -50 -22 -26 -1 9 -4 31 -8 47 -6 24 -5 27 4 12 6 -9
16 -14 22 -11z m718 -18 c0 -19 -2 -20 -10 -8 -13 19 -13 30 0 30 6 0 10 -10
10 -22z m-33 -40 c-3 -8 -6 -5 -6 6 -1 11 2 17 5 13 3 -3 4 -12 1 -19z m1749
-231 c-18 -219 -36 -522 -37 -647 0 -49 -4 -77 -8 -66 -4 11 -5 67 -3 125 2
58 2 104 -1 101 -3 -3 -13 -120 -22 -260 -8 -139 -18 -256 -22 -259 -3 -3 -3
131 1 299 5 268 17 441 44 655 7 59 8 60 16 25 l9 -35 7 55 c4 30 11 93 15
140 5 47 10 79 13 72 2 -7 -3 -100 -12 -205z m41 -79 c-2 -18 -4 -4 -4 32 0
36 2 50 4 33 2 -18 2 -48 0 -65z m-30 -50 c-2 -13 -4 -3 -4 22 0 25 2 35 4 23
2 -13 2 -33 0 -45z m-337 -106 c-8 -13 -10 1 -6 58 7 102 9 107 13 27 2 -37
-1 -75 -7 -85z m360 46 l-5 -73 -3 59 c-3 52 1 86 10 86 2 0 1 -33 -2 -72z
m-33 -60 c-3 -8 -6 -5 -6 6 -1 11 2 17 5 13 3 -3 4 -12 1 -19z m-330 -265 c-1
-49 -3 -9 -3 87 0 96 2 136 3 88 2 -49 2 -127 0 -175z m-1477 233 c0 -2 -8
-10 -17 -17 -16 -13 -17 -12 -4 4 13 16 21 21 21 13z m1816 -294 c-20 -313
-26 -578 -16 -757 18 -310 19 -362 9 -313 -34 169 -38 657 -7 1058 13 168 24
295 26 282 2 -13 -4 -134 -12 -270z m-1184 171 c4 -47 7 -70 13 -88 4 -13 -1
-29 -13 -43 -20 -23 -53 -32 -34 -9 5 6 6 21 2 32 -4 11 -3 28 2 38 5 10 7 31
5 47 -3 16 -2 31 1 34 11 11 22 6 24 -11z m-325 -135 c-3 -8 -6 -5 -6 6 -1 11
2 17 5 13 3 -3 4 -12 1 -19z m323 -38 c0 -5 -8 -10 -17 -10 -15 0 -16 2 -3 10
19 12 20 12 20 0z m-333 -67 c-3 -10 -5 -4 -5 12 0 17 2 24 5 18 2 -7 2 -21 0
-30z m330 -8 c2 -52 -13 -68 -27 -30 -15 39 -12 63 8 68 9 3 17 5 17 6 1 0 2
-19 2 -44z m840 -67 c-2 -18 -4 -6 -4 27 0 33 2 48 4 33 2 -15 2 -42 0 -60z
m-1697 -1 c-10 -85 -25 -104 -17 -22 6 58 5 59 -8 28 -11 -25 -21 -33 -42 -34
-66 -4 -92 -8 -111 -18 -10 -6 -22 -8 -25 -5 -3 3 -16 0 -29 -7 -21 -11 -22
-11 -8 6 8 9 39 28 70 42 30 14 74 33 98 44 23 10 49 19 57 19 8 0 15 5 15 12
0 6 2 9 4 7 3 -2 1 -35 -4 -72z m517 11 c-3 -7 -5 -2 -5 12 0 14 2 19 5 13 2
-7 2 -19 0 -25z m-10 -50 c-3 -8 -6 -5 -6 6 -1 11 2 17 5 13 3 -3 4 -12 1 -19z
m-767 -33 c0 -2 -10 -9 -22 -15 -22 -11 -22 -10 -4 4 21 17 26 19 26 11z m757
-17 c-3 -8 -6 -5 -6 6 -1 11 2 17 5 13 3 -3 4 -12 1 -19z m620 0 c-3 -8 -6 -5
-6 6 -1 11 2 17 5 13 3 -3 4 -12 1 -19z m-1120 -55 c-3 -10 -5 -4 -5 12 0 17
2 24 5 18 2 -7 2 -21 0 -30z m1113 17 c0 -11 -4 -20 -9 -20 -5 0 -7 9 -4 20 3
11 7 20 9 20 2 0 4 -9 4 -20z m587 -253 c-1 -45 -3 -5 -3 88 0 94 2 130 3 82
2 -48 2 -125 0 -170z m-603 201 c-8 -27 -12 -33 -19 -27 -7 8 7 49 17 49 5 0
6 -10 2 -22z m-1588 -33 c-1 -8 -5 -17 -8 -21 -5 -4 -4 16 1 34 3 9 9 -1 7
-13z m-736 -46 c0 -5 -4 -9 -10 -9 -5 0 -10 7 -10 16 0 8 5 12 10 9 6 -3 10
-10 10 -16z m2295 -9 c-4 -12 -9 -19 -12 -17 -3 3 -2 15 2 27 4 12 9 19 12 17
3 -3 2 -15 -2 -27z m-891 8 c-5 -8 -2 -9 9 -5 13 5 17 1 17 -19 0 -13 7 -27
15 -30 8 -4 15 -10 15 -16 0 -5 -5 -6 -12 -2 -7 5 -8 3 -2 -7 13 -22 12 -62
-4 -88 -9 -15 -10 -21 -2 -16 17 11 2 -37 -16 -51 -8 -6 -14 -17 -14 -23 0 -7
-4 -10 -9 -7 -5 3 -12 -1 -15 -10 -5 -13 -2 -15 14 -11 17 4 19 3 9 -9 -6 -7
-16 -11 -22 -7 -5 3 -7 2 -4 -4 3 -5 -2 -26 -13 -45 -10 -20 -16 -39 -12 -43
4 -4 -6 -5 -23 -2 -16 4 -24 4 -17 1 6 -3 10 -10 7 -15 -4 -5 0 -6 8 -3 8 3
14 -2 14 -11 0 -11 -6 -15 -18 -12 -12 3 -16 0 -12 -9 3 -8 10 -11 15 -8 6 4
5 -2 -1 -14 -13 -24 -31 -38 -31 -23 0 5 6 12 13 14 9 4 9 6 0 6 -7 1 -18 -7
-24 -17 -8 -13 -20 -17 -40 -14 -24 4 -28 8 -26 31 2 15 7 32 11 39 4 7 2 12
-3 12 -6 0 -11 -4 -11 -10 0 -5 -4 -10 -9 -10 -23 0 20 174 44 184 8 3 15 13
15 21 0 9 4 14 9 10 5 -3 12 -1 15 4 4 5 -1 8 -11 7 -9 -2 -20 -11 -25 -22 -8
-18 -8 -18 -4 1 13 59 80 234 87 229 5 -3 17 0 26 5 25 14 46 14 37 -1z m569
-13 c-3 -9 -8 -14 -10 -11 -3 3 -2 9 2 15 9 16 15 13 8 -4z m-93 -164 c-45
-72 -83 -131 -86 -131 -6 0 7 22 75 130 22 36 50 82 61 103 12 22 24 37 26 34
3 -3 -31 -64 -76 -136z m-1726 -48 c-4 -60 -11 -119 -15 -133 -8 -25 -3 118 7
198 10 80 15 42 8 -65z m2773 -60 c-2 -16 -4 -3 -4 27 0 30 2 43 4 28 2 -16 2
-40 0 -55z m-956 40 c-12 -20 -14 -14 -5 12 4 9 9 14 11 11 3 -2 0 -13 -6 -23z
m-372 -112 c-6 -33 -15 -58 -19 -56 -4 3 -1 32 7 65 20 77 28 71 12 -9z
m-1467 -63 c-7 -7 -12 -27 -12 -44 0 -18 -4 -35 -9 -39 -10 -5 -5 55 6 85 4 8
5 20 4 25 -1 6 3 4 10 -2 10 -10 10 -16 1 -25z m1445 -40 c-3 -8 -6 -5 -6 6
-1 11 2 17 5 13 3 -3 4 -12 1 -19z m24 -25 c-12 -20 -14 -14 -5 12 4 9 9 14
11 11 3 -2 0 -13 -6 -23z m-396 -3 c-2 -31 -15 -37 -15 -7 0 15 4 27 8 27 5 0
8 -9 7 -20z m362 -12 c-3 -8 -6 -5 -6 6 -1 11 2 17 5 13 3 -3 4 -12 1 -19z
m-1440 -100 c-2 -18 -4 -4 -4 32 0 36 2 50 4 33 2 -18 2 -48 0 -65z m1096 74
c-10 -10 -20 -17 -22 -16 -6 5 20 34 30 34 5 0 1 -8 -8 -18z m358 -9 c-12 -20
-14 -14 -5 12 4 9 9 14 11 11 3 -2 0 -13 -6 -23z m-1486 -79 l-15 -79 6 65 c6
73 16 120 21 104 2 -6 -3 -46 -12 -90z m2152 54 c-3 -8 -6 -5 -6 6 -1 11 2 17
5 13 3 -3 4 -12 1 -19z m-10 -95 c-2 -16 -4 -5 -4 22 0 28 2 40 4 28 2 -13 2
-35 0 -50z m1160 35 c-3 -7 -5 -2 -5 12 0 14 2 19 5 13 2 -7 2 -19 0 -25z
m-1437 -100 c-5 -33 -7 -22 -7 42 0 64 2 75 7 43 3 -24 3 -62 0 -85z m-943 87
c0 -16 -34 -27 -43 -14 -8 14 15 39 30 33 7 -3 13 -11 13 -19z m67 4 c-8 -13
-21 -11 -27 5 -4 10 0 12 14 9 10 -3 16 -9 13 -14z m66 7 c0 -2 -7 -7 -16 -10
-8 -3 -12 -2 -9 4 6 10 25 14 25 6z m2059 -165 c2 -101 -6 -67 -12 54 -4 75
-3 94 3 60 4 -27 9 -79 9 -114z m176 62 c-4 -30 -9 -53 -11 -50 -3 2 -1 35 3
73 4 38 9 61 11 50 2 -10 1 -43 -3 -73z m-3265 -80 l-5 -128 -3 114 c-2 101 0
141 10 141 2 0 1 -57 -2 -127z m1078 62 c0 -16 -2 -15 -8 5 -11 34 -11 60 0
35 5 -11 8 -29 8 -40z m1029 -7 c-2 -13 -4 -3 -4 22 0 25 2 35 4 23 2 -13 2
-33 0 -45z m-2150 20 c-3 -8 -6 -5 -6 6 -1 11 2 17 5 13 3 -3 4 -12 1 -19z
m-150 -65 c-2 -16 -4 -5 -4 22 0 28 2 40 4 28 2 -13 2 -35 0 -50z m1253 47 c0
-5 -5 -10 -11 -10 -5 0 -7 5 -4 10 3 6 8 10 11 10 2 0 4 -4 4 -10z m-943 -32
c-3 -8 -6 -5 -6 6 -1 11 2 17 5 13 3 -3 4 -12 1 -19z m893 8 c0 -2 -8 -10 -17
-17 -16 -13 -17 -12 -4 4 13 16 21 21 21 13z m1087 -58 c-2 -13 -4 -5 -4 17
-1 22 1 32 4 23 2 -10 2 -28 0 -40z m-2152 -48 c-4 -39 -9 -69 -12 -66 -3 3
-2 37 2 76 4 39 9 69 12 66 3 -3 2 -37 -2 -76z m172 28 c-3 -8 -6 -5 -6 6 -1
11 2 17 5 13 3 -3 4 -12 1 -19z m788 -18 c-3 -5 -12 -10 -18 -10 -7 0 -6 4 3
10 19 12 23 12 15 0z m1182 -37 c-3 -10 -5 -2 -5 17 0 19 2 27 5 18 2 -10 2
-26 0 -35z m1010 -25 c-2 -13 -4 -3 -4 22 0 25 2 35 4 23 2 -13 2 -33 0 -45z
m-2217 39 c0 -2 -12 -14 -27 -28 -20 -18 -24 -19 -13 -4 18 24 40 42 40 32z
m1197 -84 c-3 -10 -5 -4 -5 12 0 17 2 24 5 18 2 -7 2 -21 0 -30z m-2140 -35
c-3 -7 -5 -2 -5 12 0 14 2 19 5 13 2 -7 2 -19 0 -25z m3170 -15 c-3 -10 -5 -2
-5 17 0 19 2 27 5 18 2 -10 2 -26 0 -35z"/>
<path d="M2244 4112 c-49 -69 -89 -138 -99 -172 -7 -21 -6 -23 7 -13 8 7 17
10 21 7 3 -3 8 5 12 18 14 51 62 151 87 183 11 14 19 28 17 30 -2 2 -22 -22
-45 -53z"/>
<path d="M2090 3425 c-7 -103 13 -405 35 -520 21 -112 46 -190 56 -174 4 7 5
16 1 19 -4 3 -8 20 -9 39 -1 19 -7 37 -14 41 -10 7 -30 161 -31 230 0 8 -4 32
-10 54 -5 21 -13 109 -17 195 -4 86 -9 138 -11 116z"/>
<path d="M2181 2700 c0 -8 4 -22 9 -30 12 -18 12 -2 0 25 -6 13 -9 15 -9 5z"/>
<path d="M1842 2680 c0 -14 2 -19 5 -12 2 6 2 18 0 25 -3 6 -5 1 -5 -13z"/>
<path d="M2121 2664 c0 -11 3 -14 6 -6 3 7 2 16 -1 19 -3 4 -6 -2 -5 -13z"/>
<path d="M2200 2645 c0 -5 5 -17 10 -25 5 -8 10 -10 10 -5 0 6 -5 17 -10 25
-5 8 -10 11 -10 5z"/>
<path d="M2231 2604 c0 -11 3 -14 6 -6 3 7 2 16 -1 19 -3 4 -6 -2 -5 -13z"/>
<path d="M2208 2508 c-3 -15 -1 -25 3 -22 5 3 9 -7 10 -23 0 -15 5 -37 10 -48
7 -14 8 -4 5 35 l-5 55 14 -50 c8 -27 15 -61 15 -74 0 -30 7 -24 14 12 7 39
15 50 30 38 7 -6 16 -8 19 -4 4 3 7 -3 7 -14 0 -11 7 -26 15 -33 13 -11 14
-10 9 5 -5 13 -4 16 4 11 7 -4 12 -2 12 4 0 7 -7 10 -15 6 -10 -3 -15 1 -15
14 0 10 -4 22 -10 25 -5 3 -10 1 -10 -5 0 -6 -5 -8 -11 -5 -6 4 -8 13 -5 21 3
8 2 13 -2 12 -16 -3 -41 15 -35 26 3 6 3 8 -2 4 -4 -4 -14 -3 -22 3 -7 6 -13
8 -14 3 0 -5 -4 0 -8 11 -7 17 -8 17 -13 -7z"/>
<path d="M2241 2334 c0 -11 3 -14 6 -6 3 7 2 16 -1 19 -3 4 -6 -2 -5 -13z"/>
<path d="M2911 2281 c6 -17 17 -35 24 -41 11 -9 10 -1 -3 29 -19 47 -36 56
-21 12z"/>
<path d="M3350 2170 c0 -5 5 -10 11 -10 5 0 7 5 4 10 -3 6 -8 10 -11 10 -2 0
-4 -4 -4 -10z"/>
<path d="M3297 1993 c-13 -21 -32 -54 -41 -73 l-17 -35 20 25 c25 30 74 120
67 120 -3 0 -16 -17 -29 -37z"/>
<path d="M3225 1830 c-9 -16 -13 -30 -11 -30 3 0 12 14 21 30 9 17 13 30 11
30 -3 0 -12 -13 -21 -30z"/>
<path d="M1704 1786 c1 -8 5 -18 8 -22 4 -3 5 1 4 10 -1 8 -5 18 -8 22 -4 3
-5 -1 -4 -10z"/>
<path d="M2110 1669 c0 -5 9 -9 20 -9 11 0 20 2 20 4 0 2 -9 6 -20 9 -11 3
-20 1 -20 -4z"/>
<path d="M2340 1587 c0 -3 15 -10 32 -16 18 -6 28 -7 23 -2 -12 10 -55 25 -55
18z"/>
<path d="M3046 1243 c-6 -14 -5 -15 5 -6 7 7 10 15 7 18 -3 3 -9 -2 -12 -12z"/>
<path d="M2911 973 c-1 -6 -4 -20 -7 -30 -5 -17 -5 -17 6 0 6 10 9 23 6 30 -3
9 -5 9 -5 0z"/>
<path d="M2875 928 c-4 -18 -11 -38 -16 -43 -4 -6 -4 -16 0 -23 4 -8 12 8 19
39 7 29 10 54 8 56 -2 3 -7 -11 -11 -29z"/>
<path d="M2837 753 c-4 -3 -7 -11 -7 -17 0 -6 5 -5 12 2 6 6 9 14 7 17 -3 3
-9 2 -12 -2z"/>
<path d="M2806 723 c-4 -5 -13 -8 -18 -8 -6 0 -13 -7 -15 -15 -4 -12 -3 -12 5
-2 5 8 12 13 16 12 12 -3 31 7 25 14 -3 3 -9 3 -13 -1z"/>
<path d="M2764 655 c-3 -8 -4 -20 -2 -27 3 -7 7 -1 10 15 6 29 1 36 -8 12z"/>
<path d="M2811 663 c1 -4 0 -10 -1 -13 -6 -16 -7 -41 -2 -35 4 4 7 10 7 13 0
4 4 12 8 19 4 6 3 15 -3 18 -6 4 -10 3 -9 -2z"/>
<path d="M2772 611 c-11 -6 -9 -9 6 -13 15 -4 19 -2 15 8 -6 16 -4 16 -21 5z"/>
<path d="M2380 3760 c-1 -3 -3 -18 -6 -35 -3 -28 -3 -29 7 -6 5 13 8 29 5 35
-2 6 -5 9 -6 6z"/>
<path d="M2985 793 c-17 -9 -25 -18 -17 -21 6 -2 9 -9 5 -15 -4 -7 1 -6 10 2
9 7 14 17 11 22 -3 5 -1 9 5 9 5 0 11 -6 14 -12 3 -7 4 -3 4 10 -1 12 -1 22
-2 22 0 -1 -13 -8 -30 -17z"/>
<path d="M2980 711 c0 -6 4 -13 10 -16 6 -3 7 1 4 9 -7 18 -14 21 -14 7z"/>
<path d="M2976 669 c3 -6 0 -16 -7 -21 -12 -8 -11 -9 1 -5 18 4 27 37 10 37
-6 0 -8 -5 -4 -11z"/>
<path d="M2916 653 c-6 -14 -5 -15 5 -6 7 7 10 15 7 18 -3 3 -9 -2 -12 -12z"/>
<path d="M2959 614 c-8 -10 -6 -12 10 -11 11 1 22 6 25 12 6 16 -22 15 -35 -1z"/>
<path d="M2963 575 c0 -8 4 -12 9 -9 5 3 6 10 3 15 -9 13 -12 11 -12 -6z"/>
<path d="M1960 4719 c0 -5 5 -7 10 -4 6 3 10 8 10 11 0 2 -4 4 -10 4 -5 0 -10
-5 -10 -11z"/>
<path d="M1830 4239 c0 -5 5 -7 10 -4 6 3 10 8 10 11 0 2 -4 4 -10 4 -5 0 -10
-5 -10 -11z"/>
<path d="M1176 3292 c-11 -19 -18 -112 -8 -112 6 0 12 27 14 60 3 62 3 66 -6
52z"/>
<path d="M1311 2643 c-1 -110 1 -133 14 -133 11 0 15 -18 17 -82 3 -82 3 -81
12 46 9 130 6 149 -34 276 -5 15 -9 -26 -9 -107z"/>
<path d="M1395 2451 c2 -18 6 -36 9 -39 10 -9 6 42 -4 58 -7 11 -8 6 -5 -19z"/>
<path d="M1153 2085 c0 -22 2 -30 4 -17 2 12 2 30 0 40 -3 9 -5 -1 -4 -23z"/>
<path d="M1351 2000 c-1 -20 4 -41 10 -47 6 -6 15 -26 19 -45 l8 -33 0 35 c1
19 -8 55 -18 80 l-19 45 0 -35z"/>
<path d="M1162 1960 c0 -14 2 -19 5 -12 2 6 2 18 0 25 -3 6 -5 1 -5 -13z"/>
<path d="M1352 1405 c0 -33 3 -80 7 -105 l8 -45 1 45 c0 25 -4 72 -8 105 l-7
60 -1 -60z"/>
<path d="M1343 1180 c0 -47 2 -66 4 -42 2 23 2 61 0 85 -2 23 -4 4 -4 -43z"/>
<path d="M1881 734 c0 -11 3 -14 6 -6 3 7 2 16 -1 19 -3 4 -6 -2 -5 -13z"/>
<path d="M1317 720 c-3 -11 -1 -23 4 -26 5 -3 9 6 9 20 0 31 -6 34 -13 6z"/>
<path d="M1392 710 c0 -14 2 -19 5 -12 2 6 2 18 0 25 -3 6 -5 1 -5 -13z"/>
<path d="M1881 684 c0 -11 3 -14 6 -6 3 7 2 16 -1 19 -3 4 -6 -2 -5 -13z"/>
<path d="M3446 656 c-23 -36 -20 -44 5 -12 12 15 19 29 16 32 -2 2 -12 -7 -21
-20z"/>
<path d="M3385 448 l-60 -63 63 60 c58 55 67 65 59 65 -1 0 -29 -28 -62 -62z"/>
<path d="M1302 475 c0 -16 2 -22 5 -12 2 9 2 23 0 30 -3 6 -5 -1 -5 -18z"/>
<path d="M1261 444 c0 -11 3 -14 6 -6 3 7 2 16 -1 19 -3 4 -6 -2 -5 -13z"/>
<path d="M1241 354 c0 -11 3 -14 6 -6 3 7 2 16 -1 19 -3 4 -6 -2 -5 -13z"/>
<path d="M3294 328 l-29 -33 33 29 c17 17 32 31 32 33 0 8 -8 1 -36 -29z"/>
<path d="M3185 248 l-60 -63 63 60 c58 55 67 65 59 65 -1 0 -29 -28 -62 -62z"/>
<path d="M1222 260 c0 -14 2 -19 5 -12 2 6 2 18 0 25 -3 6 -5 1 -5 -13z"/>
<path d="M1201 184 c0 -11 3 -14 6 -6 3 7 2 16 -1 19 -3 4 -6 -2 -5 -13z"/>
<path d="M1181 113 c-14 -49 -25 -119 -18 -113 8 7 38 142 33 147 -3 3 -9 -12
-15 -34z"/>
<path d="M2938 54 c-3 -3 -37 -16 -74 -29 l-69 -25 51 0 c43 0 54 4 79 30 16
17 26 30 24 30 -3 0 -8 -3 -11 -6z"/>
</g>
</svg>
