<?xml version="1.0" standalone="no"?>
<!DOCTYPE svg PUBLIC "-//W3C//DTD SVG 20010904//EN"
 "http://www.w3.org/TR/2001/REC-SVG-20010904/DTD/svg10.dtd">
<svg version="1.0" xmlns="http://www.w3.org/2000/svg"
 width="512.000000pt" height="512.000000pt" viewBox="0 0 512.000000 512.000000"
 preserveAspectRatio="xMidYMid meet">
<metadata>
Created by potrace 1.14, written by Peter Selinger 2001-2017
</metadata>
<g transform="translate(0.000000,512.000000) scale(0.100000,-0.100000)"
fill="#000000" stroke="none">
<path d="M1712 4154 c-29 -8 -62 -19 -73 -24 -12 -7 -43 -8 -79 -4 -46 5 -65
3 -84 -9 -13 -9 -48 -22 -77 -30 -64 -16 -96 -55 -129 -154 -27 -83 -26 -90
15 -108 27 -11 41 -26 56 -60 13 -29 26 -45 38 -45 9 0 43 29 74 64 63 72 119
105 143 85 11 -9 23 -9 53 0 78 23 103 13 116 -46 8 -39 91 -113 127 -113 50
0 98 62 98 127 0 41 -61 163 -99 198 -18 17 -48 51 -67 76 -19 26 -40 49 -47
52 -6 2 -36 -2 -65 -9z"/>
<path d="M3474 4150 c-25 -10 -68 -64 -79 -98 -6 -20 3 -34 57 -86 72 -70 95
-80 134 -60 14 8 35 14 46 14 24 0 69 -50 84 -92 12 -35 19 -40 84 -58 92 -24
100 -24 127 1 46 44 53 68 44 157 -9 83 -23 116 -68 158 -21 19 -31 21 -88 16
-51 -4 -75 0 -112 16 -27 11 -79 23 -117 27 -38 4 -74 8 -80 10 -6 2 -21 0
-32 -5z"/>
<path d="M4506 4141 c-29 -32 -17 -56 30 -59 47 -3 59 11 40 49 -15 31 -47 35
-70 10z"/>
<path d="M663 4134 c-8 -22 9 -35 56 -41 36 -5 41 -3 41 14 0 35 -84 59 -97
27z"/>
<path d="M643 3840 c-45 -20 -113 -97 -113 -128 0 -11 -11 -33 -23 -48 -21
-24 -33 -28 -106 -33 -95 -7 -105 -15 -150 -111 -27 -58 -39 -160 -27 -224 4
-19 35 -76 69 -128 35 -52 75 -128 92 -173 31 -86 97 -212 145 -278 27 -36 30
-49 30 -112 0 -80 8 -95 61 -120 21 -9 68 -43 105 -76 38 -32 94 -72 124 -88
78 -41 229 -91 271 -89 46 2 55 -5 69 -48 19 -56 4 -122 -36 -162 -31 -31 -37
-33 -76 -27 -66 11 -147 44 -158 65 -5 10 -33 31 -62 48 -58 33 -143 111 -231
215 -58 67 -87 83 -87 48 0 -39 30 -100 105 -211 132 -196 180 -254 308 -371
68 -63 136 -134 152 -159 28 -42 30 -51 37 -203 4 -87 14 -184 22 -215 8 -32
24 -100 36 -153 15 -72 32 -115 67 -175 74 -127 85 -152 90 -202 8 -86 10 -88
104 -154 120 -83 196 -130 239 -148 43 -17 107 -57 140 -87 14 -12 44 -29 67
-37 48 -17 283 -34 283 -20 -1 5 -31 23 -67 39 -273 123 -432 232 -575 395
-124 142 -191 255 -233 395 -37 123 -42 146 -55 257 -16 124 1 337 35 448 13
41 31 104 40 140 10 36 32 97 51 135 18 39 40 93 48 121 8 27 18 58 22 67 4
13 1 17 -15 17 -14 0 -25 9 -31 26 -17 42 -11 173 10 249 11 39 30 109 43 157
16 59 36 103 62 140 26 36 39 64 39 86 0 38 -19 55 -46 41 -20 -11 -104 -137
-126 -189 -20 -49 -111 -159 -147 -178 -16 -9 -55 -19 -85 -23 -30 -5 -70 -11
-87 -15 -24 -5 -33 -3 -34 7 -2 42 -14 67 -55 122 -39 52 -45 66 -39 92 4 16
8 55 8 85 2 65 -3 67 -101 25 -93 -39 -96 -35 -89 86 5 83 14 124 51 232 25
73 51 157 59 187 8 30 22 72 31 92 15 34 15 38 0 50 -50 41 -172 156 -186 178
-14 20 -17 37 -12 86 8 73 -2 81 -63 54z"/>
<path d="M4547 3797 l6 -64 -30 -6 c-31 -6 -43 -27 -43 -73 0 -25 -33 -56 -78
-74 -41 -16 -72 -59 -72 -101 0 -18 15 -59 35 -95 22 -38 41 -91 50 -138 7
-42 24 -97 35 -123 22 -48 45 -228 34 -258 -13 -33 -90 -12 -135 36 -21 22
-36 30 -56 27 l-28 -3 -1 -143 c-1 -121 -4 -146 -19 -162 -10 -11 -26 -20 -36
-20 -21 0 -35 -18 -31 -41 4 -22 -71 -24 -116 -3 -30 14 -35 14 -59 -1 -39
-26 -66 -8 -105 72 -55 110 -213 303 -249 303 -9 0 -22 -7 -29 -15 -9 -11 0
-37 49 -132 90 -174 141 -327 141 -420 0 -35 5 -74 11 -85 18 -34 -4 -44 -41
-18 -41 29 -110 39 -110 16 0 -9 23 -60 50 -114 28 -53 59 -124 69 -157 11
-33 33 -89 49 -125 81 -176 95 -561 28 -770 -28 -88 -113 -266 -158 -330 -93
-132 -292 -312 -414 -373 -27 -14 -56 -32 -62 -40 -7 -8 -27 -20 -45 -27 -18
-7 -54 -23 -82 -36 -27 -12 -72 -33 -100 -45 -47 -20 -49 -22 -25 -29 44 -14
177 -11 247 6 70 16 162 63 269 137 34 23 74 50 90 59 16 10 76 51 133 90
l104 73 26 75 c15 41 50 118 79 170 116 208 182 447 182 663 0 53 6 100 14
120 8 18 73 90 146 161 140 137 196 203 289 346 104 158 142 259 99 268 -12 2
-31 -18 -62 -65 -77 -118 -202 -226 -335 -292 -113 -55 -128 -58 -170 -36 -34
17 -39 27 -47 110 -8 74 0 90 49 100 39 8 57 14 177 61 101 40 161 76 250 150
30 25 73 54 96 64 48 21 54 33 54 106 0 49 5 63 49 127 53 79 111 190 131 251
22 69 77 180 103 212 34 40 67 117 67 155 0 45 -30 169 -51 211 -10 20 -35 49
-55 64 -32 25 -39 26 -68 16 -18 -7 -41 -12 -52 -12 -26 0 -58 35 -72 78 -23
69 -122 162 -171 162 -6 0 -8 -24 -4 -63z"/>
<path d="M3165 3541 c-3 -5 -1 -31 5 -57 8 -35 8 -55 0 -75 -15 -36 -57 -53
-94 -39 -15 5 -77 9 -136 8 -121 -3 -143 6 -155 66 -12 59 -16 66 -39 66 -27
0 -110 -82 -126 -125 -7 -16 -18 -59 -25 -95 -14 -63 -14 -66 18 -158 26 -79
39 -102 84 -148 63 -66 130 -98 237 -114 83 -12 119 -9 201 17 147 47 245 194
245 369 0 88 -60 207 -129 258 -49 36 -75 44 -86 27z"/>
<path d="M2033 3190 c-27 -11 -38 -32 -47 -88 -9 -63 8 -113 60 -171 56 -62
96 -76 185 -62 63 10 86 22 128 61 55 53 77 160 46 220 -20 38 -56 40 -107 5
-20 -14 -48 -25 -61 -25 -38 0 -114 26 -143 49 -30 23 -30 23 -61 11z"/>
</g>
</svg>
