<?xml version="1.0" standalone="no"?>
<!DOCTYPE svg PUBLIC "-//W3C//DTD SVG 20010904//EN"
 "http://www.w3.org/TR/2001/REC-SVG-20010904/DTD/svg10.dtd">
<svg version="1.0" xmlns="http://www.w3.org/2000/svg"
 width="512.000000pt" height="512.000000pt" viewBox="0 0 512.000000 512.000000"
 preserveAspectRatio="xMidYMid meet">
<metadata>
Created by potrace 1.14, written by Peter Selinger 2001-2017
</metadata>
<g transform="translate(0.000000,512.000000) scale(0.100000,-0.100000)"
fill="#000000" stroke="none">
<path d="M2780 4043 c-23 -10 -75 -16 -150 -19 -138 -4 -166 -9 -227 -35 -129
-55 -224 -193 -229 -333 -2 -40 3 -96 10 -123 15 -56 69 -145 112 -184 171
-156 434 -131 574 54 54 71 75 137 75 238 0 79 -3 91 -38 163 -29 59 -36 80
-27 90 17 22 23 108 8 136 -16 31 -58 36 -108 13z m27 -132 c-27 -29 -26 -42
10 -85 58 -70 81 -194 53 -283 -54 -169 -230 -266 -396 -218 -118 34 -206 129
-229 247 -29 144 43 287 180 353 45 23 69 27 176 31 68 2 147 10 174 17 49 12
50 12 53 -12 2 -14 -6 -33 -21 -50z"/>
<path d="M2265 3186 c-108 -26 -208 -104 -250 -193 -37 -78 -41 -121 -40 -469
1 -333 2 -341 23 -376 30 -48 90 -78 145 -71 23 2 47 9 54 15 11 8 13 -77 13
-433 0 -411 2 -447 19 -484 36 -77 93 -115 173 -115 51 0 119 29 140 59 l15
21 19 -21 c28 -32 93 -59 142 -59 72 0 133 36 168 101 18 32 19 66 22 487 l3
452 27 -14 c44 -22 122 -9 157 28 6 6 19 25 30 41 18 28 19 51 20 355 0 179
-3 349 -7 378 -22 143 -130 258 -281 298 -66 17 -522 18 -592 0z m565 -61 c94
-20 180 -87 222 -172 23 -47 23 -53 25 -402 l1 -354 -28 -29 c-37 -36 -78 -37
-114 -2 l-26 27 0 327 c0 287 -2 329 -16 341 -11 9 -20 10 -32 2 -16 -9 -17
-76 -18 -825 -1 -735 -3 -817 -18 -846 -22 -43 -58 -65 -107 -65 -55 0 -85 19
-108 67 -18 38 -19 66 -17 446 1 223 -2 413 -7 423 -9 19 -42 23 -53 6 -4 -7
-8 -201 -8 -433 -1 -322 -5 -427 -15 -447 -28 -56 -122 -80 -175 -45 -60 39
-57 2 -57 892 0 805 0 814 -20 825 -15 7 -24 7 -35 -2 -12 -9 -14 -66 -14
-339 l0 -327 -25 -27 c-33 -35 -78 -35 -114 2 l-28 27 2 345 c0 190 5 358 10
375 32 111 140 199 262 211 32 4 59 7 60 8 7 6 425 -3 453 -9z"/>
</g>
</svg>
