<?xml version="1.0" standalone="no"?>
<!DOCTYPE svg PUBLIC "-//W3C//DTD SVG 20010904//EN"
 "http://www.w3.org/TR/2001/REC-SVG-20010904/DTD/svg10.dtd">
<svg version="1.0" xmlns="http://www.w3.org/2000/svg"
 width="600.000000pt" height="600.000000pt" viewBox="0 0 600.000000 600.000000"
 preserveAspectRatio="xMidYMid meet">
<metadata>
Created by potrace 1.14, written by Peter Selinger 2001-2017
</metadata>
<g transform="translate(0.000000,600.000000) scale(0.100000,-0.100000)"
fill="#000000" stroke="none">
<path d="M2889 5042 c-291 -176 -559 -441 -741 -734 -111 -179 -211 -413 -263
-617 -40 -155 -76 -397 -59 -390 5 2 68 33 140 69 l132 65 12 65 c85 442 327
855 667 1138 146 121 212 163 235 151 57 -30 237 -177 324 -264 280 -279 463
-627 546 -1038 20 -97 23 -143 23 -347 0 -245 -6 -301 -51 -481 -106 -429
-368 -828 -711 -1086 -40 -31 -73 -59 -73 -64 0 -5 56 -36 124 -70 l125 -62
36 27 c66 51 226 209 301 298 339 404 518 900 517 1433 0 209 -18 356 -68 550
-45 174 -84 279 -165 443 -189 380 -474 692 -838 913 -53 33 -101 59 -107 59
-5 0 -53 -26 -106 -58z"/>
<path d="M2821 3539 c-590 -45 -1153 -335 -1533 -789 -239 -285 -405 -629
-478 -989 -30 -146 -59 -456 -47 -502 11 -43 239 -158 467 -237 245 -84 439
-115 715 -115 213 0 335 14 521 58 165 39 433 137 441 162 2 5 -9 15 -24 22
-16 7 -73 43 -129 81 -101 67 -101 68 -135 53 -119 -50 -358 -99 -546 -112
-319 -22 -670 43 -959 178 l-87 41 7 89 c38 510 296 1009 691 1340 362 303
796 461 1262 461 285 0 513 -44 761 -146 45 -19 85 -34 88 -34 4 0 5 61 2 136
-4 119 -7 139 -23 151 -34 24 -256 91 -390 117 -130 25 -355 47 -449 45 -28
-1 -98 -5 -155 -10z"/>
<path d="M4250 3134 c0 -16 -5 -87 -10 -157 l-9 -129 32 -26 c258 -212 480
-538 595 -873 56 -161 102 -399 102 -522 l0 -38 -92 -43 c-586 -273 -1306
-230 -1855 112 -254 158 -487 390 -643 640 -134 216 -236 495 -270 737 -6 44
-13 94 -16 112 l-5 32 -52 -31 c-122 -71 -187 -122 -187 -146 0 -45 42 -227
81 -348 114 -357 307 -666 580 -929 335 -323 766 -533 1234 -601 160 -24 467
-23 620 0 290 45 556 135 787 267 l88 51 0 51 c0 229 -51 532 -126 747 -152
442 -420 800 -816 1095 l-38 27 0 -28z"/>
</g>
</svg>
