<?xml version="1.0" standalone="no"?>
<!DOCTYPE svg PUBLIC "-//W3C//DTD SVG 20010904//EN"
 "http://www.w3.org/TR/2001/REC-SVG-20010904/DTD/svg10.dtd">
<svg version="1.0" xmlns="http://www.w3.org/2000/svg"
 width="551.000000pt" height="551.000000pt" viewBox="0 0 551.000000 551.000000"
 preserveAspectRatio="xMidYMid meet">
<metadata>
Created by potrace 1.14, written by Peter Selinger 2001-2017
</metadata>
<g transform="translate(0.000000,551.000000) scale(0.100000,-0.100000)"
fill="#000000" stroke="none">
<path d="M0 2755 l0 -2755 2755 0 2755 0 0 2755 0 2755 -2755 0 -2755 0 0
-2755z m2968 2194 c147 -16 323 -54 462 -99 126 -42 343 -140 434 -197 l49
-31 56 29 c198 104 429 66 577 -93 97 -105 128 -196 122 -352 -3 -92 -7 -108
-42 -182 l-38 -81 32 -53 c149 -252 245 -526 286 -819 20 -140 23 -426 5 -561
-87 -668 -452 -1240 -1016 -1595 -100 -63 -313 -170 -322 -161 -3 3 -12 -1
-19 -9 -8 -8 -21 -12 -29 -9 -8 4 -15 1 -15 -6 0 -10 -3 -10 -15 0 -12 10 -16
9 -21 -4 -6 -15 -8 -15 -18 -1 -8 12 -38 16 -131 19 -89 3 -100 2 -40 -3 68
-6 74 -7 40 -12 -22 -3 -2 -4 45 -1 68 3 83 2 73 -8 -13 -14 -13 -14 -240 -5
-90 4 -163 10 -163 14 0 13 -312 43 -400 39 -80 -4 -78 -4 40 -8 l125 -4 -80
-7 c-65 -5 -57 -6 38 -3 83 3 117 1 117 -8 0 -11 -70 -9 -440 11 -125 7 -125
7 -40 10 74 3 61 5 -105 17 -104 8 -230 12 -278 11 -48 -2 -90 0 -93 5 -3 5
-28 8 -54 7 -27 -2 -47 -6 -44 -10 2 -4 -7 -2 -20 4 -13 7 -22 16 -19 21 3 5
0 6 -8 4 -15 -6 -74 22 -164 76 l-58 35 -38 -24 c-73 -47 -146 -64 -259 -62
-99 2 -110 4 -184 40 -244 116 -342 403 -221 645 l33 66 -44 76 c-294 511
-372 1124 -213 1694 124 448 402 864 758 1135 340 259 723 410 1151 454 81 8
338 6 428 -4z m-1089 -4175 c-8 -10 -15 -12 -17 -5 -2 6 -8 9 -13 5 -5 -3 -9
0 -9 5 0 6 12 11 26 11 23 0 25 -2 13 -16z m79 2 c12 2 22 0 22 -5 0 -7 -22
-7 -62 -2 -5 1 -8 6 -8 12 0 8 4 8 13 1 6 -5 22 -8 35 -6z m223 -6 c33 0 59
-4 59 -10 0 -6 -33 -10 -80 -10 -52 0 -80 4 -80 11 0 7 -17 10 -44 8 -24 -2
-42 0 -39 5 3 5 33 6 66 2 33 -3 86 -6 118 -6z"/>
<path d="M2550 4699 c-467 -46 -907 -262 -1223 -598 -144 -154 -247 -305 -337
-494 -229 -482 -252 -1028 -65 -1532 33 -89 134 -297 154 -318 5 -5 34 -1 66
8 42 13 85 16 160 13 94 -3 108 -6 177 -41 111 -55 199 -151 241 -266 27 -72
29 -243 4 -308 l-16 -42 59 -36 c95 -58 240 -123 367 -164 618 -203 1292 -82
1805 326 37 29 69 57 72 61 3 5 -77 90 -178 191 l-183 183 -66 -51 c-150 -113
-342 -202 -533 -247 -160 -37 -386 -44 -549 -16 -212 37 -412 117 -583 234
-106 73 -285 254 -359 363 -170 252 -246 501 -246 805 0 244 43 430 148 640
139 277 360 496 640 635 211 105 387 145 636 145 303 0 542 -73 797 -243 302
-201 514 -519 594 -890 29 -135 32 -415 5 -550 -41 -202 -125 -399 -242 -562
l-65 -90 183 -183 182 -183 31 36 c115 131 257 377 327 565 65 176 108 387
122 600 13 195 -30 495 -101 708 -38 114 -138 332 -170 369 -19 22 -20 23 -69
7 -74 -22 -215 -20 -289 6 -197 68 -327 251 -326 459 0 38 12 104 31 170 3 8
-26 30 -76 58 -187 105 -426 186 -642 218 -133 20 -360 27 -483 14z"/>
<path d="M4129 4446 c-160 -57 -209 -254 -91 -369 115 -112 294 -83 362 58 43
89 21 196 -56 264 -64 56 -142 73 -215 47z"/>
<path d="M2508 3920 c-117 -24 -176 -44 -283 -95 -86 -41 -215 -126 -215 -143
0 -4 84 -91 188 -194 l187 -187 70 34 c108 53 181 68 310 63 133 -6 220 -33
324 -102 92 -62 161 -140 211 -241 174 -350 -4 -770 -375 -888 -102 -32 -281
-31 -380 1 -105 35 -172 77 -256 161 -125 124 -181 266 -180 451 0 106 13 162
59 262 l35 78 -180 187 c-99 104 -187 189 -194 191 -15 3 -98 -116 -142 -203
-138 -276 -159 -617 -56 -913 62 -176 150 -311 296 -453 98 -95 178 -152 292
-209 271 -136 600 -158 893 -60 610 205 942 872 738 1482 -135 404 -491 711
-908 783 -118 21 -325 18 -434 -5z"/>
<path d="M2613 3132 c-152 -54 -253 -195 -255 -352 -1 -161 80 -288 229 -358
50 -23 71 -27 153 -27 88 0 101 3 162 33 83 41 158 119 189 200 18 43 23 77
23 142 0 109 -26 179 -95 255 -74 81 -156 118 -268 122 -65 3 -99 -1 -138 -15z"/>
<path d="M1185 1516 c-87 -40 -135 -115 -135 -208 1 -69 27 -125 79 -170 149
-128 375 -24 374 172 0 95 -63 184 -151 215 -63 21 -109 19 -167 -9z"/>
<path d="M3525 761 c-3 -5 -2 -12 3 -15 5 -3 9 1 9 9 0 17 -3 19 -12 6z"/>
<path d="M3005 750 c28 -5 66 -8 85 -8 28 1 25 2 -15 8 -27 5 -66 8 -85 8 -28
-1 -25 -2 15 -8z"/>
</g>
</svg>
