<?xml version="1.0" standalone="no"?>
<!DOCTYPE svg PUBLIC "-//W3C//DTD SVG 20010904//EN"
 "http://www.w3.org/TR/2001/REC-SVG-20010904/DTD/svg10.dtd">
<svg version="1.0" xmlns="http://www.w3.org/2000/svg"
 width="512.000000pt" height="512.000000pt" viewBox="0 0 512.000000 512.000000"
 preserveAspectRatio="xMidYMid meet">
<metadata>
Created by potrace 1.14, written by Peter Selinger 2001-2017
</metadata>
<g transform="translate(0.000000,512.000000) scale(0.100000,-0.100000)"
fill="#000000" stroke="none">
<path d="M2602 5073 c-11 -10 -35 -46 -52 -81 -18 -34 -36 -65 -41 -68 -5 -3
-9 -12 -9 -20 0 -34 -139 -131 -148 -103 -3 6 -8 6 -15 0 -7 -5 -29 -12 -49
-15 -21 -3 -55 -9 -75 -12 -21 -3 -48 -12 -60 -20 -31 -20 -20 -44 56 -124 84
-88 86 -91 103 -125 22 -42 15 -79 -22 -115 -17 -16 -28 -30 -25 -30 3 0 -6
-12 -19 -27 -32 -37 -53 -61 -100 -118 -57 -67 -165 -175 -176 -175 -6 0 -9
-3 -7 -7 1 -5 -1 -8 -4 -8 -9 0 -74 -75 -72 -83 0 -4 -3 -15 -8 -24 -6 -10 -5
-19 1 -23 6 -4 8 -11 5 -16 -4 -5 -3 -9 2 -9 4 0 16 -7 26 -14 17 -13 17 -15
-6 -40 -37 -40 -39 -70 -7 -106 15 -16 29 -27 33 -24 3 3 12 0 20 -7 12 -12
-1 -29 -92 -119 -59 -58 -128 -125 -155 -149 -41 -38 -64 -82 -56 -107 1 -4
-4 -11 -12 -15 -10 -7 -10 -9 0 -9 6 0 12 -4 12 -10 0 -16 35 -47 48 -42 7 2
12 -1 12 -7 0 -6 9 -11 20 -11 11 0 20 -5 20 -11 0 -5 5 -7 10 -4 6 3 10 3 10
-2 -1 -11 -26 -43 -35 -43 -11 0 -65 -60 -81 -92 -15 -29 -13 -71 6 -93 9 -10
0 -23 -37 -58 -26 -24 -73 -67 -103 -96 -30 -28 -59 -51 -63 -51 -5 0 -5 -4
-2 -10 3 -5 1 -10 -5 -10 -9 0 -36 -53 -28 -56 2 0 -2 -7 -8 -15 -13 -16 -10
-43 7 -76 14 -26 124 -83 160 -83 21 0 13 -11 -51 -73 -75 -72 -122 -128 -119
-144 1 -4 0 -12 -1 -18 -1 -5 -1 -24 0 -42 1 -28 -9 -41 -76 -105 -43 -40
-111 -104 -151 -142 -156 -148 -159 -253 -8 -325 l56 -27 -26 -29 c-28 -33
-54 -86 -61 -125 -8 -53 -11 -60 -27 -78 -9 -10 -17 -24 -17 -31 0 -7 -4 -9
-10 -6 -5 3 -10 0 -10 -7 0 -7 -32 -42 -71 -78 -40 -36 -99 -91 -132 -122 -34
-32 -64 -58 -68 -58 -4 0 -11 -9 -14 -20 -3 -11 -11 -20 -16 -20 -5 0 -9 -7
-9 -15 0 -8 -4 -15 -8 -15 -12 0 -50 -80 -55 -115 -15 -107 89 -184 273 -201
78 -7 330 -2 330 6 0 3 17 5 38 6 34 1 106 8 177 17 17 3 55 7 86 11 31 4 66
8 76 10 20 4 108 16 153 21 24 3 91 11 155 20 17 2 59 7 93 11 l64 6 -7 -73
c-4 -41 -8 -81 -10 -89 -2 -13 -6 -46 -20 -200 -5 -51 13 -138 38 -183 12 -22
26 -48 32 -58 5 -11 12 -19 16 -19 3 0 19 -12 35 -26 37 -32 80 -55 88 -47 3
4 6 1 6 -5 0 -7 8 -12 18 -12 10 0 22 -4 28 -9 5 -5 27 -12 49 -16 22 -3 51
-8 65 -10 57 -11 258 -5 315 9 118 28 140 35 143 45 2 6 8 11 12 11 5 0 26 11
46 25 20 14 33 25 28 25 -5 0 4 9 19 19 16 10 28 22 28 27 -1 5 5 16 13 25 8
9 17 31 21 48 4 17 10 31 14 31 3 0 6 18 5 40 0 23 3 43 8 46 5 3 4 12 -3 20
-9 11 -9 14 0 14 7 0 9 5 6 10 -7 12 -14 57 -20 135 -2 28 -6 64 -9 80 -3 17
-7 54 -11 83 l-5 54 62 -7 c64 -6 108 -11 176 -20 20 -2 57 -7 81 -10 23 -3
55 -7 70 -9 14 -3 44 -7 66 -10 81 -11 140 -19 160 -21 11 -1 20 -3 20 -4 0
-1 27 -4 60 -7 77 -6 120 -11 120 -14 0 -4 282 -14 295 -10 3 1 30 3 60 5 175
11 280 80 280 184 0 43 -54 141 -108 196 -42 43 -199 189 -237 220 -7 6 -30
35 -52 65 -22 30 -82 97 -134 148 -59 58 -87 92 -76 92 25 0 23 0 67 15 22 8
41 14 43 14 14 -2 64 27 95 55 34 31 39 41 41 86 1 38 -3 58 -18 79 -12 16
-21 32 -21 35 0 8 -71 78 -209 205 -97 89 -102 96 -97 126 9 48 -19 102 -84
167 -32 31 -60 54 -63 52 -3 -3 -8 4 -12 15 -3 12 -13 21 -21 21 -8 0 -14 5
-14 10 0 6 9 10 19 10 42 0 141 52 161 85 25 41 25 56 -1 108 -22 43 -39 60
-129 137 -29 25 -67 61 -86 80 -28 29 -31 37 -20 50 17 19 27 60 15 60 -5 0
-8 3 -7 8 3 15 -22 63 -36 68 -9 3 -18 14 -21 25 -4 11 -10 17 -14 15 -4 -3
-20 7 -35 23 -14 15 -21 28 -14 28 22 0 92 36 111 57 37 41 12 112 -64 176
-69 58 -239 228 -239 238 0 11 30 27 59 31 5 0 14 15 20 33 10 28 8 36 -14 70
l-26 39 22 23 c25 26 34 62 19 71 -6 4 -7 11 -4 17 4 6 2 8 -4 4 -6 -3 -13 2
-17 12 -3 11 -27 37 -52 58 -83 69 -160 152 -282 304 -46 58 -88 107 -92 108
-5 2 -9 10 -9 18 0 31 34 78 116 162 83 85 91 97 76 118 -8 12 -43 28 -55 26
-4 -1 -28 3 -55 9 -26 6 -62 12 -80 15 -42 5 -91 26 -118 50 -23 21 -105 160
-98 167 3 2 -2 10 -11 17 -8 7 -15 18 -15 25 0 12 -31 45 -42 45 -3 0 -15 -8
-26 -17z"/>
</g>
</svg>
