<?xml version="1.0" standalone="no"?>
<!DOCTYPE svg PUBLIC "-//W3C//DTD SVG 20010904//EN"
 "http://www.w3.org/TR/2001/REC-SVG-20010904/DTD/svg10.dtd">
<svg version="1.0" xmlns="http://www.w3.org/2000/svg"
 width="120.000000pt" height="120.000000pt" viewBox="0 0 120.000000 120.000000"
 preserveAspectRatio="xMidYMid meet">
<metadata>
Created by potrace 1.14, written by Peter Selinger 2001-2017
</metadata>
<g transform="translate(0.000000,120.000000) scale(0.100000,-0.100000)"
fill="#000000" stroke="none">
<path d="M1101 1007 c-5 -13 -21 -32 -36 -41 -25 -16 -27 -22 -21 -61 5 -40 3
-44 -17 -47 -18 -2 -22 -10 -23 -38 l-2 -35 5 33 c4 32 18 43 26 20 3 -10 8
-10 23 1 10 8 7 2 -8 -13 -16 -15 -28 -37 -28 -49 0 -18 -2 -19 -10 -7 -7 11
-8 7 -4 -15 5 -27 0 -34 -52 -75 -31 -25 -62 -53 -68 -62 -14 -20 -201 -110
-210 -101 -18 18 -4 41 28 47 19 4 45 15 58 26 23 19 22 19 -17 0 -22 -11 -74
-23 -116 -28 -73 -8 -77 -7 -77 13 0 11 -40 81 -89 155 l-90 135 158 55 c87
30 155 58 152 63 -12 20 -77 37 -140 37 -83 0 -184 -34 -260 -86 -52 -35 -54
-36 -73 -19 -12 11 -35 18 -60 18 -22 0 -45 6 -51 13 -12 15 -40 18 -76 8 -18
-5 -23 -14 -23 -41 0 -30 5 -36 31 -46 21 -8 29 -17 26 -29 -3 -11 7 -25 28
-40 19 -12 32 -25 30 -29 -3 -3 7 -4 20 -1 20 3 25 0 25 -15 0 -10 -6 -25 -13
-33 -10 -12 -9 -12 5 -2 14 11 19 6 43 -45 14 -32 49 -81 77 -109 l50 -52 -31
-7 c-17 -3 -41 -3 -53 0 l-23 7 24 -26 c14 -14 23 -27 20 -29 -2 -2 -35 -12
-72 -22 -38 -10 -82 -29 -99 -43 -34 -29 -88 -99 -88 -115 0 -6 13 8 29 29 64
88 107 111 251 139 41 8 98 20 127 25 59 13 102 0 140 -41 25 -28 60 -102 65
-139 l3 -25 -115 -2 c-85 -2 -110 0 -97 8 10 6 32 7 49 4 21 -5 28 -4 24 4 -4
6 -2 11 3 11 6 0 11 4 11 9 0 5 -22 3 -49 -4 -27 -7 -87 -16 -133 -20 -81 -7
-84 -8 -145 -59 -34 -28 -62 -54 -62 -59 -1 -4 29 17 66 48 63 51 70 55 120
55 l54 0 -2 -59 c-2 -56 -5 -62 -45 -102 -24 -24 -44 -47 -44 -51 0 -4 10 -16
22 -28 17 -16 35 -20 84 -20 81 0 121 9 129 28 8 22 2 24 -49 11 -26 -6 -49
-9 -53 -6 -6 7 -1 9 70 27 27 7 47 18 47 26 0 18 -13 17 -74 -1 -46 -14 -49
-14 -67 8 -10 12 -18 25 -19 30 0 14 18 7 31 -14 14 -21 15 -21 81 -3 71 19
79 18 143 -25 l31 -20 53 24 c71 33 77 31 16 -5 -61 -36 -71 -37 -117 -5 -43
29 -54 31 -61 10 -4 -9 12 -27 44 -51 55 -40 53 -41 136 11 24 14 43 22 43 17
0 -6 -19 -22 -42 -36 l-43 -25 58 1 c47 0 55 3 46 14 -8 10 -7 40 5 114 9 55
16 124 16 153 l0 52 76 40 c41 21 80 46 87 54 10 13 8 13 -13 0 -51 -33 -141
-81 -143 -78 -2 2 -13 25 -26 52 -13 28 -34 53 -52 62 -16 9 -29 19 -29 23 0
5 37 27 83 49 l82 41 6 -34 c6 -35 43 -84 63 -84 6 0 3 5 -7 11 -21 12 -47 61
-47 87 0 11 33 51 76 92 75 71 77 72 93 53 9 -12 27 -26 41 -32 24 -11 24 -11
5 3 -36 28 -45 37 -45 47 0 5 13 0 29 -12 29 -21 79 -27 120 -14 20 6 21 13
21 136 l0 130 -29 17 c-17 9 -32 25 -35 34 -6 25 -25 22 -35 -5z m9 -41 c0 -3
-4 -8 -10 -11 -5 -3 -10 -1 -10 4 0 6 5 11 10 11 6 0 10 -2 10 -4z m10 -110
c0 -3 -4 -8 -10 -11 -5 -3 -10 -1 -10 4 0 6 5 11 10 11 6 0 10 -2 10 -4z
m-710 -155 c0 -5 -6 -12 -12 -14 -8 -3 -6 -6 5 -6 9 -1 17 -9 17 -18 0 -14 -4
-12 -25 7 -19 18 -22 26 -13 32 17 10 28 10 28 -1z m44 -57 c8 -22 8 -24 -7
-24 -7 0 -13 9 -13 20 0 24 11 26 20 4z m206 -122 l0 -28 -72 6 c-40 4 -84 13
-98 21 -24 13 -22 14 45 20 134 11 125 12 125 -19z m-247 -39 c-7 -2 -21 -2
-30 0 -10 3 -4 5 12 5 17 0 24 -2 18 -5z m211 -18 c9 -14 14 -25 12 -25 -3 0
-22 11 -42 25 -35 24 -35 25 -12 25 16 0 32 -9 42 -25z m11 -43 c41 -31 52
-47 67 -92 9 -30 17 -68 16 -85 0 -21 -2 -24 -5 -10 -3 11 -11 29 -19 39 -7
11 -11 31 -7 47 3 16 1 29 -4 29 -14 0 -91 68 -103 91 -16 28 -1 23 55 -19z
m89 -37 c10 -8 22 -12 27 -9 25 15 21 -204 -4 -224 -9 -8 -12 8 -13 61 -1 46
-9 92 -23 127 -11 30 -21 56 -21 58 0 6 17 0 34 -13z m-391 -300 c8 -8 16 -12
19 -10 2 2 4 -5 5 -15 1 -11 -2 -20 -6 -20 -8 0 -33 26 -45 48 -10 17 9 15 27
-3z m-8 -73 c-9 -9 -55 40 -48 51 4 6 16 -2 30 -18 13 -15 22 -30 18 -33z"/>
<path d="M727 915 c9 -19 18 -33 21 -31 4 5 -26 66 -33 66 -3 0 3 -16 12 -35z"/>
<path d="M678 893 c-27 -6 -22 -21 13 -42 l31 -19 -53 -9 c-39 -7 -58 -6 -69
2 -16 13 -37 9 -57 -11 -11 -10 -9 -14 6 -19 11 -3 27 -17 36 -31 25 -38 57
-46 113 -28 26 9 48 17 50 19 1 1 -2 15 -8 30 -6 16 -8 36 -5 44 5 13 9 11 21
-9 9 -14 13 -17 10 -7 -3 10 -6 28 -6 40 0 16 -3 18 -9 9 -7 -11 -13 -9 -32
10 -13 14 -32 23 -41 21z m-8 -103 c17 -6 19 -8 7 -9 -15 -1 -16 -5 -7 -21 10
-18 8 -20 -23 -20 -18 0 -38 5 -45 12 -34 34 8 57 68 38z"/>
<path d="M5 810 c-3 -5 -2 -10 4 -10 5 0 13 5 16 10 3 6 2 10 -4 10 -5 0 -13
-4 -16 -10z"/>
<path d="M786 787 c3 -10 9 -15 12 -12 3 3 0 11 -7 18 -10 9 -11 8 -5 -6z"/>
<path d="M781 737 c-13 -21 -12 -21 5 -5 10 10 16 20 13 22 -3 3 -11 -5 -18
-17z"/>
<path d="M5 709 c-4 -6 -5 -12 -2 -15 2 -3 7 2 10 11 7 17 1 20 -8 4z"/>
<path d="M1174 675 c-10 -8 -32 -15 -49 -16 -24 -1 -25 -3 -7 -6 22 -4 22 -5
-10 -51 -18 -26 -52 -69 -77 -95 -24 -26 -37 -45 -28 -42 8 4 42 41 74 83 69
90 94 117 114 124 8 3 11 8 8 12 -3 3 -14 -1 -25 -9z"/>
<path d="M99 653 c-13 -16 -12 -17 4 -4 9 7 17 15 17 17 0 8 -8 3 -21 -13z"/>
<path d="M776 645 c4 -8 8 -15 10 -15 2 0 4 7 4 15 0 8 -4 15 -10 15 -5 0 -7
-7 -4 -15z"/>
<path d="M18 643 c12 -2 30 -2 40 0 9 3 -1 5 -23 4 -22 0 -30 -2 -17 -4z"/>
<path d="M84 118 c-5 -13 -7 -26 -6 -30 3 -13 -15 -9 -27 6 -6 8 -22 16 -34
20 -18 4 -17 2 8 -19 17 -13 40 -23 52 -22 17 1 21 8 21 34 0 39 -4 41 -14 11z"/>
<path d="M506 34 c-9 -25 2 -34 42 -34 35 1 36 1 17 16 -40 31 -53 35 -59 18z"/>
<path d="M225 20 c-18 -20 -17 -20 15 -20 29 0 31 2 19 18 -7 9 -14 18 -15 20
0 1 -9 -7 -19 -18z"/>
</g>
</svg>
