<?xml version="1.0" standalone="no"?>
<!DOCTYPE svg PUBLIC "-//W3C//DTD SVG 20010904//EN"
 "http://www.w3.org/TR/2001/REC-SVG-20010904/DTD/svg10.dtd">
<svg version="1.0" xmlns="http://www.w3.org/2000/svg"
 width="984.000000pt" height="984.000000pt" viewBox="0 0 984.000000 984.000000"
 preserveAspectRatio="xMidYMid meet">
<metadata>
Created by potrace 1.14, written by Peter Selinger 2001-2017
</metadata>
<g transform="translate(0.000000,984.000000) scale(0.100000,-0.100000)"
fill="#000000" stroke="none">
<path d="M5095 9826 c-86 -28 -132 -63 -179 -136 -50 -77 -49 -65 -61 -642 -3
-177 -2 -269 5 -273 6 -4 8 -10 5 -15 -10 -15 44 -109 83 -146 40 -38 112 -77
152 -81 51 -7 146 -2 158 7 1 2 5 3 10 4 60 13 139 85 177 161 23 44 28 67 29
138 0 47 3 84 6 82 3 -2 6 67 7 153 0 87 2 238 4 337 2 175 1 182 -24 235 -38
82 -127 162 -197 177 -50 11 -140 11 -175 -1z"/>
<path d="M1645 8902 c-3 -3 -13 -7 -23 -8 -101 -13 -191 -83 -235 -183 -21
-47 -32 -176 -17 -196 4 -5 11 -24 14 -40 6 -28 22 -51 74 -110 9 -11 68 -67
131 -125 62 -58 132 -123 156 -145 246 -233 296 -270 375 -280 25 -4 57 -8 72
-10 15 -2 29 0 33 3 3 3 16 7 28 9 12 2 41 13 64 24 146 71 210 238 152 395
-23 61 -71 114 -284 309 -54 50 -117 108 -141 130 -184 175 -231 209 -310 220
-22 3 -49 7 -61 9 -12 2 -25 1 -28 -2z"/>
<path d="M7993 8727 c-76 -27 -124 -66 -170 -137 -20 -30 -40 -56 -45 -58 -4
-2 -8 -7 -8 -11 0 -6 -86 -137 -232 -355 -7 -10 -21 -29 -30 -41 -10 -13 -18
-28 -18 -34 0 -6 -3 -11 -8 -11 -4 0 -19 -21 -32 -47 -14 -27 -29 -51 -35 -55
-5 -4 -7 -8 -3 -8 4 0 3 -11 -2 -25 -21 -56 -12 -158 20 -221 35 -67 126 -154
144 -137 3 3 6 1 6 -5 0 -7 8 -12 18 -12 10 0 22 -3 26 -7 9 -10 33 -13 89
-14 54 0 74 5 136 32 37 17 131 97 131 112 0 2 34 55 75 117 41 62 75 117 75
121 0 5 4 9 10 9 5 0 17 16 26 35 9 19 20 35 25 35 5 0 9 6 9 13 0 7 9 23 20
35 11 12 20 26 20 32 0 5 5 10 10 10 6 0 10 7 10 15 0 8 5 15 10 15 6 0 10 4
10 10 0 8 56 96 70 110 10 10 41 76 46 100 26 113 -1 222 -76 299 -87 90 -211
119 -327 78z"/>
<path d="M4718 7995 c-2 -2 -39 -5 -83 -9 -44 -4 -91 -8 -105 -10 -14 -2 -49
-7 -79 -11 -30 -3 -63 -9 -75 -12 -12 -3 -30 -6 -41 -8 -11 -2 -20 -4 -20 -5
0 -1 -9 -3 -20 -5 -64 -11 -153 -33 -175 -42 -8 -3 -20 -7 -27 -9 -28 -6 -119
-37 -128 -44 -5 -5 -12 -8 -15 -8 -9 1 -54 -14 -95 -32 -22 -10 -69 -30 -105
-45 -36 -16 -72 -34 -80 -40 -8 -6 -28 -17 -45 -25 -16 -8 -65 -36 -108 -62
-43 -27 -83 -48 -88 -48 -5 0 -9 -3 -9 -8 0 -4 -18 -18 -40 -32 -22 -14 -40
-28 -40 -32 0 -4 -8 -9 -17 -12 -10 -3 -30 -16 -44 -28 -15 -13 -51 -43 -80
-68 -178 -149 -366 -364 -500 -575 -78 -121 -111 -188 -209 -420 -4 -11 -13
-36 -20 -55 -7 -19 -16 -44 -21 -55 -15 -33 -101 -336 -107 -380 -1 -5 -4 -30
-8 -55 -4 -25 -11 -53 -16 -62 -6 -12 -5 -18 2 -18 6 0 8 -4 5 -10 -26 -42
-40 -476 -21 -640 13 -107 15 -125 20 -155 4 -16 9 -46 12 -65 8 -55 53 -242
64 -270 6 -14 12 -34 14 -45 14 -73 102 -292 189 -475 48 -100 214 -380 237
-400 3 -3 17 -21 30 -40 22 -32 128 -168 140 -180 3 -3 23 -27 45 -55 48 -60
76 -93 92 -110 35 -37 157 -182 171 -204 9 -14 19 -28 23 -31 10 -9 86 -124
141 -215 49 -82 188 -354 188 -369 0 -3 14 -35 30 -71 17 -36 30 -70 30 -74 0
-5 9 -31 21 -58 11 -26 21 -56 22 -65 1 -10 5 -18 9 -18 4 0 8 -7 8 -15 0 -12
8 -15 33 -11 17 3 50 8 72 11 22 3 54 8 70 10 74 12 91 15 134 21 25 3 57 7
70 10 13 2 45 6 70 10 25 4 55 9 66 11 11 2 38 6 60 8 22 2 51 6 65 8 14 2 48
8 75 12 28 4 61 9 75 11 14 3 41 7 60 10 19 2 64 9 100 15 36 6 83 12 105 14
22 2 49 6 60 8 11 3 40 8 65 11 25 3 56 8 70 10 14 3 61 10 105 16 44 7 89 14
100 16 11 2 38 6 60 9 22 2 49 6 60 9 11 2 45 7 76 10 31 4 67 9 80 11 55 11
106 18 132 19 15 1 27 3 27 6 0 3 10 5 23 6 22 0 99 10 147 19 14 2 43 7 65
10 22 3 54 8 70 10 17 3 46 7 65 10 19 2 55 7 80 11 25 4 58 7 74 7 21 1 33 8
45 29 9 15 19 28 24 28 4 0 7 4 7 9 0 9 77 130 89 141 3 3 12 17 19 31 8 15
24 37 37 51 12 14 30 38 38 54 8 16 25 39 36 51 12 12 21 24 21 27 0 2 75 109
168 238 92 128 176 247 186 263 11 17 25 36 32 42 7 7 22 29 35 50 13 21 26
40 29 43 13 11 190 291 190 300 0 6 5 10 10 10 6 0 10 4 10 9 0 5 19 42 43 83
52 88 164 314 182 368 1 3 4 12 8 20 48 127 98 280 90 280 -3 0 -1 6 5 13 5 6
13 26 15 42 3 17 8 40 11 53 8 29 13 56 26 117 17 87 20 107 36 245 7 58 12
402 6 413 -2 5 -6 36 -8 70 -5 75 -9 111 -18 157 -3 19 -8 46 -10 60 -7 42
-45 203 -56 240 -6 19 -13 42 -15 50 -8 39 -39 126 -48 138 -5 6 -7 12 -4 12
7 0 -32 98 -79 198 -19 41 -34 78 -34 82 0 5 -3 10 -7 12 -5 2 -21 28 -36 58
-16 30 -41 75 -57 100 -17 25 -33 52 -37 60 -4 8 -11 20 -15 25 -5 6 -32 42
-61 81 -29 38 -58 77 -65 85 -7 7 -29 34 -50 58 -58 69 -200 211 -272 271 -36
30 -67 57 -70 60 -14 14 -92 71 -150 110 -36 24 -66 47 -68 52 -2 4 -8 8 -13
8 -5 0 -39 18 -75 41 -106 65 -307 162 -424 206 -30 12 -64 25 -75 29 -11 4
-22 8 -25 9 -3 1 -45 14 -95 30 -49 16 -97 30 -105 31 -8 1 -41 10 -73 18 -86
24 -278 57 -417 72 -54 6 -417 13 -422 9z m242 -884 c57 -24 84 -64 99 -147 6
-33 13 -70 16 -84 3 -14 8 -41 10 -60 3 -19 7 -44 9 -55 2 -11 5 -25 5 -31 1
-6 7 -11 14 -12 25 -2 83 -13 117 -23 19 -6 49 -13 65 -16 17 -3 38 -9 48 -15
10 -5 26 -11 35 -13 9 -2 26 -7 37 -10 17 -5 30 7 70 67 115 167 149 198 225
198 44 0 101 -29 208 -104 51 -36 97 -66 101 -66 5 0 11 -7 15 -15 3 -8 11
-15 18 -15 19 -1 73 -53 91 -88 22 -46 15 -113 -19 -167 -16 -25 -32 -45 -36
-45 -5 0 -8 -4 -8 -10 0 -5 -25 -44 -55 -86 -47 -65 -52 -78 -42 -95 6 -10 15
-19 19 -19 5 0 8 -6 8 -14 0 -7 7 -20 16 -27 9 -7 20 -22 26 -34 5 -11 28 -56
52 -100 34 -63 47 -79 64 -78 12 0 23 2 25 3 1 1 13 3 27 5 61 9 152 25 173
31 39 12 96 -7 136 -46 39 -38 42 -45 65 -170 3 -14 7 -35 10 -47 2 -11 8 -43
12 -70 3 -26 9 -57 11 -68 2 -11 7 -40 9 -65 3 -25 7 -47 10 -49 9 -9 -29 -79
-57 -103 -31 -27 -120 -51 -229 -62 -9 -1 -20 -4 -25 -7 -6 -3 -26 -6 -45 -8
-43 -3 -47 -7 -54 -51 -12 -76 -17 -96 -28 -123 -6 -15 -8 -30 -4 -34 3 -3 1
-12 -4 -18 -13 -16 -40 -106 -35 -115 2 -4 49 -37 103 -74 55 -37 108 -77 119
-89 19 -21 55 -111 48 -119 -2 -2 -6 -15 -9 -30 -4 -26 -29 -71 -53 -96 -6 -6
-14 -21 -18 -31 -3 -11 -12 -22 -20 -25 -8 -3 -15 -10 -15 -16 0 -11 -97 -149
-135 -192 -40 -45 -128 -59 -183 -29 -12 6 -72 47 -134 90 l-113 79 -47 -34
c-27 -19 -53 -34 -58 -34 -6 0 -10 -4 -10 -9 0 -5 -8 -11 -17 -15 -20 -6 -75
-38 -95 -53 -7 -6 -26 -13 -41 -17 -26 -6 -27 -9 -22 -49 2 -23 7 -53 10 -67
16 -77 19 -101 19 -165 1 -55 -3 -76 -19 -97 -23 -32 -84 -65 -135 -73 -19 -3
-46 -8 -60 -10 -49 -10 -75 -15 -110 -20 -41 -6 -73 -12 -115 -21 -108 -24
-185 25 -210 134 -13 56 -18 85 -30 172 -9 69 -17 90 -33 91 -9 0 -26 3 -37 5
-11 3 -27 7 -35 8 -67 13 -211 56 -226 68 -12 9 -19 -1 -140 -170 -87 -121
-175 -129 -314 -29 -25 17 -83 59 -130 92 -110 77 -130 95 -143 125 -13 30
-16 120 -5 120 4 0 8 6 8 13 0 11 85 136 146 214 24 32 24 33 7 60 -10 16 -20
30 -23 33 -14 12 -89 140 -111 188 -21 47 -27 53 -49 48 -14 -2 -38 -7 -55
-10 -16 -3 -46 -8 -65 -10 -19 -3 -35 -5 -35 -6 0 -1 -9 -4 -20 -6 -43 -10
-113 -7 -141 6 -32 14 -86 78 -91 107 -2 10 -6 36 -9 58 -4 22 -10 47 -15 56
-4 9 -6 18 -4 21 4 4 -7 77 -19 128 -12 49 -19 149 -11 167 5 10 9 20 10 23 9
27 19 40 31 40 8 0 14 4 14 8 0 20 92 44 250 66 47 7 82 14 87 19 2 3 8 26 12
53 5 27 11 58 14 69 3 11 11 40 17 65 6 25 14 55 17 68 3 12 9 25 14 28 5 3 9
16 9 28 0 17 -17 35 -62 67 -35 24 -64 47 -66 51 -2 4 -8 8 -14 8 -5 0 -29 16
-53 35 -52 43 -79 103 -70 155 6 29 48 109 78 145 4 6 43 59 85 119 42 60 89
118 103 129 56 41 169 28 207 -25 7 -10 17 -18 23 -18 5 0 48 -27 96 -60 48
-33 89 -57 92 -52 11 15 135 97 186 122 28 14 52 28 53 33 2 4 13 7 23 7 21 0
21 16 3 115 -5 25 -13 71 -18 107 -3 15 -8 33 -12 39 -5 8 -3 9 7 4 11 -6 11
-5 3 4 -13 15 -3 73 17 99 41 52 71 66 182 87 15 3 37 7 50 9 12 3 38 7 57 10
99 16 153 26 157 30 7 6 66 -2 93 -13z"/>
<path d="M4788 6078 c-187 -43 -350 -170 -435 -339 -23 -46 -44 -95 -47 -109
-3 -14 -11 -47 -17 -75 -12 -55 -13 -139 -4 -200 3 -22 7 -51 9 -65 2 -14 7
-34 10 -45 34 -94 54 -139 69 -155 9 -11 17 -24 17 -30 0 -6 37 -48 83 -94 66
-66 99 -91 169 -125 49 -23 92 -40 97 -37 5 4 11 2 13 -3 1 -6 14 -11 28 -13
14 -2 30 -6 35 -10 10 -6 238 -3 265 4 8 2 21 7 28 11 6 5 12 6 12 3 0 -3 30
5 66 19 70 26 162 84 211 132 48 47 123 143 123 157 0 8 7 19 15 26 9 7 13 15
10 18 -3 3 -1 10 4 16 4 6 16 34 24 61 65 202 26 446 -95 605 -29 37 -128 141
-128 134 0 -4 -15 5 -32 18 -61 45 -166 89 -248 104 -69 13 -210 9 -282 -8z"/>
<path d="M9158 5875 c-2 -2 -32 -6 -68 -9 -36 -4 -84 -9 -107 -12 -23 -3 -66
-7 -95 -9 -29 -2 -53 -4 -53 -5 0 -1 -20 -3 -45 -5 -25 -2 -63 -7 -85 -9 -36
-5 -99 -12 -180 -21 -42 -4 -115 -25 -146 -41 -55 -28 -150 -146 -141 -176 1
-5 -2 -8 -7 -8 -5 0 -8 -42 -6 -92 2 -81 6 -99 31 -143 30 -52 83 -107 131
-133 30 -16 133 -43 142 -37 3 1 42 6 86 9 44 4 100 9 125 11 25 3 65 8 90 11
25 2 63 7 85 9 79 8 151 16 185 20 19 3 62 7 94 10 144 11 216 50 292 160 47
68 55 183 19 272 -31 78 -119 167 -175 178 -11 2 -25 7 -30 10 -10 6 -137 15
-142 10z"/>
<path d="M1268 5554 c-3 -2 -95 -5 -508 -20 -85 -2 -166 -7 -180 -10 -14 -3
-30 -6 -37 -8 -7 -1 -16 -5 -19 -9 -4 -4 -15 -7 -24 -7 -22 0 -127 -95 -136
-123 -3 -12 -11 -28 -17 -35 -17 -21 -22 -50 -21 -132 0 -58 5 -86 24 -124 26
-54 91 -124 133 -143 15 -7 39 -19 54 -25 34 -17 198 -15 748 6 77 3 143 15
151 27 3 5 9 7 14 4 19 -12 114 81 144 140 36 70 36 72 38 134 2 54 -20 151
-34 151 -5 0 -7 4 -4 9 9 14 -84 106 -129 129 -23 11 -57 23 -76 27 -38 7
-117 13 -121 9z"/>
<path d="M6017 2164 c-2 -3 -22 -7 -43 -9 -22 -2 -52 -6 -69 -9 -31 -5 -104
-16 -140 -21 -43 -5 -121 -17 -150 -22 -37 -6 -68 -11 -125 -18 -25 -3 -54 -7
-65 -10 -11 -2 -69 -11 -130 -20 -60 -9 -121 -18 -135 -20 -14 -3 -45 -7 -70
-10 -25 -3 -58 -9 -75 -12 -16 -3 -43 -7 -60 -9 -16 -1 -48 -5 -70 -9 -41 -6
-130 -20 -200 -30 -22 -4 -53 -9 -70 -12 -33 -5 -80 -12 -135 -18 -19 -2 -36
-4 -37 -6 -2 -1 -12 -3 -23 -4 -11 -1 -21 -3 -22 -5 -2 -1 -21 -3 -43 -5 -22
-2 -51 -6 -65 -8 -14 -3 -47 -8 -75 -11 -27 -4 -61 -9 -75 -11 -14 -3 -40 -7
-57 -10 -18 -3 -45 -7 -60 -10 -16 -2 -50 -7 -78 -11 -27 -3 -51 -7 -52 -8 0
0 7 -45 17 -99 11 -53 21 -121 24 -150 3 -28 5 -52 6 -52 1 0 3 -18 4 -40 1
-44 5 -45 91 -31 22 3 58 8 80 10 22 2 54 7 70 9 40 7 102 17 144 23 19 2 46
6 60 9 14 2 46 7 71 10 25 3 52 8 60 10 8 3 40 7 70 11 89 10 105 12 110 14 3
1 13 2 23 1 9 -1 17 1 17 6 0 4 15 8 33 9 17 0 55 4 82 8 28 5 61 10 75 12 14
1 41 6 60 9 19 3 49 7 65 9 40 5 113 16 150 23 17 3 41 6 55 8 42 5 124 17
145 21 11 2 38 7 60 9 22 3 51 7 65 10 14 2 45 7 70 10 25 3 70 10 100 15 30
5 75 12 100 15 25 4 61 9 80 12 40 7 70 11 86 12 6 1 11 7 11 14 5 68 14 167
19 187 3 14 7 36 10 50 2 14 7 31 10 39 2 8 7 30 10 50 3 20 7 41 9 48 4 13
-9 26 -18 17z"/>
<path d="M5959 1396 c-6 -6 -50 -15 -109 -22 -45 -5 -81 -11 -90 -14 -3 -1 -9
-2 -13 -1 -5 1 -34 -3 -65 -8 -56 -10 -75 -13 -162 -26 -25 -4 -58 -9 -75 -11
-16 -3 -46 -7 -65 -9 -19 -2 -51 -6 -70 -10 -54 -9 -81 -13 -130 -20 -25 -3
-56 -8 -70 -10 -14 -3 -38 -7 -55 -9 -16 -2 -61 -9 -100 -15 -126 -19 -150
-22 -185 -27 -58 -8 -79 -12 -91 -20 -8 -5 -9 -3 -4 6 5 9 4 11 -4 6 -6 -4
-55 -14 -109 -22 -53 -8 -108 -16 -122 -19 -26 -4 -170 -25 -205 -31 -104 -15
-178 -26 -250 -38 -40 -6 -39 -49 5 -221 16 -66 32 -130 34 -143 3 -12 13 -41
23 -63 16 -37 20 -40 48 -35 16 3 53 8 80 12 28 3 57 8 67 9 20 4 93 15 133
20 17 2 30 4 30 5 0 1 15 3 34 5 18 2 63 8 100 14 36 6 82 13 101 16 19 2 46
7 60 9 14 3 48 8 75 11 28 4 61 9 75 11 14 3 39 6 55 8 57 8 130 18 150 22 42
8 115 18 200 29 33 4 62 9 65 10 6 4 116 18 143 19 9 0 17 3 17 6 0 3 12 6 28
6 28 1 107 12 107 14 0 1 16 3 35 6 19 2 49 6 65 9 17 3 44 7 60 9 35 4 122
17 149 22 24 4 26 6 32 40 3 16 9 45 14 64 10 39 12 136 6 283 -4 93 -7 113
-17 103z"/>
<path d="M5769 516 c-2 -2 -29 -7 -60 -10 -31 -4 -67 -9 -80 -12 -13 -3 -40
-7 -59 -9 -19 -2 -48 -6 -65 -8 -16 -3 -50 -8 -75 -12 -25 -4 -58 -9 -75 -12
-57 -9 -70 -11 -125 -18 -30 -3 -60 -8 -67 -10 -17 -6 -123 -19 -155 -20 -16
0 -28 -2 -28 -5 0 -3 -8 -6 -17 -6 -17 -1 -79 -10 -133 -19 -33 -6 -98 -15
-135 -20 -16 -3 -48 -7 -70 -11 -22 -4 -53 -8 -70 -10 -16 -1 -30 -3 -30 -4 0
-1 -11 -3 -25 -5 -14 -1 -45 -6 -70 -9 -25 -4 -58 -9 -75 -11 -16 -2 -32 -4
-35 -5 -7 -3 -23 -7 -37 -8 -13 -2 63 -82 77 -82 5 0 10 -3 12 -8 6 -13 101
-79 153 -105 131 -65 252 -92 420 -92 113 0 158 6 265 36 78 21 280 115 280
130 0 5 5 9 11 9 36 0 207 169 277 275 15 22 30 42 35 43 4 2 7 8 7 13 0 9
-42 13 -51 5z"/>
</g>
</svg>
