<svg width="482" height="240" version="1.1" viewBox="0 0 482 240" xmlns="http://www.w3.org/2000/svg"><g stroke-linecap="round" aria-label="The Rust Programming Language"><path d="m257.29 70.708-0.65867 4.888h-5.6853v19.205h-6.4133v-19.205h-6.032v-4.888z"/><path d="m270.96 75.7q2.3573 0 3.7093 1.4907 1.352 1.456 1.352 4.056v13.555h-6.1707v-12.445q0-1.2133-0.38133-1.664-0.34667-0.48533-1.04-0.48533-1.4213 0-2.7387 2.1147v12.48h-6.1707v-25.757l6.1707-0.624v9.7067q1.144-1.248 2.4267-1.8373 1.2827-0.58933 2.8427-0.58933z"/><path d="m296.7 85.268q0 0.208-0.104 2.08h-11.301q0.24267 2.1147 1.1787 2.912 0.97067 0.76267 2.7387 0.76267 1.04 0 2.0453-0.38133 1.04-0.416 2.2533-1.248l2.496 3.3973q-1.456 1.2133-3.328 1.9413-1.872 0.69333-4.056 0.69333-4.7147 0-7.176-2.6347-2.4267-2.6693-2.4267-7.1413 0-2.808 1.0053-5.0613 1.04-2.2533 3.0507-3.5707 2.0107-1.3173 4.8533-1.3173 4.056 0 6.4133 2.5307 2.3573 2.496 2.3573 7.0373zm-6.0667-1.7333q-0.0347-1.8373-0.624-2.8427-0.58934-1.0053-1.976-1.0053-1.2827 0-1.9413 0.90134-0.65867 0.90133-0.832 3.1547h5.3733z"/><path d="m316.35 85.927h-1.768v8.8747h-6.4133v-24.093h8.3547q5.096 0 7.592 1.8373 2.5307 1.8373 2.5307 5.6507 0 2.288-1.0747 3.8133-1.04 1.5253-3.3627 2.7387l5.9973 10.053h-7.1413zm-1.768-4.368h2.1493q3.328 0 3.328-3.3627 0-1.56-0.936-2.288-0.90133-0.728-2.7387-0.728h-1.8027z"/><path d="m346.21 94.801h-5.3733l-0.24267-2.184q-1.9413 2.808-5.512 2.808-2.5653 0-3.8827-1.5253-1.2827-1.56-1.2827-4.2987v-13.277h6.1707v12.48q0 1.1787 0.34666 1.664 0.38134 0.45067 1.1093 0.45067 0.65867 0 1.2827-0.45067 0.65866-0.48533 1.2133-1.3867v-12.757h6.1707z"/><path d="m357.29 75.7q2.0107 0 3.8133 0.624 1.8373 0.624 3.12 1.6987l-2.2187 3.3973q-2.2187-1.3867-4.472-1.3867-0.97067 0-1.456 0.312-0.45067 0.27733-0.45067 0.79733 0 0.45067 0.24267 0.728 0.24266 0.27733 1.0053 0.624 0.79734 0.312 2.496 0.832 2.8427 0.832 4.1947 2.184 1.352 1.3173 1.352 3.7093 0 1.872-1.1093 3.2933-1.0747 1.3867-3.016 2.1493-1.9067 0.76267-4.3333 0.76267-2.3573 0-4.4373-0.728-2.0453-0.76267-3.4667-2.08l2.9467-3.2933q1.0747 0.832 2.288 1.3173 1.248 0.48533 2.496 0.48533 1.1093 0 1.6987-0.34667 0.624-0.38133 0.624-1.1093 0-0.55467-0.27734-0.86667-0.24266-0.312-0.97066-0.58933-0.728-0.312-2.496-0.832-5.3733-1.5947-5.3733-5.8587 0-1.6293 0.936-2.9467 0.936-1.352 2.6693-2.1147 1.768-0.76267 4.1947-0.76267z"/><path d="m380.01 93.9q-1.0747 0.76267-2.496 1.144-1.4213 0.38133-2.7733 0.38133-6.4133 0-6.4133-7.072v-7.8h-2.392v-4.2293h2.392v-3.9173l6.1707-0.728v4.6453h4.1947l-0.624 4.2293h-3.5707v7.7307q0 1.248 0.38134 1.768 0.416 0.52 1.2133 0.52 0.97067 0 1.872-0.52z"/><path d="m248.38 107.45q4.8533 0 7.5227 2.0453 2.704 2.0107 2.704 5.928 0 4.0907-2.6 6.24-2.6 2.1147-7.0027 2.1147h-2.4613v7.7653h-6.4133v-24.093zm0.0347 11.752q1.8027 0 2.704-0.90134 0.93601-0.90133 0.93601-2.8427 0-3.5013-3.7787-3.5013h-1.7333v7.2453z"/><path d="m271.45 112.52q0.90134 0 1.872 0.312l-1.0053 5.9627q-0.90133-0.27734-1.664-0.27734-1.56 0-2.392 1.0747-0.79734 1.04-1.248 3.1893v8.7707h-6.1707v-18.477h5.3733l0.55467 3.5013q0.55467-1.8373 1.8373-2.9467 1.3173-1.1093 2.8427-1.1093z"/><path d="m282.66 112.45q4.3333 0 6.7947 2.6 2.4613 2.6 2.4613 7.28 0 2.9813-1.1093 5.2-1.1093 2.2187-3.224 3.432-2.08 1.2133-4.9227 1.2133-4.3333 0-6.7947-2.6-2.4613-2.6-2.4613-7.28 0-2.9813 1.1093-5.2t3.1893-3.432q2.1147-1.2133 4.9573-1.2133zm0 4.472q-1.4907 0-2.2187 1.3173-0.69334 1.2827-0.69334 4.056 0 2.8773 0.69334 4.16 0.728 1.248 2.2187 1.248 1.4907 0 2.184-1.2827 0.728-1.3173 0.728-4.0907 0-2.8427-0.728-4.1253-0.69334-1.2827-2.184-1.2827z"/><path d="m312.73 114.25q-1.9067 0.79733-5.304 0.79733 1.8373 0.728 2.6693 1.872 0.86666 1.1093 0.86666 2.912 0 1.768-0.97066 3.1547-0.97067 1.3867-2.7733 2.184-1.8027 0.79733-4.2293 0.79733-1.2133 0-2.0453-0.17333-0.52 0.34667-0.52 0.86667 0 0.45066 0.38133 0.728 0.416 0.27733 1.56 0.27733h2.704q2.184 0 3.848 0.69333 1.664 0.69334 2.5307 1.9413 0.90133 1.2133 0.90133 2.7733 0 2.9467-2.5653 4.576-2.5653 1.664-7.384 1.664-3.5013 0-5.512-0.728-1.976-0.728-2.7733-2.0453-0.79734-1.3173-0.79734-3.2587h5.512q0 0.79733 0.27733 1.2133 0.312 0.45067 1.1093 0.624 0.79733 0.208 2.3573 0.208 2.0453 0 2.808-0.48533 0.76267-0.48534 0.76267-1.3173 0-0.69333-0.55467-1.144-0.55466-0.45067-1.7333-0.45067h-2.6347q-3.016 0-4.5067-1.0053-1.456-1.04-1.456-2.6693 0-1.04 0.624-2.0107 0.624-0.97067 1.664-1.5947-1.8027-0.97067-2.6-2.2533-0.79734-1.2827-0.79734-3.0853 0-3.224 2.288-5.0267 2.288-1.8373 6.1013-1.8373 2.704 0.104 4.7147-0.58933 2.0107-0.728 4.0907-2.0453zm-10.019 2.2187q-1.1093 0-1.768 0.728-0.65867 0.69333-0.65867 1.976 0 1.3867 0.65867 2.1147 0.65866 0.728 1.8027 0.728 2.4267 0 2.4267-2.912 0-1.352-0.624-1.976-0.58933-0.65866-1.8373-0.65866z"/><path d="m325.64 112.52q0.90133 0 1.872 0.312l-1.0053 5.9627q-0.90134-0.27734-1.664-0.27734-1.56 0-2.392 1.0747-0.79733 1.04-1.248 3.1893v8.7707h-6.1707v-18.477h5.3733l0.55466 3.5013q0.55467-1.8373 1.8373-2.9467 1.3173-1.1093 2.8427-1.1093z"/><path d="m343.68 125.86q0 1.0053 0.24267 1.4907 0.27733 0.48533 0.936 0.728l-1.248 3.9867q-1.768-0.13867-2.912-0.728-1.1093-0.58933-1.8027-1.872-1.768 2.704-5.5813 2.704-2.7387 0-4.4027-1.5947-1.6293-1.6293-1.6293-4.1947 0-3.0507 2.2533-4.68 2.2533-1.6293 6.5173-1.6293h1.5947v-0.624q0-1.4907-0.624-2.0107-0.624-0.55466-2.2533-0.55466-0.86667 0-2.184 0.27733-1.2827 0.24267-2.6347 0.69333l-1.352-3.9867q1.664-0.69333 3.5707-1.04 1.9067-0.38133 3.536-0.38133 4.16 0 6.0667 1.664 1.9067 1.6293 1.9067 5.0267zm-8.4933 1.976q0.76267 0 1.3867-0.38133 0.65867-0.416 1.0747-1.1093v-2.9813h-1.04q-1.664 0-2.4613 0.624-0.79733 0.58933-0.79733 1.8027 0 0.936 0.48533 1.4907 0.48533 0.55466 1.352 0.55466z"/><path d="m368.87 112.45q2.1493 0 3.4667 1.4907 1.3173 1.456 1.3173 4.056v13.555h-6.1707v-12.445q0-2.1493-1.248-2.1493-1.2827 0-2.3573 2.1147v12.48h-6.1707v-12.445q0-2.1493-1.248-2.1493-1.2827 0-2.3573 2.1147v12.48h-6.1707v-18.477h5.3733l0.45067 2.0453q1.0747-1.352 2.3573-2.0107 1.3173-0.65867 3.016-0.65867 1.456 0 2.5653 0.728 1.1093 0.69333 1.664 2.0453 1.144-1.4213 2.4613-2.08 1.3173-0.69333 3.0507-0.69333z"/><path d="m398.52 112.45q2.1493 0 3.4667 1.4907 1.3173 1.456 1.3173 4.056v13.555h-6.1707v-12.445q0-2.1493-1.248-2.1493-1.2827 0-2.3573 2.1147v12.48h-6.1707v-12.445q0-2.1493-1.248-2.1493-1.2827 0-2.3573 2.1147v12.48h-6.1707v-18.477h5.3733l0.45067 2.0453q1.0747-1.352 2.3573-2.0107 1.3173-0.65867 3.016-0.65867 1.456 0 2.5653 0.728 1.1093 0.69333 1.664 2.0453 1.144-1.4213 2.4613-2.08 1.3173-0.69333 3.0507-0.69333z"/><path d="m413.41 113.07v18.477h-6.1707v-18.477zm-3.0853-9.9493q1.56 0 2.5307 0.97067 1.0053 0.97066 1.0053 2.4267 0 1.456-1.0053 2.4267-0.97067 0.97067-2.5307 0.97067t-2.5653-0.97067q-0.97067-0.97066-0.97067-2.4267 0-1.456 0.97067-2.4267 1.0053-0.97067 2.5653-0.97067z"/><path d="m428.95 112.45q2.3573 0 3.7093 1.456t1.352 4.0907v13.555h-6.1707v-12.445q0-1.2133-0.34667-1.664-0.34667-0.48533-1.04-0.48533-1.456 0-2.7733 2.1147v12.48h-6.1707v-18.477h5.3733l0.45067 2.08q1.248-1.3867 2.6-2.0453 1.352-0.65867 3.016-0.65867z"/><path d="m455.59 114.25q-1.9067 0.79733-5.304 0.79733 1.8373 0.728 2.6693 1.872 0.86667 1.1093 0.86667 2.912 0 1.768-0.97067 3.1547-0.97067 1.3867-2.7733 2.184-1.8027 0.79733-4.2293 0.79733-1.2133 0-2.0453-0.17333-0.52 0.34667-0.52 0.86667 0 0.45066 0.38134 0.728 0.416 0.27733 1.56 0.27733h2.704q2.184 0 3.848 0.69333 1.664 0.69334 2.5307 1.9413 0.90134 1.2133 0.90134 2.7733 0 2.9467-2.5653 4.576-2.5653 1.664-7.384 1.664-3.5013 0-5.512-0.728-1.976-0.728-2.7733-2.0453-0.79733-1.3173-0.79733-3.2587h5.512q0 0.79733 0.27734 1.2133 0.312 0.45067 1.1093 0.624 0.79734 0.208 2.3573 0.208 2.0453 0 2.808-0.48533 0.76267-0.48534 0.76267-1.3173 0-0.69333-0.55467-1.144t-1.7333-0.45067h-2.6347q-3.016 0-4.5067-1.0053-1.456-1.04-1.456-2.6693 0-1.04 0.624-2.0107 0.62401-0.97067 1.664-1.5947-1.8027-0.97067-2.6-2.2533-0.79733-1.2827-0.79733-3.0853 0-3.224 2.288-5.0267 2.288-1.8373 6.1013-1.8373 2.704 0.104 4.7147-0.58933 2.0107-0.728 4.0907-2.0453zm-10.019 2.2187q-1.1093 0-1.768 0.728-0.65866 0.69333-0.65866 1.976 0 1.3867 0.65866 2.1147 0.65867 0.728 1.8027 0.728 2.4267 0 2.4267-2.912 0-1.352-0.624-1.976-0.58933-0.65866-1.8373-0.65866z"/><path d="m246.54 144.2v19.101h9.256l-0.69334 4.992h-14.976v-24.093z"/><path d="m273.46 162.61q0 1.0053 0.24267 1.4907 0.27733 0.48533 0.936 0.728l-1.248 3.9867q-1.768-0.13867-2.912-0.728-1.1093-0.58934-1.8027-1.872-1.768 2.704-5.5813 2.704-2.7387 0-4.4027-1.5947-1.6293-1.6293-1.6293-4.1947 0-3.0507 2.2533-4.68 2.2533-1.6293 6.5173-1.6293h1.5947v-0.624q0-1.4907-0.624-2.0107-0.624-0.55466-2.2533-0.55466-0.86666 0-2.184 0.27733-1.2827 0.24267-2.6347 0.69333l-1.352-3.9867q1.664-0.69333 3.5707-1.04 1.9067-0.38133 3.536-0.38133 4.16 0 6.0667 1.664 1.9067 1.6293 1.9067 5.0267zm-8.4933 1.976q0.76267 0 1.3867-0.38133 0.65867-0.416 1.0747-1.1093v-2.9813h-1.04q-1.664 0-2.4613 0.624-0.79733 0.58933-0.79733 1.8027 0 0.936 0.48533 1.4907 0.48534 0.55467 1.352 0.55467z"/><path d="m289.14 149.19q2.3573 0 3.7093 1.456t1.352 4.0907v13.555h-6.1707v-12.445q0-1.2133-0.34667-1.664-0.34667-0.48533-1.04-0.48533-1.456 0-2.7733 2.1147v12.48h-6.1707v-18.477h5.3733l0.45067 2.08q1.248-1.3867 2.6-2.0453 1.352-0.65867 3.016-0.65867z"/><path d="m315.78 151q-1.9067 0.79733-5.304 0.79733 1.8373 0.728 2.6693 1.872 0.86667 1.1093 0.86667 2.912 0 1.768-0.97067 3.1547-0.97067 1.3867-2.7733 2.184-1.8027 0.79733-4.2293 0.79733-1.2133 0-2.0453-0.17333-0.52 0.34666-0.52 0.86666 0 0.45067 0.38133 0.728 0.416 0.27734 1.56 0.27734h2.704q2.184 0 3.848 0.69333 1.664 0.69334 2.5307 1.9413 0.90133 1.2133 0.90133 2.7733 0 2.9467-2.5653 4.576-2.5653 1.664-7.384 1.664-3.5013 0-5.512-0.728-1.976-0.728-2.7733-2.0453-0.79733-1.3173-0.79733-3.2587h5.512q0 0.79734 0.27733 1.2133 0.312 0.45067 1.1093 0.624 0.79733 0.208 2.3573 0.208 2.0453 0 2.808-0.48533 0.76266-0.48534 0.76266-1.3173 0-0.69333-0.55466-1.144-0.55467-0.45067-1.7333-0.45067h-2.6347q-3.016 0-4.5067-1.0053-1.456-1.04-1.456-2.6693 0-1.04 0.624-2.0107 0.624-0.97066 1.664-1.5947-1.8027-0.97067-2.6-2.2533t-0.79733-3.0853q0-3.224 2.288-5.0267 2.288-1.8373 6.1013-1.8373 2.704 0.104 4.7147-0.58934 2.0107-0.728 4.0907-2.0453zm-10.019 2.2187q-1.1093 0-1.768 0.72801-0.65867 0.69333-0.65867 1.976 0 1.3867 0.65867 2.1147t1.8027 0.728q2.4267 0 2.4267-2.912 0-1.352-0.624-1.976-0.58934-0.65867-1.8373-0.65867z"/><path d="m333.86 168.29h-5.3733l-0.24267-2.184q-1.9413 2.808-5.512 2.808-2.5653 0-3.8827-1.5253-1.2827-1.56-1.2827-4.2987v-13.277h6.1707v12.48q0 1.1787 0.34667 1.664 0.38133 0.45067 1.1093 0.45067 0.65867 0 1.2827-0.45067 0.65866-0.48533 1.2133-1.3867v-12.757h6.1707z"/><path d="m353.29 162.61q0 1.0053 0.24267 1.4907 0.27734 0.48533 0.936 0.728l-1.248 3.9867q-1.768-0.13867-2.912-0.728-1.1093-0.58934-1.8027-1.872-1.768 2.704-5.5813 2.704-2.7387 0-4.4027-1.5947-1.6293-1.6293-1.6293-4.1947 0-3.0507 2.2533-4.68 2.2533-1.6293 6.5173-1.6293h1.5947v-0.624q0-1.4907-0.624-2.0107-0.624-0.55466-2.2533-0.55466-0.86666 0-2.184 0.27733-1.2827 0.24267-2.6347 0.69333l-1.352-3.9867q1.664-0.69333 3.5707-1.04 1.9067-0.38133 3.536-0.38133 4.16 0 6.0667 1.664 1.9067 1.6293 1.9067 5.0267zm-8.4933 1.976q0.76267 0 1.3867-0.38133 0.65867-0.416 1.0747-1.1093v-2.9813h-1.04q-1.664 0-2.4613 0.624-0.79733 0.58933-0.79733 1.8027 0 0.936 0.48533 1.4907 0.48534 0.55467 1.352 0.55467z"/><path d="m374.83 151q-1.9067 0.79733-5.304 0.79733 1.8373 0.728 2.6693 1.872 0.86667 1.1093 0.86667 2.912 0 1.768-0.97067 3.1547-0.97066 1.3867-2.7733 2.184-1.8027 0.79733-4.2293 0.79733-1.2133 0-2.0453-0.17333-0.52 0.34666-0.52 0.86666 0 0.45067 0.38134 0.728 0.416 0.27734 1.56 0.27734h2.704q2.184 0 3.848 0.69333 1.664 0.69334 2.5307 1.9413 0.90134 1.2133 0.90134 2.7733 0 2.9467-2.5653 4.576-2.5653 1.664-7.384 1.664-3.5013 0-5.512-0.728-1.976-0.728-2.7733-2.0453-0.79733-1.3173-0.79733-3.2587h5.512q0 0.79734 0.27733 1.2133 0.312 0.45067 1.1093 0.624 0.79734 0.208 2.3573 0.208 2.0453 0 2.808-0.48533 0.76267-0.48534 0.76267-1.3173 0-0.69333-0.55467-1.144t-1.7333-0.45067h-2.6347q-3.016 0-4.5067-1.0053-1.456-1.04-1.456-2.6693 0-1.04 0.624-2.0107 0.624-0.97066 1.664-1.5947-1.8027-0.97067-2.6-2.2533-0.79734-1.2827-0.79734-3.0853 0-3.224 2.288-5.0267 2.288-1.8373 6.1013-1.8373 2.704 0.104 4.7147-0.58934 2.0107-0.728 4.0907-2.0453zm-10.019 2.2187q-1.1093 0-1.768 0.72801-0.65866 0.69333-0.65866 1.976 0 1.3867 0.65866 2.1147 0.65867 0.728 1.8027 0.728 2.4267 0 2.4267-2.912 0-1.352-0.624-1.976-0.58933-0.65867-1.8373-0.65867z"/><path d="m393.08 158.76q0 0.208-0.104 2.08h-11.301q0.24267 2.1147 1.1787 2.912 0.97067 0.76267 2.7387 0.76267 1.04 0 2.0453-0.38134 1.04-0.416 2.2533-1.248l2.496 3.3973q-1.456 1.2133-3.328 1.9413-1.872 0.69333-4.056 0.69333-4.7147 0-7.176-2.6347-2.4267-2.6693-2.4267-7.1413 0-2.808 1.0053-5.0613 1.04-2.2533 3.0507-3.5707 2.0107-1.3173 4.8533-1.3173 4.056 0 6.4133 2.5307 2.3573 2.496 2.3573 7.0373zm-6.0667-1.7333q-0.0347-1.8373-0.624-2.8427-0.58933-1.0053-1.976-1.0053-1.2827 0-1.9413 0.90133-0.65867 0.90134-0.832 3.1547h5.3733z"/></g><path d="m119.34 26.05c-51.731 0-93.834 42.123-93.834 93.834 0 51.711 42.123 93.834 93.834 93.834 51.711 0 93.834-42.123 93.834-93.834 0-51.711-42.123-93.834-93.834-93.834zm-0.13895 8.3373a6.1537 6.1735 0 0 1 5.9949 6.1735 6.1735 6.1735 0 0 1-12.347 0 6.1735 6.1735 0 0 1 6.3522-6.1735zm14.134 10.164a75.968 75.968 0 0 1 52.009 37.041l-7.2852 16.436c-1.2506 2.8386 0.0397 6.1735 2.8585 7.444l14.015 6.2132a75.968 75.968 0 0 1 0.15881 13.181h-7.8013c-0.77417 0-1.0918 0.51612-1.0918 1.2704v3.5731c0 8.4166-4.7443 10.263-8.9129 10.719-3.9701 0.45656-8.3571-1.6674-8.9129-4.0892-2.3424-13.161-6.2331-15.96-12.387-20.823 7.6425-4.8436 15.583-12.01 15.583-21.578 0-10.342-7.0867-16.853-11.91-20.049-6.7889-4.4664-14.292-5.3597-16.317-5.3597h-80.593a75.968 75.968 0 0 1 42.5-23.98l9.5084 9.965c2.1439 2.2431 5.6971 2.3424 7.9402 0.17866zm-87.74 45.696a6.1735 6.1735 0 0 1 5.9949 6.1735 6.1735 6.1735 0 0 1-12.347 0 6.1735 6.1735 0 0 1 6.3522-6.1735zm147.19 0.27791a6.1735 6.1735 0 0 1 5.9949 6.1735 6.1735 6.1735 0 0 1-12.347 0 6.1735 6.1735 0 0 1 6.3522-6.1735zm-135.56 0.99253h10.759v48.515h-21.717a75.968 75.968 0 0 1-2.4615-29.002l13.3-5.9155c2.8386-1.2704 4.1289-4.5855 2.8585-7.4241zm44.902 0.51612h25.627c1.33 0 9.3496 1.5285 9.3496 7.5432 0 4.9825-6.1537 6.7691-11.216 6.7691h-23.781zm0 34.858h19.632c1.7866 0 9.5878 0.51612 12.069 10.481 0.77417 3.057 2.5012 13.022 3.6724 16.218 1.1712 3.5731 5.9155 10.719 10.977 10.719h32.039a75.968 75.968 0 0 1-7.0271 8.1388l-13.042-2.7989c-3.0371-0.65507-6.0346 1.2903-6.6896 4.3274l-3.0967 14.451a75.968 75.968 0 0 1-63.343-0.29776l-3.0967-14.451c-0.65507-3.0371-3.6327-4.9825-6.6698-4.3274l-12.764 2.7394a75.968 75.968 0 0 1-6.5904-7.7814h62.073c0.69477 0 1.1712-0.1191 1.1712-0.77417v-21.955c0-0.63522-0.47641-0.77418-1.1712-0.77418h-18.163zm-28.644 50.282a6.1735 6.1735 0 0 1 5.9949 6.1735 6.1735 6.1735 0 0 1-12.347 0 6.1735 6.1735 0 0 1 6.3522-6.1735zm91.412 0.27791a6.1735 6.1735 0 0 1 5.9949 6.1735 6.1735 6.1735 0 0 1-12.347 0 6.1735 6.1735 0 0 1 6.3522-6.1735z" stroke-width="1.9851"/><path d="m207.93 119.88a88.593 88.593 0 0 1-88.593 88.593 88.593 88.593 0 0 1-88.593-88.593 88.593 88.593 0 0 1 88.593-88.593 88.593 88.593 0 0 1 88.593 88.593zm-1.6674-8.5556 13.816 8.5556-13.816 8.5556 11.871 11.096-15.206 5.6971 9.4886 13.201-16.059 2.6203 6.7492 14.809-16.258-0.57567 3.7319 15.841-15.841-3.7319 0.57567 16.258-14.809-6.7492-2.6203 16.059-13.201-9.4886-5.6971 15.206-11.096-11.871-8.5556 13.816-8.5556-13.816-11.096 11.871-5.6971-15.206-13.201 9.4886-2.6203-16.059-14.809 6.7492 0.57567-16.258-15.841 3.7319 3.7319-15.841-16.258 0.57567 6.7492-14.809-16.059-2.6203 9.4886-13.201-15.206-5.6971 11.871-11.096-13.816-8.5556 13.816-8.5556-11.871-11.096 15.206-5.6971-9.4886-13.201 16.059-2.6203-6.7492-14.809 16.258 0.57567-3.7319-15.841 15.841 3.7319-0.57567-16.258 14.809 6.7492 2.6203-16.059 13.201 9.4886 5.6971-15.206 11.096 11.871 8.5556-13.816 8.5556 13.816 11.096-11.871 5.6971 15.206 13.201-9.4886 2.6203 16.059 14.809-6.7492-0.57567 16.258 15.841-3.7319-3.7319 15.841 16.258-0.57567-6.7492 14.809 16.059 2.6203-9.4886 13.201 15.206 5.6971z" fill-rule="evenodd" stroke="#000" stroke-linecap="round" stroke-linejoin="round" stroke-width="5.9552"/></svg>
