<?xml version="1.0" encoding="utf-8"?>
<!-- Generator: Adobe Illustrator 25.3.1, SVG Export Plug-In . SVG Version: 6.00 Build 0)  -->
<svg version="1.1" id="레이어_1" xmlns="http://www.w3.org/2000/svg" xmlns:xlink="http://www.w3.org/1999/xlink" x="0px"
	 y="0px" viewBox="0 0 326.9 334.9" style="enable-background:new 0 0 326.9 334.9;" xml:space="preserve">
<style type="text/css">
	.st0{fill:#0055FF;}
	.st1{fill:#FFFFFF;stroke:#000000;stroke-width:7;stroke-miterlimit:10;}
	.st2{fill:none;stroke:#000000;stroke-width:10;stroke-linecap:round;stroke-miterlimit:10;}
	.st3{fill:none;stroke:#000000;stroke-width:9;stroke-linecap:round;stroke-miterlimit:10;}
	.st4{fill:none;stroke:#000000;stroke-width:5;stroke-miterlimit:10;}
	.st5{fill:#0055FF;stroke:#000000;stroke-width:6;stroke-miterlimit:10;}
</style>
<g>
	<rect x="51.3" y="150.4" width="226.2" height="150.2"/>
	<path d="M277.2,150.9v149.3H51.8V150.9H277.2 M278,150H51v151h227V150L278,150z"/>
</g>
<g>
	<path class="st0" d="M164.6,237.2c-61.6,0-111.8-44.5-111.8-99.2c0-23.8,12.4-47.8,34.7-67.5c20.6-18.1,46.8-29.9,70.2-31.6
		c1.8-0.1,3.6-0.2,5.4-0.2c0.4,0,0.9,0,1.4,0c24.4,0.4,52.1,11.6,74.3,29.9c24.1,20,37.5,44.5,37.5,69.4
		C276.4,192.7,226.3,237.2,164.6,237.2z"/>
	<path d="M163.3,40.9c0.4,0,0.9,0,1.3,0c24,0.4,51.3,11.4,73.1,29.4c11.1,9.1,20.2,19.8,26.5,30.9c6.7,12,10.2,24.4,10.2,36.8
		c0,53.6-49.2,97.1-109.7,97.1S54.8,191.5,54.8,138c0-23.1,12-46.5,34-65.9C109,54.3,134.8,42.7,157.9,41
		C159.8,40.9,161.5,40.9,163.3,40.9 M163.3,36.6c-2,0-3.8,0.1-5.5,0.2C109.8,40.1,51,85.1,51,138c0,56,50.9,101.4,113.7,101.4
		S278.4,193.9,278.4,138c0-55.2-64-100.5-113.7-101.4C164.2,36.6,163.7,36.6,163.3,36.6L163.3,36.6z"/>
</g>
<path class="st1" d="M278.4,153.5V205c0,53.1-39.8,96.1-88.9,96.1h-47.7c-49.1,0-88.9-43-88.9-96.1v-51.5"/>
<g>
	<line class="st2" x1="131.2" y1="178.4" x2="131.2" y2="202.6"/>
</g>
<g>
	<line class="st2" x1="195" y1="178.4" x2="195" y2="202.6"/>
</g>
<line class="st3" x1="151.4" y1="256.8" x2="177.8" y2="256.8"/>
<g>
	<rect x="86.4" y="91.6" class="st0" width="157.3" height="21.7"/>
</g>
<g>
	<g>
		<path class="st0" d="M52.3,175.8c-0.7,0-1.4-0.7-1.4-1.5v-58.4c0-5.9,4.5-10.7,10-10.7h208.4c5.4,0,9.8,4.7,9.8,10.5v58.8
			c0,0.7-0.6,1.3-1.2,1.3L52.3,175.8L52.3,175.8z"/>
		<path d="M269.2,107.2c4.3,0,7.8,3.8,7.8,8.4v57.9H53v-57.8c0-4.7,3.6-8.5,7.9-8.5H269.2 M269.2,103H60.9
			c-6.6,0-11.9,5.7-11.9,12.8v58.5c0,2,1.5,3.6,3.3,3.6h225.5c1.8,0,3.2-1.5,3.2-3.4v-58.8C281.1,108.7,275.7,103,269.2,103
			L269.2,103z"/>
	</g>
	<line class="st4" x1="81.6" y1="103.9" x2="81.6" y2="177"/>
	<line class="st4" x1="102.2" y1="103" x2="102.2" y2="176.1"/>
	<line class="st4" x1="137.1" y1="104.8" x2="137.1" y2="177.9"/>
	<line class="st4" x1="191.2" y1="104.8" x2="191.2" y2="177.9"/>
	<line class="st4" x1="226.2" y1="103" x2="226.2" y2="176.1"/>
	<line class="st4" x1="248.5" y1="104.8" x2="248.5" y2="177.9"/>
	<line class="st4" x1="264.4" y1="104.8" x2="264.4" y2="177.9"/>
	<line class="st4" x1="66.8" y1="104.7" x2="65.6" y2="176.1"/>
</g>
<g>
	<rect x="109.7" y="78.6" class="st0" width="113.7" height="21.8"/>
</g>
<g>
	<path class="st5" d="M163.8,37.5C154,39,136.1,45,118.7,72c-6.7,10.2-11.7,21.2-15.6,31.1"/>
	<path class="st5" d="M163.8,37.5c-3.3,2-13.3,9.4-20.3,31.6c-4.2,13.2-5.5,26.4-6.1,34.1"/>
	<path class="st5" d="M163.8,37.5c9.9,1.5,27.9,7.4,45.4,34.1c6.6,10.1,11.8,20.9,15.7,30.7"/>
	<path class="st5" d="M163.8,37.5c3.3,2,13.7,9.4,20.7,31.5c4.3,13.2,5.7,26.4,6.3,34"/>
</g>
</svg>
