<?xml version="1.0" standalone="no"?>
<!DOCTYPE svg PUBLIC "-//W3C//DTD SVG 20010904//EN"
 "http://www.w3.org/TR/2001/REC-SVG-20010904/DTD/svg10.dtd">
<svg version="1.0" xmlns="http://www.w3.org/2000/svg"
 width="512.000000pt" height="512.000000pt" viewBox="0 0 512.000000 512.000000"
 preserveAspectRatio="xMidYMid meet">
<metadata>
Created by potrace 1.14, written by Peter Selinger 2001-2017
</metadata>
<g transform="translate(0.000000,512.000000) scale(0.100000,-0.100000)"
fill="#000000" stroke="none">
<path d="M2535 4620 c3 -5 8 -10 11 -10 2 0 4 5 4 10 0 6 -5 10 -11 10 -5 0
-7 -4 -4 -10z"/>
<path d="M2573 4610 c-1 -11 2 -20 7 -20 4 0 7 7 6 15 -3 23 -12 26 -13 5z"/>
<path d="M2676 4618 c3 -5 10 -6 15 -3 13 9 11 12 -6 12 -8 0 -12 -4 -9 -9z"/>
<path d="M2519 4586 c13 -16 12 -17 -12 -14 -14 2 -29 7 -33 11 -4 4 -12 7
-18 7 -6 0 -4 -5 4 -10 11 -7 3 -9 -27 -6 -24 2 -43 0 -43 -5 0 -4 -9 -6 -20
-4 -11 2 -23 -1 -26 -7 -5 -7 -2 -8 7 -4 8 4 5 0 -5 -8 -11 -9 -16 -16 -11
-16 5 0 0 -7 -11 -16 -10 -8 -14 -13 -8 -10 6 3 11 -1 11 -9 0 -8 -4 -12 -8
-9 -4 2 -6 -18 -4 -46 2 -27 0 -52 -4 -54 -4 -3 -7 11 -6 30 1 18 -2 34 -7 34
-4 0 -6 -12 -3 -27 3 -21 -1 -33 -18 -46 l-22 -18 23 11 c16 8 22 8 22 0 0 -6
5 -8 12 -4 7 5 8 3 2 -7 -4 -8 -9 -20 -10 -27 -3 -20 -14 -28 -14 -11 0 11 -2
12 -9 1 -6 -11 -10 -10 -15 3 -5 13 -2 16 12 13 11 -3 19 0 19 7 0 14 -34 8
-43 -7 -3 -5 -12 -4 -20 3 -12 10 -13 9 -8 -5 4 -10 13 -15 20 -12 8 3 14 1
14 -4 0 -11 -2 -11 -77 -14 -42 -2 -53 1 -54 13 0 13 -2 12 -8 -2 -4 -10 -11
-19 -16 -19 -16 -1 -33 -31 -40 -71 -7 -34 -15 -42 -38 -38 -5 1 -5 -3 -2 -9
4 -6 12 -9 19 -7 6 3 11 -6 11 -19 0 -17 -4 -23 -14 -19 -11 4 -12 3 -1 -10
10 -12 10 -18 0 -30 -11 -13 -10 -14 4 -9 12 5 15 2 10 -10 -3 -9 -10 -13 -15
-10 -5 3 -9 0 -9 -5 0 -6 8 -11 17 -11 15 0 14 -2 -3 -16 -10 -8 -13 -12 -5
-8 10 5 11 1 6 -16 -5 -14 -3 -20 3 -16 12 7 10 -20 -3 -31 -4 -4 -5 -2 -1 5
4 6 2 12 -3 12 -6 0 -11 -7 -11 -15 0 -8 4 -15 9 -15 14 0 9 -79 -6 -84 -7 -3
-13 -1 -13 3 0 5 6 12 13 14 9 4 9 6 -1 6 -7 1 -10 6 -6 13 4 6 3 8 -3 5 -18
-11 -10 -52 10 -49 9 2 17 -2 17 -8 0 -6 -4 -8 -10 -5 -5 3 -10 1 -10 -6 0
-10 -3 -10 -12 -1 -7 7 -17 12 -23 12 -5 0 -2 -7 8 -15 11 -7 25 -11 33 -8 8
3 14 0 14 -6 0 -6 -4 -11 -10 -11 -5 0 -10 -5 -10 -11 0 -5 5 -7 12 -3 7 4 8
3 4 -5 -4 -6 -11 -9 -16 -6 -4 3 -11 -1 -13 -7 -4 -10 -6 -10 -6 0 -1 8 -6 10
-13 5 -7 -4 -37 -8 -66 -9 -29 -1 -59 -5 -67 -8 -8 -3 -15 -1 -15 5 0 6 -5 7
-10 4 -6 -4 -8 -11 -5 -16 6 -8 -9 -13 -29 -10 -5 1 -4 -4 2 -11 6 -8 7 -19 3
-27 -5 -7 -7 -23 -5 -37 1 -13 -2 -24 -7 -24 -5 0 -9 -7 -9 -16 0 -9 5 -12 12
-8 7 4 8 3 4 -5 -4 -6 -13 -8 -19 -4 -7 4 -5 -4 4 -18 12 -18 14 -30 7 -43 -9
-17 -12 -16 -36 6 -19 16 -22 17 -12 4 14 -18 13 -19 -3 -13 -11 4 -16 3 -12
-4 4 -6 13 -8 20 -5 7 2 16 -2 19 -10 3 -9 11 -12 17 -8 8 4 9 3 5 -5 -6 -9
-11 -9 -24 1 -13 11 -15 11 -10 -2 5 -13 -5 -15 -53 -16 -32 0 -55 4 -52 9 3
5 -4 6 -17 2 -17 -5 -21 -4 -16 6 5 9 2 8 -6 -1 -14 -17 -32 -20 -44 -7 -4 4
-11 7 -16 7 -5 0 -7 -3 -5 -7 3 -5 -34 -8 -83 -8 -73 0 -87 2 -82 15 3 9 -1 7
-10 -4 -9 -12 -20 -16 -28 -11 -9 6 -11 4 -5 -5 6 -10 4 -12 -9 -7 -10 4 -15
3 -11 -3 4 -7 -6 -9 -27 -5 -23 4 -29 2 -18 -4 8 -5 18 -7 22 -5 17 11 7 -16
-13 -35 -13 -12 -17 -21 -10 -26 16 -10 13 -23 -6 -28 -15 -4 -15 -5 2 -6 17
-1 18 -3 5 -11 -13 -9 -13 -10 0 -10 13 0 13 -1 0 -10 -12 -8 -13 -11 -1 -19
11 -7 11 -9 0 -14 -12 -4 -11 -7 1 -16 11 -8 12 -11 2 -11 -7 0 -10 -4 -7 -10
3 -5 1 -10 -4 -10 -6 0 -10 -3 -9 -7 3 -7 -5 -13 -17 -13 -3 0 2 12 11 28 12
20 12 22 1 9 -8 -10 -17 -14 -19 -10 -3 4 -4 3 -2 -3 1 -6 -2 -17 -7 -25 -7
-11 -9 -11 -9 3 0 9 -4 19 -9 22 -5 4 -7 -3 -4 -14 3 -11 0 -20 -6 -20 -6 0
-14 0 -18 0 -4 0 -8 7 -9 16 -2 9 -8 22 -15 28 -9 8 -9 6 0 -11 12 -23 6 -31
-29 -38 -11 -2 -20 0 -20 5 0 4 -8 6 -19 3 -10 -3 -22 0 -26 7 -5 8 -13 6 -28
-7 -11 -10 -17 -12 -13 -5 4 6 2 12 -4 12 -6 0 -9 4 -6 8 3 5 -1 9 -9 9 -10 0
-12 -4 -5 -12 8 -9 6 -14 -5 -19 -11 -4 -14 -2 -9 6 5 8 2 9 -10 5 -10 -4 -27
-2 -39 5 -19 10 -20 9 -10 -4 11 -12 9 -14 -10 -14 -12 1 -28 7 -35 14 -7 6
-18 12 -25 12 -6 0 -2 -6 8 -14 18 -13 18 -14 -8 -9 -15 3 -24 10 -21 17 3 6
-1 3 -8 -6 -13 -15 -15 -15 -26 0 -7 9 -10 12 -7 6 2 -7 -2 -15 -11 -18 -13
-5 -15 -2 -11 15 6 21 5 21 -16 -2 -19 -20 -22 -21 -25 -6 -2 9 -11 17 -20 16
-11 0 -12 -2 -4 -6 30 -12 6 -18 -72 -18 -63 0 -82 -3 -79 -12 3 -7 0 -13 -6
-13 -6 0 -11 -9 -11 -19 0 -10 -7 -22 -16 -25 -9 -4 -12 -11 -7 -18 12 -21 12
-38 0 -38 -7 0 -5 -5 3 -10 8 -5 10 -10 4 -10 -6 0 -11 -7 -11 -15 0 -8 5 -15
11 -15 6 0 4 -4 -4 -9 -8 -6 -18 -7 -24 -4 -5 3 -6 1 -2 -6 4 -6 11 -9 16 -6
5 3 11 1 15 -5 3 -5 1 -10 -5 -10 -6 0 -8 -5 -4 -12 11 -17 15 -90 5 -84 -4 3
-8 -1 -8 -9 0 -8 4 -12 9 -9 9 6 9 6 12 -53 1 -23 0 -40 -4 -38 -11 7 2 -60
14 -67 8 -6 8 -8 -1 -8 -6 0 -9 -9 -6 -20 4 -16 2 -19 -13 -14 -15 5 -16 4 -4
-4 8 -6 17 -9 22 -6 10 6 29 -32 20 -40 -3 -4 1 -4 11 0 12 4 17 1 17 -12 0
-16 2 -17 10 -4 8 13 10 13 10 -2 0 -21 16 -32 26 -17 4 8 3 9 -4 5 -7 -4 -12
-2 -12 3 0 14 6 14 31 1 13 -8 19 -7 19 0 0 7 5 8 12 3 7 -4 21 -6 31 -5 15 3
22 -8 18 -31 -1 -5 3 -6 8 -3 5 3 11 -1 15 -9 3 -8 11 -15 18 -15 9 0 10 3 2
8 -6 4 -16 17 -23 30 -10 19 -9 22 5 22 10 0 14 -3 11 -7 -4 -3 2 -13 14 -21
20 -14 20 -15 2 -35 -14 -16 -15 -19 -3 -15 11 4 16 0 16 -12 0 -10 -4 -16 -8
-14 -11 7 -10 -8 2 -26 6 -9 5 -17 -3 -22 -9 -6 -8 -8 3 -8 13 0 13 -1 0 -10
-13 -8 -13 -10 1 -10 9 0 22 -12 28 -27 7 -16 27 -35 46 -44 19 -9 32 -13 30
-8 -3 4 -1 10 5 14 5 3 10 2 10 -3 0 -6 20 -9 44 -8 25 1 42 -2 40 -6 -3 -4 1
-8 8 -8 8 -1 6 -6 -6 -15 -11 -8 -15 -15 -9 -15 7 0 15 5 18 10 4 6 12 7 18 3
7 -4 6 1 -2 10 -19 24 -9 31 12 7 15 -18 15 -19 -5 -26 -19 -6 -19 -8 -5 -15
9 -5 14 -16 11 -24 -4 -8 -2 -15 4 -15 11 0 11 18 0 36 -4 6 -2 11 5 11 8 0
13 -14 13 -34 0 -28 -4 -33 -18 -30 -10 3 -16 1 -12 -4 3 -5 12 -9 21 -9 9 0
13 -6 10 -15 -4 -8 -2 -17 4 -20 5 -4 8 -12 7 -19 -4 -17 35 -63 58 -68 10 -2
18 -11 18 -21 -1 -9 3 -14 8 -11 5 3 7 12 4 19 -3 9 2 13 15 12 10 -1 19 -7
19 -15 0 -10 4 -9 16 3 14 13 19 14 25 3 7 -10 9 -10 9 2 0 12 2 13 9 1 5 -7
13 -11 19 -7 6 3 14 1 18 -5 4 -7 3 -9 -4 -5 -6 3 -13 2 -17 -4 -4 -7 -13 -7
-26 1 -12 6 -24 8 -27 4 -3 -3 4 -9 17 -12 23 -6 23 -7 6 -20 -11 -7 -14 -13
-8 -13 6 0 16 7 23 15 7 8 19 15 27 15 11 0 8 -6 -8 -20 -13 -10 -18 -19 -11
-20 6 0 12 4 12 9 0 5 9 11 20 14 14 3 18 1 13 -6 -10 -17 -13 -37 -4 -37 4 0
7 -9 7 -20 0 -11 -5 -19 -11 -17 -5 2 -9 16 -9 30 1 22 -1 25 -12 16 -16 -13
-19 -23 -4 -14 5 3 10 1 10 -4 0 -6 -5 -11 -12 -11 -6 0 -3 -7 8 -15 16 -13
17 -16 4 -25 -8 -5 -10 -10 -5 -10 6 0 16 5 21 10 13 13 11 -33 -1 -64 -5 -12
-5 -17 2 -13 5 3 10 0 10 -9 0 -9 -7 -12 -19 -8 -10 3 -18 0 -18 -6 0 -6 5 -8
10 -5 5 3 10 1 10 -5 0 -6 3 -9 8 -6 4 2 7 -17 7 -44 0 -34 -3 -46 -12 -43 -7
3 -16 -2 -19 -11 -3 -9 -11 -13 -18 -10 -6 3 0 -4 13 -15 18 -16 20 -21 7 -21
-9 0 -16 -6 -16 -12 0 -10 -3 -9 -9 1 -5 7 -14 10 -20 7 -19 -12 -52 -16 -46
-5 4 5 11 7 16 4 5 -3 6 1 3 10 -6 14 -8 13 -23 -2 -20 -22 -57 -31 -45 -11 4
8 3 10 -2 5 -5 -5 -10 -13 -10 -18 -1 -5 -2 -12 -3 -16 0 -4 -8 2 -16 13 -14
18 -14 18 -10 -4 2 -12 -1 -22 -6 -22 -6 0 -7 -4 -4 -10 3 -5 1 -10 -5 -10 -6
0 -9 -4 -5 -9 3 -5 1 -12 -5 -16 -5 -3 -10 -1 -10 6 0 7 -3 10 -6 6 -3 -3 -2
-12 2 -19 12 -19 14 -38 3 -38 -6 0 -7 -6 -3 -12 11 -17 12 -48 2 -42 -13 8
-10 -10 4 -25 11 -11 10 -13 -4 -8 -12 4 -15 2 -11 -8 3 -8 8 -13 12 -10 10 6
8 -36 -3 -54 -5 -8 -3 -16 5 -22 12 -7 11 -9 -1 -9 -13 0 -13 -1 0 -10 8 -5
11 -10 6 -10 -5 0 -3 -7 4 -15 10 -12 9 -15 -6 -15 -16 -1 -17 -2 -3 -10 12
-7 15 -24 13 -74 -1 -36 -6 -70 -10 -77 -4 -7 -3 -9 3 -6 5 3 9 -8 8 -26 -1
-18 2 -42 7 -54 4 -13 3 -25 -3 -28 -5 -4 -7 -15 -4 -26 4 -11 2 -19 -5 -19
-6 0 -8 5 -4 12 4 7 3 8 -4 4 -6 -4 -9 -13 -6 -21 4 -8 9 -13 14 -10 4 2 6 -8
4 -23 -1 -14 3 -30 9 -35 8 -6 4 -7 -10 -4 -15 3 -20 1 -16 -9 3 -8 9 -12 13
-9 5 3 12 0 16 -6 5 -8 3 -9 -6 -4 -9 6 -10 2 -5 -15 5 -15 4 -20 -4 -16 -8 5
-8 0 0 -18 9 -20 9 -29 -1 -41 -11 -13 -10 -15 2 -10 9 4 15 0 15 -10 0 -10
-6 -14 -16 -10 -11 4 -10 1 4 -15 11 -12 13 -20 6 -20 -7 0 -9 -5 -4 -12 12
-21 13 -41 1 -56 -9 -10 -8 -12 3 -10 8 2 13 -3 12 -9 -2 -7 2 -13 8 -13 5 0
8 -4 5 -9 -4 -5 4 -7 16 -3 11 3 19 1 16 -4 -4 -5 17 -9 45 -8 29 0 58 -5 66
-10 11 -8 13 -8 7 2 -4 6 -3 12 3 12 5 0 11 -5 13 -12 3 -7 9 -8 18 -3 20 13
100 13 100 0 0 -5 5 -3 10 5 8 12 10 12 10 -5 1 -18 1 -19 11 -2 5 9 15 17 22
17 7 0 6 -4 -3 -10 -13 -8 -12 -10 3 -10 9 0 17 5 17 12 0 6 10 -1 23 -15 20
-24 23 -25 23 -8 0 11 -4 17 -8 15 -4 -3 -8 -1 -8 5 0 5 9 9 20 8 15 -1 19 -6
14 -22 -5 -18 -4 -18 11 3 9 12 22 22 28 22 7 0 6 -4 -3 -10 -13 -8 -13 -10 2
-10 9 0 19 6 21 13 4 9 6 9 6 -1 1 -8 6 -10 13 -5 20 12 71 13 85 1 9 -7 14
-6 18 4 4 9 19 13 43 12 53 -3 54 -3 48 -13 -7 -11 21 -8 31 4 4 4 2 5 -4 1
-7 -4 -13 -3 -13 3 0 12 60 8 61 -5 0 -5 7 -16 15 -25 8 -9 11 -19 7 -24 -5
-4 -2 -5 5 -1 11 7 10 11 -2 25 -24 26 -6 36 69 37 114 2 126 4 121 13 -3 5 1
12 10 15 10 4 13 2 9 -7 -4 -6 0 -3 9 7 8 10 13 24 9 29 -4 6 0 8 9 5 11 -5
14 0 12 20 -1 15 -3 28 -4 30 -7 8 -4 29 7 40 7 7 10 19 7 26 -3 8 3 16 15 19
14 3 19 11 15 28 -2 13 -2 18 2 12 3 -7 10 -13 15 -13 6 0 7 5 3 11 -4 8 0 7
15 -1 12 -6 27 -9 34 -6 7 2 5 5 -5 5 -9 1 -19 5 -22 10 -8 12 37 8 46 -4 5
-6 8 -5 8 4 0 8 6 11 16 7 8 -3 13 -2 10 3 -3 5 10 12 29 15 25 5 33 11 28 22
-3 9 -2 19 3 23 5 3 18 17 29 31 13 16 14 20 4 12 -15 -11 -17 -9 -15 13 0 14
4 25 8 25 4 0 5 7 2 15 -4 8 1 17 10 21 9 3 16 10 16 15 0 6 -10 5 -22 -1
l-23 -11 22 19 c12 11 19 23 15 26 -3 4 1 4 10 1 9 -4 19 -1 23 5 5 8 11 8 21
-1 11 -9 17 -9 28 0 11 9 15 9 18 0 3 -8 9 -9 18 -4 19 12 60 13 67 2 3 -5 9
-3 14 4 7 12 9 12 9 0 0 -10 3 -11 14 -2 11 9 16 9 21 0 6 -8 9 -8 15 1 5 8 9
7 13 -4 4 -10 1 -16 -8 -16 -7 0 -17 -4 -20 -10 -4 -6 2 -7 17 -1 13 4 24 13
24 20 3 22 4 23 18 12 11 -9 15 -9 19 1 4 11 6 10 6 0 1 -7 5 -11 10 -7 18 10
35 -39 38 -110 5 -91 5 -95 13 -90 4 3 20 -5 36 -17 15 -13 24 -17 20 -9 -7
10 -3 11 15 6 13 -4 26 -12 27 -16 2 -5 8 -9 13 -9 6 0 8 4 5 9 -3 5 1 12 10
15 9 4 13 2 8 -5 -4 -8 1 -9 15 -4 13 4 21 2 21 -5 0 -6 -4 -8 -10 -5 -5 3
-10 1 -10 -5 0 -7 7 -9 16 -6 9 3 18 6 20 6 3 0 2 5 -1 11 -5 6 0 6 12 -1 22
-14 27 -45 11 -74 -10 -20 -10 -20 7 -6 17 14 17 14 7 -7 -8 -14 -9 -24 -2
-28 6 -4 7 -11 4 -17 -4 -7 -9 -6 -14 2 -5 8 -10 9 -14 2 -3 -6 3 -13 14 -17
11 -3 20 -13 20 -21 0 -8 -4 -12 -10 -9 -5 3 -10 1 -10 -5 0 -6 7 -10 15 -8 8
2 27 -10 41 -27 14 -16 23 -24 19 -18 -5 10 0 11 19 3 18 -6 26 -6 26 1 0 6 5
7 10 4 8 -5 7 -12 -2 -23 -11 -15 -11 -15 7 0 19 16 89 23 80 8 -2 -4 2 -7 10
-7 8 0 12 4 9 9 -3 4 0 8 5 8 6 0 11 -6 11 -12 0 -8 3 -9 8 -3 12 17 34 16 48
-2 12 -15 13 -15 8 -2 -4 13 1 16 25 15 16 0 27 -4 25 -8 -3 -5 0 -8 5 -8 6 0
11 4 11 9 0 6 9 9 20 8 18 -1 24 -9 22 -29 -1 -3 6 -12 15 -20 14 -11 16 -11
8 2 -18 29 -16 49 5 47 11 -1 20 -6 20 -12 0 -7 3 -7 8 0 8 12 75 17 68 6 -3
-4 1 -8 9 -8 8 0 12 3 10 7 -2 3 14 6 36 7 23 0 39 -4 39 -11 0 -8 2 -8 8 0
13 20 46 24 74 10 20 -11 25 -11 22 -2 -7 18 29 16 44 -3 10 -13 11 -13 7 -1
-4 12 5 15 44 16 28 0 48 -2 46 -6 -2 -3 5 -6 15 -6 10 0 16 5 13 10 -4 5 1 7
12 3 9 -4 25 -2 33 5 10 8 13 9 9 1 -5 -7 0 -9 14 -6 16 4 17 8 7 14 -9 6 -7
9 10 9 12 0 22 6 22 14 0 8 6 16 13 19 8 3 12 27 11 78 0 41 4 80 9 87 6 8 6
12 -1 12 -6 0 -9 7 -6 15 4 8 10 13 14 10 5 -3 12 -1 15 5 4 6 3 10 -2 9 -25
-4 -30 4 -28 47 2 25 6 48 9 51 3 3 1 12 -4 18 -7 9 -6 16 5 25 13 11 13 14 0
27 -9 8 -12 20 -8 26 4 7 8 19 8 27 0 8 6 14 13 12 8 -1 11 2 7 8 -3 6 -11 8
-16 5 -13 -9 -11 9 4 24 7 9 8 11 0 7 -8 -4 -10 5 -6 32 2 20 4 45 4 55 0 12
5 17 15 13 18 -7 18 -1 -2 18 -12 12 -12 16 -2 16 10 0 9 3 -2 10 -10 6 -11
10 -2 10 6 0 12 5 12 11 0 5 -4 8 -8 5 -4 -2 -8 11 -8 30 0 23 4 33 13 30 7
-3 10 1 6 9 -3 8 -8 13 -12 11 -4 -3 -7 11 -7 30 0 19 5 34 11 34 5 0 3 5 -5
10 -13 8 -12 10 4 10 20 0 20 0 0 15 -13 10 -14 14 -5 15 11 0 11 3 0 16 -12
15 -11 16 10 9 16 -5 21 -4 17 4 -4 6 -15 11 -24 11 -15 0 -15 2 -2 10 8 5 10
10 4 10 -11 0 -41 58 -37 71 1 3 -4 6 -12 6 -8 0 -11 -5 -8 -11 4 -6 -1 -5
-10 3 -9 7 -14 18 -10 25 5 8 3 8 -8 0 -22 -17 -61 -15 -76 4 -8 9 -12 12 -9
5 4 -6 2 -14 -3 -17 -5 -4 -12 3 -16 14 -3 11 -11 20 -17 20 -6 0 -6 -6 2 -15
7 -9 10 -18 6 -22 -3 -3 -6 0 -6 8 0 12 -2 11 -11 -1 -9 -13 -10 -12 -5 3 3 9
2 17 -3 17 -4 0 -8 7 -8 15 0 9 6 14 13 11 9 -3 11 1 8 12 -4 12 0 11 14 -5
11 -13 24 -23 28 -23 4 0 3 5 -4 12 -8 8 -8 17 -1 32 9 19 9 19 -4 4 -13 -16
-15 -16 -31 0 -12 12 -16 13 -14 3 2 -7 -4 -16 -12 -18 -9 -3 -11 -1 -5 4 13
10 13 23 1 42 -7 10 -6 12 3 6 9 -5 12 -1 10 11 -2 11 0 25 4 32 5 7 3 12 -5
13 -7 1 1 5 17 9 l30 8 -27 1 c-16 0 -28 5 -28 10 0 14 26 32 35 23 4 -4 2 3
-6 15 -7 12 -16 20 -20 17 -4 -2 -7 5 -6 16 2 26 14 26 22 -1 4 -11 9 -18 12
-16 2 3 -1 15 -7 28 -11 19 -10 24 5 35 16 12 16 13 -3 11 -11 0 -18 -5 -16
-9 3 -4 1 -8 -4 -8 -6 0 -9 11 -8 24 0 13 5 22 10 18 5 -3 6 2 3 12 -4 11 -3
15 4 10 8 -4 9 1 5 17 -6 19 -5 21 3 7 7 -10 19 -14 31 -11 11 3 20 0 20 -6 0
-6 5 -11 12 -11 6 0 3 10 -8 21 l-19 22 25 -13 c22 -12 24 -12 12 3 -11 13
-10 15 7 10 12 -3 18 -10 15 -17 -3 -6 1 -3 9 6 11 14 16 15 27 5 7 -7 10 -7
7 -1 -4 6 5 16 19 23 20 9 24 9 18 -1 -5 -9 -4 -10 4 -3 5 6 19 26 30 46 15
27 17 40 9 55 -10 17 -9 18 8 4 17 -14 18 -14 6 8 -6 12 -9 22 -5 22 3 0 1 7
-6 15 -9 10 -9 15 -1 15 6 0 11 8 11 19 0 11 9 21 21 24 15 4 20 11 15 23 -5
13 -4 14 7 6 8 -7 18 -7 27 -2 24 16 35 11 14 -5 -19 -15 -19 -15 1 -8 11 3
23 11 27 17 5 7 8 6 8 -3 0 -9 4 -10 13 -4 20 16 58 23 50 10 -4 -7 0 -6 9 1
10 8 14 20 11 30 -6 15 -4 15 9 4 13 -10 18 -10 24 -1 4 8 3 9 -4 5 -7 -4 -12
-1 -12 8 0 8 4 17 9 20 5 4 8 17 6 31 -1 14 2 25 7 25 5 0 6 5 3 10 -3 6 0 10
7 10 10 0 10 2 1 8 -18 12 -11 50 10 56 12 3 17 10 14 19 -9 24 5 29 26 10 11
-10 17 -13 14 -7 -4 7 2 14 13 17 11 3 18 1 14 -4 -3 -5 0 -9 5 -9 6 0 11 4
11 10 0 5 13 7 32 3 24 -5 29 -3 23 7 -5 7 -4 11 1 8 21 -13 52 11 58 46 5 25
11 34 19 29 7 -4 7 0 -2 10 -9 11 -10 17 -2 17 6 0 11 5 11 11 0 5 -4 8 -8 5
-4 -2 -8 6 -8 20 0 16 5 23 12 20 8 -3 11 1 7 10 -3 7 -9 14 -15 14 -5 0 -6 6
-1 13 12 20 12 121 -1 129 -8 6 -8 8 1 8 7 0 17 -8 22 -17 6 -10 11 -13 11 -6
0 6 -7 18 -15 27 -16 16 -20 31 -7 22 5 -3 9 1 9 9 0 8 -4 12 -9 9 -4 -3 -8 2
-8 10 0 19 11 20 30 4 12 -11 12 -10 3 2 -5 8 -9 25 -8 38 1 12 -2 22 -7 22
-5 0 -3 10 3 23 6 12 8 19 4 15 -8 -8 -35 35 -39 62 -3 13 -22 18 -93 23 -18
1 -33 7 -33 12 0 6 -4 4 -8 -3 -10 -16 -45 -4 -35 12 5 8 3 8 -8 0 -8 -7 -27
-12 -44 -12 -16 0 -36 5 -44 12 -12 8 -13 8 -7 -1 4 -8 1 -13 -8 -13 -10 0
-13 6 -9 18 5 16 5 16 -8 0 -14 -18 -33 -19 -58 -4 -9 6 -12 5 -7 -2 4 -7 -4
-10 -23 -10 -18 1 -28 5 -24 11 4 6 1 7 -8 1 -16 -10 -130 -13 -123 -3 2 3 -9
11 -24 18 -24 10 -25 10 -9 -2 23 -19 21 -25 -8 -23 -19 1 -23 5 -19 20 4 12
2 16 -5 12 -6 -4 -11 -13 -11 -19 0 -18 -58 -18 -64 0 -3 8 -9 12 -13 10 -5
-3 -8 10 -8 28 0 18 3 31 7 29 13 -8 9 9 -7 29 -15 20 -10 51 7 41 6 -4 3 4
-5 17 -9 13 -17 33 -19 44 -4 25 -34 42 -88 48 -22 2 -44 7 -47 11 -3 3 -12 1
-20 -5 -10 -9 -13 -8 -13 1 0 10 -3 10 -15 0 -12 -10 -15 -10 -15 1 0 12 -2
12 -9 0 -7 -11 -9 -11 -14 0 -4 11 -6 11 -6 0 -1 -11 -5 -10 -17 5 -8 10 -13
14 -10 8 3 -7 -5 -14 -19 -16 -20 -4 -25 -1 -26 16 -1 11 -1 25 0 29 1 5 -3 6
-8 3 -5 -3 -7 -16 -4 -29 3 -12 2 -19 -2 -15 -5 4 -15 3 -22 -4 -11 -9 -16 -9
-23 2 -7 11 -12 11 -23 2 -12 -10 -18 -9 -31 3 -9 9 -13 21 -10 27 4 6 12 1
20 -13 7 -13 13 -20 14 -16 0 5 -5 17 -10 27 -12 22 -42 16 -38 -8 2 -8 -5
-16 -15 -18 -15 -2 -16 0 -6 12 11 13 6 18 -14 15 -5 -1 -6 3 -2 9 3 6 9 8 13
6 4 -2 16 2 27 10 10 8 14 14 9 14 -6 0 -15 -5 -20 -10 -8 -8 -15 -6 -24 5
-11 13 -10 15 3 10 8 -4 18 -1 23 6 4 8 3 10 -5 5 -6 -4 -14 0 -18 9 -3 10 0
21 8 26 12 7 11 9 -2 9 -11 0 -15 8 -14 28 1 15 -3 31 -9 35 -6 5 2 6 19 3 22
-5 26 -4 15 4 -8 5 -23 10 -32 10 -10 0 -18 6 -18 14 0 8 -9 18 -20 21 -11 3
-20 11 -20 17 0 5 -6 8 -12 5 -7 -2 -25 0 -40 4 -16 4 -28 4 -28 -1 0 -12 -32
0 -42 14 -5 7 -8 6 -8 -3 0 -11 -4 -10 -16 5 -8 10 -13 14 -10 7 4 -6 2 -14
-3 -17 -16 -10 -20 8 -6 27 8 12 15 14 20 8 8 -14 25 -14 25 0 0 5 -4 8 -9 5
-5 -3 -13 0 -18 7 -12 16 -14 59 -3 52 6 -3 7 1 4 10 -5 11 -2 14 10 9 9 -3
16 -2 16 4 0 5 -8 9 -17 9 -34 0 -39 3 -40 22 -1 10 8 24 20 30 l22 11 -22 -6
c-25 -6 -32 13 -11 34 9 9 9 12 0 12 -19 0 -14 48 6 53 16 4 16 5 0 6 -21 1
-24 40 -5 60 7 8 7 11 1 8 -8 -5 -12 7 -12 34 -1 22 -6 47 -13 55 -6 8 -8 14
-4 14 4 0 2 6 -4 13 -6 8 -8 17 -4 21 4 4 -1 4 -11 0 -13 -5 -17 -4 -13 3 8
12 -20 26 -34 17 -5 -3 -9 -1 -9 4 0 5 -12 14 -27 21 -25 10 -26 10 -9 -3 17
-14 16 -15 -17 -13 -20 2 -40 7 -44 11 -4 5 -3 6 3 3 7 -4 15 0 18 8 4 12 2
13 -12 6 -9 -5 -21 -9 -25 -9 -5 0 -12 -4 -15 -8 -4 -4 -1 -4 6 0 6 4 12 2 12
-3 0 -6 -4 -11 -8 -11 -16 0 -21 13 -12 30 7 13 4 24 -10 40 -21 25 -26 35
-11 26 5 -3 12 1 15 10 3 8 2 12 -4 9 -10 -6 -14 7 -11 32 1 7 -6 27 -15 44
-13 26 -14 33 -2 40 10 7 9 9 -4 9 -10 0 -18 5 -18 11 0 5 -4 8 -8 5 -5 -3
-23 4 -41 15 -18 11 -30 15 -26 9 4 -6 -4 -9 -19 -8 -15 1 -26 6 -26 10 0 4
-5 8 -11 8 -5 0 -7 -4 -4 -10 3 -5 2 -10 -4 -10 -5 0 -12 6 -14 13 -4 10 -6
10 -6 0 -1 -7 -6 -13 -12 -13 -5 0 -8 4 -5 8 3 5 -1 9 -9 9 -8 0 -12 -4 -9 -9
3 -4 -2 -8 -11 -8 -9 0 -14 4 -11 8 3 5 -1 9 -9 9 -8 0 -12 -4 -9 -9 3 -4 -2
-8 -11 -8 -10 0 -13 5 -9 13 6 9 4 9 -7 1 -12 -10 -25 -10 -64 -1 -5 1 -17 7
-25 12 -13 8 -13 7 -1 -9z m405 -247 c-3 -5 -10 -7 -15 -3 -5 3 -7 10 -3 15 3
5 10 7 15 3 5 -3 7 -10 3 -15z m241 -479 c-2 -56 -11 -59 -11 -5 0 25 3 45 6
45 4 0 6 -18 5 -40z m745 -1734 c0 -3 -4 -8 -10 -11 -5 -3 -10 -1 -10 4 0 6 5
11 10 11 6 0 10 -2 10 -4z m-2608 -380 c7 4 8 2 4 -4 -12 -19 -36 -15 -29 5 4
11 8 13 11 5 2 -7 9 -9 14 -6z m860 -908 c-30 -12 -36 -8 -16 11 13 12 21 15
26 7 4 -6 0 -14 -10 -18z m-12 -32 c0 -3 -4 -8 -10 -11 -5 -3 -10 -1 -10 4 0
6 5 11 10 11 6 0 10 -2 10 -4z m-15 -86 c3 -5 1 -10 -4 -10 -6 0 -11 5 -11 10
0 6 2 10 4 10 3 0 8 -4 11 -10z"/>
<path d="M2896 4507 c3 -10 9 -15 12 -12 3 3 0 11 -7 18 -10 9 -11 8 -5 -6z"/>
<path d="M2926 4458 c3 -5 10 -6 15 -3 13 9 11 12 -6 12 -8 0 -12 -4 -9 -9z"/>
<path d="M2937 4379 c7 -7 15 -10 18 -7 3 3 -2 9 -12 12 -14 6 -15 5 -6 -5z"/>
<path d="M2993 4365 c0 -8 4 -12 9 -9 5 3 6 10 3 15 -9 13 -12 11 -12 -6z"/>
<path d="M2190 4339 c0 -5 5 -7 10 -4 6 3 10 8 10 11 0 2 -4 4 -10 4 -5 0 -10
-5 -10 -11z"/>
<path d="M2155 4320 c3 -5 8 -10 11 -10 2 0 4 5 4 10 0 6 -5 10 -11 10 -5 0
-7 -4 -4 -10z"/>
<path d="M2206 4322 c-3 -5 1 -9 9 -9 8 0 12 4 9 9 -3 4 -7 8 -9 8 -2 0 -6 -4
-9 -8z"/>
<path d="M3149 4243 c-13 -16 -12 -17 4 -4 16 13 21 21 13 21 -2 0 -10 -8 -17
-17z"/>
<path d="M3166 4037 c3 -10 9 -15 12 -12 3 3 0 11 -7 18 -10 9 -11 8 -5 -6z"/>
<path d="M2006 4002 c-3 -5 1 -9 9 -9 8 0 15 4 15 9 0 4 -4 8 -9 8 -6 0 -12
-4 -15 -8z"/>
<path d="M1975 3980 c-3 -5 -1 -10 4 -10 6 0 11 5 11 10 0 6 -2 10 -4 10 -3 0
-8 -4 -11 -10z"/>
<path d="M2004 3939 c-4 -7 -3 -9 4 -5 5 3 13 0 15 -6 4 -9 6 -10 6 -1 1 17
-16 25 -25 12z"/>
<path d="M3175 3940 c-3 -6 1 -7 9 -4 18 7 21 14 7 14 -6 0 -13 -4 -16 -10z"/>
<path d="M3256 3898 c3 -5 10 -6 15 -3 13 9 11 12 -6 12 -8 0 -12 -4 -9 -9z"/>
<path d="M1850 3840 c0 -5 5 -10 11 -10 5 0 7 5 4 10 -3 6 -8 10 -11 10 -2 0
-4 -4 -4 -10z"/>
<path d="M3190 3842 c0 -4 10 -9 22 -9 18 -2 20 0 8 7 -18 12 -30 13 -30 2z"/>
<path d="M1980 3822 c6 -12 8 -28 5 -35 -4 -6 0 -4 8 6 9 11 17 14 20 7 4 -7
5 -7 3 0 -1 7 -5 10 -8 8 -4 -2 -14 6 -23 17 -16 19 -16 19 -5 -3z"/>
<path d="M1914 3799 c-4 -7 -3 -9 4 -5 5 3 13 0 15 -6 4 -9 6 -10 6 -1 1 17
-16 25 -25 12z"/>
<path d="M1956 3793 c-6 -14 -5 -15 5 -6 7 7 10 15 7 18 -3 3 -9 -2 -12 -12z"/>
<path d="M1595 3691 c-3 -5 -2 -12 3 -15 5 -3 9 1 9 9 0 17 -3 19 -12 6z"/>
<path d="M1778 3677 c-3 -19 -2 -25 4 -19 6 6 8 18 6 28 -3 14 -5 12 -10 -9z"/>
<path d="M3406 3662 c-3 -5 1 -9 9 -9 8 0 15 4 15 9 0 4 -4 8 -9 8 -6 0 -12
-4 -15 -8z"/>
<path d="M1750 3621 c0 -6 4 -13 10 -16 6 -3 7 1 4 9 -7 18 -14 21 -14 7z"/>
<path d="M1550 3601 c0 -6 4 -13 10 -16 6 -3 7 1 4 9 -7 18 -14 21 -14 7z"/>
<path d="M1727 3599 c7 -7 15 -10 18 -7 3 3 -2 9 -12 12 -14 6 -15 5 -6 -5z"/>
<path d="M1700 3580 c8 -5 20 -10 25 -10 6 0 3 5 -5 10 -8 5 -19 10 -25 10 -5
0 -3 -5 5 -10z"/>
<path d="M1773 3569 c11 -17 14 -16 20 7 1 4 -6 8 -15 10 -14 2 -15 -1 -5 -17z"/>
<path d="M3468 3577 c7 -8 9 -17 5 -20 -3 -4 -1 -7 5 -7 18 0 14 27 -4 34 -13
5 -14 4 -6 -7z"/>
<path d="M1680 3560 c-9 -6 -10 -10 -3 -10 6 0 15 5 18 10 8 12 4 12 -15 0z"/>
<path d="M1595 3530 c-16 -17 -16 -20 -3 -15 9 4 19 13 22 21 7 19 2 18 -19
-6z"/>
<path d="M1635 3540 c3 -5 8 -10 11 -10 2 0 4 5 4 10 0 6 -5 10 -11 10 -5 0
-7 -4 -4 -10z"/>
<path d="M1690 3532 c-8 -15 -11 -15 -21 -2 -9 13 -10 13 -6 0 2 -8 13 -15 24
-16 15 -1 20 3 16 15 -3 12 0 11 11 -3 13 -16 16 -17 16 -4 0 23 -28 30 -40
10z"/>
<path d="M3593 3529 c-2 -23 3 -25 10 -4 4 8 3 16 -1 19 -4 3 -9 -4 -9 -15z"/>
<path d="M3700 3540 c-12 -7 -10 -9 7 -7 12 0 19 5 17 9 -6 10 -6 10 -24 -2z"/>
<path d="M1548 3533 c6 -2 18 -2 25 0 6 3 1 5 -13 5 -14 0 -19 -2 -12 -5z"/>
<path d="M3509 3517 c7 -7 14 -8 21 -1 6 6 2 10 -12 11 -16 2 -18 -1 -9 -10z"/>
<path d="M3986 3442 c-3 -5 1 -9 9 -9 8 0 12 4 9 9 -3 4 -7 8 -9 8 -2 0 -6 -4
-9 -8z"/>
<path d="M1233 3415 c0 -8 4 -12 9 -9 5 3 6 10 3 15 -9 13 -12 11 -12 -6z"/>
<path d="M1235 3369 c-4 -6 -5 -12 -2 -15 2 -3 7 2 10 11 7 17 1 20 -8 4z"/>
<path d="M3906 3358 c3 -4 9 -8 15 -8 5 0 9 4 9 8 0 5 -7 9 -15 9 -8 0 -12 -4
-9 -9z"/>
<path d="M1076 3333 c-6 -14 -5 -15 5 -6 7 7 10 15 7 18 -3 3 -9 -2 -12 -12z"/>
<path d="M1135 3339 c-3 -4 2 -6 10 -5 21 3 28 13 10 13 -9 0 -18 -4 -20 -8z"/>
<path d="M1186 3342 c-2 -4 4 -8 14 -8 10 0 16 4 14 8 -3 4 -9 8 -14 8 -5 0
-11 -4 -14 -8z"/>
<path d="M1246 3325 c-9 -26 -7 -32 5 -12 6 10 9 21 6 23 -2 3 -7 -2 -11 -11z"/>
<path d="M586 3318 c3 -5 10 -6 15 -3 13 9 11 12 -6 12 -8 0 -12 -4 -9 -9z"/>
<path d="M3935 3319 c-4 -6 -4 -13 -1 -16 3 -4 6 -1 6 6 0 7 5 9 12 5 7 -4 8
-3 4 4 -9 15 -13 15 -21 1z"/>
<path d="M3996 3313 c-6 -14 -5 -15 5 -6 7 7 10 15 7 18 -3 3 -9 -2 -12 -12z"/>
<path d="M4030 3322 c0 -5 7 -9 15 -9 8 0 12 4 9 9 -3 4 -9 8 -15 8 -5 0 -9
-4 -9 -8z"/>
<path d="M1214 3312 c3 -5 0 -13 -6 -15 -9 -4 -10 -6 -1 -6 17 -1 25 16 12 25
-7 4 -9 3 -5 -4z"/>
<path d="M806 3302 c-3 -5 1 -9 9 -9 8 0 12 4 9 9 -3 4 -7 8 -9 8 -2 0 -6 -4
-9 -8z"/>
<path d="M855 3300 c-3 -5 -1 -10 4 -10 6 0 11 5 11 10 0 6 -2 10 -4 10 -3 0
-8 -4 -11 -10z"/>
<path d="M890 3300 c0 -5 5 -10 11 -10 5 0 7 5 4 10 -3 6 -8 10 -11 10 -2 0
-4 -4 -4 -10z"/>
<path d="M3910 3299 c0 -5 -5 -7 -11 -3 -6 3 -4 -7 5 -24 20 -39 46 -36 63 7
8 19 9 30 3 26 -5 -3 -10 -14 -10 -23 0 -15 -2 -15 -11 -2 -8 12 -9 10 -4 -8
6 -21 5 -22 -14 -10 -12 7 -21 16 -21 21 0 4 4 5 10 2 6 -3 7 1 4 9 -7 18 -14
21 -14 5z"/>
<path d="M4096 3302 c-2 -4 -1 -14 4 -22 7 -11 9 -9 7 8 -1 24 -3 26 -11 14z"/>
<path d="M4175 3301 c-3 -5 -2 -12 3 -15 5 -3 9 1 9 9 0 17 -3 19 -12 6z"/>
<path d="M1176 3287 c3 -10 9 -15 12 -12 3 3 0 11 -7 18 -10 9 -11 8 -5 -6z"/>
<path d="M1076 3274 c-3 -8 0 -16 6 -20 7 -4 8 -3 4 4 -10 16 5 14 28 -3 20
-15 36 -12 36 8 0 7 -4 6 -10 -3 -6 -10 -10 -11 -10 -2 0 6 -6 11 -12 10 -7
-2 -12 2 -11 8 3 15 -25 13 -31 -2z"/>
<path d="M4015 3280 c3 -5 8 -10 11 -10 2 0 4 5 4 10 0 6 -5 10 -11 10 -5 0
-7 -4 -4 -10z"/>
<path d="M4202 3278 c-15 -15 -15 -28 0 -28 6 0 8 3 5 7 -4 3 -2 12 4 20 14
16 7 17 -9 1z"/>
<path d="M4295 3280 c3 -5 8 -10 11 -10 2 0 4 5 4 10 0 6 -5 10 -11 10 -5 0
-7 -4 -4 -10z"/>
<path d="M895 3271 c-3 -5 -2 -12 3 -15 5 -3 9 1 9 9 0 17 -3 19 -12 6z"/>
<path d="M956 3258 c3 -5 10 -6 15 -3 13 9 11 12 -6 12 -8 0 -12 -4 -9 -9z"/>
<path d="M4634 3006 c1 -8 5 -18 8 -22 4 -3 5 1 4 10 -1 8 -5 18 -8 22 -4 3
-5 -1 -4 -10z"/>
<path d="M4635 2940 c-3 -5 -1 -10 4 -10 6 0 11 5 11 10 0 6 -2 10 -4 10 -3 0
-8 -4 -11 -10z"/>
<path d="M4615 2880 c-3 -5 -1 -10 4 -10 6 0 11 5 11 10 0 6 -2 10 -4 10 -3 0
-8 -4 -11 -10z"/>
<path d="M495 2820 c3 -5 8 -10 11 -10 2 0 4 5 4 10 0 6 -5 10 -11 10 -5 0 -7
-4 -4 -10z"/>
<path d="M495 2780 c3 -5 8 -10 11 -10 2 0 4 5 4 10 0 6 -5 10 -11 10 -5 0 -7
-4 -4 -10z"/>
<path d="M4474 2609 c-3 -6 -2 -15 3 -20 5 -5 9 -1 9 11 0 23 -2 24 -12 9z"/>
<path d="M4440 2600 c-9 -6 -10 -10 -3 -10 6 0 15 5 18 10 8 12 4 12 -15 0z"/>
<path d="M673 2565 c0 -8 4 -12 9 -9 5 3 6 10 3 15 -9 13 -12 11 -12 -6z"/>
<path d="M4416 2567 c3 -10 9 -15 12 -12 3 3 0 11 -7 18 -10 9 -11 8 -5 -6z"/>
<path d="M4360 2560 c0 -6 4 -9 9 -6 5 4 12 1 14 -4 3 -6 4 -5 3 2 -3 15 -26
23 -26 8z"/>
<path d="M695 2540 c-3 -5 -1 -10 4 -10 6 0 11 5 11 10 0 6 -2 10 -4 10 -3 0
-8 -4 -11 -10z"/>
<path d="M752 2536 c7 -8 15 -12 17 -11 5 6 -10 25 -20 25 -5 0 -4 -6 3 -14z"/>
<path d="M4355 2479 c-3 -4 2 -6 10 -5 21 3 28 13 10 13 -9 0 -18 -4 -20 -8z"/>
<path d="M4395 2411 c-3 -5 -2 -12 3 -15 5 -3 9 1 9 9 0 17 -3 19 -12 6z"/>
<path d="M930 2361 c0 -6 4 -13 10 -16 6 -3 7 1 4 9 -7 18 -14 21 -14 7z"/>
<path d="M4155 2349 c-4 -6 -4 -13 -1 -16 3 -4 6 -1 6 6 0 7 5 9 12 5 7 -4 8
-3 4 4 -9 15 -13 15 -21 1z"/>
<path d="M949 2323 c-13 -16 -12 -17 4 -4 9 7 17 15 17 17 0 8 -8 3 -21 -13z"/>
<path d="M4117 2317 c-3 -7 3 -13 13 -13 10 0 16 6 13 13 -3 7 -9 13 -13 13
-4 0 -10 -6 -13 -13z"/>
<path d="M993 2293 c0 -9 4 -10 14 -2 7 6 13 12 13 14 0 1 -6 2 -13 2 -8 0
-14 -6 -14 -14z"/>
<path d="M4114 2278 c-4 -7 -4 -10 1 -6 4 4 14 3 22 -4 11 -8 12 -7 7 6 -7 19
-20 21 -30 4z"/>
<path d="M970 2259 c0 -5 5 -7 10 -4 6 3 10 8 10 11 0 2 -4 4 -10 4 -5 0 -10
-5 -10 -11z"/>
<path d="M916 2238 c3 -5 10 -6 15 -3 13 9 11 12 -6 12 -8 0 -12 -4 -9 -9z"/>
<path d="M1042 2202 c-9 -6 -5 -15 15 -33 23 -20 25 -20 9 -2 -10 12 -15 27
-11 32 7 13 4 14 -13 3z"/>
<path d="M4113 2165 c0 -8 4 -12 9 -9 5 3 6 10 3 15 -9 13 -12 11 -12 -6z"/>
<path d="M1075 2131 c-3 -5 -2 -12 3 -15 5 -3 9 1 9 9 0 17 -3 19 -12 6z"/>
<path d="M4030 2136 c0 -2 8 -10 18 -17 15 -13 16 -12 3 4 -13 16 -21 21 -21
13z"/>
<path d="M1160 2080 c-12 -7 -10 -9 8 -7 12 0 22 5 22 9 0 11 -12 10 -30 -2z"/>
<path d="M3876 2073 c-4 -10 -1 -11 14 -3 25 14 30 13 24 -5 -4 -8 -2 -15 4
-15 6 0 9 8 8 18 -3 21 -43 25 -50 5z"/>
<path d="M1234 2020 c1 -33 20 -58 31 -41 4 7 1 10 -7 9 -8 -2 -13 7 -13 24 0
14 -3 29 -6 32 -3 3 -5 -8 -5 -24z"/>
<path d="M3917 2033 c-10 -9 -9 -23 1 -23 5 0 9 7 9 15 0 17 -1 18 -10 8z"/>
<path d="M1196 2018 c3 -5 10 -6 15 -3 13 9 11 12 -6 12 -8 0 -12 -4 -9 -9z"/>
<path d="M3975 2021 c-3 -5 -2 -12 3 -15 5 -3 9 1 9 9 0 17 -3 19 -12 6z"/>
<path d="M1274 1943 c15 -4 16 -7 5 -15 -12 -8 -12 -9 0 -6 25 7 24 28 -1 27
-19 -1 -20 -2 -4 -6z"/>
<path d="M1235 1920 c-3 -5 -1 -10 4 -10 6 0 11 5 11 10 0 6 -2 10 -4 10 -3 0
-8 -4 -11 -10z"/>
<path d="M3886 1877 c3 -10 9 -15 12 -12 3 3 0 11 -7 18 -10 9 -11 8 -5 -6z"/>
<path d="M3930 1859 c0 -5 5 -7 10 -4 6 3 10 8 10 11 0 2 -4 4 -10 4 -5 0 -10
-5 -10 -11z"/>
<path d="M1276 1835 c-3 -9 -2 -13 4 -10 5 3 8 -4 7 -15 -1 -21 -17 -28 -17
-7 0 8 -3 7 -9 -3 -14 -20 -3 -32 19 -20 12 6 17 19 15 35 -3 32 -11 40 -19
20z"/>
<path d="M1245 1822 c-10 -7 -18 -32 -10 -32 2 0 9 9 15 20 12 22 11 24 -5 12z"/>
<path d="M1233 1773 c4 -3 -1 -12 -11 -20 -15 -13 -15 -13 6 -3 19 9 23 30 5
30 -4 0 -3 -3 0 -7z"/>
<path d="M1156 1738 c3 -5 10 -6 15 -3 13 9 11 12 -6 12 -8 0 -12 -4 -9 -9z"/>
<path d="M3937 1739 c7 -7 15 -10 18 -7 3 3 -2 9 -12 12 -14 6 -15 5 -6 -5z"/>
<path d="M1230 1736 c0 -2 8 -10 18 -17 15 -13 16 -12 3 4 -13 16 -21 21 -21
13z"/>
<path d="M1053 1655 c0 -8 4 -12 9 -9 5 3 6 10 3 15 -9 13 -12 11 -12 -6z"/>
<path d="M4085 1500 c-3 -6 1 -7 9 -4 18 7 21 14 7 14 -6 0 -13 -4 -16 -10z"/>
<path d="M1010 1481 c0 -6 4 -13 10 -16 6 -3 7 1 4 9 -7 18 -14 21 -14 7z"/>
<path d="M4096 1482 c-3 -5 1 -9 9 -9 8 0 12 4 9 9 -3 4 -7 8 -9 8 -2 0 -6 -4
-9 -8z"/>
<path d="M1045 1441 c-3 -5 -2 -12 3 -15 5 -3 9 1 9 9 0 17 -3 19 -12 6z"/>
<path d="M1015 1340 c-3 -5 -1 -10 4 -10 6 0 11 5 11 10 0 6 -2 10 -4 10 -3 0
-8 -4 -11 -10z"/>
<path d="M4115 1301 c-3 -5 -2 -12 3 -15 5 -3 9 1 9 9 0 17 -3 19 -12 6z"/>
<path d="M1052 1259 c-1 -37 5 -35 12 4 2 15 1 27 -3 27 -4 0 -8 -14 -9 -31z"/>
<path d="M4090 1285 c0 -5 5 -17 10 -25 5 -8 10 -10 10 -5 0 6 -5 17 -10 25
-5 8 -10 11 -10 5z"/>
<path d="M1051 1204 c0 -11 3 -14 6 -6 3 7 2 16 -1 19 -3 4 -6 -2 -5 -13z"/>
<path d="M4097 1213 c-10 -9 -9 -23 1 -23 5 0 9 7 9 15 0 17 -1 18 -10 8z"/>
<path d="M990 1176 c0 -2 8 -10 18 -17 15 -13 16 -12 3 4 -13 16 -21 21 -21
13z"/>
<path d="M4075 1142 c3 -3 1 -10 -5 -16 -6 -8 -2 -16 13 -26 20 -12 21 -12 8
3 -10 13 -11 20 -2 30 8 10 7 14 -4 14 -8 0 -13 -3 -10 -5z"/>
<path d="M1050 1120 c0 -5 5 -10 10 -10 6 0 10 5 10 10 0 6 -4 10 -10 10 -5 0
-10 -4 -10 -10z"/>
<path d="M2444 1109 c-4 -7 -3 -10 4 -5 6 3 14 1 19 -6 4 -7 17 -20 28 -28 11
-8 17 -10 13 -6 -4 5 -2 16 5 24 8 11 8 14 0 9 -6 -4 -14 -1 -16 5 -4 10 -6 9
-6 -1 -1 -11 -5 -10 -20 3 -14 13 -21 14 -27 5z"/>
<path d="M2534 1109 c-3 -6 -1 -16 5 -22 9 -9 10 -7 5 7 -6 15 -4 17 6 11 9
-5 11 -4 6 3 -9 15 -13 15 -22 1z"/>
<path d="M2577 1113 c-4 -3 -7 -11 -7 -17 0 -6 5 -5 12 2 6 6 9 14 7 17 -3 3
-9 2 -12 -2z"/>
<path d="M2637 1113 c-4 -3 -7 -11 -7 -17 0 -6 5 -5 12 2 6 6 9 14 7 17 -3 3
-9 2 -12 -2z"/>
<path d="M2705 1102 c1 -20 24 -62 25 -45 0 6 -5 15 -11 18 -7 5 -6 11 3 18 7
7 11 11 9 10 -2 -2 -9 2 -16 7 -8 7 -11 5 -10 -8z"/>
<path d="M2749 1105 c-7 -45 -6 -55 7 -44 9 7 14 7 14 1 0 -5 -10 -17 -22 -26
-23 -16 -23 -16 -1 -6 32 15 36 26 19 57 -8 16 -16 24 -17 18z"/>
<path d="M2431 1080 c14 -31 19 -36 19 -24 0 6 -7 19 -16 30 -14 18 -14 18 -3
-6z"/>
<path d="M2610 1085 c0 -8 4 -15 10 -15 5 0 7 7 4 15 -4 8 -8 15 -10 15 -2 0
-4 -7 -4 -15z"/>
<path d="M1065 1070 c6 -10 4 -12 -11 -6 -15 6 -17 5 -6 -5 9 -9 15 -10 23 -2
8 8 7 13 -2 18 -8 6 -10 4 -4 -5z"/>
<path d="M1015 1060 c-3 -5 -1 -10 4 -10 6 0 11 5 11 10 0 6 -2 10 -4 10 -3 0
-8 -4 -11 -10z"/>
<path d="M2693 1050 c-1 -11 2 -22 6 -24 4 -3 7 4 6 14 -2 27 -10 33 -12 10z"/>
<path d="M4075 1060 c-16 -7 -17 -9 -3 -9 9 -1 20 4 23 9 7 11 7 11 -20 0z"/>
<path d="M2417 1047 c-3 -8 1 -14 8 -14 7 0 11 6 8 14 -3 7 -6 13 -8 13 -2 0
-5 -6 -8 -13z"/>
<path d="M2455 1041 c-3 -5 -2 -12 3 -15 5 -3 9 1 9 9 0 17 -3 19 -12 6z"/>
<path d="M2590 1036 c7 -7 13 -7 20 0 6 6 3 10 -10 10 -13 0 -16 -4 -10 -10z"/>
<path d="M2630 1040 c0 -5 5 -10 11 -10 5 0 7 5 4 10 -3 6 -8 10 -11 10 -2 0
-4 -4 -4 -10z"/>
<path d="M2530 1019 c0 -5 5 -7 10 -4 6 3 10 8 10 11 0 2 -4 4 -10 4 -5 0 -10
-5 -10 -11z"/>
<path d="M2770 1021 c0 -7 -5 -9 -12 -5 -7 5 -8 3 -3 -5 5 -9 10 -10 18 -2 6
6 8 14 4 18 -4 3 -7 1 -7 -6z"/>
<path d="M4065 1010 c-3 -6 1 -7 9 -4 18 7 21 14 7 14 -6 0 -13 -4 -16 -10z"/>
<path d="M2635 1000 c3 -5 8 -10 11 -10 2 0 4 5 4 10 0 6 -5 10 -11 10 -5 0
-7 -4 -4 -10z"/>
<path d="M2515 989 c-4 -6 -5 -12 -2 -15 2 -3 7 2 10 11 7 17 1 20 -8 4z"/>
<path d="M1036 981 c-3 -5 2 -15 12 -22 15 -12 16 -12 5 2 -7 9 -10 19 -6 22
3 4 4 7 0 7 -3 0 -8 -4 -11 -9z"/>
<path d="M2670 985 c0 -7 30 -13 34 -7 3 4 -4 9 -15 9 -10 1 -19 0 -19 -2z"/>
<path d="M4066 982 c-2 -4 0 -16 4 -26 6 -19 7 -18 13 3 4 15 10 21 19 15 7
-4 9 -3 5 1 -10 11 -36 15 -41 7z"/>
<path d="M4116 918 c3 -5 10 -6 15 -3 13 9 11 12 -6 12 -8 0 -12 -4 -9 -9z"/>
<path d="M1036 902 c-2 -4 -1 -14 4 -22 7 -11 9 -9 7 8 -1 24 -3 26 -11 14z"/>
<path d="M2635 861 c-3 -5 -2 -12 3 -15 5 -3 9 1 9 9 0 17 -3 19 -12 6z"/>
<path d="M2979 853 c-13 -16 -12 -17 4 -4 16 13 21 21 13 21 -2 0 -10 -8 -17
-17z"/>
<path d="M2215 840 c5 -8 42 -6 50 1 2 3 -8 5 -25 5 -16 0 -27 -3 -25 -6z"/>
<path d="M2995 840 c-3 -5 -1 -10 4 -10 6 0 11 5 11 10 0 6 -2 10 -4 10 -3 0
-8 -4 -11 -10z"/>
<path d="M2830 837 c0 -2 6 -10 14 -16 11 -9 16 -9 22 1 4 7 4 10 -1 6 -4 -4
-14 -3 -22 3 -7 6 -13 9 -13 6z"/>
<path d="M2895 831 c-3 -5 -2 -12 3 -15 5 -3 9 1 9 9 0 17 -3 19 -12 6z"/>
<path d="M2972 820 c2 -9 -3 -14 -12 -12 -8 2 -11 0 -7 -4 4 -4 14 -9 21 -10
14 -2 16 20 2 33 -4 4 -6 1 -4 -7z"/>
<path d="M2195 800 c3 -5 8 -10 11 -10 2 0 4 5 4 10 0 6 -5 10 -11 10 -5 0 -7
-4 -4 -10z"/>
<path d="M2818 778 c5 -5 16 -8 23 -6 8 3 3 7 -10 11 -17 4 -21 3 -13 -5z"/>
<path d="M2774 765 c-4 -8 -10 -13 -14 -10 -4 3 -11 -2 -14 -11 -3 -8 -10 -12
-16 -9 -12 7 -30 -36 -30 -70 0 -33 20 -75 37 -75 7 0 13 -4 13 -10 0 -5 9
-10 19 -10 11 0 22 -4 25 -9 4 -5 19 -3 36 5 16 9 35 12 41 8 8 -4 9 -3 5 4
-4 7 -3 12 3 12 6 0 7 7 4 17 -4 10 -2 14 4 10 6 -4 14 0 17 9 4 10 2 13 -6 8
-7 -5 -8 -3 -2 7 11 18 13 59 2 59 -4 0 -8 7 -8 15 0 8 -5 15 -11 15 -5 0 -8
4 -4 9 6 10 -59 27 -84 22 -7 -1 -10 2 -6 8 3 6 4 11 0 11 -3 0 -8 -7 -11 -15z"/>
<path d="M2975 769 c-4 -6 -5 -12 -2 -15 2 -3 7 2 10 11 7 17 1 20 -8 4z"/>
<path d="M2150 758 c0 -4 4 -8 9 -8 6 0 12 4 15 8 3 5 -1 9 -9 9 -8 0 -15 -4
-15 -9z"/>
<path d="M2195 760 c-3 -5 -1 -10 4 -10 6 0 11 5 11 10 0 6 -2 10 -4 10 -3 0
-8 -4 -11 -10z"/>
<path d="M2324 699 c-4 -8 -3 -9 4 -5 7 4 12 3 12 -1 0 -5 -9 -14 -21 -21 -17
-11 -20 -11 -14 0 3 7 -1 4 -10 -7 -9 -11 -20 -19 -24 -18 -4 1 -7 -27 -7 -61
1 -50 4 -62 15 -58 8 3 12 1 8 -5 -4 -6 4 -14 18 -17 14 -4 23 -11 20 -16 -3
-6 1 -7 10 -4 8 4 21 1 29 -5 10 -8 16 -8 25 3 7 9 23 13 39 10 18 -3 22 -1
14 4 -11 7 -10 12 3 26 9 9 13 16 8 16 -4 0 0 5 10 11 14 8 15 14 7 24 -8 10
-7 16 7 24 17 10 17 10 -1 11 -11 0 -16 5 -13 14 3 7 -6 23 -19 35 -14 12 -23
25 -20 29 2 4 -12 6 -32 6 -21 -1 -42 2 -49 7 -7 7 -14 6 -19 -2z"/>
<path d="M3035 669 c-4 -6 -5 -12 -2 -15 2 -3 7 2 10 11 7 17 1 20 -8 4z"/>
<path d="M3693 635 c0 -8 4 -12 9 -9 4 3 8 9 8 15 0 5 -4 9 -8 9 -5 0 -9 -7
-9 -15z"/>
<path d="M1915 621 c-3 -5 -2 -12 3 -15 5 -3 9 1 9 9 0 17 -3 19 -12 6z"/>
<path d="M3391 607 c-13 -21 -12 -21 5 -5 10 10 16 20 13 22 -3 3 -11 -5 -18
-17z"/>
<path d="M3460 626 c0 -2 8 -10 18 -17 15 -13 16 -12 3 4 -13 16 -21 21 -21
13z"/>
<path d="M3580 620 c-9 -6 -10 -10 -3 -10 6 0 15 5 18 10 8 12 4 12 -15 0z"/>
<path d="M1657 609 c7 -7 15 -10 18 -7 3 3 -2 9 -12 12 -14 6 -15 5 -6 -5z"/>
<path d="M1710 605 c0 -7 30 -13 34 -7 3 4 -4 9 -15 9 -10 1 -19 0 -19 -2z"/>
<path d="M1950 601 c0 -6 4 -13 10 -16 6 -3 7 1 4 9 -7 18 -14 21 -14 7z"/>
<path d="M3270 599 c0 -5 5 -7 10 -4 6 3 10 8 10 11 0 2 -4 4 -10 4 -5 0 -10
-5 -10 -11z"/>
<path d="M1245 580 c-3 -6 1 -7 9 -4 18 7 21 14 7 14 -6 0 -13 -4 -16 -10z"/>
<path d="M1550 579 c0 -5 5 -7 10 -4 6 3 10 8 10 11 0 2 -4 4 -10 4 -5 0 -10
-5 -10 -11z"/>
<path d="M1587 579 c7 -7 15 -10 18 -7 3 3 -2 9 -12 12 -14 6 -15 5 -6 -5z"/>
<path d="M3615 581 c-3 -5 -2 -12 3 -15 5 -3 9 1 9 9 0 17 -3 19 -12 6z"/>
<path d="M3370 576 c0 -2 8 -10 18 -17 15 -13 16 -12 3 4 -13 16 -21 21 -21
13z"/>
<path d="M3476 562 c-3 -5 1 -9 9 -9 8 0 12 4 9 9 -3 4 -7 8 -9 8 -2 0 -6 -4
-9 -8z"/>
<path d="M2627 378 c2 -5 -3 -8 -12 -8 -19 0 -47 -25 -38 -34 4 -3 -2 -6 -12
-6 -14 0 -15 -3 -6 -14 9 -10 9 -16 1 -21 -8 -5 -8 -11 1 -21 9 -11 9 -14 0
-14 -8 0 -7 -6 3 -16 9 -8 13 -20 10 -26 -4 -7 -2 -8 4 -4 7 4 12 1 12 -7 0
-10 16 -14 58 -16 51 -2 60 1 80 24 12 14 22 32 22 40 0 8 4 15 8 15 5 0 9 7
9 15 0 8 -4 15 -8 15 -6 0 -24 48 -21 60 0 3 -8 7 -19 8 -42 4 -49 6 -49 13 0
4 -11 6 -24 5 -13 0 -22 -4 -19 -8z"/>
</g>
</svg>
