<svg id="Layer_1" data-name="Layer 1" xmlns="http://www.w3.org/2000/svg" viewBox="0 0 211.07 33.99"><defs><style>.cls-1,.cls-4{fill:#23bcba;}.cls-2,.cls-3{fill:none;stroke:#23bcba;stroke-linejoin:round;stroke-width:0.73px;}.cls-2{stroke-linecap:round;}.cls-4{font-size:25px;font-family:PTSans-Bold, PT Sans;font-weight:700;}.cls-5{letter-spacing:-0.01em;}</style></defs><title>Bioinformatics</title><path class="cls-1" d="M42.55,147.79c0-2.83,1.8-4.74,6.83-4.74h.26c.37,0,.51.15.51.55v1.07c0,.4-.14.55-.51.55h-.26c-3.23,0-4.22,1.1-4.22,2.83v8.22A3.39,3.39,0,0,1,44,159.1a1,1,0,0,0,0,1.63,3.4,3.4,0,0,1,1.21,2.84v8.48c0,1.73,1,2.83,4.22,2.83h.26c.37,0,.51.15.51.55v1.07c0,.4-.14.55-.51.55h-.26c-5,0-6.83-1.91-6.83-4.74v-8.52c0-1.68-1-2.79-4-2.79h0c-.36,0-.55-.14-.55-.55v-1.06c0-.4.19-.55.55-.55h0c3,0,4-1.1,4-2.83Z" transform="translate(-38 -143.05)"/><path class="cls-1" d="M78.67,156c0,1.73,1,2.83,4,2.83h0c.36,0,.51.15.51.55v1.06c0,.41-.15.55-.51.55h0c-3,0-4,1.11-4,2.79v8.52c0,2.83-1.83,4.74-6.86,4.74h-.22c-.37,0-.55-.15-.55-.55v-1.07c0-.4.18-.55.55-.55h.22c3.27,0,4.22-1.1,4.22-2.83v-8.48a3.39,3.39,0,0,1,1.24-2.84,1,1,0,0,0,0-1.63A3.38,3.38,0,0,1,76,156.27v-8.22c0-1.73-1-2.83-4.22-2.83h-.22c-.37,0-.55-.15-.55-.55V143.6c0-.4.18-.55.55-.55h.22c5,0,6.86,1.91,6.86,4.74Z" transform="translate(-38 -143.05)"/><path class="cls-2" d="M66.25,148H55v7.88H66.25Z" transform="translate(-38 -143.05)"/><path class="cls-2" d="M66.25,170.56H55a2.26,2.26,0,0,1-2.25-2.26V155.91H68.5V168.3A2.26,2.26,0,0,1,66.25,170.56Z" transform="translate(-38 -143.05)"/><path class="cls-3" d="M58.36,150.28v3.38" transform="translate(-38 -143.05)"/><path class="cls-3" d="M62.87,150.28v3.38" transform="translate(-38 -143.05)"/><path class="cls-1" d="M58.36,150.28v3.38" transform="translate(-38 -143.05)"/><path class="cls-1" d="M62.87,150.28v3.38" transform="translate(-38 -143.05)"/><path class="cls-1" d="M52.73,155.91V168.3A2.26,2.26,0,0,0,55,170.56H66.25a2.26,2.26,0,0,0,2.25-2.26V155.91Zm3.77,4.38L59,157.75a2.83,2.83,0,0,0-.35-.26.38.38,0,0,1-.13-.52.39.39,0,0,1,.53-.13s2.86,1.83,2.31,4.95a.26.26,0,0,1-.19.2l-.27.08a.25.25,0,0,1-.32-.29,3.69,3.69,0,0,0,.06-1.18l-.6.6a.28.28,0,0,1-.4,0,.3.3,0,0,1,0-.41l.87-.87a4.27,4.27,0,0,0-1.09-1.79l-2.56,2.56a.28.28,0,1,1-.4-.4Zm10.16,4.65a.1.1,0,0,1,0,0,.38.38,0,0,1-.53-.09,2.82,2.82,0,0,0-.29-.35l-3.51,3.51c.2.19.34.3.35.31a.38.38,0,0,1,.08.53l0,0a.38.38,0,0,1-.49,0,5.93,5.93,0,0,1-2.27-4.57.24.24,0,0,1,.19-.22l.26-.07a.24.24,0,0,1,.32.25,4,4,0,0,0,0,.78l1.52-1.52a.27.27,0,0,1,.4,0,.28.28,0,0,1,0,.4l-1.78,1.78a4.74,4.74,0,0,0,.28.69l.86-.85a.28.28,0,1,1,.4.4l-1,1a7.11,7.11,0,0,0,.48.64l3.49-3.5a5.2,5.2,0,0,0-.6-.45s0,0,0,0l-1.42,1.41a.28.28,0,0,1-.4-.4l1.33-1.33a4.15,4.15,0,0,0-3.54.05c-3.63,1.59-6.12-2.06-6.15-2.1a.38.38,0,0,1,.11-.52.37.37,0,0,1,.52.1,6,6,0,0,0,1.24,1.28l2.69-2.7a.3.3,0,0,1,.41,0,.28.28,0,0,1,0,.4l-2.62,2.62a4.76,4.76,0,0,0,.68.33l1.06-1.07a.3.3,0,0,1,.41,0,.28.28,0,0,1,0,.4l-.84.84a3.7,3.7,0,0,0,2.19-.27,5.17,5.17,0,0,1,6.28,1.69A.38.38,0,0,1,66.66,164.94Z" transform="translate(-38 -143.05)"/><text class="cls-4" transform="translate(50.02 24.21)">Bioin<tspan class="cls-5" x="55.27" y="0">f</tspan><tspan x="63.17" y="0">ormatics </tspan></text></svg>